<svg width="382" height="212" viewBox="0 0 382 212" fill="none" xmlns="http://www.w3.org/2000/svg">
<path d="M30.7065 211.36C16.3191 210.156 15.9879 192.503 12.2127 181.823C8.96056 170.15 5.70885 158.485 2.48017 146.808C1.53307 143.406 0.356823 139.925 0.0094652 136.405C-0.442363 126.122 15.429 125.206 16.1318 135.566C16.1207 135.452 16.1098 135.338 16.0987 135.224C16.0926 135.199 16.0868 135.174 16.0643 134.857C21.4153 154.881 26.8272 174.923 32.7939 194.774C45.4608 190.207 89.076 138.53 99.3395 155.191C101.723 158.971 100.476 163.921 96.8062 166.337C84.5387 173.77 72.9866 182.113 62.6515 192.093C53.1217 199.633 43.8154 211.303 30.7065 211.36Z" fill="#D70427"/>
<path d="M29.2722 202.304C25.9767 200.463 25.0577 194.844 26.3196 192.161C28.9768 182.45 32.453 172.991 35.7274 163.475C51.3777 120.991 73.1784 78.7514 105.853 46.884C126.925 27.19 153.539 14.8949 180.935 6.70038C210.013 -6.15208 248.737 -1.59439 263.431 29.8259C283.684 21.8845 305.896 22.0516 325.256 32.4629C344.671 41.2525 361.434 55.4483 371.008 74.7149C373.926 83.0899 387.971 94.8317 377.89 102.5C374.18 104.836 369.057 103.708 366.737 99.9663C358.244 86.5307 352.442 70.7894 339.869 60.4107C319.091 43.9653 293.731 33.9378 268.079 45.3018C271.445 70.8782 271.385 103.063 248.17 119.566C230.118 131.269 204.887 138.09 185.12 126.796C156.593 110.771 172.633 76.0024 191.883 59.3002C206.517 43.4419 228.775 42.103 247.867 34.857C228.902 2.95157 191.327 19.6702 164.268 29.5502C129.199 42.4124 102.091 69.2725 83.6028 101.178C66.3652 128.161 53.8605 157.829 44.3456 188.336C49.2016 196.16 36.7533 207.774 29.2722 202.304ZM209.85 116.429C250.264 112.072 256.795 86.1316 252.481 50.3456C238.555 56.2637 222.476 56.8044 209.752 65.3461C188.806 80.0469 168.672 116.185 209.85 116.429Z" fill="#D70427"/>
</svg>
