<svg width="946" height="143" viewBox="0 0 946 143" fill="none" xmlns="http://www.w3.org/2000/svg">
<path d="M3.60468 136.781C-3.5223 112.977 -1.14659 108.196 20.4409 102.998C29.737 100.712 39.343 99.5681 48.8456 98.009C53.5969 97.1774 58.3482 96.8656 63.0995 95.93C81.3818 92.6038 99.5608 90.4209 118.256 89.6933C141.496 88.7578 164.737 84.6 187.977 82.2093C215.348 79.4027 242.72 76.908 270.195 74.5173C284.552 73.2699 299.013 72.6463 313.37 71.8147C331.859 70.7753 350.348 69.424 368.837 69.0082C388.668 68.5924 408.5 69.2161 428.435 69.5279C435.252 69.6319 442.173 70.2555 448.99 69.8397C470.887 68.5924 492.681 66.8254 514.579 65.4741C526.25 64.7465 537.922 64.5385 549.594 64.1228C551.659 64.0188 553.932 64.1228 555.688 64.9544C565.81 69.8398 575.623 68.0727 585.642 64.5386C590.083 62.9794 595.144 62.9794 599.896 63.0833C623.859 63.2912 647.925 61.4202 671.889 66.2017C683.87 68.5924 696.472 67.6569 709.693 68.2806C714.237 75.7646 725.496 80.3383 719.092 93.3314C711.345 94.5788 703.392 95.9301 695.852 97.1774C685.11 94.2669 682.424 83.2487 674.987 77.6356C669.513 80.4422 673.954 83.4566 674.264 86.2631C675.297 95.7222 671.992 99.776 663.212 99.1523C659.081 98.8405 654.536 96.3458 651.127 97.5931C644.31 100.088 639.352 95.3064 633.775 95.0985C628.817 94.9946 623.756 100.192 618.591 100.4C604.234 101.023 589.67 101.543 575.623 99.4641C567.773 98.3208 560.852 97.8011 553.622 100.608C545.772 103.622 537.819 105.077 529.452 101.959C527.077 101.023 523.978 101.439 521.292 101.855C489.996 107.052 458.286 105.805 426.886 108.819C414.801 109.963 402.096 108.196 390.011 105.805C378.649 103.518 367.804 104.661 357.475 107.884C340.019 113.289 322.15 113.809 304.384 114.328C285.172 114.848 265.96 114.848 246.955 118.902C240.964 120.149 234.664 120.045 228.466 120.045C200.888 120.149 173.516 122.332 146.248 126.282C131.374 128.465 116.397 129.608 101.627 133.662C91.8141 136.365 81.1753 136.365 70.9496 136.573C59.8976 136.781 49.0522 136.677 38.5166 141.042C35.0048 142.497 30.3568 142.705 26.5351 142.082C19.0982 140.938 11.8679 138.755 3.60468 136.781Z" fill="#D70427" fill-opacity="0.843137"/>
<path d="M35.0047 54.9755C57.5219 50.6098 78.1798 46.452 98.9411 42.8139C111.749 40.5271 124.763 38.9679 137.571 37.0969C142.323 36.3693 147.281 36.3693 151.825 35.018C164.53 31.3799 177.648 31.4839 190.456 29.301C209.254 26.1827 228.776 27.534 247.162 21.2973C250.983 20.0499 255.321 19.3223 259.35 19.6341C277.425 21.1933 294.985 16.9315 312.647 14.9566C325.662 13.5013 338.676 12.4619 351.691 12.0461C367.391 11.5264 383.194 14.229 398.791 8.82384C403.129 7.3686 408.293 8.51198 413.148 8.40803C416.557 8.40803 420.275 9.13566 423.374 8.09621C443.515 1.44371 464.277 4.25019 484.728 4.35414C506.006 4.45808 526.973 3.0029 547.941 0.508215C551.35 0.0924334 554.861 -0.219453 558.27 0.196328C576.139 2.58707 593.905 -0.219415 611.774 0.300311C628.92 0.716092 646.066 0.404244 663.109 0.612134C680.875 0.820025 698.641 2.58712 716.51 2.58712C720.641 2.58712 725.186 2.58707 728.698 4.35414C735.928 7.88828 742.642 7.05673 750.389 6.12122C761.028 4.87388 772.286 6.43307 782.925 8.40803C795.01 10.6948 807.818 5.49754 819.283 12.6698C819.799 12.9816 820.729 13.0856 821.245 12.8777C839.838 4.97782 845.519 18.6986 851.819 31.276C852.439 32.4194 852.646 33.7707 853.162 35.2259C849.857 38.6561 847.068 35.2259 844.073 34.4983C824.757 29.7168 805.442 25.3511 785.507 30.1326C779.93 31.4839 774.765 32.1076 769.807 28.3655C764.23 24.2077 758.032 24.3117 752.145 27.0143C739.234 32.9391 725.909 31.1721 713.824 27.0143C700.603 22.3367 687.899 25.0393 676.123 27.7418C662.489 30.8602 649.165 31.5878 635.427 32.0036C607.952 32.9391 580.477 34.6022 553.002 36.2654C530.382 37.6166 507.865 39.2798 485.141 38.0324C444.548 35.8496 404.472 41.4626 364.189 45.5165C339.503 48.0112 314.92 50.4019 290.233 52.7927C286.825 53.1045 283.416 53.6242 279.904 53.6242C239.931 53.8321 200.681 59.9649 161.638 68.0727C156.99 69.0082 152.135 69.6318 147.384 69.9437C128.792 71.2949 110.716 74.6212 93.4667 82.2092C79.0061 88.5498 63.7192 86.1591 48.6389 85.0157C43.3712 84.5999 40.0659 80.65 38.8264 75.5567C37.5869 69.6318 36.6574 63.499 35.0047 54.9755Z" fill="#D70427" fill-opacity="0.843137"/>
<path d="M903.671 22.8564C903.774 28.4694 899.952 29.8207 896.957 30.1326C887.454 31.172 877.951 31.6917 868.449 31.7957C865.04 31.7957 861.425 29.6128 862.148 25.455C862.458 23.584 865.763 20.9854 867.726 20.7775C879.811 20.1538 891.896 19.842 903.671 22.8564Z" fill="#D70427" fill-opacity="0.843137"/>
<path d="M945.09 44.1658C935.071 39.3843 927.737 36.058 920.507 32.4199C918.854 31.5883 917.408 29.6134 916.892 27.8463C916.272 26.0793 916.272 23.5845 917.202 22.0254C918.028 20.5701 920.507 19.2189 922.159 19.3228C934.244 20.5702 940.752 27.0148 945.09 44.1658Z" fill="#D70427" fill-opacity="0.843137"/>
<path d="M756.586 91.1483C748.22 92.9154 740.783 91.5641 731.384 86.2629C743.055 81.5854 750.389 84.184 756.586 91.1483Z" fill="#D70427" fill-opacity="0.843137"/>
<path d="M744.295 75.1411C739.853 75.1411 738.097 75.4529 736.548 75.0371C734.895 74.6213 733.449 73.374 731.59 72.3346C735.928 70.0478 739.13 70.5675 744.295 75.1411Z" fill="#D70427" fill-opacity="0.843137"/>
<path d="M779.207 85.9518C777.967 87.4071 777.038 89.1742 776.418 89.0702C774.662 88.7584 772.906 87.8229 771.15 87.0953C772.183 85.8479 773.216 83.6651 774.352 83.5611C775.901 83.4572 777.554 85.0163 779.207 85.9518Z" fill="#D70427" fill-opacity="0.843137"/>
</svg>
