<svg width="640" height="640" viewBox="0 0 640 640" fill="none" xmlns="http://www.w3.org/2000/svg">
<g clip-path="url(#clip0_179_971)">
<path d="M320 640C496.731 640 640 496.731 640 320C640 143.269 496.731 0 320 0C143.269 0 0 143.269 0 320C0 496.731 143.269 640 320 640Z" fill="#F2F2F2"/>
<mask id="mask0_179_971" style="mask-type:luminance" maskUnits="userSpaceOnUse" x="0" y="0" width="640" height="640">
<path d="M320 640C496.731 640 640 496.731 640 320C640 143.269 496.731 0 320 0C143.269 0 0 143.269 0 320C0 496.731 143.269 640 320 640Z" fill="white"/>
</mask>
<g mask="url(#mask0_179_971)">
<path d="M274.535 264.956C274.535 264.956 288.39 369.394 267.075 381.122C245.76 392.85 393.898 393.911 393.898 393.911C393.898 393.911 360.86 303.323 375.78 275.611L274.535 264.956Z" fill="#FFB9B9"/>
<path d="M329.423 320.462C370.036 320.462 402.959 287.539 402.959 246.926C402.959 206.313 370.036 173.39 329.423 173.39C288.81 173.39 255.887 206.313 255.887 246.926C255.887 287.539 288.81 320.462 329.423 320.462Z" fill="#FFB9B9"/>
<path d="M502.07 394.439L489.75 450.539L463.7 569.229L462.92 575.729L453.93 650.979L447.95 700.969L443.94 734.549C419.56 747.079 401.89 755.729 401.89 755.729C401.89 755.729 400.37 748.109 397.92 738.359C380.81 743.489 349.15 751.999 322.32 753.699C332.09 764.589 181.2 487.579 175.41 450.539C170.75 420.729 167.25 395.539 166.51 390.179C166.41 389.479 166.36 389.119 166.36 389.119L278.79 339.439C286.78 357.969 324.09 363.539 324.09 363.539C355 361.409 379.23 345.109 379.23 345.109L502.07 394.439Z" fill="#D90429"/>
<path d="M391.795 177.368L405.544 171.868C405.544 171.868 376.795 140.217 336.797 142.968L348.047 130.583C348.047 130.583 320.547 119.574 295.547 148.473C282.406 163.664 267.201 181.521 257.722 201.636H242.996L249.142 215.168L227.633 228.7L249.71 226.269C248.394 233.679 248.192 241.244 249.11 248.714C250.057 256.187 253.87 262.999 259.744 267.714C259.744 267.714 276.796 232.414 276.796 226.914V240.675C276.796 240.675 290.546 228.29 290.546 220.033L298.046 229.666L301.796 214.529L348.044 229.666L340.544 217.281L369.293 221.409L358.043 206.272C358.043 206.272 390.543 224.162 391.792 239.299C393.041 254.436 402.554 268.78 402.554 268.78C402.554 268.78 428.044 198.01 391.795 177.368Z" fill="#090814"/>
<path d="M582 652.349C574.51 660.469 555.95 672.699 533.45 685.939C525.08 690.859 516.17 695.929 507.08 700.969C485.39 712.999 462.68 724.919 443.94 734.549C419.56 747.079 401.89 755.729 401.89 755.729C401.89 755.729 400.37 748.109 397.92 738.359C394.64 725.309 389.7 708.439 384.55 700.969C384.37 700.709 384.19 700.469 384.01 700.229C382.51 698.259 381 697.109 379.51 697.109L453.93 650.979L486.09 631.039L462.92 575.729L433.86 506.349L451.4 450.539L469.03 394.439H502.07C502.07 394.439 513.01 418.319 527 451.619C529.09 456.599 531.25 461.789 533.45 467.149C562.23 537.149 598.113 634.894 582 652.349Z" fill="#D90429"/>
<path d="M249.49 700.309C246.776 700.299 244.067 700.52 241.39 700.969C218.4 704.919 211.62 725.729 209.69 739.669C209.072 743.926 208.838 748.23 208.99 752.529L188.68 736.909L181.28 731.219C163.47 725.009 147.6 713.979 133.84 700.969C121.903 689.483 111.195 676.785 101.89 663.079C92.6219 649.571 84.3596 635.399 77.1701 620.679C75.1641 616.571 74.0858 612.073 74.0114 607.502C73.9371 602.931 74.8687 598.4 76.7401 594.229L101.89 538.179L138.65 456.259C138.917 454.309 139.213 452.403 139.54 450.539C146.83 408.739 166.36 390.179 166.36 390.179H181.28L191.26 450.539L203.66 525.529L194.97 553.869L174.89 619.319L194.08 640.159L249.49 700.309Z" fill="#D90429"/>
<path d="M521.194 478.744H354.751V475.313H279.279V478.744H112.15C109.165 478.744 106.302 479.93 104.191 482.041C102.08 484.151 100.893 487.014 100.892 489.999V717.914C100.892 719.393 101.183 720.857 101.749 722.223C102.315 723.589 103.144 724.83 104.19 725.875C105.235 726.921 106.476 727.75 107.842 728.316C109.208 728.882 110.673 729.173 112.151 729.173H521.194C522.673 729.173 524.137 728.882 525.503 728.316C526.869 727.75 528.11 726.921 529.155 725.875C530.201 724.83 531.03 723.589 531.596 722.223C532.162 720.857 532.453 719.393 532.453 717.914V489.999C532.453 488.52 532.162 487.056 531.596 485.69C531.03 484.324 530.201 483.083 529.155 482.038C528.11 480.992 526.869 480.163 525.503 479.597C524.137 479.031 522.673 478.74 521.194 478.74V478.744Z" fill="#090814"/>
<path d="M320.445 583.314C334.252 583.314 345.445 572.121 345.445 558.314C345.445 544.507 334.252 533.314 320.445 533.314C306.638 533.314 295.445 544.507 295.445 558.314C295.445 572.121 306.638 583.314 320.445 583.314Z" fill="#F2F2F2"/>
</g>
</g>
<defs>
<clipPath id="clip0_179_971">
<rect width="640" height="640" fill="white"/>
</clipPath>
</defs>
</svg>
