<svg width="170" height="115" viewBox="0 0 170 115" fill="none" xmlns="http://www.w3.org/2000/svg">
<path d="M66.5169 17.3881H63.4359L63.0864 20.5527H66.5169V17.3881Z" fill="#ED9DA0"/>
<path d="M65.7079 12.4303C63.9139 12.3157 62.3575 13.5471 62.2317 15.1806C62.1059 16.8141 63.4582 18.2312 65.2522 18.3458C67.0462 18.4603 68.6025 17.229 68.7283 15.5955C68.8542 13.962 67.5018 12.5449 65.7079 12.4303Z" fill="#ED9DA0"/>
<path d="M64.3715 10.9634C64.3586 10.933 64.3359 10.9068 64.3065 10.8882C64.277 10.8696 64.2422 10.8595 64.2064 10.8591C65.6998 10.873 67.2532 11.1313 68.4407 11.9567C68.7131 12.1738 69.005 12.3698 69.3133 12.5426C69.3284 12.5499 69.341 12.5606 69.3502 12.5737C69.3593 12.5868 69.3645 12.6018 69.3653 12.6173C69.3662 12.6328 69.3626 12.6482 69.355 12.6621C69.3473 12.6759 69.3359 12.6878 69.3217 12.6964L69.2837 12.7198C69.2685 12.729 69.2564 12.7418 69.2487 12.7569C69.241 12.7719 69.238 12.7886 69.2401 12.8051C69.2422 12.8217 69.2492 12.8373 69.2605 12.8504C69.2717 12.8635 69.2867 12.8735 69.3038 12.8793C69.3214 12.8855 69.3367 12.8961 69.348 12.9099C69.3592 12.9237 69.3658 12.9402 69.3671 12.9573C69.3684 12.9745 69.3643 12.9916 69.3553 13.0067C69.3463 13.0218 69.3327 13.0342 69.3162 13.0425L69.028 13.1874C69.0136 13.1947 69.0014 13.2051 68.9925 13.2177C68.9836 13.2304 68.9783 13.2449 68.9772 13.2598C68.976 13.2748 68.979 13.2898 68.9859 13.3035C68.9927 13.3171 69.0032 13.329 69.0164 13.338C69.0388 13.3527 69.0625 13.3656 69.0872 13.3767C69.1026 13.3831 69.1159 13.3931 69.1259 13.4056C69.1359 13.4181 69.1422 13.4327 69.1441 13.448C69.1461 13.4634 69.1437 13.4789 69.1371 13.4932C69.1306 13.5074 69.1201 13.5199 69.1067 13.5294C68.9797 13.6187 68.8786 13.7349 68.8122 13.8679C68.7154 14.0851 68.6557 14.3145 68.6352 14.5482C68.5659 14.206 68.1783 13.9824 67.7993 13.9379C67.4172 13.9215 67.0344 13.9568 66.6636 14.0426C65.8431 14.1696 65.0029 14.1455 64.1929 13.9716C64.4318 14.4978 64.1504 15.0893 63.8737 15.6001L63.1323 15.2528C62.1238 14.6452 62.68 16.9758 63.0478 17.3142C62.2255 17.5152 60.3441 14.5729 61.1009 13.5508C61.4947 13.019 61.3004 12.2885 62.0313 11.8061C62.3955 11.5035 63.0587 11.6908 63.4244 11.4433C63.5683 11.346 63.3832 11.049 63.5746 10.999C63.8389 10.9694 64.1053 10.9575 64.3715 10.9634Z" fill="#2F2E41"/>
<path d="M67.3521 18.9615L68.0735 20.0295L72.6044 21.5324L72.2327 31.7828L71.8282 32.8676L72.1609 33.766L71.5797 34.4821C72.2561 34.9652 72.3786 35.5081 72.0765 36.0971L70.0857 36.6483C70.0857 36.6483 58.9061 38.2776 59.7319 36.6302C60.6342 34.8302 60.5037 29.6925 58.006 27.1022C55.8855 24.9028 57.1439 21.7931 57.1439 21.7931L61.6523 20.2458L63.2761 19.2218L67.3521 18.9615Z" fill="#3F3D56"/>
<path d="M46.9064 28.0151C47.0306 28.1771 47.1924 28.3123 47.3802 28.4112C47.5681 28.5101 47.7775 28.5704 47.9936 28.5877C48.2098 28.605 48.4275 28.5789 48.6314 28.5113C48.8354 28.4438 49.0205 28.3363 49.1739 28.1966L53.9242 30.2893L53.5631 27.8144L49.1076 26.2064C48.8324 25.9874 48.4786 25.8679 48.1132 25.8706C47.7477 25.8732 47.396 25.9978 47.1247 26.2208C46.8535 26.4437 46.6814 26.7495 46.6411 27.0803C46.6009 27.411 46.6953 27.7437 46.9064 28.0153L46.9064 28.0151Z" fill="#ED9DA0"/>
<path d="M61.0394 20.571C60.6289 23.0186 59.5337 28.7421 58.0731 30.0178C57.9813 30.1086 57.8682 30.1795 57.7423 30.2253C52.3838 31.7829 50.3993 28.8097 50.3993 28.8097C50.3993 28.8097 51.8102 28.0682 51.7497 26.7985L54.7607 27.4427L56.9233 22.0157L57.2765 21.6707L57.2785 21.6687L61.0394 20.571Z" fill="#3F3D56"/>
<path d="M72.1475 71.3878C73.3643 71.5297 74.6268 71.6199 75.7921 71.2758C75.9757 71.2239 76.1775 71.1087 76.1592 70.9415C76.1461 70.8808 76.1178 70.8236 76.0766 70.7744C75.6373 70.1746 75.2683 69.5344 74.9756 68.8646C74.9639 68.8296 74.9401 68.7991 74.9076 68.7777C74.8696 68.7652 74.8281 68.7652 74.7901 68.7777C74.2525 68.9063 73.7881 69.2226 73.254 69.358C72.9818 69.426 72.6976 69.4453 72.4173 69.4148C72.1751 69.3897 71.8437 69.2077 71.6245 69.2311C71.7492 69.9609 72.0538 70.6425 72.1475 71.3878Z" fill="#D90429"/>
<path d="M95.1578 69.5375C95.9597 69.0362 96.791 68.5099 97.2645 67.7362C97.2982 67.6901 97.3178 67.6367 97.3214 67.5814C97.3133 67.5268 97.2899 67.475 97.2534 67.431C96.8024 66.7781 96.2218 66.2074 95.5412 65.7482C95.1862 65.9766 94.8654 66.2462 94.587 66.5503C94.3852 66.7437 93.8274 67.0517 93.8223 67.3474C93.8223 67.5145 94.0347 67.7083 94.1343 67.8488C94.2684 68.0292 94.395 68.213 94.5167 68.4002C94.5853 68.4921 95.2219 69.5014 95.1578 69.5375Z" fill="#D90429"/>
<path d="M76.917 73.6253C76.9313 73.7975 76.8794 73.9688 76.7702 74.1099C76.6845 74.1883 76.5785 74.2458 76.4619 74.277C74.7608 74.8317 72.7916 74.14 71.0943 74.6865C70.7457 74.7985 70.4145 74.9605 70.0649 75.0675C69.647 75.1819 69.2159 75.2514 68.7803 75.2747C68.1802 75.3265 67.5765 75.36 66.9747 75.3749C66.5174 75.4043 66.0578 75.3676 65.613 75.2662C65.3906 75.2142 65.1827 75.1202 65.0028 74.9902C64.8229 74.8602 64.6751 74.6972 64.569 74.5118C64.4767 74.3457 64.4583 74.1536 64.5175 73.9754C64.5442 73.9143 64.582 73.8578 64.6295 73.8083C64.7445 73.6908 64.8796 73.591 65.0295 73.5126L65.6553 73.1451C65.9487 72.9561 66.2676 72.8023 66.604 72.6872C66.8517 72.6137 67.1138 72.582 67.3656 72.5201C68.2446 72.2863 68.9163 71.6512 69.5402 71.0414L70.3916 70.2143C70.4712 70.1233 70.5722 70.0497 70.6871 69.9988C70.8052 69.963 70.9308 69.9521 71.0542 69.9671C71.8813 70.0209 72.6799 70.2646 73.3756 70.6756C73.5537 70.7971 73.746 70.9003 73.9491 70.9832C74.4483 71.1603 75.0888 71.0267 75.5494 70.8027C75.7677 70.6957 75.7193 70.6356 75.8117 70.445C75.9041 70.2545 76.1274 70.1327 76.3215 70.3064C76.3802 70.3665 76.4218 70.4388 76.4426 70.517C76.6261 71.0685 76.5565 71.6617 76.5565 72.2398C76.5511 72.3302 76.5636 72.4208 76.5932 72.5072C76.64 72.5943 76.6959 72.6771 76.7602 72.7545C76.7732 72.775 76.7849 72.7962 76.795 72.818C76.9073 73.074 76.9495 73.351 76.918 73.6251L76.917 73.6253Z" fill="#514E7F"/>
<path d="M76.9168 73.6252C76.9312 73.7973 76.8793 73.9686 76.77 74.1097C76.6844 74.1881 76.5784 74.2456 76.4618 74.2768C74.7607 74.8316 72.7915 74.1399 71.0942 74.6863C70.7456 74.7983 70.4144 74.9604 70.0648 75.0674C69.6469 75.1817 69.2158 75.2513 68.7802 75.2745C68.1801 75.3264 67.5764 75.3598 66.9746 75.3747C66.5172 75.4042 66.0577 75.3675 65.6129 75.266C65.3905 75.2141 65.1826 75.12 65.0027 74.9901C64.8228 74.8601 64.675 74.6971 64.5688 74.5117C64.4762 74.3458 64.4572 74.1539 64.5159 73.9757C64.5425 73.9146 64.5804 73.8581 64.6279 73.8086C64.7269 73.9973 64.7978 74.248 64.8616 74.3382C64.9459 74.4717 65.0606 74.5874 65.1979 74.6775C65.3352 74.7675 65.4921 74.8299 65.6579 74.8604C65.9063 74.8742 66.1553 74.8453 66.3919 74.7751C67.9335 74.4269 69.5721 74.4225 71.053 73.8962C71.5613 73.714 72.0459 73.4718 72.5797 73.3616C73.1135 73.2513 73.6807 73.2813 74.2313 73.2395C75.1012 73.1761 75.9435 72.937 76.8004 72.8116C76.9111 73.0698 76.9508 73.3487 76.916 73.624L76.9168 73.6252Z" fill="#464353"/>
<path d="M99.054 69.4361C98.9732 70.0243 98.5639 70.5305 98.1144 70.9601C97.6649 71.3897 97.1566 71.7756 96.7986 72.2702C96.3583 72.8833 96.1601 73.6435 95.5878 74.1617C95.368 74.35 95.1211 74.5102 94.8538 74.6379C94.5544 74.7987 94.2377 74.9314 93.9087 75.0338C93.0535 75.2827 92.1324 75.2261 91.2387 75.1657C90.9486 75.1632 90.6614 75.1128 90.3909 75.017C90.2678 74.9601 90.15 74.8941 90.0385 74.8199C89.8145 74.6943 89.6259 74.5225 89.4879 74.3185C89.4202 74.2076 89.4011 74.0775 89.4346 73.9543C89.4856 73.8187 89.5733 73.6969 89.6895 73.6001C89.8906 73.4097 90.1065 73.2328 90.3355 73.0705C90.6499 72.886 90.9333 72.6608 91.1767 72.4021C91.3259 72.1977 91.4358 71.9716 91.5015 71.7336C91.6315 71.3166 91.7108 70.888 91.7382 70.4553C91.7372 70.1677 91.7698 69.8809 91.8355 69.5997C91.9712 69.1585 92.331 68.7643 92.2905 68.308C92.2741 68.2427 92.2805 68.1744 92.3087 68.1125C92.3515 68.0642 92.4111 68.0306 92.4776 68.0173C92.758 67.9156 93.0538 67.853 93.3547 67.8318C93.5057 67.8223 93.6571 67.8433 93.798 67.8935C93.9389 67.9437 94.0658 68.0217 94.1696 68.122C94.2943 68.2589 94.3769 68.4562 94.5605 68.5088C94.6514 68.5314 94.7468 68.5349 94.8394 68.5189C95.2908 68.4771 95.7679 68.4253 96.1239 68.1597C96.2884 68.0254 96.4206 67.8615 96.5122 67.6784C96.6037 67.4954 96.6527 67.297 96.6561 67.0958C96.6561 66.9438 96.5809 66.785 96.8396 66.7616C97.0342 66.7382 97.1882 66.9287 97.2874 67.0458C97.6453 67.4819 98.0122 67.938 98.1463 68.4694C98.1984 68.4509 98.2537 68.4413 98.3096 68.4409C98.4241 68.44 98.5371 68.4643 98.639 68.5117C98.741 68.5591 98.8288 68.6283 98.8951 68.7133C99.0412 68.9288 99.0978 69.1849 99.0546 69.4351L99.054 69.4361Z" fill="#514E7F"/>
<path d="M99.0543 69.4363C98.9736 70.0245 98.5643 70.5307 98.1148 70.9603C97.6653 71.3899 97.1569 71.7758 96.799 72.2704C96.3586 72.8836 96.1604 73.6437 95.5882 74.1619C95.3684 74.3503 95.1215 74.5105 94.8542 74.6381C94.5548 74.799 94.2381 74.9316 93.9091 75.0341C93.0539 75.283 92.1328 75.2263 91.2391 75.166C90.949 75.1634 90.6617 75.113 90.3913 75.0172C90.2682 74.9603 90.1503 74.8944 90.0389 74.8201C89.8148 74.6945 89.6262 74.5228 89.4883 74.3188C89.6603 74.2435 89.848 74.2024 90.0389 74.1985C90.4353 74.2178 90.7253 74.5594 91.1051 74.6646C91.6463 74.8133 92.1859 74.4658 92.7346 74.3472C93.0925 74.2698 93.4688 74.2903 93.8229 74.1801C94.118 74.0761 94.3907 73.9255 94.6284 73.7352C94.9542 73.5234 95.2442 73.2692 95.4892 72.9809C95.6925 72.6921 95.8617 72.3846 95.9939 72.0634C96.2834 71.448 96.6243 70.8536 97.0135 70.2855C97.0711 70.1955 97.1408 70.1124 97.2209 70.0381C97.3103 69.9712 97.4041 69.9092 97.5017 69.8526C97.8688 69.6011 98.0211 69.1841 98.1494 68.7766C98.1842 68.6527 98.2327 68.5323 98.2943 68.4174C98.4087 68.4165 98.5217 68.4407 98.6237 68.4881C98.7256 68.5356 98.8135 68.6047 98.8797 68.6897C99.0376 68.9103 99.0999 69.1764 99.0543 69.4363Z" fill="#464353"/>
<path d="M69.1378 42.6942C69.38 43.5296 69.0294 44.4085 68.7433 45.2358C68.3123 46.4817 68.0185 47.7635 67.8662 49.0623C67.8475 49.3927 67.7745 49.7187 67.6497 50.0294C67.514 50.3085 67.2827 50.5441 67.1248 50.8097C66.6917 51.5082 66.7027 52.3604 66.7964 53.159C66.8589 53.6853 66.9523 54.2101 67.0681 54.7281C67.2094 55.3614 67.3838 56.024 67.1801 56.6413C67.5214 56.5728 67.7536 56.9755 67.7307 57.2914C67.7077 57.6072 67.5966 57.9598 67.7638 58.2322C68.1859 58.3726 68.1887 58.9006 68.1768 59.3099C68.1837 60.0198 68.2823 60.7264 68.4703 61.4154C69.1089 64.2114 69.7867 66.9997 70.5037 69.7802C72.0544 70.2179 73.8656 70.6742 75.3447 70.0676C75.4877 70.0239 75.6175 69.9505 75.7239 69.8531C75.8303 69.7557 75.9103 69.6371 75.9576 69.5067C75.9737 69.3608 75.9537 69.2135 75.8989 69.0756L75.1979 66.7529C75.028 66.192 74.8566 65.6117 74.9464 65.0351C75.0144 64.6057 75.2198 64.1428 74.9889 63.7635C74.9101 63.6332 74.7852 63.5314 74.6934 63.4076C74.3263 62.9181 74.519 62.2629 74.5485 61.6699C74.56 61.5368 74.5501 61.4028 74.5192 61.2722C74.4689 61.1197 74.3987 60.9733 74.31 60.8361C73.7307 59.8119 73.4526 58.6686 73.5028 57.5175C73.5248 57.3706 73.5028 57.2211 73.439 57.0848C73.3945 57.0285 73.3546 56.9693 73.3196 56.9076C73.2922 56.8003 73.3058 56.6878 73.3581 56.5885C73.1477 56.4431 72.9579 56.2747 72.7928 56.0871C72.8946 56.0295 72.9807 55.9516 73.0446 55.8592C73.1085 55.7669 73.1485 55.6625 73.1615 55.554C73.1746 55.4455 73.1604 55.3357 73.1201 55.233C73.0797 55.1302 73.0142 55.0371 72.9286 54.9608C73.0034 54.947 73.0725 54.9147 73.1284 54.8673C73.1842 54.8199 73.2245 54.7594 73.2449 54.6924C73.2652 54.6254 73.2647 54.5546 73.2436 54.4878C73.2224 54.4211 73.1813 54.361 73.1248 54.3142C73.035 54.2573 72.9156 54.2323 72.8514 54.147C72.7525 54.0234 72.8332 53.8513 72.9139 53.7192L73.3415 53.0157C73.6602 52.4935 73.7324 51.8461 74.0755 51.3447C74.5395 50.5989 74.9183 49.8117 75.2058 48.9954L76.4408 45.8925L77.2721 46.5501C77.549 46.7427 77.7811 46.9836 77.9548 47.2586C78.073 47.5304 78.1477 47.8162 78.1768 48.1074C78.4814 49.7917 79.6449 51.2521 80.0761 52.9113C80.1715 53.2805 80.2359 53.6681 80.4689 53.984C80.5523 54.081 80.6272 54.1838 80.6928 54.2915C80.7536 54.4558 80.7852 54.6279 80.7865 54.8012C80.825 55.1406 80.9432 55.4685 81.1332 55.7626C81.3231 56.0567 81.5804 56.3101 81.8875 56.5057C82.2966 56.7614 82.805 56.9368 83.0272 57.3411C83.0716 57.4663 83.1333 57.5859 83.2107 57.697C83.4089 57.9142 83.8365 57.9393 83.9209 58.2117C83.9687 58.3637 83.8805 58.5459 83.974 58.6796C84.0272 58.7414 84.0975 58.7893 84.1777 58.8183L85.3724 59.3614C86.7083 59.9697 87.3904 61.3666 88.3765 62.3842C88.7169 62.7158 89.0182 63.0788 89.2757 63.4674C89.7006 64.1608 89.8979 65.0314 90.6172 65.4726C90.8103 65.5634 90.9862 65.6819 91.1381 65.8235C91.3639 66.0943 91.2813 66.4736 91.3014 66.8144C91.3216 67.1552 91.608 67.5612 91.964 67.4577C91.8393 67.8706 91.8393 68.3064 91.964 68.7193C93.5263 68.6458 95.0161 68.0961 96.1939 67.1585C96.5425 66.8812 96.8783 66.527 96.8821 66.1059C96.8875 66.0332 96.8696 65.9607 96.8307 65.897C96.7602 65.8147 96.6671 65.7508 96.5609 65.7115C95.4434 65.1601 95.1075 63.8819 94.5429 62.8442C94.0492 61.9285 93.3189 61.1397 92.7077 60.2892C91.3792 58.4596 90.4726 56.2455 88.4632 55.0374C88.0209 54.7716 87.5073 54.536 87.2851 54.0966C87.1621 53.8509 87.1474 53.5703 87.0501 53.3163C86.9528 53.0623 86.7198 52.8149 86.4226 52.8149C86.5879 52.4474 86.5547 51.9995 86.5658 51.6018C86.577 51.4255 86.5546 51.2488 86.4997 51.0795C86.4234 50.8971 86.3242 50.7233 86.2042 50.5615C85.68 49.7533 85.4178 48.8263 85.4482 47.888C85.4629 47.4045 85.5565 46.9072 85.3968 46.446C85.3161 46.2139 85.1748 46.0012 85.0782 45.7776C84.9315 45.3716 84.8541 44.9476 84.8487 44.5203L84.7387 42.9149C84.7221 42.3801 84.6459 41.8482 84.5112 41.3274C84.1441 40.0808 83.777 34.8591 82.5201 34.2709C81.2632 33.6827 79.1032 37.7013 77.6882 37.7798C77.0623 37.8035 76.4437 37.9122 75.8531 38.1023C74.9116 38.4232 74.1226 39.0212 73.3536 39.6062L70.7514 41.5963C70.2004 42.0091 69.7451 42.4035 69.1378 42.6942Z" fill="#464353"/>
<path d="M110.189 47.0505V44.9756C110.189 43.4479 109.522 41.9829 108.335 40.9027C107.149 39.8226 105.54 39.2158 103.862 39.2158H13.8513C12.1735 39.2158 10.5643 39.8226 9.37777 40.9027C8.19121 41.9829 7.52438 43.4479 7.52393 44.9756V48.8021L110.189 47.0505Z" fill="#33323D"/>
<path d="M38.8913 36.7824C38.8913 36.7824 38.6345 51.2962 41.4604 56.0719C44.2864 60.8475 45.4976 81.6233 45.4976 81.6233C45.4976 81.6233 75.1236 84.4138 95.7686 78.2815C116.414 72.1491 160.343 69.64 160.343 69.64L152.94 24.2087C152.94 24.2087 116.368 22.0733 95.5632 31.1079C74.7585 40.1426 38.8913 36.7824 38.8913 36.7824Z" fill="#8DD070"/>
<path d="M38.8913 36.7824C38.8913 36.7824 38.6345 51.2962 41.4604 56.0719C44.2864 60.8475 45.4976 81.6233 45.4976 81.6233C45.4976 81.6233 75.1236 84.4138 95.7686 78.2815C116.414 72.1491 160.343 69.64 160.343 69.64L152.94 24.2087C152.94 24.2087 116.368 22.0733 95.5632 31.1079C74.7585 40.1426 38.8913 36.7824 38.8913 36.7824Z" fill="#8D99AE"/>
<path d="M45.4485 42.0843C45.4485 42.0843 44.5217 54.06 46.8469 57.8871C49.1721 61.7142 49.2803 78.7963 49.2803 78.7963C49.2803 78.7963 75.9427 79.9226 94.9085 74.044C113.874 68.1655 153.73 64.3535 153.73 64.3535L149.2 27.1982C149.2 27.1982 116.223 26.8887 96.9764 35.1636C77.7299 43.4385 45.4485 42.0843 45.4485 42.0843Z" fill="#EDF2F4"/>
<path opacity="0.1" d="M96.6834 67.2407C100.477 66.8104 102.731 60.4558 101.717 53.0473C100.704 45.6387 96.807 39.9816 93.0134 40.4119C89.2198 40.8421 86.9661 47.1967 87.9795 54.6053C88.993 62.0139 92.8898 67.6709 96.6834 67.2407Z" fill="black"/>
<path d="M28.0459 43.8341C28.0459 43.8341 32.6906 57.7196 36.9846 61.4759C41.2787 65.2322 49.434 84.6675 49.434 84.6675C49.434 84.6675 78.5738 79.0449 96.156 67.435C113.738 55.825 154.707 41.1679 154.707 41.1679L132.354 0C132.354 0 96.826 8.18766 80.0716 22.5995C63.3172 37.0114 28.0459 43.8341 28.0459 43.8341Z" fill="#8DD070"/>
<path d="M28.0459 43.8341C28.0459 43.8341 32.6906 57.7196 36.9846 61.4759C41.2787 65.2322 49.434 84.6675 49.434 84.6675C49.434 84.6675 78.5738 79.0449 96.156 67.435C113.738 55.825 154.707 41.1679 154.707 41.1679L132.354 0C132.354 0 96.826 8.18766 80.0716 22.5995C63.3172 37.0114 28.0459 43.8341 28.0459 43.8341Z" fill="#8D99AE"/>
<path d="M36 47.1606C36 47.1606 39.1546 58.8188 42.6577 61.8098C46.1608 64.8007 52.0171 81.0257 52.0171 81.0257C52.0171 81.0257 77.771 74.646 93.8411 63.7514C109.911 52.8567 146.562 38.1073 146.562 38.1073L129.732 4C129.732 4 98.2435 12.9178 82.7129 26.1719C67.1823 39.4259 36 47.1606 36 47.1606Z" fill="#EDF2F4"/>
<path d="M93.3138 56.6756C96.7793 55.2062 96.7828 48.5284 93.3215 41.7605C89.8602 34.9925 84.2449 30.6972 80.7794 32.1666C77.3138 33.6361 77.3103 40.3138 80.7716 47.0818C84.2329 53.8498 89.8482 58.1451 93.3138 56.6756Z" fill="#8D99AE"/>
<path d="M112.62 49.821V107.469C112.619 108.791 112.042 110.059 111.015 110.993C109.989 111.928 108.596 112.453 107.144 112.453H13.0021C11.5506 112.453 10.1587 111.927 9.1325 110.993C8.10628 110.058 7.52979 108.791 7.52979 107.469V44.0078C10.2276 44.9185 10.2276 44.9185 13.0021 44.8432H107.143C108.594 44.8431 109.986 45.3672 111.013 46.3005C112.039 47.2338 112.618 48.4999 112.62 49.821Z" fill="#D90429"/>
<path d="M112.619 70.6426V89.0815H92.9833C90.2982 89.0815 87.7232 88.1103 85.8246 86.3816C83.926 84.6528 82.8594 82.3082 82.8594 79.8633C82.8594 77.4185 83.926 75.0738 85.8246 73.345C87.7232 71.6163 90.2982 70.6451 92.9833 70.6451L112.619 70.6426Z" fill="#33323D"/>
<path d="M94.1929 83.4588C96.373 83.4588 98.1403 81.8496 98.1403 79.8646C98.1403 77.8796 96.373 76.2704 94.1929 76.2704C92.0129 76.2704 90.2456 77.8796 90.2456 79.8646C90.2456 81.8496 92.0129 83.4588 94.1929 83.4588Z" fill="#D90429"/>
<path d="M74.3832 42.0951C74.5258 41.9489 74.6316 41.7751 74.6931 41.5861C74.7547 41.397 74.7704 41.1973 74.7392 41.0009C74.708 40.8045 74.6307 40.6163 74.5127 40.4494C74.3947 40.2826 74.2389 40.1412 74.0562 40.0352L75.1796 35.3461L72.6502 36.2107L71.9709 40.5312C71.8029 40.8242 71.7578 41.1654 71.8441 41.4901C71.9305 41.8149 72.1423 42.1007 72.4395 42.2934C72.7367 42.4861 73.0986 42.5723 73.4568 42.5358C73.8149 42.4993 74.1445 42.3426 74.383 42.0953L74.3832 42.0951Z" fill="#ED9DA0"/>
<path d="M71.3511 21.3285L72.5608 21.5144C72.5608 21.5144 78.2102 30.1056 77.1681 31.8693C76.126 33.633 75.1434 39.3251 75.1434 39.3251C75.1434 39.3251 72.9667 39.057 72.0631 38.0903L73.0094 31.3528L70.9971 25.8581L71.3511 21.3285Z" fill="#3F3D56"/>
<path d="M169.462 112.866H0.539268C0.241869 112.866 0.000976562 112.774 0.000976562 112.66C0.000976562 112.546 0.241232 112.453 0.538419 112.453H169.461C169.758 112.453 169.999 112.546 169.999 112.66C169.999 112.774 169.76 112.866 169.462 112.866Z" fill="#EDF2F4"/>
<path d="M149.892 111.929C149.896 111.93 149.9 111.932 149.904 111.934C149.765 111.662 149.636 111.387 149.519 111.107C149.505 111.075 149.492 111.041 149.478 111.008C149.479 111.017 149.479 111.025 149.481 111.035C149.484 111.088 149.489 111.14 149.493 111.194C149.5 111.278 149.506 111.363 149.507 111.447C149.508 111.474 149.508 111.499 149.508 111.524C149.508 111.628 149.496 111.73 149.474 111.831H149.478C149.507 111.833 149.534 111.834 149.562 111.839C149.672 111.852 149.778 111.88 149.879 111.921C149.884 111.923 149.888 111.926 149.892 111.929Z" fill="url(#paint0_linear_26_208)"/>
<path d="M147.692 70.3693C147.679 70.8111 147.515 71.2398 147.489 71.6802C148.918 71.745 150.327 71.1136 151.742 71.3071C151.347 71.075 151.135 70.6541 151.011 70.2405C150.852 69.707 150.805 69.1512 150.871 68.6018C150.875 68.5713 150.881 68.541 150.889 68.5111C150.942 68.2951 151.078 67.9889 151.041 67.8192C150.993 67.5943 150.76 67.6388 150.551 67.6517C149.911 67.6961 149.274 67.7709 148.643 67.8759C148.479 67.9018 146.878 68.2659 146.854 68.2279C147.134 68.638 147.367 69.0739 147.547 69.5283C147.647 69.7992 147.696 70.0836 147.692 70.3693Z" fill="#ED9DA0"/>
<path d="M133.559 69.0042C133.682 69.1567 133.829 69.2917 133.996 69.4047C134.104 69.4856 134.215 69.5682 134.331 69.6427C134.539 69.7884 134.786 69.8799 135.046 69.9073C135.386 69.9283 136.108 69.7461 136.321 69.4817C136.41 69.3481 136.452 69.193 136.442 69.0369C136.439 68.8254 136.399 68.6158 136.325 68.4154C136.192 68.0893 136.007 67.7832 135.774 67.5074C135.546 67.1836 135.244 66.9084 134.888 66.7007C134.766 66.6413 134.272 66.9953 134.401 67.3018C134.293 67.3048 134.189 67.3388 134.104 67.399C134.018 67.4592 133.956 67.5425 133.926 67.6368C133.921 67.687 133.899 67.7344 133.863 67.7722C133.804 67.8152 133.712 67.7916 133.646 67.8233C133.528 67.8813 133.579 68.0409 133.567 68.1624C133.538 68.2676 133.497 68.3698 133.445 68.4674C133.42 68.5592 133.417 68.6548 133.437 68.7476C133.457 68.8405 133.499 68.9282 133.56 69.0047L133.559 69.0042Z" fill="#ED9DA0"/>
<path d="M153.258 113.303C153.194 113.263 153.121 113.236 153.044 113.225C152.967 113.215 152.889 113.221 152.815 113.242C151.99 113.361 151.157 113.422 150.322 113.426C150.217 112.961 150.521 112.509 150.619 112.043C150.633 111.923 150.667 111.805 150.718 111.694C150.789 111.598 150.883 111.517 150.992 111.457C151.101 111.397 151.223 111.359 151.35 111.347C151.799 111.26 152.501 111.108 152.752 111.521C153.052 112.018 153.148 112.751 153.258 113.303Z" fill="#ED9DA0"/>
<path d="M144.125 111.548C144.481 111.737 144.88 111.848 145.291 111.871C145.702 111.894 146.106 111.977 146.487 112.12C146.805 112.263 147.073 112.498 147.41 112.6C147.723 112.679 148.053 112.683 148.369 112.614C148.747 112.549 149.151 112.424 149.355 112.126C149.538 111.861 149.518 111.526 149.493 111.214C149.464 110.862 149.435 110.509 149.407 110.156C149.408 110.067 149.383 109.979 149.335 109.901C149.061 109.537 148.395 110.053 148.039 110.052C147.449 110.021 146.891 109.802 146.461 109.433C146.426 109.399 146.384 109.371 146.339 109.349C146.178 109.283 146.017 109.405 145.874 109.511C145.858 109.523 145.842 109.535 145.826 109.546C145.496 109.784 145.054 109.833 144.647 109.929C144.24 110.025 143.803 110.219 143.676 110.585C143.668 110.608 143.662 110.632 143.657 110.656C143.634 110.83 143.667 111.006 143.749 111.163C143.832 111.321 143.963 111.454 144.125 111.548Z" fill="#090814"/>
<path d="M153.103 88.6127C153.367 89.7914 153.117 91.0172 152.406 92.0309C152.194 92.2932 152.005 92.5698 151.839 92.8584C151.744 93.0704 151.67 93.2899 151.618 93.5141L150.99 95.8814C150.82 96.5197 150.65 97.172 150.7 97.8279C150.736 98.2847 150.863 98.7987 150.553 99.16C150.478 99.229 150.415 99.3077 150.366 99.3934C150.335 99.4939 150.334 99.6 150.363 99.701C150.682 101.42 150.916 103.216 150.342 104.879C149.821 106.386 149.792 108.056 149.349 109.583C149.313 109.778 149.218 109.959 149.075 110.106C148.956 110.196 148.814 110.258 148.663 110.284C148.011 110.425 147.322 110.26 146.714 110.003C146.287 109.823 145.827 109.507 145.865 109.079C145.909 108.879 145.989 108.687 146.101 108.51C146.243 108.131 146.322 107.735 146.335 107.334C146.453 106.335 146.791 105.371 147.046 104.394C147.302 103.417 147.476 102.396 147.259 101.411C146.817 99.373 146.109 97.3907 145.151 95.5058C145.109 95.4056 145.043 95.3152 144.957 95.2414C144.861 95.1918 144.77 95.135 144.684 95.0716C144.618 94.9781 144.575 94.8724 144.559 94.7621C144.464 94.4503 144.182 94.2205 143.992 93.9464C143.514 93.2549 143.666 92.3687 143.684 91.5516C143.701 90.7572 143.575 89.9555 143.718 89.1725C143.861 88.3895 144.354 87.5874 145.184 87.3419C145.604 87.2432 146.041 87.2244 146.47 87.2866C148.75 87.4897 150.965 87.8667 153.103 88.6127Z" fill="#090814"/>
<path d="M143.821 93.5945C143.828 93.9032 143.866 94.2106 143.936 94.5128C144.338 96.5642 144.766 98.6112 145.22 100.654C145.26 100.831 145.299 101.008 145.351 101.182C145.521 101.751 145.817 102.281 146.222 102.741C148.116 104.89 148.28 108.011 149.307 110.603C149.376 110.779 149.446 110.955 149.519 111.128C149.705 111.567 149.917 111.997 150.153 112.415C150.181 112.476 150.226 112.529 150.284 112.569C150.348 112.598 150.419 112.611 150.49 112.605C151.414 112.61 152.328 112.421 153.159 112.053C153.278 112.013 153.378 111.937 153.442 111.838C153.474 111.759 153.485 111.675 153.473 111.591C153.444 111.077 153.409 110.545 153.14 110.093C152.961 109.823 152.739 109.578 152.482 109.367C152.422 107.752 152.207 106.145 151.837 104.564C151.637 103.759 151.391 102.945 150.877 102.264C150.498 101.761 149.955 101.265 150.022 100.659C150.051 100.393 150.174 100.061 149.935 99.9044C149.832 99.8355 149.678 99.827 149.607 99.7287C149.579 99.6826 149.563 99.631 149.561 99.5782C149.512 99.1623 149.541 98.7418 149.646 98.3345C149.733 98.0684 149.801 97.7976 149.85 97.5237C149.873 97.3861 149.865 97.2457 149.826 97.111C149.788 96.9763 149.72 96.8501 149.626 96.7403C149.613 96.1867 149.63 95.6123 149.618 95.0596C149.594 94.7446 149.622 94.4281 149.703 94.121C149.749 93.9761 149.819 93.8378 149.854 93.6896C149.982 93.1579 149.663 92.5211 150.042 92.0995C150.222 91.944 150.426 91.8131 150.648 91.7111C151.052 91.4434 151.345 91.0597 151.48 90.6219C151.613 90.1868 151.692 89.7394 151.716 89.2882C151.728 89.1926 151.729 89.0961 151.719 89.0002C151.713 88.9506 151.698 88.9021 151.677 88.8561C151.559 88.6157 151.244 88.5227 150.963 88.4612C149.178 88.0714 147.349 87.8766 145.514 87.8809C144.834 87.46 144.451 87.6101 144.164 88.0565C144.005 88.3287 143.877 88.6147 143.781 88.9103C143.649 89.272 143.641 91.2968 143.513 91.66C143.347 92.1339 143.828 93.0985 143.821 93.5945Z" fill="#090814"/>
<path d="M148.334 69.5336C150.156 69.5336 151.634 68.1883 151.634 66.5288C151.634 64.8692 150.156 63.5239 148.334 63.5239C146.511 63.5239 145.034 64.8692 145.034 66.5288C145.034 68.1883 146.511 69.5336 148.334 69.5336Z" fill="#ED9DA0"/>
<path d="M146.414 71.4479C146.558 71.5995 146.751 71.7665 146.964 71.7177C147.041 71.6937 147.114 71.6584 147.178 71.6133C147.559 71.39 148.026 71.3376 148.474 71.2763C149.376 71.1527 150.266 70.9706 151.139 70.7312C151.393 70.6472 151.659 70.598 151.928 70.5852C152.487 70.5879 152.983 70.9264 153.334 71.3233C153.684 71.7202 153.933 72.1846 154.276 72.5862C154.522 72.8723 154.814 73.1245 155.041 73.4216C155.619 74.1715 153.278 83.0903 153.31 83.2408C153.529 84.6599 153.645 88.6104 153.548 89.3383C152.516 88.975 151.434 88.7407 150.332 88.642C149.623 88.5787 148.901 88.5706 148.217 88.3894C147.789 88.2762 147.384 88.0969 146.95 88.0068C146.598 87.9439 146.241 87.9107 145.882 87.9075C145.092 87.856 144.299 87.8722 143.512 87.9559C143.448 87.9644 143.372 87.969 143.334 87.922C143.317 87.8965 143.309 87.867 143.31 87.8371C143.298 87.57 143.368 87.305 143.512 87.0721C143.637 86.9266 143.718 86.7536 143.746 86.5706C143.739 86.4847 143.943 75.2552 144.235 74.7761C144.607 74.2346 144.885 73.6437 145.058 73.0247C145.15 72.6107 145.146 72.1844 145.211 71.7664C145.218 71.6603 145.259 71.5582 145.328 71.4726C145.392 71.4219 145.467 71.3843 145.548 71.3624C145.629 71.3404 145.714 71.3347 145.798 71.3456C146.008 71.3511 146.215 71.3856 146.414 71.4479Z" fill="#D90429"/>
<path d="M145.311 76.1414C145.127 76.3821 144.89 76.5854 144.616 76.7385C144.274 76.8702 143.902 76.9222 143.532 76.8898C142.012 76.8602 140.497 76.7087 139.005 76.4369C138.835 76.4103 137.014 75.3803 136.641 74.9476C136.196 74.4253 135.079 71.0671 135.04 70.8758C134.972 70.546 134.788 70.2452 134.516 70.0181C134.459 69.9808 134.415 69.9282 134.392 69.8675C134.385 69.8169 134.395 69.7655 134.422 69.7207C134.508 69.5705 134.63 69.4398 134.778 69.3381C134.927 69.2365 135.099 69.1664 135.281 69.133C135.646 69.069 136.02 69.0555 136.389 69.093C136.512 69.1142 136.634 69.1436 136.752 69.1808C137.045 69.9031 139.085 73.2474 139.191 73.2427C139.483 73.2592 140.113 73.3563 140.377 73.2427C140.677 73.1147 141.662 73.1095 141.714 73.0833C141.833 73.0201 142.904 72.598 143.043 72.6116C142.956 72.5404 144.982 72.076 145.122 71.8543C145.172 71.7758 145.181 71.6692 145.266 71.6213C145.323 71.5957 145.388 71.5888 145.45 71.6019C145.643 71.6256 145.831 71.6779 146.007 71.7567C146.292 72.7745 146.142 73.8313 145.925 74.863C145.845 75.331 145.634 75.7721 145.311 76.1435L145.311 76.1414Z" fill="#D90429"/>
<path d="M146.97 70.6939C147.336 70.5096 147.737 70.3895 148.151 70.34C148.398 70.2889 148.651 70.2724 148.903 70.2908C149.135 70.3173 149.358 70.399 149.592 70.4108C149.921 70.3968 150.245 70.3348 150.552 70.2272C150.869 70.1483 151.235 70.1181 151.502 70.2926C151.558 70.3435 151.63 70.3782 151.708 70.3926C151.789 70.3837 151.865 70.3501 151.922 70.2972C152.147 70.1509 152.419 70.0784 152.695 70.0916C152.97 70.1048 153.233 70.203 153.439 70.3699C154.044 70.8866 153.976 71.8959 154.685 72.2877C154.881 72.3957 155.131 72.4529 155.245 72.6332C155.272 72.6907 155.305 72.7462 155.341 72.7994C155.388 72.8468 155.446 72.8846 155.511 72.91C155.717 72.9936 155.913 73.0961 156.096 73.216C156.187 73.2765 156.264 73.3531 156.322 73.4414C156.379 73.5297 156.417 73.6277 156.432 73.7295C156.435 73.8788 156.399 74.0267 156.329 74.1614C155.982 74.9364 155.38 75.5945 154.606 76.0453C153.831 76.4961 152.923 76.7176 152.005 76.6793C151.841 76.6869 151.681 76.6412 151.551 76.5504C151.483 76.4804 151.429 76.3997 151.393 76.3123C151.059 75.676 150.433 75.2061 150.036 74.6009C149.799 74.2404 149.647 73.8369 149.4 73.4818C149.026 72.9433 148.457 72.5456 147.901 72.1595C147.587 71.9419 147.238 71.7135 146.843 71.7286C146.492 71.7421 146.236 71.7593 146.365 71.3668C146.472 71.0841 146.687 70.8455 146.97 70.6939Z" fill="#D90429"/>
<path opacity="0.05" d="M146.97 70.6939C147.336 70.5096 147.737 70.3895 148.151 70.34C148.398 70.2889 148.651 70.2724 148.903 70.2908C149.135 70.3173 149.358 70.399 149.592 70.4108C149.921 70.3968 150.245 70.3348 150.552 70.2272C150.869 70.1483 151.235 70.1181 151.502 70.2926C151.558 70.3435 151.63 70.3782 151.708 70.3926C151.789 70.3837 151.865 70.3501 151.922 70.2972C152.147 70.1509 152.419 70.0784 152.695 70.0916C152.97 70.1048 153.233 70.203 153.439 70.3699C154.044 70.8866 153.976 71.8959 154.685 72.2877C154.881 72.3957 155.131 72.4529 155.245 72.6332C155.272 72.6907 155.305 72.7462 155.341 72.7994C155.388 72.8468 155.446 72.8846 155.511 72.91C155.717 72.9936 155.913 73.0961 156.096 73.216C156.187 73.2765 156.264 73.3531 156.322 73.4414C156.379 73.5297 156.417 73.6277 156.432 73.7295C156.435 73.8788 156.399 74.0267 156.329 74.1614C155.982 74.9364 155.38 75.5945 154.606 76.0453C153.831 76.4961 152.923 76.7176 152.005 76.6793C151.841 76.6869 151.681 76.6412 151.551 76.5504C151.483 76.4804 151.429 76.3997 151.393 76.3123C151.059 75.676 150.433 75.2061 150.036 74.6009C149.799 74.2404 149.647 73.8369 149.4 73.4818C149.026 72.9433 148.457 72.5456 147.901 72.1595C147.587 71.9419 147.238 71.7135 146.843 71.7286C146.492 71.7421 146.236 71.7593 146.365 71.3668C146.472 71.0841 146.687 70.8455 146.97 70.6939Z" fill="black"/>
<path d="M145.253 114.246C145.508 114.434 145.815 114.557 146.14 114.601C146.868 114.73 147.606 114.813 148.347 114.849C148.587 114.865 148.828 114.883 149.068 114.899C149.772 114.948 150.477 114.997 151.183 115C152.055 115.002 152.926 114.934 153.784 114.795C153.819 114.798 153.853 114.794 153.886 114.782C153.918 114.771 153.946 114.753 153.97 114.729C153.993 114.706 154.009 114.678 154.018 114.648C154.027 114.617 154.029 114.585 154.022 114.555C154.006 113.754 153.419 113.132 153.221 112.352C153.14 112.032 152.989 112.575 152.96 112.605C152.895 112.689 152.809 112.758 152.71 112.806C152.61 112.854 152.5 112.881 152.387 112.883C151.661 112.919 150.847 112.517 150.271 112.159C150.147 112.076 150.016 112.002 149.879 111.939C149.778 111.897 149.671 111.87 149.561 111.856C149.188 111.825 148.812 111.894 148.482 112.055C148.048 112.251 147.668 112.532 147.238 112.734C146.889 112.897 146.513 113.006 146.124 113.055C145.731 113.105 145.262 113.128 145.06 113.438C145.06 113.438 145.06 113.439 145.06 113.439C145.06 113.44 145.06 113.44 145.06 113.441C144.991 113.575 144.973 113.727 145.007 113.873C145.042 114.018 145.128 114.149 145.253 114.246Z" fill="#090814"/>
<path opacity="0.1" d="M152.076 66.9459C152.006 66.9854 151.929 67.0117 151.848 67.0233C151.746 67.0503 151.639 67.0568 151.534 67.0425C151.429 67.0282 151.329 66.9933 151.24 66.9403L152.076 66.9459Z" fill="black"/>
<path d="M145.626 62.7656C146.057 62.5765 146.542 62.5166 147.013 62.5945C147.478 62.653 147.962 62.7837 148.406 62.6515C148.912 62.497 149.301 62.0134 149.83 62.0527C150.055 62.0838 150.265 62.1713 150.438 62.3055C151.123 62.7715 151.64 63.4122 151.924 64.1463C151.98 64.3486 152.077 64.5393 152.211 64.708C152.301 64.7843 152.387 64.8648 152.468 64.9493C152.547 65.0657 152.592 65.1981 152.601 65.3347C152.693 66.0873 152.48 66.8446 152.004 67.465C151.722 67.8313 151.354 68.135 151.062 68.5016C150.77 68.8683 149.867 69.4482 149.806 69.2094C149.718 68.9753 149.666 68.7311 149.651 68.484C149.679 67.9969 149.988 67.6003 149.733 67.1714C149.576 66.9061 149.205 66.6404 148.95 66.8309C148.849 66.9041 148.806 67.0244 148.713 67.1045C148.612 67.1723 148.487 67.2015 148.363 67.1856C148.239 67.1698 148.127 67.1103 148.051 67.0199C147.904 66.8324 147.841 66.6014 147.874 66.3732C147.944 65.3339 147.661 64.5712 146.397 64.6077C145.927 64.6217 145.402 64.5627 145.11 64.1745C144.725 63.6634 145.099 63.0279 145.626 62.7656Z" fill="#090814"/>
<defs>
<linearGradient id="paint0_linear_26_208" x1="86.8748" y1="111.934" x2="86.8748" y2="111.008" gradientUnits="userSpaceOnUse">
<stop stop-color="#808080" stop-opacity="0.251"/>
<stop offset="0.535" stop-color="#808080" stop-opacity="0.122"/>
<stop offset="1" stop-color="#808080" stop-opacity="0.102"/>
</linearGradient>
</defs>
</svg>
