<svg width="523" height="336" viewBox="0 0 523 336" fill="none" xmlns="http://www.w3.org/2000/svg">
<g clip-path="url(#clip0_182_1490)">
<path d="M458.303 310.229C475.122 293.41 475.122 266.141 458.303 249.322C441.484 232.503 414.215 232.503 397.397 249.322C380.578 266.141 380.578 293.41 397.397 310.229C414.215 327.047 441.484 327.047 458.303 310.229Z" fill="#2F2E41"/>
<path d="M427.61 283.737C435.547 281.981 440.557 274.122 438.8 266.185C437.043 258.248 429.184 253.238 421.247 254.995C413.31 256.752 408.3 264.61 410.057 272.547C411.814 280.484 419.673 285.494 427.61 283.737Z" fill="white"/>
<path d="M419.526 270.355C422.172 269.769 423.842 267.15 423.257 264.504C422.671 261.858 420.051 260.188 417.406 260.774C414.76 261.36 413.09 263.979 413.676 266.625C414.261 269.271 416.881 270.941 419.526 270.355Z" fill="#3F3D56"/>
<path d="M426.148 250.66C408.535 250.627 396.171 247.481 396.2 231.524C396.23 215.567 410.532 202.657 428.145 202.69C445.759 202.722 460.013 215.684 459.983 231.642C459.954 247.599 443.762 250.692 426.148 250.66Z" fill="#D90429"/>
<path d="M495.351 286.974C490.299 304.501 475.548 316.769 460.16 327.191C458.012 328.647 455.862 330.069 453.712 331.457C453.698 331.464 453.683 331.477 453.668 331.484C453.565 331.55 453.461 331.617 453.365 331.684C452.921 331.97 452.477 332.256 452.037 332.539L452.279 332.647C452.279 332.647 452.516 332.774 452.256 332.668C452.179 332.635 452.098 332.606 452.021 332.574C443.082 328.969 433.984 325.097 427.133 318.343C420.027 311.33 415.873 300.329 419.722 291.115C420.227 289.909 420.866 288.762 421.626 287.697C421.939 287.25 422.275 286.822 422.625 286.403C424.747 283.812 427.522 281.834 430.663 280.671C433.803 279.508 437.197 279.202 440.495 279.786C443.793 280.369 446.876 281.821 449.427 283.991C451.978 286.161 453.905 288.971 455.01 292.133C456.141 281.607 447.462 272.79 439.109 266.284C430.753 259.782 421.258 252.701 419.642 242.234C418.74 236.41 420.765 230.766 424.455 226.235C424.569 226.098 424.683 225.96 424.8 225.826C429.291 220.549 435.607 217.161 442.488 216.337C455.301 215.006 467.747 221.788 477.055 230.697C492.037 245.03 501.095 267.047 495.351 286.974Z" fill="#8D99AE"/>
<path d="M471.267 264.05C473.726 267.876 475.614 272.04 476.872 276.411C477.935 280.318 478.408 284.362 478.276 288.408C477.933 296.735 475.595 304.857 471.459 312.093C468.344 317.582 464.548 322.655 460.16 327.192C458.012 328.647 455.862 330.069 453.712 331.458C453.698 331.464 453.683 331.478 453.668 331.484C453.565 331.551 453.461 331.617 453.365 331.684C452.921 331.97 452.477 332.256 452.037 332.539C452.037 332.539 452.516 332.774 452.256 332.668C452.179 332.636 452.098 332.607 452.021 332.574C452.822 326.006 452.037 319.34 449.732 313.138C447.427 306.935 443.669 301.375 438.772 296.923C433.864 292.54 427.989 289.379 421.626 287.697C421.939 287.25 422.275 286.823 422.625 286.403C425.082 287.092 427.474 287.997 429.771 289.108C437.986 293.052 444.711 299.537 448.953 307.601C452.76 314.924 454.398 323.181 453.676 331.402C454.043 331.07 454.411 330.729 454.767 330.393C461.56 324.06 467.594 316.79 471.677 308.401C475.219 301.296 476.961 293.429 476.747 285.493C476.414 276.84 472.966 268.825 467.974 261.847C462.503 254.403 456.039 247.742 448.763 242.049C441.431 236.176 433.407 231.222 424.871 227.298C424.679 227.208 424.528 227.048 424.451 226.85C424.373 226.652 424.374 226.432 424.455 226.236C424.512 226.059 424.636 225.912 424.8 225.827C424.885 225.79 424.977 225.773 425.069 225.777C425.161 225.781 425.252 225.806 425.333 225.849C426.387 226.334 427.433 226.826 428.472 227.339C437.119 231.613 445.201 236.945 452.534 243.212C459.617 249.25 466.285 256.149 471.267 264.05Z" fill="white"/>
<path d="M73.7142 335.549C79.7358 335.549 84.6173 333.718 84.6173 331.46C84.6173 329.202 79.7358 327.372 73.7142 327.372C67.6925 327.372 62.811 329.202 62.811 331.46C62.811 333.718 67.6925 335.549 73.7142 335.549Z" fill="#2F2E41"/>
<path d="M99.8817 335.004C105.903 335.004 110.785 333.173 110.785 330.915C110.785 328.657 105.903 326.827 99.8817 326.827C93.86 326.827 88.9785 328.657 88.9785 330.915C88.9785 333.173 93.86 335.004 99.8817 335.004Z" fill="#2F2E41"/>
<path d="M134.62 266.281C144.923 260.341 151.764 252.904 149.9 249.67C148.035 246.435 138.171 248.628 127.868 254.568C117.564 260.507 110.723 267.944 112.588 271.179C114.453 274.413 124.317 272.22 134.62 266.281Z" fill="#2F2E41"/>
<path d="M124.948 280.845C128.758 257.367 112.814 235.245 89.3354 231.435C65.8571 227.625 43.7355 243.57 39.9255 267.048C36.1155 290.526 52.0598 312.648 75.5381 316.458C99.0164 320.268 121.138 304.323 124.948 280.845Z" fill="#2F2E41"/>
<path d="M75.8948 307.746H62.811V331.188H75.8948V307.746Z" fill="#2F2E41"/>
<path d="M102.062 307.746H88.9785V331.188H102.062V307.746Z" fill="#2F2E41"/>
<path d="M83.5268 277.763C91.656 277.763 98.2461 271.173 98.2461 263.043C98.2461 254.914 91.656 248.324 83.5268 248.324C75.3976 248.324 68.8076 254.914 68.8076 263.043C68.8076 271.173 75.3976 277.763 83.5268 277.763Z" fill="white"/>
<path d="M83.527 267.95C86.2368 267.95 88.4334 265.753 88.4334 263.043C88.4334 260.333 86.2368 258.137 83.527 258.137C80.8173 258.137 78.6206 260.333 78.6206 263.043C78.6206 265.753 80.8173 267.95 83.527 267.95Z" fill="#3F3D56"/>
<path d="M40.6596 233.895C37.1822 218.321 48.2983 202.585 65.4883 198.746C82.6782 194.908 99.4325 204.421 102.91 219.995C106.387 235.569 94.995 241.313 77.8051 245.151C60.6151 248.989 44.1371 249.469 40.6596 233.895Z" fill="#8D99AE"/>
<path d="M53.3846 263.191C54.9845 259.818 47.5706 252.952 36.8252 247.855C26.0798 242.759 16.072 241.362 14.4721 244.735C12.8722 248.109 20.286 254.975 31.0314 260.071C41.7768 265.167 51.7847 266.564 53.3846 263.191Z" fill="#2F2E41"/>
<path d="M61.2817 289.483C61.2817 293.699 72.135 302.022 84.1783 302.022C96.2215 302.022 107.513 290.155 107.513 285.94C107.513 281.725 96.2215 286.758 84.1783 286.758C72.135 286.758 61.2817 285.268 61.2817 289.483Z" fill="white"/>
<path d="M232.609 335.549C238.63 335.549 243.512 333.718 243.512 331.46C243.512 329.202 238.63 327.372 232.609 327.372C226.587 327.372 221.706 329.202 221.706 331.46C221.706 333.718 226.587 335.549 232.609 335.549Z" fill="#2F2E41"/>
<path d="M206.441 335.004C212.463 335.004 217.344 333.173 217.344 330.915C217.344 328.657 212.463 326.827 206.441 326.827C200.42 326.827 195.538 328.657 195.538 330.915C195.538 333.173 200.42 335.004 206.441 335.004Z" fill="#2F2E41"/>
<path d="M193.735 271.179C195.6 267.945 188.759 260.507 178.456 254.568C168.152 248.628 158.288 246.435 156.424 249.67C154.559 252.904 161.4 260.341 171.703 266.281C182.006 272.221 191.87 274.414 193.735 271.179Z" fill="#2F2E41"/>
<path d="M223.886 317.014C247.672 317.014 266.954 297.732 266.954 273.946C266.954 250.161 247.672 230.879 223.886 230.879C200.101 230.879 180.819 250.161 180.819 273.946C180.819 297.732 200.101 317.014 223.886 317.014Z" fill="#2F2E41"/>
<path d="M243.512 307.746H230.428V331.188H243.512V307.746Z" fill="#2F2E41"/>
<path d="M217.344 307.746H204.261V331.188H217.344V307.746Z" fill="#2F2E41"/>
<path d="M213.796 277.763C221.925 277.763 228.515 271.173 228.515 263.043C228.515 254.914 221.925 248.324 213.796 248.324C205.667 248.324 199.077 254.914 199.077 263.043C199.077 271.173 205.667 277.763 213.796 277.763Z" fill="white"/>
<path d="M210.249 264.5C212.172 262.579 212.184 259.474 210.277 257.565C208.37 255.656 205.265 255.666 203.343 257.587C201.42 259.507 201.408 262.612 203.315 264.521C205.222 266.43 208.327 266.42 210.249 264.5Z" fill="#3F3D56"/>
<path d="M228.518 245.151C211.328 241.313 199.935 235.569 203.413 219.995C206.89 204.421 223.645 194.908 240.835 198.746C258.025 202.585 269.141 218.321 265.663 233.895C262.186 249.469 245.708 248.989 228.518 245.151Z" fill="#D90429"/>
<path d="M268.922 306.775C272.53 305.817 272.981 295.722 269.928 284.228C266.875 272.733 261.475 264.192 257.867 265.151C254.258 266.109 253.808 276.204 256.861 287.698C259.914 299.193 265.314 307.733 268.922 306.775Z" fill="#2F2E41"/>
<path d="M214.129 286.758C206.222 286.758 198.809 281.725 198.809 285.94C198.809 290.155 206.222 302.022 214.129 302.022C222.036 302.022 229.161 293.699 229.161 289.484C229.161 285.269 222.036 286.758 214.129 286.758Z" fill="white"/>
<path d="M158.472 202.539H154.647C151.221 202.535 147.936 201.172 145.514 198.75C143.091 196.327 141.728 193.042 141.724 189.616V186.405C141.724 178.452 143.231 171.793 146.203 166.613C149.805 160.587 154.007 154.941 158.745 149.761C161.891 146.598 164.745 143.158 167.273 139.482C169.087 136.627 170.023 133.302 169.966 129.92C169.966 121.942 164.769 118.063 154.076 118.063C148.144 118.13 142.25 119.015 136.561 120.692C134.366 121.319 132.057 121.427 129.813 121.009C127.57 120.591 125.454 119.659 123.633 118.284C121.811 116.91 120.333 115.132 119.316 113.089C118.298 111.047 117.768 108.796 117.768 106.514V100.014C117.756 97.2159 118.555 94.4741 120.069 92.1212C121.584 89.7682 123.748 87.9051 126.3 86.7577C136.349 82.4692 147.186 80.3374 158.11 80.4998C169.555 80.4998 179.886 82.4222 188.817 86.2127C197.765 90.0121 204.835 95.3695 209.829 102.137C214.808 108.856 217.454 117.018 217.365 125.381C217.365 134.361 214.913 142.182 210.078 148.627C205.296 155.007 198.441 161.992 189.702 169.388C185.098 173.216 180.735 177.327 176.639 181.694C173.993 184.544 172.123 188.026 171.208 191.806C170.698 194.812 169.138 197.541 166.806 199.506C164.475 201.471 161.521 202.546 158.472 202.539Z" fill="#D90429"/>
<path d="M156.345 263.311H155.841C149.491 263.306 143.403 260.781 138.915 256.29C134.427 251.799 131.905 245.709 131.905 239.359C131.905 233.01 134.427 226.92 138.915 222.429C143.403 217.938 149.491 215.412 155.841 215.408H156.345C159.492 215.406 162.608 216.024 165.516 217.227C168.424 218.43 171.066 220.194 173.291 222.418C175.517 224.642 177.283 227.283 178.487 230.19C179.692 233.097 180.312 236.213 180.312 239.359C180.312 242.506 179.692 245.622 178.487 248.529C177.283 251.436 175.517 254.077 173.291 256.301C171.066 258.525 168.424 260.289 165.516 261.492C162.608 262.695 159.492 263.313 156.345 263.311Z" fill="#D90429"/>
<path d="M312 336H1C0.734784 336 0.480444 335.895 0.292908 335.707C0.105371 335.52 0 335.265 0 335C0 334.735 0.105371 334.48 0.292908 334.293C0.480444 334.105 0.734784 334 1 334H312C312.265 334 312.52 334.105 312.707 334.293C312.895 334.48 313 334.735 313 335C313 335.265 312.895 335.52 312.707 335.707C312.52 335.895 312.265 336 312 336Z" fill="#CCCCCC"/>
<path d="M522 336H356C355.735 336 355.48 335.895 355.293 335.707C355.105 335.52 355 335.265 355 335C355 334.735 355.105 334.48 355.293 334.293C355.48 334.105 355.735 334 356 334H522C522.265 334 522.52 334.105 522.707 334.293C522.895 334.48 523 334.735 523 335C523 335.265 522.895 335.52 522.707 335.707C522.52 335.895 522.265 336 522 336Z" fill="#CCCCCC"/>
<path d="M418.971 306.79C430.861 306.558 440.441 303.343 440.368 299.611C440.295 295.878 430.597 293.04 418.706 293.273C406.816 293.505 397.236 296.72 397.309 300.453C397.382 304.185 407.08 307.023 418.971 306.79Z" fill="#2F2E41"/>
<path d="M408.162 149H382.162C380.836 148.998 379.565 148.471 378.628 147.534C377.69 146.596 377.163 145.326 377.162 144V118C377.163 116.674 377.69 115.404 378.628 114.466C379.565 113.529 380.836 113.002 382.162 113H408.162C409.487 113.002 410.758 113.529 411.695 114.466C412.633 115.404 413.16 116.674 413.162 118V144C413.16 145.326 412.633 146.596 411.695 147.534C410.758 148.471 409.487 148.998 408.162 149ZM382.162 115C381.366 115.001 380.604 115.317 380.041 115.88C379.479 116.442 379.162 117.205 379.162 118V144C379.162 144.795 379.479 145.558 380.041 146.12C380.604 146.683 381.366 146.999 382.162 147H408.162C408.957 146.999 409.72 146.683 410.282 146.12C410.844 145.558 411.161 144.795 411.162 144V118C411.161 117.205 410.844 116.442 410.282 115.88C409.72 115.317 408.957 115.001 408.162 115H382.162Z" fill="#8D99AE"/>
<path d="M420.162 132H394.162C392.836 131.998 391.565 131.471 390.628 130.534C389.69 129.596 389.163 128.326 389.162 127V101C389.163 99.6744 389.69 98.4035 390.628 97.4662C391.565 96.5288 392.836 96.0015 394.162 96H420.162C421.487 96.0015 422.758 96.5288 423.695 97.4662C424.633 98.4035 425.16 99.6744 425.162 101V127C425.16 128.326 424.633 129.596 423.695 130.534C422.758 131.471 421.487 131.998 420.162 132ZM394.162 98C393.366 98.0009 392.604 98.3172 392.041 98.8796C391.479 99.4421 391.162 100.205 391.162 101V127C391.162 127.795 391.479 128.558 392.041 129.12C392.604 129.683 393.366 129.999 394.162 130H420.162C420.957 129.999 421.72 129.683 422.282 129.12C422.844 128.558 423.161 127.795 423.162 127V101C423.161 100.205 422.844 99.4421 422.282 98.8796C421.72 98.3172 420.957 98.0009 420.162 98H394.162Z" fill="#8D99AE"/>
<path d="M215.162 49H189.162C187.836 48.9985 186.565 48.4712 185.628 47.5338C184.69 46.5965 184.163 45.3256 184.162 44V18C184.163 16.6744 184.69 15.4035 185.628 14.4662C186.565 13.5288 187.836 13.0015 189.162 13H215.162C216.487 13.0015 217.758 13.5288 218.695 14.4662C219.633 15.4035 220.16 16.6744 220.162 18V44C220.16 45.3256 219.633 46.5965 218.695 47.5338C217.758 48.4712 216.487 48.9985 215.162 49ZM189.162 15C188.366 15.0009 187.604 15.3172 187.041 15.8796C186.479 16.4421 186.162 17.2046 186.162 18V44C186.162 44.7954 186.479 45.5579 187.041 46.1204C187.604 46.6828 188.366 46.9991 189.162 47H215.162C215.957 46.9991 216.72 46.6828 217.282 46.1204C217.844 45.5579 218.161 44.7954 218.162 44V18C218.161 17.2046 217.844 16.4421 217.282 15.8796C216.72 15.3172 215.957 15.0009 215.162 15H189.162Z" fill="#8D99AE"/>
<path d="M199.162 36H173.162C171.836 35.9985 170.565 35.4712 169.628 34.5338C168.69 33.5965 168.163 32.3256 168.162 31V5C168.163 3.67438 168.69 2.40351 169.628 1.46616C170.565 0.528803 171.836 0.00151655 173.162 0H199.162C200.487 0.00151655 201.758 0.528803 202.695 1.46616C203.633 2.40351 204.16 3.67438 204.162 5V31C204.16 32.3256 203.633 33.5965 202.695 34.5338C201.758 35.4712 200.487 35.9985 199.162 36ZM173.162 2C172.366 2.00087 171.604 2.31722 171.041 2.87964C170.479 3.44206 170.162 4.20462 170.162 5V31C170.162 31.7954 170.479 32.5579 171.041 33.1204C171.604 33.6828 172.366 33.9991 173.162 34H199.162C199.957 33.9991 200.72 33.6828 201.282 33.1204C201.844 32.5579 202.161 31.7954 202.162 31V5C202.161 4.20462 201.844 3.44206 201.282 2.87964C200.72 2.31722 199.957 2.00087 199.162 2H173.162Z" fill="#8D99AE"/>
<path d="M321.22 189.637C324.792 189.637 327.687 186.742 327.687 183.17C327.687 179.598 324.792 176.703 321.22 176.703C317.649 176.703 314.753 179.598 314.753 183.17C314.753 186.742 317.649 189.637 321.22 189.637Z" fill="#8D99AE"/>
<path d="M61.2203 166.637C64.7919 166.637 67.6872 163.742 67.6872 160.17C67.6872 156.598 64.7919 153.703 61.2203 153.703C57.6487 153.703 54.7534 156.598 54.7534 160.17C54.7534 163.742 57.6487 166.637 61.2203 166.637Z" fill="#8D99AE"/>
<path d="M497.22 222.637C500.792 222.637 503.687 219.742 503.687 216.17C503.687 212.598 500.792 209.703 497.22 209.703C493.649 209.703 490.753 212.598 490.753 216.17C490.753 219.742 493.649 222.637 497.22 222.637Z" fill="#8D99AE"/>
</g>
<defs>
<clipPath id="clip0_182_1490">
<rect width="523" height="336" fill="white"/>
</clipPath>
</defs>
</svg>
