<svg width="900" height="900" viewBox="0 0 900 900" fill="none" xmlns="http://www.w3.org/2000/svg">
<path d="M467 490L521 425L413 475L467 490Z" fill="#5F2063" stroke="#5F2063" stroke-linejoin="bevel"/>
<path d="M521 425L401 377L413 475L521 425Z" fill="#101F40" stroke="#101F40" stroke-linejoin="bevel"/>
<path d="M562 472L564 427L521 425L562 472Z" fill="#42245C" stroke="#42245C" stroke-linejoin="bevel"/>
<path d="M501 272L403 303L401 377L501 272Z" fill="#7D1563" stroke="#7D1563" stroke-linejoin="bevel"/>
<path d="M467 490L562 472L521 425L467 490Z" fill="#CA0040" stroke="#CA0040" stroke-linejoin="bevel"/>
<path d="M501 272L401 377L521 425L501 272Z" fill="#7D1563" stroke="#7D1563" stroke-linejoin="bevel"/>
<path d="M564 427L501 272L521 425L564 427Z" fill="#42245C" stroke="#42245C" stroke-linejoin="bevel"/>
<path d="M401 377L314 525L413 475L401 377Z" fill="#101F40" stroke="#101F40" stroke-linejoin="bevel"/>
<path d="M413 475L422 605L467 490L413 475Z" fill="#7D1563" stroke="#7D1563" stroke-linejoin="bevel"/>
<path d="M467 490L530 628L562 472L467 490Z" fill="#CA0040" stroke="#CA0040" stroke-linejoin="bevel"/>
<path d="M266 368L314 525L401 377L266 368Z" fill="#00101C" stroke="#00101C" stroke-linejoin="bevel"/>
<path d="M339 574L422 605L413 475L339 574Z" fill="#D90429" stroke="#D90429" stroke-linejoin="bevel"/>
<path d="M381 222L330 286L403 303L381 222Z" fill="#CA0040" stroke="#CA0040" stroke-linejoin="bevel"/>
<path d="M403 303L330 286L401 377L403 303Z" fill="#272350" stroke="#272350" stroke-linejoin="bevel"/>
<path d="M314 525L339 574L413 475L314 525Z" fill="#D90429" stroke="#D90429" stroke-linejoin="bevel"/>
<path d="M330 286L266 368L401 377L330 286Z" fill="#101F40" stroke="#101F40" stroke-linejoin="bevel"/>
<path d="M604 275L497 221L501 272L604 275Z" fill="#272350" stroke="#272350" stroke-linejoin="bevel"/>
<path d="M501 272L497 221L403 303L501 272Z" fill="#9A005D" stroke="#9A005D" stroke-linejoin="bevel"/>
<path d="M675 419L604 275L564 427L675 419Z" fill="#9A005D" stroke="#9A005D" stroke-linejoin="bevel"/>
<path d="M564 427L604 275L501 272L564 427Z" fill="#5F2063" stroke="#5F2063" stroke-linejoin="bevel"/>
<path d="M422 605L530 628L467 490L422 605Z" fill="#101F40" stroke="#101F40" stroke-linejoin="bevel"/>
<path d="M562 472L675 419L564 427L562 472Z" fill="#04192E" stroke="#04192E" stroke-linejoin="bevel"/>
<path d="M497 221L381 222L403 303L497 221Z" fill="#7D1563" stroke="#7D1563" stroke-linejoin="bevel"/>
<path d="M709 515L675 419L562 472L709 515Z" fill="#7D1563" stroke="#7D1563" stroke-linejoin="bevel"/>
<path d="M530 628L629 602L562 472L530 628Z" fill="#00101C" stroke="#00101C" stroke-linejoin="bevel"/>
<path d="M301 699L391 680L339 574L301 699Z" fill="#CA0040" stroke="#CA0040" stroke-linejoin="bevel"/>
<path d="M339 574L391 680L422 605L339 574Z" fill="#272350" stroke="#272350" stroke-linejoin="bevel"/>
<path d="M422 605L463 707L530 628L422 605Z" fill="#CA0040" stroke="#CA0040" stroke-linejoin="bevel"/>
<path d="M530 628L614 688L629 602L530 628Z" fill="#B50051" stroke="#B50051" stroke-linejoin="bevel"/>
<path d="M675 419L700 317L604 275L675 419Z" fill="#CA0040" stroke="#CA0040" stroke-linejoin="bevel"/>
<path d="M604 275L626 192L497 221L604 275Z" fill="#42245C" stroke="#42245C" stroke-linejoin="bevel"/>
<path d="M629 602L709 515L562 472L629 602Z" fill="#7D1563" stroke="#7D1563" stroke-linejoin="bevel"/>
<path d="M675 419L777 438L700 317L675 419Z" fill="#9A005D" stroke="#9A005D" stroke-linejoin="bevel"/>
<path d="M192 293L184 422L266 368L192 293Z" fill="#9A005D" stroke="#9A005D" stroke-linejoin="bevel"/>
<path d="M266 368L184 422L314 525L266 368Z" fill="#04192E" stroke="#04192E" stroke-linejoin="bevel"/>
<path d="M314 525L203 613L339 574L314 525Z" fill="#00101C" stroke="#00101C" stroke-linejoin="bevel"/>
<path d="M192 293L266 368L330 286L192 293Z" fill="#272350" stroke="#272350" stroke-linejoin="bevel"/>
<path d="M391 680L463 707L422 605L391 680Z" fill="#9A005D" stroke="#9A005D" stroke-linejoin="bevel"/>
<path d="M696 202L626 192L604 275L696 202Z" fill="#00101C" stroke="#00101C" stroke-linejoin="bevel"/>
<path d="M421 102L318 166L381 222L421 102Z" fill="#7D1563" stroke="#7D1563" stroke-linejoin="bevel"/>
<path d="M493 128L381 222L497 221L493 128Z" fill="#B50051" stroke="#B50051" stroke-linejoin="bevel"/>
<path d="M381 222L318 166L330 286L381 222Z" fill="#7D1563" stroke="#7D1563" stroke-linejoin="bevel"/>
<path d="M199 185L192 293L330 286L199 185Z" fill="#272350" stroke="#272350" stroke-linejoin="bevel"/>
<path d="M139 566L172 518L66 514L139 566Z" fill="#CA0040" stroke="#CA0040" stroke-linejoin="bevel"/>
<path d="M184 422L172 518L314 525L184 422Z" fill="#D90429" stroke="#D90429" stroke-linejoin="bevel"/>
<path d="M575 127L493 128L497 221L575 127Z" fill="#9A005D" stroke="#9A005D" stroke-linejoin="bevel"/>
<path d="M680 686L702 602H629L680 686Z" fill="#5F2063" stroke="#5F2063" stroke-linejoin="bevel"/>
<path d="M629 602H702L709 515L629 602Z" fill="#101F40" stroke="#101F40" stroke-linejoin="bevel"/>
<path d="M463 707L614 688L530 628L463 707Z" fill="#04192E" stroke="#04192E" stroke-linejoin="bevel"/>
<path d="M219 664L301 699L339 574L219 664Z" fill="#5F2063" stroke="#5F2063" stroke-linejoin="bevel"/>
<path d="M391 680L434 820L463 707L391 680Z" fill="#101F40" stroke="#101F40" stroke-linejoin="bevel"/>
<path d="M172 518L203 613L314 525L172 518Z" fill="#7D1563" stroke="#7D1563" stroke-linejoin="bevel"/>
<path d="M795 488L777 438L709 515L795 488Z" fill="#D90429" stroke="#D90429" stroke-linejoin="bevel"/>
<path d="M709 515L777 438L675 419L709 515Z" fill="#9A005D" stroke="#9A005D" stroke-linejoin="bevel"/>
<path d="M700 317L696 202L604 275L700 317Z" fill="#00101C" stroke="#00101C" stroke-linejoin="bevel"/>
<path d="M626 192L575 127L497 221L626 192Z" fill="#CA0040" stroke="#CA0040" stroke-linejoin="bevel"/>
<path d="M494 0L421 102L493 128L494 0Z" fill="#D90429" stroke="#D90429" stroke-linejoin="bevel"/>
<path d="M493 128L421 102L381 222L493 128Z" fill="#00101C" stroke="#00101C" stroke-linejoin="bevel"/>
<path d="M626 192L735 114L575 127L626 192Z" fill="#00101C" stroke="#00101C" stroke-linejoin="bevel"/>
<path d="M785 215L696 202L700 317L785 215Z" fill="#00101C" stroke="#00101C" stroke-linejoin="bevel"/>
<path d="M98 700L219 664L203 613L98 700Z" fill="#04192E" stroke="#04192E" stroke-linejoin="bevel"/>
<path d="M203 613L219 664L339 574L203 613Z" fill="#42245C" stroke="#42245C" stroke-linejoin="bevel"/>
<path d="M702 602L769 563L709 515L702 602Z" fill="#9A005D" stroke="#9A005D" stroke-linejoin="bevel"/>
<path d="M779 714L769 563L702 602L779 714Z" fill="#B50051" stroke="#B50051" stroke-linejoin="bevel"/>
<path d="M622 810L680 686L614 688L622 810Z" fill="#7D1563" stroke="#7D1563" stroke-linejoin="bevel"/>
<path d="M614 688L680 686L629 602L614 688Z" fill="#42245C" stroke="#42245C" stroke-linejoin="bevel"/>
<path d="M769 563L795 488L709 515L769 563Z" fill="#5F2063" stroke="#5F2063" stroke-linejoin="bevel"/>
<path d="M777 438L808 310L700 317L777 438Z" fill="#101F40" stroke="#101F40" stroke-linejoin="bevel"/>
<path d="M87 397L172 518L184 422L87 397Z" fill="#272350" stroke="#272350" stroke-linejoin="bevel"/>
<path d="M172 518L139 566L203 613L172 518Z" fill="#04192E" stroke="#04192E" stroke-linejoin="bevel"/>
<path d="M279 106L199 185L318 166L279 106Z" fill="#101F40" stroke="#101F40" stroke-linejoin="bevel"/>
<path d="M318 166L199 185L330 286L318 166Z" fill="#CA0040" stroke="#CA0040" stroke-linejoin="bevel"/>
<path d="M192 293L87 397L184 422L192 293Z" fill="#7D1563" stroke="#7D1563" stroke-linejoin="bevel"/>
<path d="M138 232L133 269L192 293L138 232Z" fill="#5F2063" stroke="#5F2063" stroke-linejoin="bevel"/>
<path d="M421 102L279 106L318 166L421 102Z" fill="#00101C" stroke="#00101C" stroke-linejoin="bevel"/>
<path d="M133 269L87 397L192 293L133 269Z" fill="#B50051" stroke="#B50051" stroke-linejoin="bevel"/>
<path d="M900 394L808 310L777 438L900 394Z" fill="#D90429" stroke="#D90429" stroke-linejoin="bevel"/>
<path d="M199 185L138 232L192 293L199 185Z" fill="#D90429" stroke="#D90429" stroke-linejoin="bevel"/>
<path d="M0 361V487L87 397L0 361Z" fill="#7D1563" stroke="#7D1563" stroke-linejoin="bevel"/>
<path d="M70 118L138 232L199 185L70 118Z" fill="#9A005D" stroke="#9A005D" stroke-linejoin="bevel"/>
<path d="M434 820L526 806L463 707L434 820Z" fill="#7D1563" stroke="#7D1563" stroke-linejoin="bevel"/>
<path d="M463 707L526 806L614 688L463 707Z" fill="#101F40" stroke="#101F40" stroke-linejoin="bevel"/>
<path d="M434 820L391 680L304 793L434 820Z" fill="#5F2063" stroke="#5F2063" stroke-linejoin="bevel"/>
<path d="M808 310L785 215L700 317L808 310Z" fill="#5F2063" stroke="#5F2063" stroke-linejoin="bevel"/>
<path d="M696 202L735 114L626 192L696 202Z" fill="#B50051" stroke="#B50051" stroke-linejoin="bevel"/>
<path d="M304 793L391 680L301 699L304 793Z" fill="#101F40" stroke="#101F40" stroke-linejoin="bevel"/>
<path d="M232 785L301 699L219 664L232 785Z" fill="#9A005D" stroke="#9A005D" stroke-linejoin="bevel"/>
<path d="M232 785L304 793L301 699L232 785Z" fill="#272350" stroke="#272350" stroke-linejoin="bevel"/>
<path d="M87 397L66 514L172 518L87 397Z" fill="#04192E" stroke="#04192E" stroke-linejoin="bevel"/>
<path d="M98 700L232 785L219 664L98 700Z" fill="#5F2063" stroke="#5F2063" stroke-linejoin="bevel"/>
<path d="M233 0L213 94L279 106L233 0Z" fill="#101F40" stroke="#101F40" stroke-linejoin="bevel"/>
<path d="M279 106L213 94L199 185L279 106Z" fill="#5F2063" stroke="#5F2063" stroke-linejoin="bevel"/>
<path d="M785 215L735 114L696 202L785 215Z" fill="#B50051" stroke="#B50051" stroke-linejoin="bevel"/>
<path d="M575 127L494 0L493 128L575 127Z" fill="#00101C" stroke="#00101C" stroke-linejoin="bevel"/>
<path d="M421 102L382 0L279 106L421 102Z" fill="#7D1563" stroke="#7D1563" stroke-linejoin="bevel"/>
<path d="M526 806L622 810L614 688L526 806Z" fill="#101F40" stroke="#101F40" stroke-linejoin="bevel"/>
<path d="M680 686L779 714L702 602L680 686Z" fill="#5F2063" stroke="#5F2063" stroke-linejoin="bevel"/>
<path d="M672 820L622 810L677 900L672 820Z" fill="#101F40" stroke="#101F40" stroke-linejoin="bevel"/>
<path d="M98 700L203 613L139 566L98 700Z" fill="#9A005D" stroke="#9A005D" stroke-linejoin="bevel"/>
<path d="M403 900H504L434 820L403 900Z" fill="#42245C" stroke="#42245C" stroke-linejoin="bevel"/>
<path d="M636 0H494L575 127L636 0Z" fill="#272350" stroke="#272350" stroke-linejoin="bevel"/>
<path d="M494 0H382L421 102L494 0Z" fill="#9A005D" stroke="#9A005D" stroke-linejoin="bevel"/>
<path d="M672 820L779 714L680 686L672 820Z" fill="#CA0040" stroke="#CA0040" stroke-linejoin="bevel"/>
<path d="M900 499V394L795 488L900 499Z" fill="#7D1563" stroke="#7D1563" stroke-linejoin="bevel"/>
<path d="M795 488L900 394L777 438L795 488Z" fill="#101F40" stroke="#101F40" stroke-linejoin="bevel"/>
<path d="M808 310L900 283L785 215L808 310Z" fill="#D90429" stroke="#D90429" stroke-linejoin="bevel"/>
<path d="M785 215L791 120L735 114L785 215Z" fill="#9A005D" stroke="#9A005D" stroke-linejoin="bevel"/>
<path d="M900 499L795 488L900 588V499Z" fill="#B50051" stroke="#B50051" stroke-linejoin="bevel"/>
<path d="M622 810L672 820L680 686L622 810Z" fill="#B50051" stroke="#B50051" stroke-linejoin="bevel"/>
<path d="M585 900L622 810L526 806L585 900Z" fill="#272350" stroke="#272350" stroke-linejoin="bevel"/>
<path d="M900 588L795 488L769 563L900 588Z" fill="#CA0040" stroke="#CA0040" stroke-linejoin="bevel"/>
<path d="M0 585L98 700L139 566L0 585Z" fill="#9A005D" stroke="#9A005D" stroke-linejoin="bevel"/>
<path d="M900 168L791 120L785 215L900 168Z" fill="#42245C" stroke="#42245C" stroke-linejoin="bevel"/>
<path d="M735 114L636 0L575 127L735 114Z" fill="#42245C" stroke="#42245C" stroke-linejoin="bevel"/>
<path d="M87 397L0 487L66 514L87 397Z" fill="#CA0040" stroke="#CA0040" stroke-linejoin="bevel"/>
<path d="M66 514L0 585L139 566L66 514Z" fill="#B50051" stroke="#B50051" stroke-linejoin="bevel"/>
<path d="M0 361L87 397L0 323V361Z" fill="#5F2063" stroke="#5F2063" stroke-linejoin="bevel"/>
<path d="M0 323L133 269L0 187V323Z" fill="#D90429" stroke="#D90429" stroke-linejoin="bevel"/>
<path d="M0 323L87 397L133 269L0 323Z" fill="#101F40" stroke="#101F40" stroke-linejoin="bevel"/>
<path d="M382 0H280L279 106L382 0Z" fill="#5F2063" stroke="#5F2063" stroke-linejoin="bevel"/>
<path d="M0 187L133 269L138 232L0 187Z" fill="#5F2063" stroke="#5F2063" stroke-linejoin="bevel"/>
<path d="M717 0H636L735 114L717 0Z" fill="#CA0040" stroke="#CA0040" stroke-linejoin="bevel"/>
<path d="M900 394V283L808 310L900 394Z" fill="#42245C" stroke="#42245C" stroke-linejoin="bevel"/>
<path d="M70 118L199 185L213 94L70 118Z" fill="#CA0040" stroke="#CA0040" stroke-linejoin="bevel"/>
<path d="M779 714L900 588L769 563L779 714Z" fill="#5F2063" stroke="#5F2063" stroke-linejoin="bevel"/>
<path d="M403 900L434 820L304 793L403 900Z" fill="#42245C" stroke="#42245C" stroke-linejoin="bevel"/>
<path d="M434 820L504 900L526 806L434 820Z" fill="#7D1563" stroke="#7D1563" stroke-linejoin="bevel"/>
<path d="M287 900H403L304 793L287 900Z" fill="#272350" stroke="#272350" stroke-linejoin="bevel"/>
<path d="M287 900L304 793L232 785L287 900Z" fill="#272350" stroke="#272350" stroke-linejoin="bevel"/>
<path d="M280 0H233L279 106L280 0Z" fill="#272350" stroke="#272350" stroke-linejoin="bevel"/>
<path d="M0 487V585L66 514L0 487Z" fill="#101F40" stroke="#101F40" stroke-linejoin="bevel"/>
<path d="M504 900H585L526 806L504 900Z" fill="#101F40" stroke="#101F40" stroke-linejoin="bevel"/>
<path d="M103 0L70 118L213 94L103 0Z" fill="#D90429" stroke="#D90429" stroke-linejoin="bevel"/>
<path d="M769 0L735 114L791 120L769 0Z" fill="#272350" stroke="#272350" stroke-linejoin="bevel"/>
<path d="M769 0H717L735 114L769 0Z" fill="#D90429" stroke="#D90429" stroke-linejoin="bevel"/>
<path d="M225 900H287L232 785L225 900Z" fill="#B50051" stroke="#B50051" stroke-linejoin="bevel"/>
<path d="M900 283V168L785 215L900 283Z" fill="#B50051" stroke="#B50051" stroke-linejoin="bevel"/>
<path d="M70 118L0 187L138 232L70 118Z" fill="#42245C" stroke="#42245C" stroke-linejoin="bevel"/>
<path d="M0 585V666L98 700L0 585Z" fill="#D90429" stroke="#D90429" stroke-linejoin="bevel"/>
<path d="M78 801L225 900L232 785L78 801Z" fill="#5F2063" stroke="#5F2063" stroke-linejoin="bevel"/>
<path d="M585 900H677L622 810L585 900Z" fill="#00101C" stroke="#00101C" stroke-linejoin="bevel"/>
<path d="M672 820L792 835L779 714L672 820Z" fill="#101F40" stroke="#101F40" stroke-linejoin="bevel"/>
<path d="M779 714L900 708V588L779 714Z" fill="#42245C" stroke="#42245C" stroke-linejoin="bevel"/>
<path d="M900 783V708L779 714L900 783Z" fill="#D90429" stroke="#D90429" stroke-linejoin="bevel"/>
<path d="M78 801L232 785L98 700L78 801Z" fill="#00101C" stroke="#00101C" stroke-linejoin="bevel"/>
<path d="M900 0H769L791 120L900 0Z" fill="#00101C" stroke="#00101C" stroke-linejoin="bevel"/>
<path d="M677 900L792 835L672 820L677 900Z" fill="#101F40" stroke="#101F40" stroke-linejoin="bevel"/>
<path d="M0 787L78 801L98 700L0 787Z" fill="#D90429" stroke="#D90429" stroke-linejoin="bevel"/>
<path d="M900 168V115L791 120L900 168Z" fill="#7D1563" stroke="#7D1563" stroke-linejoin="bevel"/>
<path d="M233 0H103L213 94L233 0Z" fill="#272350" stroke="#272350" stroke-linejoin="bevel"/>
<path d="M70 118L0 85V187L70 118Z" fill="#00101C" stroke="#00101C" stroke-linejoin="bevel"/>
<path d="M103 0L0 85L70 118L103 0Z" fill="#7D1563" stroke="#7D1563" stroke-linejoin="bevel"/>
<path d="M828 900L900 783L792 835L828 900Z" fill="#9A005D" stroke="#9A005D" stroke-linejoin="bevel"/>
<path d="M792 835L900 783L779 714L792 835Z" fill="#9A005D" stroke="#9A005D" stroke-linejoin="bevel"/>
<path d="M0 666V787L98 700L0 666Z" fill="#04192E" stroke="#04192E" stroke-linejoin="bevel"/>
<path d="M78 801L83 900H225L78 801Z" fill="#D90429" stroke="#D90429" stroke-linejoin="bevel"/>
<path d="M677 900H828L792 835L677 900Z" fill="#101F40" stroke="#101F40" stroke-linejoin="bevel"/>
<path d="M0 900H83L78 801L0 900Z" fill="#00101C" stroke="#00101C" stroke-linejoin="bevel"/>
<path d="M900 115V0L791 120L900 115Z" fill="#00101C" stroke="#00101C" stroke-linejoin="bevel"/>
<path d="M103 0H0V85L103 0Z" fill="#B50051" stroke="#B50051" stroke-linejoin="bevel"/>
<path d="M828 900H900V783L828 900Z" fill="#D90429" stroke="#D90429" stroke-linejoin="bevel"/>
<path d="M0 787V900L78 801L0 787Z" fill="#04192E" stroke="#04192E" stroke-linejoin="bevel"/>
</svg>
