<svg width="669" height="608" viewBox="0 0 669 608" fill="none" xmlns="http://www.w3.org/2000/svg">
<g clip-path="url(#clip0_179_1430)">
<path d="M385.32 606.19H192.2C164.11 606.19 141.26 583.34 141.26 555.25V50.94C141.26 22.85 164.11 0 192.2 0H385.32C413.41 0 436.26 22.85 436.26 50.94V555.25C436.26 583.34 413.41 606.19 385.32 606.19Z" fill="#D7D7D8"/>
<path d="M385.46 592.4H192.06C171.27 592.4 154.35 575.48 154.35 554.69V50.5098C154.35 29.7198 171.27 12.7998 192.06 12.7998H385.46C406.25 12.7998 423.17 29.7198 423.17 50.5098V554.69C423.17 575.48 406.25 592.4 385.46 592.4Z" fill="white"/>
<path d="M316.1 46.3602H261.41C254.19 46.3602 248.32 40.4902 248.32 33.2702C248.32 26.0502 254.19 20.1802 261.41 20.1802H316.1C323.32 20.1802 329.19 26.0502 329.19 33.2702C329.19 40.4902 323.32 46.3602 316.1 46.3602Z" fill="#D7D7D8"/>
<path d="M301.5 279.12V315.07H197.67C187.76 315.07 179.69 307.01 179.69 297.09C179.69 287.17 187.76 279.12 197.67 279.12H301.5Z" fill="#D90429"/>
<path d="M379.85 279.12H197.67C187.76 279.12 179.69 287.18 179.69 297.09C179.69 307 187.76 315.07 197.67 315.07H379.85C389.77 315.07 397.83 307.01 397.83 297.09C397.83 287.17 389.77 279.12 379.85 279.12ZM379.85 309.07H197.67C191.07 309.07 185.69 303.7 185.69 297.09C185.69 290.48 191.07 285.12 197.67 285.12H379.85C386.46 285.12 391.83 290.49 391.83 297.09C391.83 303.69 386.46 309.07 379.85 309.07Z" fill="#D7D7D8"/>
<path d="M668.6 606.19C668.6 606.85 668.07 607.38 667.41 607.38H1.19C0.53 607.38 0 606.85 0 606.19C0 605.53 0.53 605 1.19 605H667.41C668.07 605 668.6 605.53 668.6 606.19Z" fill="#2E2E43"/>
<path d="M525.074 539.198L507.919 550.165L523.475 574.497L540.629 563.531L525.074 539.198Z" fill="#F3A3A6"/>
<path d="M470.67 212.1L449 219.5L448.66 188.21L468.38 187.99L470.67 212.1Z" fill="#F3A3A6"/>
<path d="M451.19 196.85C463.158 196.85 472.86 187.148 472.86 175.18C472.86 163.212 463.158 153.51 451.19 153.51C439.222 153.51 429.52 163.212 429.52 175.18C429.52 187.148 439.222 196.85 451.19 196.85Z" fill="#F3A3A6"/>
<path d="M457.12 172.97C453.5 172.9 451.07 169.27 449.62 165.93C448.17 162.61 446.68 158.77 443.31 157.42C440.55 156.32 435.79 164 433.59 162C431.3 159.91 433.39 148.99 435.78 147.02C438.17 145.05 441.45 144.63 444.53 144.44C452.08 144.01 459.67 144.53 467.09 146C471.67 146.9 476.41 148.29 479.74 151.56C483.97 155.71 485.11 162.03 485.47 167.94C485.85 173.99 485.56 180.33 482.68 185.67C479.79 191 473.68 194.97 467.75 193.69C467.12 190.48 467.68 187.19 467.88 183.91C468.08 180.65 467.79 177.13 465.77 174.55C463.75 171.97 459.49 170.99 457.2 173.32" fill="#2F2E43"/>
<path d="M483.86 180.18C486.01 178.57 488.58 177.21 491.25 177.51C494.14 177.82 496.6 180.18 497.37 182.98C498.14 185.78 497.34 188.88 495.59 191.2C493.84 193.52 491.21 195.06 488.41 195.85C486.79 196.31 485.02 196.5 483.46 195.85C481.17 194.89 479.91 192 480.78 189.67" fill="#2F2E43"/>
<path d="M403.22 384.9C401.86 392.03 404.57 398.51 409.29 399.36C414 400.21 418.93 395.11 420.3 387.98C420.89 385.14 420.76 382.2 419.92 379.41L436.59 267.65L414.13 263.69L406.74 377.05C404.93 379.37 403.72 382.06 403.22 384.93V384.9Z" fill="#F3A3A6"/>
<path d="M448.6 205.14L433.3 205.31C422.5 207.06 419.63 212.87 417.3 223.55C413.73 239.84 409.17 261.55 410.13 261.85C411.66 262.35 437.83 274.31 451.08 271.35L448.61 205.14H448.6Z" fill="#D90429"/>
<path d="M467.391 560.353L447.032 560.58L447.355 589.458L467.714 589.231L467.391 560.353Z" fill="#F3A3A6"/>
<path d="M427.67 607.17C425.52 607.2 423.63 607.17 422.19 607.05C416.77 606.62 411.58 602.68 408.95 600.38C407.77 599.35 407.38 597.67 407.97 596.23C408.39 595.2 409.25 594.41 410.33 594.08L424.58 589.84L447.55 573.97L447.81 574.43C447.91 574.6 450.23 578.67 451.02 581.43C451.32 582.48 451.26 583.35 450.82 584.03C450.52 584.5 450.1 584.78 449.76 584.95C450.18 585.38 451.5 586.26 455.56 586.86C461.46 587.74 462.65 581.6 462.69 581.34L462.73 581.13L462.9 581.01C465.69 579.16 467.4 578.33 468 578.5C468.38 578.6 468.99 578.79 470.85 595.43C471.02 595.95 472.24 599.77 471.48 603.45C470.66 607.45 453.21 606.26 449.73 605.99C449.63 606 436.59 607.08 427.65 607.17H427.68H427.67Z" fill="#2F2E43"/>
<path d="M502.84 602.37C500.45 602.4 498.25 602.13 496.68 601.87C495.14 601.61 493.92 600.4 493.66 598.86C493.46 597.75 493.79 596.64 494.52 595.8L504.36 584.66L515.44 559.04L515.91 559.29C516.08 559.38 520.2 561.61 522.34 563.53C523.15 564.26 523.56 565.03 523.56 565.85C523.56 566.41 523.35 566.87 523.14 567.18C523.73 567.32 525.31 567.36 529.07 565.73C534.54 563.35 532.3 557.51 532.2 557.28L532.12 557.08L532.21 556.9C533.6 553.86 534.62 552.24 535.21 552.06C535.59 551.96 536.2 551.77 546.59 564.91C547.01 565.26 550.07 567.85 551.37 571.37C552.78 575.2 537.37 583.42 534.25 585.03C534.16 585.11 518.05 597.08 511.43 600.51C508.8 601.87 505.67 602.32 502.82 602.34L502.85 602.37H502.84Z" fill="#2F2E43"/>
<path d="M479.66 318.62L422.66 319.25L418.08 372.33L442.89 568.01L471.99 567.68L459.1 454.65L507.44 556.3L533.1 537.9L495.18 442.92C495.18 442.92 507.43 359.68 496.85 339.1C486.28 318.52 479.67 318.59 479.67 318.59V318.62H479.66Z" fill="#2F2E43"/>
<path d="M508.04 321.54L417.51 322.55L443.37 205.21L482.82 204.76L508.04 321.54Z" fill="#D90429"/>
<path d="M516.88 383.64C518.4 390.75 515.83 397.28 511.14 398.23C506.44 399.19 501.4 394.2 499.89 387.09C499.24 384.26 499.3 381.32 500.07 378.51L480.91 267.14L503.27 262.68L513.18 375.86C515.04 378.14 516.31 380.81 516.88 383.66V383.64Z" fill="#F3A3A6"/>
<path d="M467.53 204.93L482.83 204.76C493.66 206.28 496.66 212.02 499.24 222.65C503.17 238.86 508.2 260.45 507.26 260.78C505.73 261.3 479.85 273.84 466.54 271.18L467.55 204.93H467.53Z" fill="#D90429"/>
</g>
<defs>
<clipPath id="clip0_179_1430">
<rect width="668.6" height="607.38" fill="white"/>
</clipPath>
</defs>
</svg>
