<svg width="655" height="452" viewBox="0 0 655 452" fill="none" xmlns="http://www.w3.org/2000/svg">
<g clip-path="url(#clip0_179_1098)">
<path d="M642.88 -0.000976562H11.1358C8.15802 0.028071 5.31334 1.23698 3.22571 3.36061C1.13807 5.48424 -0.0220401 8.34919 -0.000184997 11.327V440.535C-0.0161848 443.508 1.14671 446.367 3.23388 448.485C5.32106 450.603 8.16241 451.808 11.1358 451.835H642.88C645.853 451.807 648.694 450.603 650.781 448.485C652.869 446.367 654.032 443.508 654.016 440.535V11.328C654.038 8.35035 652.878 5.48557 650.79 3.36197C648.703 1.23837 645.858 0.0293259 642.881 1.52588e-05L642.88 -0.000976562Z" fill="#090814"/>
<path d="M624.21 2.24321H11.803C8.93707 2.24824 6.19023 3.39019 4.16541 5.41838C2.14059 7.44658 1.00319 10.1953 1.00293 13.0612V422.918C1.00663 425.781 2.1457 428.526 4.17029 430.551C6.19488 432.575 8.93978 433.714 11.803 433.718H624.21C627.073 433.714 629.818 432.575 631.843 430.551C633.867 428.526 635.006 425.781 635.01 422.918V13.0592C635.01 10.1942 633.873 7.44628 631.85 5.4182C629.826 3.39012 627.081 2.24757 624.216 2.24121L624.21 2.24321Z" fill="white"/>
<path d="M456.727 168.792H159.86C157.086 168.789 154.426 167.685 152.464 165.723C150.502 163.761 149.398 161.101 149.395 158.327V126.383C149.398 123.608 150.502 120.948 152.464 118.987C154.426 117.025 157.086 115.921 159.86 115.918H456.727C459.502 115.921 462.161 117.025 464.123 118.987C466.085 120.948 467.189 123.608 467.192 126.383V158.328C467.189 161.102 466.085 163.762 464.123 165.724C462.161 167.686 459.502 168.79 456.727 168.793V168.792ZM159.86 117.017C157.378 117.02 154.998 118.007 153.242 119.762C151.487 121.518 150.5 123.898 150.497 126.38V158.325C150.5 160.807 151.487 163.187 153.242 164.943C154.998 166.698 157.378 167.685 159.86 167.688H456.727C459.209 167.685 461.589 166.698 463.345 164.943C465.1 163.187 466.087 160.807 466.09 158.325V126.383C466.088 123.9 465.101 121.519 463.346 119.763C461.59 118.007 459.21 117.02 456.727 117.017H159.86Z" fill="#CCCCCC"/>
<path d="M199.974 160.569C196.371 160.569 192.849 159.501 189.854 157.5C186.858 155.498 184.523 152.654 183.145 149.325C181.766 145.997 181.405 142.335 182.108 138.801C182.81 135.268 184.545 132.022 187.093 129.475C189.64 126.927 192.885 125.192 196.419 124.489C199.952 123.786 203.615 124.147 206.943 125.526C210.272 126.904 213.116 129.239 215.118 132.234C217.12 135.23 218.188 138.752 218.188 142.354C218.188 144.746 217.717 147.115 216.802 149.325C215.886 151.535 214.545 153.543 212.853 155.234C211.162 156.925 209.154 158.267 206.944 159.183C204.734 160.098 202.366 160.569 199.974 160.569Z" fill="#E6E6E6"/>
<path d="M429.83 157.226H235.413C234.244 157.226 233.123 156.762 232.297 155.935C231.471 155.109 231.006 153.988 231.006 152.82C231.006 151.651 231.471 150.53 232.297 149.704C233.123 148.877 234.244 148.413 235.413 148.413H429.83C430.999 148.413 432.119 148.877 432.946 149.704C433.772 150.53 434.236 151.651 434.236 152.82C434.236 153.988 433.772 155.109 432.946 155.935C432.119 156.762 430.999 157.226 429.83 157.226Z" fill="#E6E6E6"/>
<path d="M366.492 138.5H235.409C234.24 138.5 233.119 138.036 232.293 137.209C231.467 136.383 231.002 135.262 231.002 134.094C231.002 132.925 231.467 131.804 232.293 130.978C233.119 130.151 234.24 129.687 235.409 129.687H366.492C367.661 129.687 368.781 130.151 369.608 130.978C370.434 131.804 370.898 132.925 370.898 134.094C370.898 135.262 370.434 136.383 369.608 137.209C368.781 138.036 367.661 138.5 366.492 138.5Z" fill="#E6E6E6"/>
<path d="M457.679 315.153H160.812C158.037 315.15 155.377 314.046 153.415 312.084C151.453 310.122 150.35 307.462 150.347 304.688V272.744C150.35 269.969 151.453 267.309 153.415 265.347C155.377 263.386 158.037 262.282 160.812 262.279H457.679C460.453 262.282 463.113 263.386 465.075 265.347C467.037 267.309 468.141 269.969 468.144 272.744V304.689C468.141 307.463 467.037 310.123 465.075 312.085C463.113 314.047 460.453 315.151 457.679 315.154V315.153ZM160.812 263.378C158.329 263.38 155.949 264.368 154.194 266.123C152.439 267.878 151.451 270.258 151.449 272.741V304.686C151.451 307.168 152.439 309.548 154.194 311.304C155.949 313.059 158.329 314.046 160.812 314.049H457.679C460.161 314.046 462.541 313.059 464.296 311.304C466.052 309.548 467.039 307.168 467.042 304.686V272.744C467.04 270.261 466.053 267.88 464.297 266.124C462.542 264.368 460.162 263.38 457.679 263.378H160.812Z" fill="#CCCCCC"/>
<path d="M200.925 306.93C197.323 306.93 193.801 305.862 190.805 303.861C187.81 301.859 185.475 299.015 184.096 295.686C182.718 292.358 182.357 288.695 183.059 285.162C183.762 281.629 185.497 278.383 188.044 275.835C190.592 273.288 193.837 271.553 197.371 270.85C200.904 270.147 204.566 270.508 207.895 271.886C211.223 273.265 214.068 275.6 216.07 278.595C218.071 281.591 219.139 285.112 219.139 288.715C219.14 291.107 218.669 293.476 217.753 295.686C216.838 297.895 215.496 299.903 213.805 301.595C212.114 303.286 210.106 304.628 207.896 305.543C205.686 306.459 203.317 306.93 200.925 306.93Z" fill="#E6E6E6"/>
<path d="M430.781 303.587H236.365C235.196 303.587 234.075 303.122 233.249 302.296C232.422 301.47 231.958 300.349 231.958 299.18C231.958 298.012 232.422 296.891 233.249 296.064C234.075 295.238 235.196 294.774 236.365 294.774H430.781C431.95 294.774 433.071 295.238 433.897 296.064C434.724 296.891 435.188 298.012 435.188 299.18C435.188 300.349 434.724 301.47 433.897 302.296C433.071 303.122 431.95 303.587 430.781 303.587Z" fill="#E6E6E6"/>
<path d="M367.444 284.861H236.361C235.192 284.861 234.071 284.397 233.245 283.57C232.418 282.744 231.954 281.623 231.954 280.454C231.954 279.286 232.418 278.165 233.245 277.339C234.071 276.512 235.192 276.048 236.361 276.048H367.444C368.612 276.048 369.733 276.512 370.559 277.339C371.386 278.165 371.85 279.286 371.85 280.454C371.85 281.623 371.386 282.744 370.559 283.57C369.733 284.397 368.612 284.861 367.444 284.861Z" fill="#E6E6E6"/>
<path d="M457.679 388.335H160.812C158.037 388.332 155.377 387.228 153.415 385.266C151.453 383.304 150.35 380.644 150.347 377.87V345.926C150.35 343.151 151.453 340.491 153.415 338.53C155.377 336.568 158.037 335.464 160.812 335.461H457.679C460.453 335.464 463.113 336.568 465.075 338.53C467.037 340.491 468.141 343.151 468.144 345.926V377.871C468.141 380.645 467.037 383.305 465.075 385.267C463.113 387.229 460.453 388.333 457.679 388.336V388.335ZM160.812 336.56C158.329 336.563 155.949 337.55 154.194 339.305C152.439 341.061 151.451 343.441 151.449 345.923V377.868C151.451 380.35 152.439 382.73 154.194 384.486C155.949 386.241 158.329 387.228 160.812 387.231H457.679C460.161 387.228 462.541 386.241 464.296 384.486C466.052 382.73 467.039 380.35 467.042 377.868V345.926C467.04 343.443 466.053 341.062 464.297 339.306C462.542 337.55 460.162 336.563 457.679 336.56H160.812Z" fill="#CCCCCC"/>
<path d="M200.925 380.112C197.323 380.112 193.801 379.044 190.805 377.043C187.81 375.041 185.475 372.196 184.096 368.868C182.718 365.54 182.357 361.877 183.059 358.344C183.762 354.81 185.497 351.565 188.044 349.017C190.592 346.47 193.837 344.735 197.371 344.032C200.904 343.329 204.566 343.69 207.895 345.068C211.223 346.447 214.068 348.782 216.07 351.777C218.071 354.773 219.139 358.294 219.139 361.897C219.14 364.289 218.669 366.657 217.753 368.867C216.838 371.077 215.496 373.085 213.805 374.777C212.114 376.468 210.106 377.81 207.896 378.725C205.686 379.641 203.317 380.112 200.925 380.112Z" fill="#E6E6E6"/>
<path d="M430.781 376.769H236.365C235.196 376.769 234.075 376.305 233.249 375.478C232.422 374.652 231.958 373.531 231.958 372.362C231.958 371.194 232.422 370.073 233.249 369.246C234.075 368.42 235.196 367.956 236.365 367.956H430.781C431.95 367.956 433.071 368.42 433.897 369.246C434.724 370.073 435.188 371.194 435.188 372.362C435.188 373.531 434.724 374.652 433.897 375.478C433.071 376.305 431.95 376.769 430.781 376.769Z" fill="#E6E6E6"/>
<path d="M367.444 358.043H236.361C235.192 358.043 234.071 357.579 233.245 356.752C232.418 355.926 231.954 354.805 231.954 353.637C231.954 352.468 232.418 351.347 233.245 350.521C234.071 349.694 235.192 349.23 236.361 349.23H367.444C368.612 349.23 369.733 349.694 370.559 350.521C371.386 351.347 371.85 352.468 371.85 353.637C371.85 354.805 371.386 355.926 370.559 356.752C369.733 357.579 368.612 358.043 367.444 358.043Z" fill="#E6E6E6"/>
<path d="M456.727 241.973H159.86C157.086 241.97 154.426 240.866 152.464 238.904C150.502 236.943 149.398 234.283 149.395 231.508V199.564C149.398 196.79 150.502 194.13 152.464 192.168C154.426 190.206 157.086 189.102 159.86 189.099H456.727C459.502 189.102 462.161 190.206 464.123 192.168C466.085 194.13 467.189 196.79 467.192 199.564V231.509C467.189 234.284 466.085 236.944 464.123 238.905C462.161 240.867 459.502 241.971 456.727 241.974V241.973ZM159.86 190.198C157.378 190.201 154.998 191.188 153.242 192.943C151.487 194.699 150.5 197.079 150.497 199.561V231.506C150.5 233.989 151.487 236.369 153.242 238.124C154.998 239.879 157.378 240.866 159.86 240.869H456.727C459.209 240.866 461.589 239.879 463.345 238.124C465.1 236.369 466.087 233.989 466.09 231.506V199.564C466.088 197.081 465.101 194.7 463.346 192.944C461.59 191.188 459.21 190.201 456.727 190.198H159.86Z" fill="#D90429"/>
<path d="M200.222 233.751C196.619 233.751 193.097 232.683 190.102 230.682C187.106 228.68 184.771 225.835 183.393 222.507C182.014 219.179 181.653 215.516 182.356 211.983C183.058 208.449 184.793 205.204 187.341 202.656C189.888 200.109 193.134 198.374 196.667 197.671C200.2 196.968 203.863 197.329 207.191 198.707C210.52 200.086 213.364 202.421 215.366 205.416C217.368 208.411 218.436 211.933 218.436 215.536C218.436 217.928 217.965 220.296 217.05 222.506C216.134 224.716 214.793 226.724 213.101 228.416C211.41 230.107 209.402 231.449 207.192 232.364C204.982 233.28 202.614 233.751 200.222 233.751Z" fill="#D90429"/>
<path d="M429.83 230.408H235.413C234.244 230.408 233.123 229.944 232.297 229.118C231.471 228.291 231.006 227.17 231.006 226.002C231.006 224.833 231.471 223.712 232.297 222.886C233.123 222.059 234.244 221.595 235.413 221.595H429.83C430.999 221.595 432.119 222.059 432.946 222.886C433.772 223.712 434.236 224.833 434.236 226.002C434.236 227.17 433.772 228.291 432.946 229.118C432.119 229.944 430.999 230.408 429.83 230.408Z" fill="#D90429"/>
<path d="M366.492 211.682H235.409C234.24 211.682 233.119 211.218 232.293 210.392C231.467 209.565 231.002 208.444 231.002 207.276C231.002 206.107 231.467 204.986 232.293 204.16C233.119 203.333 234.24 202.869 235.409 202.869H366.492C367.661 202.869 368.781 203.333 369.608 204.16C370.434 204.986 370.898 206.107 370.898 207.276C370.898 208.444 370.434 209.565 369.608 210.392C368.781 211.218 367.661 211.682 366.492 211.682Z" fill="#D90429"/>
<path d="M197.693 226.002C197.051 226.004 196.425 225.796 195.911 225.411L195.879 225.387L189.179 220.259C188.861 220.024 188.593 219.727 188.391 219.387C188.188 219.047 188.056 218.671 188.001 218.279C187.946 217.887 187.969 217.488 188.07 217.106C188.17 216.723 188.346 216.364 188.587 216.05C188.828 215.736 189.128 215.474 189.472 215.277C189.815 215.081 190.194 214.955 190.587 214.906C190.979 214.858 191.378 214.888 191.759 214.995C192.139 215.102 192.495 215.284 192.805 215.53L197.148 218.86L207.409 205.473C207.647 205.162 207.943 204.902 208.282 204.706C208.62 204.51 208.994 204.383 209.382 204.332C209.77 204.281 210.164 204.306 210.542 204.408C210.92 204.509 211.274 204.684 211.584 204.922L211.521 205.015L211.586 204.922C212.212 205.403 212.622 206.113 212.725 206.896C212.828 207.679 212.616 208.471 212.136 209.098L200.067 224.837C199.787 225.199 199.428 225.492 199.017 225.693C198.606 225.893 198.154 225.997 197.697 225.995L197.693 226.002Z" fill="white"/>
<path d="M314.733 64.5931H313.358C312.126 64.5915 310.945 64.1015 310.074 63.2305C309.203 62.3596 308.713 61.1788 308.712 59.9471V58.7931C308.62 56.3214 309.175 53.8686 310.322 51.6771C311.617 49.5115 313.129 47.4825 314.833 45.6211C315.964 44.4824 316.99 43.2441 317.899 41.9211C318.551 40.8944 318.887 39.6991 318.867 38.4831C318.867 35.6151 316.998 34.2201 313.154 34.2201C311.02 34.2439 308.9 34.5619 306.854 35.1651C306.065 35.3907 305.234 35.43 304.427 35.2798C303.62 35.1296 302.859 34.794 302.204 34.2996C301.549 33.8051 301.017 33.1652 300.652 32.4304C300.286 31.6956 300.096 30.8858 300.097 30.0651V27.7281C300.092 26.722 300.38 25.7363 300.924 24.8903C301.469 24.0444 302.247 23.3745 303.165 22.9621C310.357 20.03 318.399 19.9584 325.643 22.7621C328.632 23.9533 331.242 25.9316 333.198 28.4871C334.988 30.9028 335.94 33.8374 335.908 36.8441C335.981 39.8428 335.059 42.7815 333.288 45.2021C331.126 47.9506 328.669 50.4537 325.962 52.6661C324.305 54.0427 322.736 55.5205 321.262 57.0911C320.31 58.1156 319.638 59.3672 319.309 60.7261C319.125 61.807 318.565 62.788 317.726 63.4945C316.888 64.2011 315.826 64.5875 314.73 64.5851L314.733 64.5931Z" fill="#D90429"/>
<path d="M313.972 86.4417H313.789C311.505 86.4417 309.314 85.5345 307.699 83.9195C306.085 82.3046 305.177 80.1142 305.177 77.8303C305.177 75.5463 306.085 73.356 307.699 71.741C309.314 70.126 311.505 69.2188 313.789 69.2188H313.97C316.254 69.2187 318.444 70.126 320.059 71.741C321.674 73.356 322.581 75.5463 322.581 77.8303C322.581 80.1142 321.674 82.3046 320.059 83.9195C318.444 85.5345 316.254 86.4417 313.97 86.4417H313.972Z" fill="#D90429"/>
</g>
<defs>
<clipPath id="clip0_179_1098">
<rect width="654.016" height="451.84" fill="white"/>
</clipPath>
</defs>
</svg>
