<svg width="330" height="350" viewBox="0 0 330 350" fill="none" xmlns="http://www.w3.org/2000/svg">
<g clip-path="url(#clip0_49_710)">
<path d="M185.433 160.38C272.651 160.38 253.171 119.478 253.171 206.722C253.171 293.967 245.469 268.603 158.25 268.603C71.0321 268.603 0 226.852 0 139.608C0 52.3634 98.2158 160.38 185.433 160.38Z" fill="#EDF2F4"/>
<path d="M107.146 129.309C111.186 125.97 116.184 125.348 118.308 127.92C120.432 130.492 118.876 135.284 114.836 138.624C113.24 139.98 111.342 140.934 109.302 141.407L92.0049 155.34L85.6416 147.081L103.369 134.221C104.218 132.305 105.513 130.62 107.146 129.308V129.309Z" fill="#ED9DA0"/>
<path d="M19.3638 117.997L15.647 137.511L34.1735 142.736L31.8717 121.902L19.3638 117.997Z" fill="#ED9DA0"/>
<path d="M7.17359 160.745C7.16484 160.129 7.17052 154.753 11.1484 151.357C15.718 147.455 22.1656 149.034 24.4272 149.588C29.6514 150.868 30.0799 153.11 34.9857 155.413C44.1641 159.722 32.6638 157.516 38.1253 156.134C40.0157 155.656 67.2125 153.769 73.982 149.601C87.1484 141.495 96.1196 136.58 96.1196 136.58L101.984 148.313C101.984 148.313 93.5042 160.108 81.5688 168.846C69.325 177.809 63.2031 182.291 53.9014 184.024C53.1003 184.173 33.3975 187.538 17.5283 175.679C13.9085 172.974 7.27635 168.017 7.17315 160.747L7.17359 160.745Z" fill="#D90429"/>
<path d="M25.366 130.906C36.6492 130.906 45.796 121.756 45.796 110.47C45.796 99.1829 36.6492 90.0333 25.366 90.0333C14.0829 90.0333 4.93604 99.1829 4.93604 110.47C4.93604 121.756 14.0829 130.906 25.366 130.906Z" fill="#ED9DA0"/>
<path d="M185.366 247.769L164.326 226.225L153.465 237.558L169.141 258.214L184.69 259.993L185.366 247.769Z" fill="#ED9DA0"/>
<path d="M65.2266 207.369C66.457 207.471 70.368 208.255 74.1059 206.197C75.8634 205.193 77.3419 203.764 78.4069 202.042C83.8891 193.806 104.93 180.963 123.815 180.172C128.091 179.993 130.906 180.488 133.464 181.822C137.094 183.714 138.541 186.424 143.144 192.772C145.663 196.244 148.449 199.515 150.997 202.963C165.918 223.161 171.575 224.746 170.997 231.222C170.355 238.407 162.609 245.223 157.461 244.436C155.352 244.114 154.536 242.647 151.719 239.678C143.46 230.974 140.044 232.582 134.162 225.914C127.297 218.128 128.195 211.676 124.614 211.426C121.29 211.195 119.88 216.701 112.789 224.016C109.544 227.363 107.235 228.898 100.195 233.783C72.7814 252.808 72.3437 254.144 66.8112 255.662C64.3905 256.326 47.2107 261.037 41.0911 253.539C31.5147 241.806 54.139 206.444 65.2287 207.366L65.2266 207.369Z" fill="#2B2D42"/>
<path d="M178.934 252.636C180.482 251.941 182.291 251.128 182.873 249.259C183.07 248.602 183.114 247.909 183.002 247.233C182.89 246.557 182.624 245.915 182.226 245.358C181.287 244.114 179.896 243.95 179.952 243.73C180.04 243.395 183.326 243.527 186.935 244.803C187.617 245.044 190.702 246.171 194.627 249.237C197.772 251.693 197.349 252.185 199.321 253.601C205.374 257.948 211.052 254.522 214.327 258.598C215.592 260.173 216.131 262.404 215.599 264.211C214.53 267.838 209.335 269.087 206.495 269.731C199.657 271.283 194.481 270.016 189.076 269.105C170.695 266.007 160.368 268.829 158.986 264.569C158.723 263.763 159.149 263.832 160.566 257.916C161.966 252.077 161.919 250.473 163.11 250.006C164.903 249.302 166.108 252.503 170.625 253.599C174.628 254.57 177.932 253.086 178.933 252.637L178.934 252.636Z" fill="#2B2D42"/>
<path d="M147.96 318.246L142.645 288.601L127.296 291.878L128.672 317.775L140.539 327.981L147.96 318.246Z" fill="#ED9DA0"/>
<path d="M71.2305 217.334C72.1925 218.11 74.9876 220.954 79.2353 221.352C81.2537 221.508 83.279 221.156 85.1271 220.33C94.2868 216.594 118.907 217.786 134.977 227.74C138.616 229.994 140.667 231.986 142.035 234.526C143.975 238.129 143.653 241.185 143.898 249.024C144.033 253.31 144.502 257.583 144.674 261.869C145.68 286.963 149.472 291.453 145.359 296.486C140.795 302.071 130.559 303.36 126.741 299.817C125.177 298.366 125.325 296.694 124.66 292.655C122.713 280.813 118.982 280.224 117.859 271.404C116.548 261.107 120.916 256.27 118.092 254.053C115.473 251.997 111.214 255.758 101.24 257.828C96.676 258.775 93.902 258.746 85.3348 258.834C51.9706 259.177 50.8591 260.037 45.4298 258.185C43.0541 257.375 26.194 251.624 25.3392 241.982C24.0011 226.894 62.5733 210.342 71.2313 217.333L71.2305 217.334Z" fill="#2B2D42"/>
<path d="M139.905 318.661C141.575 318.955 143.529 319.299 145.059 318.08C145.591 317.647 146.016 317.099 146.303 316.476C146.59 315.853 146.73 315.174 146.714 314.488C146.634 312.932 145.577 312.015 145.746 311.864C146.005 311.635 148.652 313.59 150.922 316.675C151.35 317.257 153.27 319.924 154.797 324.665C156.022 328.463 155.394 328.633 156.231 330.912C158.8 337.911 165.421 338.264 165.843 343.476C166.006 345.489 165.198 347.639 163.744 348.835C160.824 351.236 155.824 349.351 153.113 348.289C146.583 345.732 143.012 341.776 139.051 337.986C125.582 325.098 115.451 321.632 116.699 317.331C116.935 316.517 117.248 316.812 121.742 312.713C126.177 308.667 127.039 307.314 128.287 307.595C130.168 308.02 129.365 311.345 132.488 314.79C135.256 317.842 138.822 318.47 139.904 318.66L139.905 318.661Z" fill="#2B2D42"/>
<path d="M28.151 114.376C28.9464 111.53 27.9472 110.493 28.9656 109.214C28.9656 109.214 29.3754 108.7 33.0384 107.313C31.9575 101.04 32.7669 99.9791 32.7669 99.9791C33.6996 98.7566 35.5676 98.4613 36.8397 98.6231C39.5298 98.9613 40.006 101.394 41.7271 101.339C44.105 101.264 46.9565 96.5026 46.0715 92.376C45.3495 89.008 42.2361 86.5099 41.4556 86.9438C40.6816 87.3738 37.8961 85.4772 36.8397 85.8573C36.1182 86.1167 32.7223 85.7698 31.9522 86.1289C31.1114 86.5191 28.7033 88.9489 28.4728 88.6427C26.8728 86.5152 26.9069 85.7724 25.9804 85.314C24.3353 84.5017 22.5473 86.0034 19.4649 87.4871C13.1205 90.5398 11.2629 88.7188 8.3323 91.2895C6.85212 92.5882 6.05847 95.07 4.53106 99.9809C2.3954 106.848 1.32757 110.283 2.35867 113.561C3.41075 116.905 4.95959 116.177 7.24611 120.895C9.79106 126.146 11.4085 128.699 13.8136 129.902C15.6724 130.831 16.1648 130.739 17.2925 129.043C19.2236 126.139 14.2316 122.211 15.937 117.635C16.9821 114.826 20.2052 112.696 22.1822 113.29C24.4171 113.96 24.5819 117.97 25.9834 117.907C27.1837 117.854 28.0172 114.872 28.1558 114.376L28.151 114.376Z" fill="#2B2D42"/>
<path d="M89.3952 304.57L60.0504 294.184C59.264 293.905 58.6205 293.326 58.2611 292.572C57.9017 291.819 57.856 290.954 58.1338 290.167L71.8818 251.299C72.1606 250.513 72.7402 249.869 73.4932 249.51C74.2462 249.15 75.111 249.104 75.8978 249.382L105.243 259.769C106.029 260.048 106.672 260.627 107.032 261.38C107.391 262.134 107.437 262.999 107.159 263.786C106.996 278.389 102.02 291.199 93.4111 302.653C93.1323 303.44 92.5528 304.084 91.7998 304.443C91.0468 304.803 90.1819 304.848 89.3952 304.57Z" fill="#EDF2F4"/>
<path d="M78.5594 298.115L62.9368 292.585C62.2007 292.324 61.5984 291.781 61.2619 291.076C60.9254 290.371 60.8822 289.561 61.1418 288.824L73.3759 254.237C73.6378 253.501 74.1807 252.899 74.8856 252.562C75.5906 252.226 76.4 252.183 77.1365 252.443L102.357 261.366C103.093 261.628 103.696 262.171 104.032 262.876C104.369 263.581 104.412 264.391 104.152 265.128C102.709 275.539 100.491 284.879 95.3137 290.116C94.1492 293.397 91.7312 296.081 88.5902 297.581C85.4492 299.081 81.8417 299.273 78.5594 298.115Z" fill="white"/>
<path d="M72.2806 271.269C72.3925 270.956 72.6238 270.701 72.9237 270.559C73.2236 270.417 73.5676 270.399 73.8802 270.511L93.5253 277.525C93.8379 277.636 94.0934 277.868 94.2355 278.168C94.3777 278.468 94.3949 278.812 94.2833 279.125C94.1717 279.437 93.9405 279.693 93.6406 279.835C93.3407 279.977 92.9966 279.995 92.684 279.883L73.0367 272.868C72.7247 272.756 72.4699 272.525 72.3282 272.225C72.1865 271.925 72.1694 271.581 72.2806 271.269Z" fill="#D90429"/>
<path d="M89.9108 270.272C90.0228 269.96 90.254 269.705 90.5539 269.562C90.8537 269.42 91.1977 269.403 91.5103 269.514L95.8324 271.057C96.145 271.169 96.4005 271.4 96.5426 271.7C96.6848 272 96.7019 272.344 96.5904 272.657C96.4788 272.97 96.2476 273.225 95.9477 273.368C95.6478 273.51 95.3037 273.527 94.9911 273.415L90.669 271.872C90.3566 271.76 90.1013 271.529 89.9592 271.229C89.817 270.929 89.7996 270.585 89.9108 270.272Z" fill="#D90429"/>
<path d="M68.5807 281.635C68.6926 281.323 68.9238 281.067 69.2237 280.925C69.5235 280.783 69.8675 280.766 70.1802 280.877L89.8253 287.891C90.1379 288.003 90.3934 288.234 90.5355 288.534C90.6777 288.834 90.6949 289.178 90.5833 289.491C90.4718 289.804 90.2406 290.059 89.9406 290.201C89.6407 290.344 89.2966 290.361 88.984 290.249L69.3389 283.235C69.0265 283.123 68.7713 282.892 68.6291 282.592C68.487 282.292 68.4695 281.948 68.5807 281.635Z" fill="#D90429"/>
<path d="M70.4303 276.451C70.5422 276.139 70.7735 275.884 71.0733 275.742C71.3732 275.599 71.7172 275.582 72.0298 275.693L91.6749 282.708C91.9875 282.819 92.243 283.051 92.3852 283.351C92.5273 283.651 92.5445 283.995 92.433 284.308C92.3214 284.62 92.0902 284.876 91.7903 285.018C91.4903 285.16 91.1462 285.177 90.8336 285.066L71.1885 278.052C70.8761 277.94 70.6208 277.708 70.4787 277.408C70.3366 277.108 70.3191 276.764 70.4303 276.451Z" fill="#D90429"/>
<path d="M12.6747 133.931C16.8555 129.242 33.8826 134.096 35.4826 141.536C36.1385 144.598 33.7129 145.889 34.3964 149.413C35.396 154.567 41.0561 154.215 45.2575 159.462C51.2219 166.911 45.0773 174.192 51.7729 186.623C53.2036 189.28 54.4101 191.518 56.9327 193.685C62.7197 198.657 68.9115 215.329 67.2525 218.673C64.4893 224.237 67.618 228.322 67.7956 234.97C68.0177 243.287 63.5977 254.817 54.7625 258.6C44.8364 262.85 32.8611 255.811 27.0672 248.822C23.6096 244.652 22.607 240.805 21.0936 236.056C14.3337 214.835 10.5145 216.754 5.34503 199.932C-0.564762 180.702 -1.72661 158.172 5.34503 151.043C6.28212 150.098 8.86161 147.914 10.5049 143.981C12.7149 138.688 10.8057 136.031 12.6773 133.931H12.6747Z" fill="#D90429"/>
<path d="M74.4486 243.086C77.6902 247.206 78.1926 252.218 75.5711 254.281C72.9496 256.345 68.1982 254.675 64.9562 250.555C63.6391 248.927 62.7306 247.008 62.3068 244.957L48.7949 227.329L55.7774 222.001L69.6272 239.192C71.5219 240.086 73.175 241.421 74.4482 243.085L74.4486 243.086Z" fill="#ED9DA0"/>
<path d="M24.9586 151.802C25.5599 151.668 30.8212 150.577 34.9574 153.779C39.7088 157.457 39.4788 164.093 39.3979 166.42C39.2117 171.796 37.1049 172.675 35.8521 177.948C33.5078 187.815 37.9724 196.985 40.4391 202.052C42.7936 206.782 45.847 211.13 49.4964 214.951C60.1161 226.192 69.5919 232.104 69.5919 232.104L59.413 241.156C59.413 241.156 43.1983 236.214 32.2113 226.308C20.9409 216.148 3.60947 180.2 0.0168098 171.443C-0.292782 170.689 4.09004 182.947 12.4586 164.989C14.3674 160.893 17.8647 153.387 24.9595 151.802H24.9586Z" fill="#D90429"/>
<path d="M164.317 147.756C150.742 147.756 137.472 143.729 126.185 136.185C114.898 128.641 106.101 117.919 100.906 105.373C95.7114 92.828 94.3522 79.0236 97.0005 65.7056C99.6488 52.3876 106.186 40.1543 115.784 30.5525C125.383 20.9508 137.613 14.412 150.927 11.7628C164.24 9.11373 178.041 10.4733 190.582 15.6698C203.123 20.8662 213.843 29.666 221.384 40.9564C228.926 52.2469 232.952 65.5208 232.952 79.0997C232.952 88.1158 231.176 97.0435 227.727 105.373C224.278 113.703 219.222 121.272 212.849 127.647C206.476 134.022 198.909 139.079 190.582 142.53C182.255 145.98 173.33 147.756 164.317 147.756ZM164.317 11.5253C150.956 11.5253 137.895 15.4886 126.786 22.9138C115.676 30.339 107.018 40.8928 101.905 53.2405C96.7918 65.5882 95.4541 79.1753 98.0607 92.2835C100.667 105.392 107.101 117.432 116.549 126.883C125.997 136.333 138.034 142.769 151.138 145.377C164.242 147.984 177.825 146.646 190.169 141.531C202.513 136.416 213.063 127.755 220.486 116.642C227.909 105.53 231.871 92.4648 231.871 79.0997C231.871 61.1778 224.753 43.9899 212.085 31.3171C199.416 18.6444 182.233 11.5253 164.317 11.5253Z" fill="#090814"/>
<path d="M233.666 69.9836H277.676C277.819 69.9836 277.957 69.9267 278.058 69.8253C278.159 69.7239 278.216 69.5864 278.216 69.443C278.216 69.2996 278.159 69.1621 278.058 69.0607C277.957 68.9593 277.819 68.9023 277.676 68.9023H233.666C233.523 68.9023 233.386 68.9593 233.284 69.0607C233.183 69.1621 233.126 69.2996 233.126 69.443C233.126 69.5864 233.183 69.7239 233.284 69.8253C233.386 69.9267 233.523 69.9836 233.666 69.9836Z" fill="#2B2D42"/>
<path d="M293.249 112.976C284.326 101.104 279.168 87.8278 279 72.6903C278.712 71.8747 278.76 70.9783 279.132 70.1979C279.505 69.4174 280.171 68.8165 280.986 68.527L311.4 57.7623C312.216 57.4748 313.112 57.5225 313.892 57.895C314.672 58.2676 315.273 58.9345 315.562 59.7495L329.812 100.035C330.099 100.851 330.051 101.747 329.679 102.528C329.306 103.308 328.64 103.909 327.825 104.199L297.411 114.964C296.595 115.251 295.699 115.203 294.919 114.831C294.139 114.458 293.538 113.791 293.249 112.976V112.976Z" fill="#EDF2F4"/>
<path d="M291.279 99.9826C285.913 94.5548 283.616 84.874 282.119 74.0844C281.85 73.3205 281.894 72.4809 282.243 71.75C282.592 71.019 283.216 70.4563 283.979 70.1853L310.118 60.934C310.881 60.6647 311.721 60.7094 312.451 61.0583C313.182 61.4073 313.745 62.0319 314.016 62.7952L326.697 98.6428C326.966 99.4067 326.921 100.246 326.572 100.977C326.223 101.708 325.599 102.271 324.836 102.542L308.644 108.272C305.242 109.472 301.503 109.273 298.248 107.719C294.993 106.164 292.487 103.382 291.28 99.9822L291.279 99.9826Z" fill="white"/>
<path d="M314.366 77.4253L294.005 84.6955C293.845 84.7528 293.674 84.778 293.504 84.7695C293.334 84.761 293.167 84.7191 293.013 84.6461C292.859 84.5731 292.721 84.4705 292.607 84.3442C292.493 84.2178 292.404 84.0702 292.347 83.9097C292.29 83.7492 292.265 83.579 292.273 83.4088C292.282 83.2386 292.323 83.0717 292.396 82.9177C292.469 82.7637 292.572 82.6256 292.698 82.5113C292.825 82.3969 292.972 82.3086 293.133 82.2513L313.494 74.9811C313.818 74.8654 314.174 74.8832 314.485 75.0306C314.796 75.178 315.036 75.443 315.151 75.7671C315.267 76.0912 315.249 76.448 315.102 76.759C314.954 77.07 314.69 77.3096 314.366 77.4253Z" fill="#D90429"/>
<path d="M296.092 76.3944L291.613 77.994C291.452 78.0512 291.282 78.0763 291.112 78.0678C290.942 78.0593 290.775 78.0174 290.621 77.9444C290.467 77.8714 290.329 77.7688 290.215 77.6424C290.1 77.5161 290.012 77.3684 289.955 77.208C289.898 77.0475 289.873 76.8773 289.881 76.7071C289.89 76.5369 289.931 76.37 290.004 76.216C290.077 76.0621 290.18 75.924 290.306 75.8096C290.433 75.6953 290.58 75.607 290.741 75.5497L295.22 73.9505C295.381 73.8932 295.551 73.8681 295.721 73.8766C295.891 73.8851 296.058 73.927 296.212 74C296.366 74.0729 296.504 74.1755 296.618 74.3019C296.732 74.4282 296.821 74.5759 296.878 74.7364C296.935 74.8969 296.96 75.0671 296.952 75.2373C296.943 75.4075 296.902 75.5743 296.829 75.7283C296.756 75.8823 296.653 76.0204 296.527 76.1348C296.4 76.2492 296.253 76.3375 296.092 76.3948L296.092 76.3944Z" fill="#D90429"/>
<path d="M318.2 88.1703L297.838 95.4405C297.678 95.4978 297.508 95.5229 297.337 95.5144C297.167 95.5059 297 95.4639 296.847 95.391C296.693 95.318 296.555 95.2154 296.44 95.089C296.326 94.9626 296.238 94.815 296.18 94.6545C296.123 94.494 296.098 94.3238 296.107 94.1536C296.115 93.9834 296.157 93.8166 296.23 93.6626C296.303 93.5086 296.406 93.3705 296.532 93.2562C296.658 93.1419 296.806 93.0536 296.966 92.9963L317.327 85.7261C317.651 85.6103 318.008 85.6281 318.319 85.7755C318.63 85.9229 318.869 86.1877 318.985 86.5119C319.101 86.836 319.083 87.1928 318.936 87.5038C318.788 87.8149 318.524 88.0546 318.2 88.1703Z" fill="#D90429"/>
<path d="M316.283 82.7981L295.921 90.0683C295.598 90.1786 295.245 90.1573 294.938 90.0091C294.631 89.861 294.394 89.5978 294.28 89.2765C294.165 88.9553 294.181 88.6018 294.325 88.2925C294.469 87.9832 294.729 87.7431 295.049 87.624L315.41 80.3538C315.734 80.2381 316.091 80.256 316.402 80.4034C316.712 80.5508 316.952 80.8157 317.068 81.1398C317.183 81.464 317.165 81.8208 317.018 82.1317C316.871 82.4427 316.606 82.6824 316.282 82.7981H316.283Z" fill="#D90429"/>
<path d="M280.73 77.0119C283.715 77.0119 286.135 74.5916 286.135 71.606C286.135 68.6203 283.715 66.2 280.73 66.2C277.746 66.2 275.326 68.6203 275.326 71.606C275.326 74.5916 277.746 77.0119 280.73 77.0119Z" fill="#D90429"/>
<path d="M135.599 18.4312H91.5903C91.4469 18.4312 91.3095 18.3742 91.2081 18.2728C91.1067 18.1715 91.0498 18.0339 91.0498 17.8906C91.0498 17.7472 91.1067 17.6097 91.2081 17.5083C91.3095 17.4069 91.4469 17.3499 91.5903 17.3499H135.599C135.742 17.3499 135.88 17.4069 135.981 17.5083C136.083 17.6097 136.14 17.7472 136.14 17.8906C136.14 18.0339 136.083 18.1715 135.981 18.2728C135.88 18.3742 135.742 18.4312 135.599 18.4312Z" fill="#2B2D42"/>
<path d="M34.6785 37.6073C38.5008 23.2545 45.7525 10.9969 57.5481 1.51474C58.0117 0.784666 58.746 0.268393 59.5897 0.0792095C60.4334 -0.109974 61.3177 0.0433824 62.0485 0.505628L89.2979 17.7834C90.0277 18.2472 90.5438 18.9816 90.733 19.8256C90.9221 20.6696 90.7688 21.5542 90.3067 22.2852L67.4371 58.3778C66.9735 59.1079 66.2392 59.6241 65.3955 59.8133C64.5518 60.0025 63.6675 59.8491 62.9366 59.3869L35.6873 42.1091C34.9576 41.6453 34.4415 40.9108 34.2524 40.0669C34.0633 39.2229 34.2165 38.3384 34.6785 37.6073Z" fill="#EDF2F4"/>
<path d="M43.6767 28.031C44.6291 20.4568 50.8209 12.67 58.3792 4.82767C58.8135 4.14394 59.5012 3.66046 60.2914 3.48333C61.0816 3.3062 61.9097 3.44988 62.5942 3.88286L86.0125 18.7308C86.696 19.1652 87.1794 19.8531 87.3564 20.6435C87.5335 21.4339 87.3899 22.2624 86.957 22.947L66.6066 55.0644C66.1723 55.748 65.4846 56.2314 64.6944 56.4085C63.9043 56.5857 63.0761 56.442 62.3917 56.0092L47.8842 46.8113C44.8398 44.8764 42.687 41.8125 41.8981 38.2918C41.1093 34.7711 41.7487 31.0811 43.6763 28.0315L43.6767 28.031Z" fill="white"/>
<path d="M71.9912 35.1508L53.6986 23.6254C53.5544 23.5346 53.4296 23.4163 53.3312 23.2772C53.2328 23.1381 53.1627 22.981 53.125 22.8149C53.0873 22.6487 53.0826 22.4767 53.1113 22.3088C53.1401 22.1408 53.2016 21.9802 53.2923 21.836C53.3831 21.6918 53.5014 21.5669 53.6405 21.4685C53.7795 21.37 53.9366 21.2999 54.1027 21.2622C54.2688 21.2245 54.4407 21.2198 54.6086 21.2486C54.7765 21.2773 54.9371 21.3388 55.0812 21.4296L73.3738 32.9563C73.518 33.0471 73.6428 33.1654 73.7412 33.3045C73.8397 33.4436 73.9097 33.6007 73.9474 33.7669C73.9852 33.933 73.9898 34.105 73.9611 34.273C73.9324 34.4409 73.8709 34.6016 73.7801 34.7457C73.6893 34.8899 73.571 35.0148 73.432 35.1133C73.2929 35.2117 73.1359 35.2818 72.9698 35.3195C72.8036 35.3573 72.6317 35.3619 72.4638 35.3332C72.2959 35.3044 72.1353 35.2429 71.9912 35.1521V35.1508Z" fill="#D90429"/>
<path d="M61.5145 20.1384L57.4916 17.6015C57.2005 17.418 56.9941 17.1265 56.918 16.7909C56.8418 16.4553 56.902 16.1032 57.0853 15.812C57.2687 15.5208 57.5602 15.3144 57.8956 15.2382C58.2311 15.162 58.5831 15.2222 58.8742 15.4056L62.8972 17.9426C63.1883 18.126 63.3946 18.4176 63.4708 18.7532C63.547 19.0888 63.4868 19.4409 63.3034 19.7321C63.1201 20.0233 62.8286 20.2297 62.4931 20.3059C62.1576 20.3821 61.8056 20.3218 61.5145 20.1384Z" fill="#D90429"/>
<path d="M65.1348 44.2087L46.8426 32.6821C46.5515 32.4987 46.3452 32.2071 46.269 31.8715C46.1928 31.5359 46.2531 31.1838 46.4364 30.8926C46.6198 30.6014 46.9112 30.395 47.2467 30.3188C47.5822 30.2426 47.9342 30.3029 48.2253 30.4863L66.5179 42.0129C66.662 42.1038 66.7869 42.2221 66.8853 42.3612C66.9837 42.5002 67.0538 42.6573 67.0915 42.8235C67.1292 42.9897 67.1339 43.1616 67.1051 43.3296C67.0764 43.4976 67.0149 43.6582 66.9241 43.8024C66.8333 43.9466 66.7151 44.0714 66.576 44.1699C66.437 44.2683 66.2799 44.3384 66.1138 44.3762C65.9477 44.4139 65.7758 44.4185 65.6079 44.3898C65.44 44.3611 65.2794 44.2996 65.1352 44.2087H65.1348Z" fill="#D90429"/>
<path d="M68.1748 39.3823L49.8822 27.8557C49.5911 27.6722 49.3848 27.3807 49.3086 27.0451C49.2324 26.7095 49.2926 26.3574 49.476 26.0662C49.6593 25.775 49.9508 25.5686 50.2863 25.4924C50.6218 25.4162 50.9738 25.4764 51.2649 25.6599L69.5575 37.1865C69.8485 37.3699 70.0549 37.6615 70.1311 37.9971C70.2072 38.3327 70.147 38.6848 69.9637 38.976C69.7803 39.2672 69.4888 39.4735 69.1534 39.5498C68.8179 39.626 68.4659 39.5657 68.1748 39.3823Z" fill="#D90429"/>
<path d="M88.5356 25.4599C91.5204 25.4599 93.94 23.0396 93.94 20.054C93.94 17.0683 91.5204 14.648 88.5356 14.648C85.5509 14.648 83.1313 17.0683 83.1313 20.054C83.1313 23.0396 85.5509 25.4599 88.5356 25.4599Z" fill="#D90429"/>
<path d="M184.441 74.7676C184.441 76.2227 184.311 77.6748 184.052 79.1067C183.583 80.9369 182.874 82.6967 181.942 84.3399C180.157 87.5111 178.243 88.6952 176.67 91.8004C176.4 92.0094 176.122 92.1975 175.84 92.3821C175.275 92.7469 175.213 94.5329 174.613 94.8404C174.609 94.8443 174.604 94.8443 174.6 94.8487C174.415 95.1629 174.308 95.5171 174.289 95.8814V95.8897C173.986 97.6639 173.724 101.273 173.421 103.408C173.38 103.666 173.342 103.904 173.302 104.112C173.199 104.677 173.093 105.038 172.974 105.083C171.512 105.648 170.889 104.874 169.288 105.083C168.428 105.198 164.037 105.903 163.144 105.903C160.608 105.903 159.237 105.038 157.185 104.112C157.042 104.051 156.899 103.985 156.748 103.92C156.692 103.899 156.646 103.876 156.592 103.855C156.003 103.605 155.446 97.3034 154.893 94.9191C154.892 94.9175 154.891 94.9156 154.89 94.9134C154.889 94.9113 154.889 94.9091 154.889 94.9069C154.774 94.4108 154.66 94.0872 154.545 94.022L154.458 93.973C154.093 93.7639 153.737 93.5356 153.389 93.2967C151.278 89.7808 147.204 86.4359 145.192 80.9683C144.615 78.9515 144.316 76.8653 144.303 74.7676C144.303 72.1313 144.822 69.5208 145.831 67.0852C146.839 64.6496 148.318 62.4365 150.181 60.5724C152.045 58.7083 154.257 57.2295 156.692 56.2207C159.127 55.2118 161.737 54.6926 164.372 54.6926C167.008 54.6926 169.617 55.2118 172.052 56.2207C174.487 57.2295 176.699 58.7083 178.563 60.5724C180.426 62.4365 181.905 64.6496 182.913 67.0852C183.922 69.5208 184.441 72.1313 184.441 74.7676Z" fill="#EDF2F4"/>
<path d="M184.052 79.1085C183.584 80.938 182.874 82.6972 181.943 84.3399C180.158 87.5111 178.244 88.6952 176.671 91.8004C175.625 93.8693 174.733 96.7904 174.124 101.716C174.087 102.007 174.165 102.339 174.124 102.626C174.03 103.261 174.145 103.146 173.759 103.719C173.584 103.817 173.476 103.679 173.42 103.408C173.329 102.726 173.321 102.036 173.395 101.352C173.505 99.5059 173.804 97.6759 174.288 95.8906V95.8823C174.386 95.5258 174.492 95.1824 174.599 94.85C176.495 89.0731 179.993 86.4557 181.578 83.4336C189.903 67.5835 174.516 49.8929 157.569 56.0459C156.66 56.3779 156.709 56.5708 156.66 56.5949C155.386 57.1478 154.35 57.3901 153.113 58.2295C145.601 63.3433 142.904 73.4584 146.293 81.7915C148.13 86.3021 151.97 88.8465 154.456 93.9721C154.604 94.2696 154.748 94.5809 154.886 94.906C154.885 94.9082 154.886 94.9105 154.886 94.9126C154.887 94.9147 154.888 94.9166 154.89 94.9183C156.058 97.7784 156.687 100.83 156.745 103.919C156.749 103.975 156.754 104.026 156.754 104.079C156.901 104.091 157.044 104.1 157.184 104.112C159.359 104.3 160.769 104.648 161.496 104.271L162.299 104.354C162.565 104.726 167.04 104.271 167.754 104.263H167.938C169.727 104.309 171.516 104.258 173.299 104.111C173.39 104.103 173.483 104.091 173.574 104.079C173.693 104.106 173.797 104.179 173.865 104.281C173.933 104.383 173.959 104.507 173.939 104.627C173.995 105.144 173.14 106.64 172.849 106.807C172.01 107.299 158.332 107.551 157.024 106.627C156.643 106.36 156.364 105.972 156.232 105.526C156.101 105.08 156.124 104.603 156.299 104.172C156.274 104.057 155.771 103.73 155.75 103.623C155.505 102.228 155.794 98.6944 154.116 94.7083C153.908 94.2199 153.665 93.7475 153.387 93.295C151.278 89.7795 147.203 86.436 145.192 80.9644C144.137 78.0276 143.767 74.8882 144.112 71.7866C144.837 64.0847 151.479 56.5052 158.933 54.592C174.532 50.5853 187.705 64.7364 184.052 79.1085Z" fill="#010001"/>
<path d="M173.047 107.233C174.345 108.468 173.652 108.886 173.047 110.326C172.284 110.154 159.224 110.989 157.405 110.326C157.115 110.208 156.858 110.018 156.661 109.774C156.464 109.53 156.331 109.24 156.277 108.93C156.222 108.621 156.247 108.303 156.349 108.006C156.451 107.709 156.626 107.443 156.859 107.233C162.238 107.834 167.668 107.834 173.047 107.233Z" fill="#010001"/>
<path d="M173.773 110.872C174.284 112.009 173.306 112.706 172.864 113.601L171.955 113.783L157.586 113.601C156.718 113.434 156.171 112.222 155.947 111.417C155.931 111.309 155.95 111.199 155.999 111.102C156.048 111.004 156.126 110.924 156.222 110.872L157.404 110.508C162.153 110.892 166.919 111.014 171.682 110.872C171.999 110.687 172.36 110.589 172.728 110.589C173.095 110.589 173.456 110.687 173.773 110.872Z" fill="#010001"/>
<path d="M161.984 96.0682H161.607V89.9068L154.663 75.1963L155.003 75.0349L161.984 89.8194V96.0682Z" fill="#0F0F10"/>
<path d="M164.267 43.9283C165.037 43.4034 165.05 49.5504 164.814 49.7503C163.914 50.5066 164.009 44.1037 164.267 43.9283Z" fill="#010001"/>
<path d="M158.083 44.4738C158.688 44.0832 160.083 49.9034 159.993 50.2039C159.478 51.9189 157.798 44.657 158.083 44.4738Z" fill="#010001"/>
<path d="M170.45 44.4738C171.171 44.2848 169.958 49.9414 169.814 50.2039C168.45 52.6871 170.059 44.577 170.45 44.4738Z" fill="#010001"/>
<path d="M167.854 96.0779L167.545 89.2311L167.551 89.2048L171.238 74.0463L171.604 74.1338L167.924 89.2682L168.23 96.0617L167.854 96.0779Z" fill="#0F0F10"/>
</g>
<defs>
<clipPath id="clip0_49_710">
<rect width="330" height="350" fill="white"/>
</clipPath>
</defs>
</svg>
