<svg width="800" height="746" viewBox="0 0 800 746" fill="none" xmlns="http://www.w3.org/2000/svg">
<g clip-path="url(#clip0_181_1451)">
<path d="M371.033 700.969C371.986 719.144 361.515 726.053 348.189 726.751C334.864 727.45 323.728 721.671 322.775 703.498C321.823 685.326 354.205 657.053 354.205 657.053C354.205 657.053 370.081 682.798 371.033 700.969Z" fill="#F2F2F2"/>
<path d="M338.351 723L342.017 708.217L356.291 692.176L342.594 705.903L344.243 699.256L354.227 687.571L344.678 697.491L347.643 685.536L357.49 676.672L348.11 683.657L353.312 661.681L345.82 690.638L346.161 689.451L341.293 676.183L345.504 691.728L341.713 704.966L341.774 704.605L335.894 690.472L341.457 705.855L340.982 707.511L340.961 707.533L340.936 707.671L331.305 741.266L333.687 741.816L338.028 724.319L349.742 712.963L338.351 723Z" fill="#D6D6E3"/>
<path d="M581.911 270.295C581.333 270.255 580.762 270.148 580.209 269.978L512.252 249.133C510.605 248.634 509.177 247.589 508.203 246.171C507.229 244.753 506.767 243.046 506.892 241.33L518.607 72.8017C518.682 71.7107 518.993 70.6489 519.516 69.6886C520.039 68.7283 520.763 67.892 521.639 67.2369C522.515 66.5817 523.521 66.123 524.59 65.892C525.659 65.6611 526.766 65.6633 527.834 65.8984L594.083 80.4885C594.595 80.6004 595.119 80.6453 595.642 80.6221L668.237 77.3252C668.798 77.2991 669.36 77.3358 669.913 77.4346L742.123 90.2606C743.974 90.5859 745.638 91.5859 746.795 93.0673C747.951 94.5487 748.517 96.4062 748.383 98.2806L738.162 245.229C738.077 246.511 737.666 247.75 736.97 248.829C736.274 249.909 735.314 250.793 734.182 251.4L707.249 265.918C705.981 266.601 704.546 266.911 703.11 266.81L660.43 263.838C660.124 263.817 659.817 263.819 659.511 263.845L583.079 270.287C582.691 270.319 582.3 270.322 581.911 270.295Z" fill="#2B2D42"/>
<path d="M700.285 93.9449L691.114 92.3165L666.812 88.0029L666.77 87.9942L629.963 89.6678L616.303 90.2893L616.298 90.2868L595.785 91.2177L595.284 91.1079L576.366 86.9425L567.222 84.9326L529.936 76.7205L518.621 239.409L555.688 250.781L564.778 253.567L584.15 259.51L584.374 259.582L658.441 253.338L700.375 256.254L726.777 242.023L736.63 100.402L700.285 93.9449Z" fill="#8D99AE"/>
<path d="M735.01 123.733L527.671 109.314L527.028 118.553L734.368 132.972L735.01 123.733Z" fill="#2B2D42"/>
<path d="M732.868 154.53L525.529 140.111L524.886 149.35L732.226 163.769L732.868 154.53Z" fill="#2B2D42"/>
<path d="M728.541 216.74L521.202 202.322L520.56 211.56L727.899 225.979L728.541 216.74Z" fill="#2B2D42"/>
<path d="M700.285 93.9442L689.053 255.463L679.814 254.822L691.114 92.3158L700.285 93.9442Z" fill="#2B2D42"/>
<path d="M629.961 89.6669L605.13 114.703L596.515 123.392L576.423 143.653L572.122 147.987L567.808 152.341L562.14 158.052L521.425 199.103L522.408 184.967L555.609 151.491L563.123 143.91L564.223 142.804L573.108 133.842L584.317 122.54L592.93 113.853L616.297 90.2899L629.961 89.6669Z" fill="#2B2D42"/>
<path opacity="0.1" d="M659.95 253.441L658.447 253.335L584.379 259.58L584.155 259.508L595.284 91.1114L595.784 91.2212L616.3 90.2902L629.961 89.6683L666.77 87.9937L666.813 88.0028L659.95 253.441Z" fill="black"/>
<path d="M581.853 271.103C581.214 271.059 580.583 270.941 579.97 270.752L512.013 249.907C510.19 249.355 508.61 248.199 507.532 246.63C506.455 245.06 505.943 243.171 506.082 241.272L517.798 72.7422C517.882 71.5348 518.225 70.3596 518.804 69.2968C519.383 68.2339 520.185 67.3084 521.154 66.5833C522.123 65.8582 523.237 65.3506 524.42 65.095C525.603 64.8393 526.827 64.8417 528.01 65.102L594.257 79.6957C594.699 79.7921 595.153 79.831 595.605 79.8114L668.2 76.5144C668.821 76.4858 669.443 76.5265 670.055 76.6355L742.265 89.4615C744.313 89.8203 746.155 90.9259 747.435 92.5645C748.715 94.203 749.342 96.2581 749.194 98.3321L738.974 245.281C738.879 246.699 738.425 248.07 737.654 249.265C736.884 250.46 735.822 251.439 734.569 252.11L707.636 266.627C706.234 267.383 704.646 267.726 703.056 267.615L660.374 264.646C660.11 264.627 659.844 264.629 659.58 264.651L583.147 271.094C582.717 271.13 582.284 271.133 581.853 271.103ZM526.556 68.1656C525.186 68.0711 523.836 68.5242 522.8 69.4252C521.765 70.3262 521.13 71.6014 521.035 72.9705L509.315 241.496C509.229 242.663 509.544 243.825 510.207 244.79C510.869 245.755 511.841 246.465 512.961 246.804L580.918 267.649C581.55 267.843 582.213 267.914 582.872 267.86L659.305 261.417C659.734 261.381 660.166 261.378 660.596 261.408L703.277 264.376C704.255 264.446 705.233 264.236 706.097 263.771L733.029 249.254C733.8 248.841 734.453 248.24 734.926 247.505C735.4 246.771 735.679 245.928 735.737 245.056L745.958 98.1073C746.048 96.8331 745.662 95.5708 744.875 94.5643C744.089 93.5577 742.957 92.8782 741.699 92.6569L669.484 79.8284C669.108 79.7629 668.726 79.738 668.345 79.754L595.752 83.0531C595.016 83.0849 594.279 83.0216 593.559 82.8647L527.31 68.2747C527.061 68.2199 526.809 68.1835 526.554 68.1661L526.556 68.1656Z" fill="#8D99AE"/>
<path d="M576.368 86.9435L564.78 253.569L555.691 250.783L567.224 84.9336L576.368 86.9435Z" fill="#2B2D42"/>
<path d="M565.39 151.262C567.553 152.271 570.125 151.335 571.134 149.172C572.142 147.008 571.206 144.437 569.043 143.428C566.88 142.419 564.308 143.355 563.299 145.519C562.291 147.682 563.227 150.253 565.39 151.262Z" fill="#3F3D56"/>
<path d="M702.329 220.2C704.493 221.209 707.064 220.273 708.073 218.11C709.082 215.946 708.146 213.375 705.982 212.366C703.819 211.357 701.248 212.293 700.239 214.457C699.23 216.62 700.166 219.191 702.329 220.2Z" fill="#D90429"/>
<path d="M738.733 146.275C737.784 159.916 714.556 195.756 706.938 207.185C706.696 207.547 706.363 207.839 705.973 208.031C705.582 208.222 705.148 208.308 704.714 208.277C704.28 208.247 703.862 208.103 703.502 207.859C703.141 207.615 702.852 207.28 702.663 206.889C696.697 194.517 678.654 155.804 679.602 142.162C680.147 134.321 683.785 127.018 689.715 121.858C695.645 116.699 703.382 114.107 711.223 114.653C719.065 115.198 726.368 118.836 731.527 124.766C736.686 130.696 739.278 138.433 738.733 146.275Z" fill="#D90429"/>
<path d="M702.383 158.767C710.418 162.514 719.97 159.038 723.716 151.003C727.463 142.968 723.987 133.416 715.952 129.67C707.917 125.923 698.365 129.399 694.619 137.434C690.872 145.469 694.348 155.021 702.383 158.767Z" fill="#2B2D42"/>
<path d="M335.409 744.795H325.76V179.269C325.76 177.989 326.268 176.762 327.173 175.857C328.078 174.953 329.305 174.444 330.584 174.444C331.864 174.444 333.091 174.953 333.996 175.857C334.9 176.762 335.409 177.989 335.409 179.269V744.795Z" fill="#8D99AE"/>
<path d="M421.164 745.328H230.864C230.703 745.365 230.535 745.365 230.374 745.328C230.212 745.292 230.061 745.219 229.932 745.116C229.803 745.013 229.698 744.882 229.626 744.733C229.554 744.584 229.517 744.421 229.517 744.256C229.517 744.09 229.554 743.927 229.626 743.778C229.698 743.629 229.803 743.498 229.932 743.395C230.061 743.292 230.212 743.22 230.374 743.183C230.535 743.146 230.703 743.147 230.864 743.184H421.164C421.325 743.147 421.492 743.146 421.654 743.183C421.815 743.22 421.966 743.292 422.095 743.395C422.225 743.498 422.329 743.629 422.401 743.778C422.473 743.927 422.51 744.09 422.51 744.256C422.51 744.421 422.473 744.584 422.401 744.733C422.329 744.882 422.225 745.013 422.095 745.116C421.966 745.219 421.815 745.292 421.654 745.328C421.492 745.365 421.325 745.365 421.164 745.328Z" fill="#CCCCCC"/>
<path d="M402.361 248.418H261.972C260.693 248.416 259.467 247.907 258.563 247.003C257.658 246.099 257.15 244.873 257.148 243.594V202.854C257.15 201.575 257.658 200.349 258.563 199.444C259.467 198.54 260.693 198.031 261.972 198.03H402.372C403.195 198.03 404.004 198.241 404.723 198.642L441.029 218.903C441.777 219.32 442.401 219.93 442.836 220.668C443.271 221.407 443.501 222.248 443.503 223.105C443.505 223.962 443.278 224.804 442.847 225.544C442.415 226.285 441.795 226.897 441.048 227.318L404.732 247.796C404.008 248.203 403.192 248.417 402.361 248.418Z" fill="#D90429"/>
<path d="M389.55 336.329H249.163C248.333 336.328 247.517 336.114 246.794 335.707L210.478 315.229C209.731 314.808 209.11 314.196 208.679 313.455C208.247 312.715 208.021 311.873 208.023 311.016C208.025 310.159 208.255 309.318 208.69 308.579C209.125 307.841 209.748 307.231 210.497 306.814L246.803 286.553C247.522 286.152 248.331 285.941 249.154 285.941H389.554C390.833 285.943 392.059 286.451 392.963 287.356C393.867 288.26 394.376 289.486 394.378 290.765V331.504C394.376 332.783 393.867 334.009 392.963 334.913C392.059 335.818 390.833 336.326 389.554 336.328L389.55 336.329Z" fill="#8D99AE"/>
<path d="M390.086 422.632H249.699C248.869 422.632 248.053 422.417 247.33 422.01L211.014 401.532C210.267 401.111 209.646 400.499 209.215 399.759C208.784 399.018 208.557 398.176 208.559 397.319C208.561 396.462 208.791 395.621 209.226 394.883C209.661 394.144 210.284 393.535 211.033 393.117L247.339 372.856C248.058 372.455 248.867 372.245 249.69 372.244H390.09C391.369 372.246 392.595 372.754 393.499 373.659C394.404 374.563 394.912 375.789 394.914 377.068V417.807C394.912 419.086 394.404 420.312 393.499 421.216C392.595 422.121 391.369 422.63 390.09 422.631L390.086 422.632Z" fill="#8D99AE"/>
<path d="M83.07 560.38L81.42 618.127L63.82 685.774C63.82 685.774 67.67 697.323 64.92 700.074C62.17 702.825 49.52 707.774 49.52 707.774L59.969 563.681L83.07 560.38Z" fill="#090814"/>
<path d="M44.8607 699.792C44.8607 699.792 38.5847 713.599 47.3707 714.855C56.1567 716.111 96.7427 719.455 94.2327 712.345C91.7227 705.235 61.1787 698.538 61.1787 698.538L44.8607 699.792Z" fill="#090814"/>
<path d="M21.4736 509.233C21.4736 509.233 28.0736 544.981 32.4736 551.033C36.8736 557.085 30.2736 601.08 30.2736 601.08C30.2736 601.08 20.3736 664.327 24.7736 674.226C29.1736 684.125 28.0736 680.826 27.5236 686.326C26.9736 691.826 25.8736 696.226 27.5236 701.175C29.1736 706.124 29.1736 705.575 29.7236 708.325C30.2736 711.075 29.7236 725.925 29.7236 725.925C29.7236 725.925 53.3726 734.175 57.2236 722.075C57.2236 722.075 51.7236 714.375 53.3736 708.326C55.0941 702.238 56.0184 695.952 56.1236 689.626V678.074L81.4236 583.474L87.4736 549.374C87.4736 549.374 85.8236 514.726 79.7736 511.426C73.7236 508.126 21.4736 509.233 21.4736 509.233Z" fill="#090814"/>
<path d="M31.3727 723.172C31.3727 723.172 23.1227 741.321 34.6727 742.972C46.2227 744.623 99.5727 749.022 96.2727 739.672C92.9727 730.322 52.8247 721.523 52.8247 721.523L31.3727 723.172Z" fill="#090814"/>
<path d="M41.8276 350.864C53.9773 350.864 63.8266 341.015 63.8266 328.865C63.8266 316.715 53.9773 306.866 41.8276 306.866C29.6779 306.866 19.8286 316.715 19.8286 328.865C19.8286 341.015 29.6779 350.864 41.8276 350.864Z" fill="#FFB9B9"/>
<path d="M26.3687 338.586L26.7787 366.68L53.7496 366.771C53.7496 366.771 46.9046 344.778 49.9706 340.179C53.0366 335.58 26.3687 338.586 26.3687 338.586Z" fill="#FFB9B9"/>
<path d="M66.5711 382.189C66.5711 382.189 47.3221 357.44 32.4711 367.889C17.6201 378.338 12.1221 403.089 12.1221 403.089L15.4221 472.389C15.4221 472.389 23.6721 482.289 18.7221 488.889C13.7721 495.489 11.0221 493.839 14.8721 498.789C18.7221 503.739 23.1221 507.589 21.4721 509.239C19.8221 510.889 23.1221 511.989 23.1221 511.989L81.4221 513.639C81.4221 513.639 79.7721 511.439 84.7221 504.839C89.6721 498.239 83.6221 489.439 84.7221 486.139C85.8221 482.839 86.9221 486.689 87.4721 478.989C88.0221 471.289 66.5711 382.189 66.5711 382.189Z" fill="#8D99AE"/>
<path d="M61.0708 524.082C61.0708 524.082 62.1708 537.831 70.4208 540.031C73.5148 540.856 75.8348 539.283 77.5268 536.995C79.1066 534.802 79.9922 532.186 80.0692 529.485C80.1462 526.783 79.4111 524.121 77.9588 521.842L75.9208 518.582L61.0708 524.082Z" fill="#FFB9B9"/>
<path d="M10.1939 354.415C10.1939 354.415 9.64385 365.415 10.1939 367.064C10.7439 368.713 11.2939 370.364 10.1939 372.014C9.09385 373.664 9.64384 379.164 10.7438 379.714C11.8438 380.264 8.54383 385.214 9.64383 388.514C10.3194 390.459 11.2438 392.307 12.3938 394.014C12.9438 395.114 13.8298 397.085 13.8298 397.085C13.8298 397.085 29.9939 362.665 43.1939 370.914C56.3939 379.163 66.8428 381.914 66.8428 381.914C66.8428 381.914 59.6939 343.416 10.1939 354.415Z" fill="#8D99AE"/>
<path d="M34.1227 379.985C34.1227 379.985 16.5227 381.635 17.6227 404.734C18.7227 427.833 15.9727 464.134 15.9727 464.134C15.9727 464.134 46.2216 510.334 51.1726 513.634C56.1236 516.934 56.6727 516.384 56.1227 519.134C55.5727 521.884 55.0227 524.084 57.2227 526.284C58.5214 527.592 60.0036 528.703 61.6227 529.584C61.6227 529.584 79.2227 523.534 77.5717 518.035C75.9207 512.536 68.2216 503.735 68.2216 503.735C68.2216 503.735 55.0217 482.286 54.4727 478.986C53.9237 475.686 53.9226 476.236 52.2726 474.586C50.6226 472.936 46.2227 466.336 46.2227 463.037V452.585L50.8336 396.743C51.0429 394.469 50.7686 392.176 50.0287 390.015C49.2888 387.854 48.1001 385.875 46.5406 384.206C44.9724 382.543 43.0208 381.288 40.8562 380.552C38.6916 379.817 36.3798 379.622 34.1227 379.985Z" fill="#8D99AE"/>
<path opacity="0.1" d="M18.6489 471.991L49.5219 512.056C49.5219 512.056 21.0939 488.292 18.6489 471.991Z" fill="black"/>
<path opacity="0.1" d="M48.2817 427.633L47.9897 465.471L65.9207 492.371L51.2497 462.214L48.2817 427.633Z" fill="black"/>
<path d="M36.036 342.647C37.3995 341.402 39.19 340.754 40.7663 339.79C43.5372 337.975 45.566 335.227 46.485 332.044C47.4039 328.862 47.1521 325.455 45.7753 322.442C45.3252 321.702 44.9996 320.893 44.8113 320.047C44.5592 318.134 46.1425 316.448 47.8566 315.547C49.5707 314.646 51.5165 314.21 53.0787 313.077C54.2438 312.14 55.1447 310.916 55.6924 309.526C56.2402 308.135 56.4159 306.625 56.2022 305.146C55.7295 302.181 54.3314 299.441 52.2077 297.318L52.0424 299.382C50.8204 298.793 49.7881 297.873 49.0629 296.727C48.3481 297.046 47.727 297.542 47.2591 298.169C46.7912 298.796 46.4922 299.533 46.3907 300.309C45.4975 301.205 44.6825 298.69 43.4203 298.615C42.8914 298.683 42.4066 298.945 42.0592 299.35C39.9955 301.054 37.0251 300.824 34.3498 300.871C29.718 300.956 25.1714 302.131 21.0774 304.299C18.2859 305.64 15.9307 307.743 14.2841 310.366C13.137 312.629 12.4441 315.096 12.2448 317.626C11.4717 323.801 11.573 330.24 13.8586 336.03C15.7391 340.765 18.9797 344.836 23.1714 347.731C25.3606 349.231 32.5887 354.558 35.2954 352.627C38.6958 350.202 32.1956 346.151 36.036 342.647Z" fill="#090814"/>
</g>
<defs>
<clipPath id="clip0_181_1451">
<rect width="799.88" height="745.456" fill="white"/>
</clipPath>
</defs>
</svg>
