<svg width="686" height="801" viewBox="0 0 686 801" fill="none" xmlns="http://www.w3.org/2000/svg">
<g clip-path="url(#clip0_179_749)">
<path d="M650.294 190.123H645.894V69.6971C645.894 51.2115 638.551 33.483 625.48 20.4117C612.408 7.34044 594.68 -0.00292969 576.194 -0.00292969H321.062C302.577 -0.00292969 284.848 7.34044 271.777 20.4117C258.706 33.483 251.362 51.2115 251.362 69.6971V730.358C251.362 748.844 258.706 766.572 271.777 779.643C284.848 792.715 302.577 800.058 321.062 800.058H576.2C585.353 800.058 594.417 798.255 602.873 794.752C611.33 791.25 619.013 786.116 625.486 779.643C631.958 773.171 637.092 765.488 640.595 757.031C644.097 748.575 645.9 739.511 645.9 730.358V275.842H650.3L650.294 190.123Z" fill="#090814"/>
<path d="M579.021 18.1331H545.721C547.252 21.8883 547.837 25.9627 547.423 29.9971C547.009 34.0316 545.609 37.9023 543.347 41.2683C541.084 44.6342 538.029 47.392 534.449 49.2987C530.87 51.2054 526.876 52.2025 522.821 52.2021H376.647C372.591 52.2025 368.598 51.2054 365.018 49.2987C361.439 47.392 358.383 44.6342 356.12 41.2683C353.858 37.9023 352.458 34.0316 352.044 29.9971C351.63 25.9627 352.215 21.8883 353.747 18.1331H322.647C308.842 18.1331 295.603 23.617 285.841 33.3784C276.08 43.1399 270.596 56.3793 270.596 70.1841V729.876C270.596 743.681 276.08 756.92 285.841 766.681C295.603 776.442 308.842 781.926 322.647 781.926H579.011C585.846 781.926 592.615 780.58 598.93 777.964C605.245 775.348 610.983 771.514 615.816 766.681C620.65 761.847 624.484 756.109 627.1 749.794C629.715 743.479 631.062 736.71 631.062 729.875V70.1841C631.062 56.3814 625.579 43.1438 615.821 33.3827C606.062 23.6216 592.825 18.1362 579.023 18.1331H579.021Z" fill="white"/>
<path d="M222.121 234.936C222.121 234.936 236.929 266.329 234.56 275.806C233.174 281.567 233.801 287.628 236.337 292.983L263.584 291.798L289.054 267.513C289.054 267.513 250.554 240.858 252.922 227.827C255.29 214.796 222.121 234.936 222.121 234.936Z" fill="#9F616A"/>
<path d="M290.831 284.691L302.677 358.139C302.677 358.139 302.677 424.479 299.123 425.664C295.569 426.849 280.169 425.664 280.169 425.664V351.032L284.908 285.876L290.831 284.691Z" fill="#D90429"/>
<path opacity="0.1" d="M290.831 284.691L302.677 358.139C302.677 358.139 302.677 424.479 299.123 425.664C295.569 426.849 280.169 425.664 280.169 425.664V351.032L284.908 285.876L290.831 284.691Z" fill="black"/>
<path d="M361.91 715.904L371.387 752.628L385.603 741.966L398.634 712.35L382.049 692.211L361.91 715.904Z" fill="#9F616A"/>
<path d="M398.634 707.611C398.634 707.611 383.234 719.457 383.234 731.304C383.234 731.304 374.942 744.335 365.464 743.15V768.028C365.464 768.028 335.848 783.428 358.356 786.982C380.864 790.536 397.449 762.104 397.449 762.104C397.449 762.104 418.773 727.749 415.219 723.011C411.665 718.273 398.634 707.611 398.634 707.611Z" fill="#090814"/>
<path d="M290.746 420.065C290.746 420.065 313.346 444.619 302.68 482.528C302.68 482.528 290.833 567.823 328.742 599.808C366.651 631.793 391.528 701.688 391.528 701.688L363.096 727.75C363.096 727.75 332.296 657.856 300.31 630.609C268.324 603.362 264.771 572.561 264.771 572.561V464.761L258.846 419.741L290.746 420.065Z" fill="#090814"/>
<path opacity="0.1" d="M290.746 420.065C290.746 420.065 313.346 444.619 302.68 482.528C302.68 482.528 290.833 567.823 328.742 599.808C366.651 631.793 391.528 701.688 391.528 701.688L363.096 727.75C363.096 727.75 332.296 657.856 300.31 630.609C268.324 603.362 264.771 572.561 264.771 572.561V464.761L258.846 419.741L290.746 420.065Z" fill="#6F6F6F"/>
<path d="M261.214 743.151L249.368 756.182L254.107 766.844L268.323 771.583L293.201 762.106L289.647 747.89L261.214 743.151Z" fill="#9F616A"/>
<path d="M293.2 756.181C293.2 756.181 265.789 770.397 258.936 764.474C256.94 762.8 255.305 760.738 254.13 758.413C252.955 756.087 252.266 753.547 252.103 750.947C252.103 750.947 238.378 752.628 229.241 758.547C220.104 764.466 208.859 766.524 201.83 771.578C194.801 776.632 194.977 785.794 216.678 786.978C238.379 788.162 293.201 785.793 293.201 779.87L293.2 756.181Z" fill="#090814"/>
<path d="M216.198 435.141C216.198 435.141 200.798 503.851 228.044 582.041C228.044 582.041 241.075 625.873 246.998 638.904C252.921 651.935 258.844 744.338 256.475 747.892C256.475 747.892 275.429 763.292 292.014 752.631C292.014 752.631 290.829 698.137 293.199 693.399C295.569 688.661 297.938 647.199 283.722 612.843C269.506 578.487 281.353 495.563 281.353 495.563C281.353 495.563 309.785 452.913 288.461 428.033L216.198 435.141Z" fill="#090814"/>
<path d="M233.968 243.229C252.287 243.229 267.138 228.378 267.138 210.059C267.138 191.74 252.287 176.889 233.968 176.889C215.649 176.889 200.798 191.74 200.798 210.059C200.798 228.378 215.649 243.229 233.968 243.229Z" fill="#9F616A"/>
<path d="M295.57 426.849C295.57 426.849 286.093 441.065 278.985 433.957C273.974 428.946 241.894 439.833 223.385 446.692C215.637 449.559 210.271 451.727 210.271 451.727C210.271 451.727 209.762 435.308 208.257 414.517C206.527 390.658 203.495 361.017 198.424 343.924C188.947 311.938 212.64 298.907 212.64 298.907C212.64 298.907 232.78 275.216 231.599 271.66C230.418 268.104 284.908 250.336 284.908 250.336C290.831 251.521 295.57 304.83 295.57 304.83C295.57 304.83 284.908 347.477 278.985 373.54C273.062 399.603 295.57 426.849 295.57 426.849Z" fill="#D90429"/>
<path d="M193.69 428.033C193.69 428.033 167.628 454.095 154.597 461.203C141.566 468.311 134.458 492.003 145.12 496.742C155.782 501.481 179.475 470.68 179.475 470.68L213.83 442.248L193.69 428.033Z" fill="#9F616A"/>
<path d="M198.614 190.244C195.584 190.514 193.852 194.33 194.83 197.211C195.808 200.092 198.619 201.976 201.49 202.983C204.361 203.99 207.43 204.335 210.304 205.333C213.163 206.378 215.815 207.919 218.139 209.883C226.327 216.589 231.176 226.807 232.719 237.278C234.262 247.749 232.724 258.478 229.814 268.655C228.272 274.046 225.754 279.955 220.485 281.869C226.245 280.447 231.874 278.538 237.31 276.163C241.294 274.286 245.034 271.911 249.061 270.128C255.022 267.697 261.275 266.057 267.661 265.25C272.145 264.55 276.886 264.019 281.098 265.711C283.681 266.913 286.058 268.516 288.14 270.46L301.69 281.844C301.926 276.895 302.082 271.944 302.157 266.989C302.223 262.683 302.206 258.252 300.619 254.249C299.052 250.296 296.077 247.074 294.087 243.317C289.161 234.017 290.766 222.823 290.858 212.303C290.953 201.411 289.2 190.31 284.158 180.655C279.116 171 270.505 162.915 260.003 160.024C245.848 156.124 230.925 161.924 217.914 168.724C214.853 170.181 211.998 172.039 209.427 174.249C206.693 177.042 204.37 180.21 202.527 183.657L196.085 194.452" fill="#090814"/>
<path opacity="0.1" d="M282.538 316.676C282.538 316.676 260.03 401.971 257.661 407.894C255.955 412.147 235.887 434.774 223.389 446.694C215.641 449.558 210.275 451.724 210.275 451.724C210.275 451.724 209.766 435.305 208.261 414.514C217.904 403.814 228.045 393.676 228.045 393.676C228.045 393.676 238.707 328.52 237.522 303.643C236.337 278.766 261.215 272.843 261.215 272.843C289.646 276.398 282.538 316.676 282.538 316.676Z" fill="black"/>
<path d="M257.661 268.106C257.661 268.106 232.783 274.029 233.968 298.906C235.153 323.783 224.491 388.939 224.491 388.939C224.491 388.939 184.213 429.217 187.767 433.956C191.321 438.695 206.548 448.01 210.189 449.276C213.83 450.542 251.739 409.076 254.108 403.155C256.477 397.234 278.986 311.937 278.986 311.937C278.986 311.937 286.092 271.66 257.661 268.106Z" fill="#D90429"/>
<path d="M30.9596 735.501C31.3796 734.217 34.5596 734.782 34.8646 733.634C35.1696 732.486 32.1176 731.534 29.7766 728.305C29.3546 727.723 26.6946 724.059 27.7146 722.517C29.6476 719.595 43.1006 726.872 46.3296 722.789C47.0386 721.889 47.3296 720.354 49.4406 717.489C50.2806 716.35 50.8196 715.8 51.4636 715.816C52.3776 715.839 52.7036 716.982 54.1396 719.052C56.2926 722.152 57.0696 721.767 58.4886 724.311C59.5416 726.199 59.6667 727.406 60.4257 727.477C61.5007 727.577 61.9446 725.227 63.2566 725.135C64.5966 725.042 65.9376 727.365 66.6016 729.18C67.8486 732.586 67.0766 735.189 66.9016 737.78C66.7156 740.6 67.1527 744.727 70.2157 750.024L99.1156 796.062C92.9096 786.677 75.2947 761.084 68.1977 751.697C66.1487 748.987 63.9466 746.266 60.5586 745.754C57.2956 745.261 53.3266 746.875 47.7856 746.781C47.1386 746.77 45.3377 746.717 44.8997 745.762C44.5377 744.973 45.4366 744.287 45.1096 743.545C44.6706 742.55 42.6966 742.977 40.0096 742.316C38.4857 741.917 37.0358 741.276 35.7156 740.416C35.3816 740.216 30.4036 737.201 30.9626 735.492L30.9596 735.501Z" fill="#D6D6E3"/>
<path d="M106.64 746.25C107.391 746.085 108.031 747.809 108.683 747.628C109.335 747.447 108.923 745.673 109.83 743.593C109.994 743.218 111.025 740.855 112.076 740.911C114.068 741.017 114.376 749.719 117.314 750.126C118.48 750.06 119.648 750.06 120.814 750.126C121.614 750.21 122.041 750.315 122.214 750.636C122.466 751.091 122 751.581 121.398 752.883C120.498 754.836 120.911 755.104 120.072 756.535C119.449 757.597 118.893 758.006 119.077 758.399C119.338 758.955 120.62 758.499 121.043 759.113C121.466 759.727 120.722 761.072 120.023 761.922C118.711 763.517 117.211 763.889 115.888 764.554C113.718 765.72 111.955 767.52 110.835 769.714L96.5771 797.18C99.3931 791.426 106.871 775.396 109.431 769.204C110.17 767.417 110.87 765.551 110.144 763.74C109.444 761.996 107.507 760.514 105.954 757.767C105.773 757.446 105.279 756.547 105.621 756.056C105.904 755.651 106.5 755.894 106.77 755.519C107.132 755.019 106.353 754.171 105.901 752.66C105.657 751.797 105.554 750.901 105.594 750.005C105.594 749.783 105.639 746.47 106.639 746.251L106.64 746.25Z" fill="#D6D6E3"/>
<path d="M92.417 752.952L91.969 748.814L91.694 748.554C90.5465 747.555 89.7228 746.237 89.328 744.768C89.28 744.56 89.244 744.349 89.206 744.134C89.0818 743.051 88.6859 742.017 88.055 741.127C87.597 740.515 86.386 739.127 85.137 739.615C84.8412 739.727 84.5882 739.929 84.414 740.192L84.29 740.068C83.9185 739.696 83.4855 739.392 83.01 739.168C82.6324 738.984 82.278 738.756 81.954 738.489C81.74 738.318 81.568 738.164 81.424 738.034C81.2107 737.782 80.9364 737.588 80.6272 737.471C80.318 737.354 79.984 737.318 79.657 737.366C79.3347 737.492 79.0488 737.696 78.8256 737.96C78.6024 738.225 78.4488 738.54 78.379 738.879C78.1459 739.516 77.9784 740.175 77.879 740.845C77.8622 740.974 77.8375 741.101 77.805 741.226C77.627 741.675 75.391 741.791 74.549 741.84C72.658 741.94 71.021 742.031 70.627 743.327C70.345 744.254 70.933 745.264 72.427 746.41C72.8406 746.723 73.2889 746.987 73.763 747.197C73.6228 747.323 73.5098 747.476 73.4307 747.646C73.3516 747.817 73.3081 748.002 73.303 748.19C73.276 749.223 74.335 750.016 76.453 750.551C77.1543 750.754 77.8834 750.844 78.613 750.818C78.9974 750.795 79.3797 750.745 79.757 750.667C79.8111 750.876 79.9139 751.068 80.057 751.229C80.3539 751.511 80.7285 751.697 81.1322 751.763C81.536 751.83 81.9504 751.774 82.322 751.602C83.3002 751.313 84.2498 750.935 85.159 750.472C85.7258 750.163 86.3311 749.931 86.959 749.781C87.894 749.65 88.765 750.227 89.808 750.995L92.422 752.956L92.417 752.952Z" fill="#D6D6E3"/>
<path d="M84.9581 729.384L89.0741 730L89.3951 729.8C90.6522 728.944 92.136 728.482 93.6571 728.472C93.8711 728.479 94.0841 728.497 94.3011 728.515C95.3803 728.67 96.481 728.549 97.5011 728.164C98.2091 727.876 99.8541 727.056 99.7011 725.725C99.6684 725.411 99.5376 725.116 99.3271 724.88L99.4781 724.792C99.9335 724.528 100.34 724.186 100.678 723.782C100.952 723.464 101.262 723.179 101.603 722.933C101.823 722.769 102.015 722.642 102.177 722.533C102.475 722.391 102.732 722.175 102.924 721.906C103.115 721.636 103.235 721.323 103.271 720.994C103.231 720.651 103.106 720.322 102.908 720.039C102.709 719.757 102.442 719.528 102.132 719.374C101.576 718.988 100.981 718.659 100.358 718.392C100.238 718.344 100.121 718.288 100.008 718.224C99.6191 717.938 100.074 715.745 100.24 714.919C100.62 713.063 100.95 711.458 99.7971 710.749C98.9721 710.241 97.8461 710.549 96.3581 711.708C95.9507 712.029 95.5816 712.395 95.2581 712.8C95.1725 712.632 95.0535 712.484 94.9084 712.363C94.7632 712.243 94.595 712.153 94.4141 712.1C93.4211 711.811 92.3861 712.636 91.3321 714.548C90.9579 715.175 90.6858 715.858 90.5261 716.57C90.4507 716.948 90.4026 717.331 90.3821 717.715C90.1671 717.714 89.955 717.764 89.7631 717.861C89.4148 718.077 89.1395 718.393 88.9728 718.768C88.8061 719.142 88.7557 719.558 88.8281 719.961C88.8596 720.981 88.9844 721.995 89.2011 722.992C89.356 723.617 89.4276 724.26 89.4141 724.904C89.3031 725.841 88.5241 726.538 87.5141 727.352L84.9551 729.383L84.9581 729.384Z" fill="#D6D6E3"/>
<path d="M84.4034 717.022L83.9554 712.884L83.6804 712.624C82.5329 711.626 81.7092 710.307 81.3143 708.838C81.2673 708.63 81.2304 708.419 81.1924 708.204C81.0679 707.121 80.6716 706.087 80.0404 705.197C79.5824 704.585 78.3714 703.197 77.1224 703.685C76.8266 703.797 76.5736 703.999 76.3994 704.262L76.2754 704.138C75.9039 703.767 75.4708 703.462 74.9953 703.238C74.6177 703.055 74.2633 702.827 73.9393 702.559C73.7253 702.388 73.5533 702.234 73.4093 702.104C73.196 701.852 72.9218 701.658 72.6126 701.541C72.3033 701.424 71.9694 701.388 71.6423 701.436C71.32 701.562 71.0342 701.766 70.811 702.03C70.5878 702.295 70.4342 702.611 70.3644 702.949C70.1313 703.586 69.9638 704.244 69.8644 704.914C69.8476 705.043 69.8229 705.17 69.7904 705.295C69.6124 705.744 67.3763 705.86 66.5343 705.909C64.6433 706.009 63.0063 706.1 62.6123 707.396C62.3303 708.323 62.9184 709.333 64.4124 710.479C64.826 710.792 65.2743 711.056 65.7484 711.266C65.6082 711.392 65.4951 711.545 65.416 711.715C65.3369 711.886 65.2935 712.071 65.2883 712.259C65.2613 713.292 66.3204 714.085 68.4384 714.62C69.1397 714.823 69.8688 714.913 70.5984 714.887C70.9828 714.864 71.3651 714.814 71.7424 714.736C71.7965 714.945 71.8993 715.137 72.0424 715.298C72.3394 715.58 72.714 715.766 73.1178 715.832C73.5215 715.898 73.9359 715.842 74.3074 715.67C75.2856 715.381 76.2352 715.003 77.1444 714.54C77.7112 714.232 78.3165 713.999 78.9443 713.849C79.8793 713.718 80.7503 714.295 81.7933 715.063L84.4064 717.024L84.4034 717.022Z" fill="#D6D6E3"/>
<path d="M97.7507 796.305L98.4787 795.586L99.4907 795.479C99.4907 795.379 99.4907 795.161 99.4997 794.814C99.6022 789.273 99.3862 783.73 98.8527 778.214C98.276 771.916 97.3412 765.656 96.0527 759.464C94.7527 753.225 93.4127 748.583 92.3337 744.852C91.5187 742.038 90.6967 739.369 89.8937 736.769C87.6073 729.905 85.7967 722.891 84.4747 715.778C83.8619 712.71 83.9746 709.542 84.8037 706.525C85.522 704.093 86.7191 701.83 88.3247 699.867L86.7327 698.581C84.9573 700.756 83.6338 703.263 82.8397 705.956C81.9198 709.267 81.7886 712.747 82.4567 716.117C83.7923 723.319 85.624 730.42 87.9387 737.37C88.7387 739.961 89.5577 742.618 90.3687 745.42C91.4387 749.12 92.7687 753.72 94.0497 759.876C95.3222 765.992 96.2453 772.175 96.8147 778.396C97.3411 783.836 97.5538 789.302 97.4517 794.767C97.4317 795.767 97.4267 795.978 97.7517 796.301L97.7507 796.305Z" fill="#D6D6E3"/>
<path d="M92.6942 702.224C92.7762 702.206 92.8582 702.185 92.9412 702.161C94.6202 701.69 95.9672 700.322 96.9412 698.094C97.4256 696.694 97.6894 695.227 97.7232 693.745C97.8456 692.305 97.8456 690.857 97.7232 689.417C97.6032 687.931 97.4442 687.335 97.0402 686.866C96.5942 686.37 96.0008 686.03 95.3472 685.895C95.3297 685.69 95.2575 685.492 95.1382 685.324C94.6122 684.568 93.7322 684.878 93.2552 685.04C92.9708 685.151 92.6769 685.236 92.3772 685.293C91.9306 685.364 91.4732 685.316 91.0512 685.153C90.4652 684.961 89.8519 684.865 89.2352 684.869C88.1402 684.903 87.0745 685.231 86.1502 685.819C84.1502 687.019 83.4622 688.936 82.6632 691.154C82.2095 692.485 81.9378 693.871 81.8552 695.275C81.7212 696.136 81.836 697.018 82.1862 697.816C82.6442 698.716 83.3462 699.131 85.0862 700.007C86.2071 700.626 87.3699 701.165 88.5662 701.621C90.3082 702.168 91.4012 702.511 92.6882 702.221L92.6942 702.224Z" fill="#D6D6E3"/>
<path d="M0 798.59C0 799.372 1.2 800 2.7 800H682.58C684.08 800 685.28 799.372 685.28 798.59C685.28 797.808 684.08 797.18 682.58 797.18H2.7C1.2 797.18 0 797.808 0 798.59Z" fill="#F2F2F2"/>
<path d="M478.638 459.742H422.638C416.275 459.735 410.174 457.204 405.675 452.705C401.176 448.206 398.645 442.105 398.638 435.742V419.742C398.638 417.62 399.481 415.586 400.981 414.085C402.481 412.585 404.516 411.742 406.638 411.742C408.759 411.742 410.794 412.585 412.295 414.085C413.795 415.586 414.638 417.62 414.638 419.742V435.742C414.64 437.863 415.484 439.897 416.983 441.396C418.483 442.896 420.517 443.74 422.638 443.742H478.638C480.759 443.74 482.792 442.896 484.292 441.396C485.792 439.897 486.635 437.863 486.638 435.742V339.742C486.635 337.621 485.792 335.588 484.292 334.088C482.792 332.588 480.759 331.745 478.638 331.742H422.638C420.517 331.745 418.483 332.588 416.983 334.088C415.484 335.588 414.64 337.621 414.638 339.742V355.742C414.638 357.864 413.795 359.899 412.295 361.399C410.794 362.899 408.759 363.742 406.638 363.742C404.516 363.742 402.481 362.899 400.981 361.399C399.481 359.899 398.638 357.864 398.638 355.742V339.742C398.645 333.379 401.176 327.279 405.675 322.78C410.174 318.28 416.275 315.749 422.638 315.742H478.638C485.001 315.749 491.101 318.28 495.6 322.78C500.1 327.279 502.631 333.379 502.638 339.742V435.742C502.631 442.105 500.1 448.206 495.6 452.705C491.101 457.204 485.001 459.735 478.638 459.742Z" fill="#F2F2F2"/>
<path d="M447.44 394.939H361.08C359.658 394.938 358.267 394.515 357.084 393.725C355.901 392.934 354.979 391.81 354.434 390.496C353.89 389.182 353.747 387.735 354.023 386.34C354.3 384.944 354.984 383.661 355.988 382.654L377.58 361.062C378.241 360.36 379.036 359.797 379.918 359.408C380.8 359.018 381.751 358.81 382.715 358.795C383.679 358.78 384.637 358.959 385.53 359.321C386.424 359.684 387.236 360.221 387.917 360.903C388.599 361.585 389.137 362.397 389.499 363.291C389.861 364.184 390.04 365.141 390.025 366.106C390.01 367.07 389.802 368.021 389.412 368.903C389.023 369.785 388.46 370.58 387.757 371.24L378.457 380.54H447.44C449.313 380.594 451.091 381.376 452.397 382.72C453.702 384.064 454.433 385.864 454.433 387.737C454.433 389.611 453.702 391.41 452.397 392.754C451.091 394.098 449.313 394.88 447.44 394.934V394.939Z" fill="#F2F2F2"/>
<path d="M382.669 416.53C381.724 416.531 380.788 416.345 379.914 415.984C379.041 415.622 378.248 415.091 377.581 414.422L355.989 392.831C354.703 391.468 354 389.659 354.027 387.786C354.054 385.913 354.811 384.124 356.135 382.8C357.46 381.475 359.248 380.719 361.121 380.691C362.994 380.664 364.804 381.368 366.167 382.653L387.758 404.245C388.763 405.252 389.447 406.534 389.724 407.93C390.001 409.326 389.858 410.772 389.313 412.086C388.769 413.401 387.847 414.525 386.665 415.316C385.482 416.107 384.092 416.529 382.669 416.53Z" fill="#F2F2F2"/>
</g>
<defs>
<clipPath id="clip0_179_749">
<rect width="685.273" height="800.054" fill="white"/>
</clipPath>
</defs>
</svg>
