<svg width="754" height="801" viewBox="0 0 754 801" fill="none" xmlns="http://www.w3.org/2000/svg">
<g clip-path="url(#clip0_179_928)">
<path d="M124.23 332.971L154.201 342.819V299.695H127.017L124.23 332.971Z" fill="#9F616A"/>
<path d="M150.491 311.627C166.979 311.627 180.346 298.26 180.346 281.772C180.346 265.284 166.979 251.917 150.491 251.917C134.002 251.917 120.636 265.284 120.636 281.772C120.636 298.26 134.002 311.627 150.491 311.627Z" fill="#9F616A"/>
<path d="M142.889 284.11L147.001 289.11L154.442 276.083C154.442 276.083 163.942 276.583 163.942 269.518C163.942 262.453 172.661 262.273 172.661 262.273C172.661 262.273 185.009 240.722 159.438 246.401C159.438 246.401 141.711 234.249 132.888 244.639C132.888 244.639 105.855 258.254 113.595 281.958L126.449 306.388L129.363 300.859C129.363 300.859 127.602 277.637 142.889 284.11Z" fill="#090814"/>
<path d="M140.125 741.572H116.006V775.793H140.125V741.572Z" fill="#9F616A"/>
<path d="M163.62 796.503C166.154 796.503 168.412 796.445 170.12 796.284C176.52 795.697 182.64 790.963 185.72 788.198C186.392 787.592 186.86 786.792 187.058 785.909C187.256 785.026 187.175 784.103 186.826 783.268C186.574 782.666 186.19 782.128 185.701 781.695C185.212 781.262 184.632 780.945 184.004 780.768L167.072 775.93L139.658 757.43L139.347 757.983C137.853 760.637 136.612 763.425 135.638 766.311C135.456 766.814 135.386 767.351 135.432 767.883C135.478 768.416 135.638 768.933 135.903 769.398C136.215 769.865 136.655 770.233 137.17 770.458C136.67 770.976 135.12 772.036 130.328 772.796C123.336 773.902 121.862 766.657 121.804 766.357L121.758 766.115L121.551 765.977C118.222 763.835 116.172 762.856 115.469 763.063C115.031 763.19 114.294 763.42 112.301 783.151C111.335 786.222 111.114 789.478 111.656 792.651C112.681 797.374 133.322 795.751 137.456 795.381C137.571 795.393 153.029 796.498 163.614 796.498L163.62 796.503Z" fill="#090814"/>
<path d="M43.1035 716.658L61.6992 732.022L83.498 705.638L64.9022 690.274L43.1035 716.658Z" fill="#9F616A"/>
<path d="M66.581 762.904C68.539 764.517 70.313 765.91 71.718 766.878C77.028 770.506 84.7571 770.76 88.8801 770.587C89.7856 770.548 90.6566 770.228 91.3731 769.673C92.0895 769.118 92.616 768.354 92.8801 767.487C93.0692 766.861 93.1156 766.201 93.016 765.556C92.9163 764.91 92.673 764.294 92.304 763.755L82.3411 749.23L73.011 717.509L72.424 717.739C69.5816 718.834 66.8475 720.191 64.257 721.793C63.7975 722.066 63.4022 722.434 63.0981 722.874C62.794 723.313 62.5883 723.813 62.495 724.339C62.4354 724.902 62.5396 725.47 62.795 725.975C62.081 726.056 60.2151 725.883 56.0341 723.418C49.9411 719.824 53.419 713.293 53.581 713.018L53.696 712.799L53.627 712.569C52.427 708.791 51.4731 706.741 50.7941 706.453C50.3681 706.269 49.665 705.969 35.555 719.918C32.8482 721.663 30.6005 724.033 29.0011 726.829C26.7781 731.129 43.7211 743.035 47.1421 745.373C47.2231 745.454 58.43 756.154 66.585 762.904H66.581Z" fill="#090814"/>
<path d="M180.013 477.676H97.2773L115.66 751.155H143.235L180.001 477.675L180.013 477.676Z" fill="#090814"/>
<path d="M163.161 492.742L180.012 477.676L171.592 628.082L77.3613 717.706L53.8613 698.298L108.769 627.057L163.161 492.742Z" fill="#090814"/>
<path d="M163.162 316.8L122.306 310.165L109.613 332.349C93.4868 360.553 86.9091 393.215 90.8613 425.463L97.2773 477.676H180.013L163.162 316.8Z" fill="#D90429"/>
<path d="M246.634 490.61C253.499 495.805 256.252 503.649 252.785 508.141C249.318 512.633 240.933 512.069 234.068 506.874C231.291 504.839 229.066 502.143 227.595 499.03L198.795 476.661L210.11 462.978L237.305 486.487C240.712 487.078 243.924 488.493 246.658 490.611H246.635L246.634 490.61Z" fill="#9F616A"/>
<path d="M235.174 479.899L180.346 424.278L147.6 361.468C146.025 358.445 143.847 355.776 141.201 353.627C138.555 351.479 135.496 349.895 132.214 348.974C128.931 348.054 125.495 347.816 122.118 348.275C118.74 348.735 115.492 349.881 112.575 351.645C109.657 353.408 107.132 355.751 105.156 358.528C103.179 361.306 101.793 364.459 101.083 367.793C100.372 371.127 100.353 374.571 101.026 377.913C101.698 381.255 103.049 384.423 104.994 387.223L152.094 454.951L152.163 455.051L224.222 497.485L235.164 479.885H235.176L235.174 479.899Z" fill="#D90429"/>
<path d="M723.575 189.281H719.195V69.39C719.195 50.9866 711.884 33.337 698.871 20.3239C685.858 7.31071 668.208 0 649.805 0H395.805C377.402 0 359.752 7.31071 346.739 20.3239C333.726 33.337 326.415 50.9866 326.415 69.39V727.11C326.415 745.513 333.726 763.163 346.739 776.176C359.752 789.189 377.402 796.5 395.805 796.5H649.805C668.208 796.5 685.858 789.189 698.871 776.176C711.884 763.163 719.195 745.513 719.195 727.11V274.61H723.575V189.281Z" fill="#090814"/>
<path d="M652.615 18.0559H619.466C620.992 21.7946 621.574 25.8511 621.162 29.8678C620.749 33.8846 619.356 37.7383 617.103 41.0894C614.85 44.4405 611.808 47.186 608.244 49.0842C604.68 50.9823 600.704 51.9747 596.666 51.9739H451.143C447.106 51.9747 443.13 50.9823 439.566 49.0842C436.002 47.186 432.96 44.4405 430.707 41.0894C428.454 37.7383 427.06 33.8846 426.648 29.8678C426.236 25.8511 426.818 21.7946 428.343 18.0559H397.384C383.641 18.0559 370.46 23.5155 360.742 33.2336C351.024 42.9518 345.564 56.1324 345.564 69.8759V726.634C345.564 740.377 351.024 753.557 360.742 763.275C370.459 772.993 383.639 778.453 397.382 778.453H652.608C659.414 778.453 666.152 777.113 672.439 774.508C678.726 771.904 684.439 768.087 689.251 763.275C694.063 758.463 697.88 752.751 700.484 746.464C703.088 740.176 704.428 733.438 704.428 726.633V69.8759C704.429 56.1335 698.97 42.9538 689.253 33.2358C679.537 23.5178 666.358 18.0575 652.615 18.0559Z" fill="white"/>
<path d="M581.01 326.823H269.644C266.869 326.82 264.21 325.716 262.248 323.755C260.286 321.793 259.183 319.133 259.18 316.359V270.759C259.183 267.985 260.286 265.325 262.248 263.363C264.21 261.402 266.869 260.298 269.644 260.295H581.01C583.784 260.298 586.444 261.402 588.405 263.363C590.367 265.325 591.471 267.985 591.474 270.759V316.359C591.471 319.133 590.367 321.793 588.406 323.755C586.444 325.717 583.784 326.821 581.01 326.824V326.823Z" fill="#D6D6E3"/>
<path d="M550.756 319.765H276.703C273.929 319.762 271.269 318.658 269.308 316.697C267.346 314.735 266.242 312.075 266.239 309.301V277.821C266.242 275.047 267.346 272.387 269.308 270.425C271.269 268.464 273.929 267.36 276.703 267.357H573.95C576.724 267.36 579.384 268.464 581.346 270.426C583.307 272.387 584.411 275.047 584.414 277.821V286.106C584.403 295.03 580.854 303.585 574.544 309.894C568.234 316.204 559.68 319.754 550.756 319.765Z" fill="white"/>
<path d="M456.225 290.314H331.08C330.364 290.314 329.677 290.03 329.171 289.523C328.664 289.017 328.38 288.33 328.38 287.614C328.38 286.898 328.664 286.211 329.171 285.705C329.677 285.199 330.364 284.914 331.08 284.914H456.225C456.941 284.914 457.628 285.199 458.134 285.705C458.64 286.211 458.925 286.898 458.925 287.614C458.925 288.33 458.64 289.017 458.134 289.523C457.628 290.03 456.941 290.314 456.225 290.314Z" fill="#D90429"/>
<path d="M519.572 301.347H331.072C330.356 301.347 329.669 301.063 329.163 300.556C328.657 300.05 328.372 299.363 328.372 298.647C328.372 297.931 328.657 297.244 329.163 296.738C329.669 296.231 330.356 295.947 331.072 295.947H519.572C520.288 295.947 520.975 296.231 521.481 296.738C521.988 297.244 522.272 297.931 522.272 298.647C522.272 299.363 521.988 300.05 521.481 300.556C520.975 301.063 520.288 301.347 519.572 301.347Z" fill="#D6D6E3"/>
<path d="M581.01 423.577H269.644C266.869 423.574 264.21 422.47 262.248 420.509C260.286 418.547 259.183 415.887 259.18 413.113V367.513C259.183 364.739 260.287 362.079 262.248 360.118C264.21 358.156 266.87 357.053 269.644 357.049H581.01C583.784 357.052 586.444 358.156 588.405 360.117C590.367 362.079 591.471 364.739 591.474 367.513V413.113C591.471 415.887 590.367 418.547 588.405 420.509C586.444 422.47 583.784 423.574 581.01 423.577Z" fill="#D6D6E3"/>
<path d="M550.756 416.519H276.703C273.929 416.516 271.269 415.412 269.308 413.451C267.346 411.489 266.242 408.829 266.239 406.055V374.575C266.242 371.801 267.346 369.141 269.308 367.179C271.269 365.218 273.929 364.114 276.703 364.111H573.95C576.724 364.115 579.384 365.218 581.346 367.18C583.307 369.141 584.411 371.801 584.414 374.575V382.86C584.403 391.784 580.854 400.339 574.544 406.649C568.234 412.959 559.68 416.508 550.756 416.519Z" fill="white"/>
<path d="M456.225 387.068H331.08C330.364 387.068 329.677 386.784 329.171 386.277C328.664 385.771 328.38 385.084 328.38 384.368C328.38 383.652 328.664 382.965 329.171 382.459C329.677 381.952 330.364 381.668 331.08 381.668H456.225C456.941 381.668 457.628 381.952 458.134 382.459C458.64 382.965 458.925 383.652 458.925 384.368C458.925 385.084 458.64 385.771 458.134 386.277C457.628 386.784 456.941 387.068 456.225 387.068Z" fill="#D90429"/>
<path d="M519.572 398.101H331.072C330.718 398.101 330.366 398.031 330.039 397.895C329.711 397.76 329.414 397.561 329.163 397.31C328.912 397.059 328.713 396.762 328.578 396.434C328.442 396.107 328.372 395.755 328.372 395.401C328.372 395.046 328.442 394.695 328.578 394.368C328.713 394.04 328.912 393.742 329.163 393.492C329.414 393.241 329.711 393.042 330.039 392.906C330.366 392.771 330.718 392.701 331.072 392.701H519.572C519.927 392.701 520.278 392.771 520.605 392.906C520.933 393.042 521.231 393.241 521.481 393.492C521.732 393.742 521.931 394.04 522.067 394.368C522.202 394.695 522.272 395.046 522.272 395.401C522.272 395.755 522.202 396.107 522.067 396.434C521.931 396.762 521.732 397.059 521.481 397.31C521.231 397.561 520.933 397.76 520.605 397.895C520.278 398.031 519.927 398.101 519.572 398.101Z" fill="#D6D6E3"/>
<path d="M581.01 520.331H269.644C266.869 520.328 264.21 519.224 262.248 517.263C260.286 515.301 259.183 512.641 259.18 509.867V464.267C259.183 461.493 260.286 458.833 262.248 456.871C264.21 454.91 266.869 453.806 269.644 453.803H581.01C583.784 453.806 586.443 454.91 588.405 456.872C590.367 458.833 591.47 461.493 591.474 464.267V509.867C591.471 512.641 590.367 515.301 588.405 517.263C586.444 519.224 583.784 520.328 581.01 520.331Z" fill="#D6D6E3"/>
<path d="M550.756 513.272H276.703C273.929 513.269 271.269 512.165 269.308 510.204C267.346 508.242 266.242 505.582 266.239 502.808V471.328C266.243 468.554 267.346 465.894 269.308 463.933C271.269 461.971 273.929 460.867 276.703 460.864H573.95C576.724 460.867 579.384 461.971 581.346 463.933C583.307 465.894 584.411 468.554 584.414 471.328V479.613C584.403 488.536 580.854 497.091 574.544 503.401C568.234 509.711 559.68 513.261 550.756 513.272Z" fill="white"/>
<path d="M456.225 483.822H331.08C330.725 483.822 330.374 483.752 330.047 483.616C329.719 483.481 329.421 483.282 329.171 483.031C328.92 482.78 328.721 482.483 328.585 482.155C328.45 481.828 328.38 481.476 328.38 481.122C328.38 480.767 328.45 480.416 328.585 480.089C328.721 479.761 328.92 479.463 329.171 479.213C329.421 478.962 329.719 478.763 330.047 478.627C330.374 478.492 330.725 478.422 331.08 478.422H456.225C456.579 478.422 456.931 478.492 457.258 478.627C457.586 478.763 457.883 478.962 458.134 479.213C458.385 479.463 458.584 479.761 458.719 480.089C458.855 480.416 458.925 480.767 458.925 481.122C458.925 481.476 458.855 481.828 458.719 482.155C458.584 482.483 458.385 482.78 458.134 483.031C457.883 483.282 457.586 483.481 457.258 483.616C456.931 483.752 456.579 483.822 456.225 483.822Z" fill="#D90429"/>
<path d="M519.572 494.855H331.072C330.356 494.855 329.669 494.571 329.163 494.064C328.657 493.558 328.372 492.871 328.372 492.155C328.372 491.439 328.657 490.752 329.163 490.246C329.669 489.74 330.356 489.455 331.072 489.455H519.572C520.288 489.455 520.975 489.74 521.481 490.246C521.988 490.752 522.272 491.439 522.272 492.155C522.272 492.871 521.988 493.558 521.481 494.064C520.975 494.571 520.288 494.855 519.572 494.855Z" fill="#D6D6E3"/>
<path d="M566.354 179.004H483.644C482.627 179.004 481.638 178.667 480.832 178.046C480.026 177.425 479.448 176.555 479.189 175.571C478.93 174.587 479.004 173.545 479.399 172.607C479.794 171.67 480.489 170.889 481.374 170.388C484.981 168.346 486.929 164.628 487.691 158.335L489.404 142.873C489.751 135.979 491.853 129.287 495.51 123.433C499.168 117.579 504.26 112.756 510.304 109.422C511.586 101.855 517.572 94.2219 525.04 94.2219C532.98 94.2219 538.412 102.406 539.665 109.405C545.751 112.773 550.873 117.644 554.541 123.554C558.209 129.465 560.301 136.216 560.617 143.165L562.317 158.38C563.074 164.63 565.017 168.347 568.624 170.388C569.51 170.889 570.204 171.67 570.599 172.607C570.995 173.545 571.069 174.587 570.809 175.571C570.55 176.555 569.972 177.425 569.167 178.046C568.361 178.667 567.372 179.004 566.354 179.004ZM493.971 169.789H556.027C554.497 166.526 553.529 163.028 553.164 159.442L551.437 143.889C551.21 138.114 549.406 132.511 546.221 127.688C543.036 122.865 538.591 119.006 533.369 116.529C532.58 116.156 531.913 115.566 531.446 114.829C530.979 114.092 530.731 113.237 530.731 112.364C530.731 108.528 527.489 103.441 525.045 103.441C522.579 103.441 519.314 108.458 519.269 112.285C519.284 113.187 519.033 114.074 518.549 114.836C518.065 115.598 517.368 116.2 516.544 116.57C511.381 119.023 506.982 122.834 503.819 127.595C500.655 132.356 498.846 137.888 498.585 143.598L496.844 159.398C496.479 162.999 495.508 166.512 493.971 169.789Z" fill="black"/>
<path d="M524.999 199.681C519.666 199.675 514.553 197.554 510.782 193.783C507.011 190.012 504.89 184.899 504.884 179.566V174.396C504.884 173.174 505.369 172.002 506.233 171.138C507.097 170.274 508.269 169.788 509.491 169.788C510.713 169.788 511.885 170.274 512.749 171.138C513.613 172.002 514.099 173.174 514.099 174.396V179.565C514.099 180.996 514.381 182.414 514.929 183.736C515.476 185.059 516.279 186.26 517.291 187.272C518.303 188.284 519.505 189.087 520.828 189.635C522.15 190.183 523.567 190.465 524.999 190.465C526.43 190.465 527.848 190.183 529.17 189.635C530.492 189.087 531.694 188.284 532.706 187.272C533.718 186.26 534.521 185.059 535.069 183.736C535.617 182.414 535.899 180.996 535.899 179.565V174.396C535.899 173.174 536.384 172.002 537.248 171.138C538.112 170.274 539.284 169.788 540.506 169.788C541.728 169.788 542.9 170.274 543.764 171.138C544.628 172.002 545.114 173.174 545.114 174.396V179.565C545.108 184.898 542.987 190.011 539.216 193.782C535.445 197.553 530.332 199.675 524.999 199.681Z" fill="black"/>
<path d="M481.641 693.289C481.821 695.854 482.577 698.345 483.852 700.578C486.703 705.231 491.015 708.807 496.114 710.748C502.314 713.286 509.231 713.364 515.814 712.798C521.928 712.272 527.979 711.054 534.114 710.798C538.86 710.646 543.61 710.759 548.343 711.137C557.525 711.789 566.669 712.998 575.755 714.464C578.216 714.856 580.671 715.277 583.121 715.728C583.353 715.748 583.582 715.791 583.805 715.855C583.849 715.873 583.921 715.855 583.962 715.885C584.036 715.932 583.662 715.767 583.889 715.954C584.205 716.285 584.486 716.647 584.728 717.034L588.083 721.352C588.965 722.71 590.006 723.959 591.183 725.071C592.06 725.748 593.118 726.151 594.223 726.228C595.329 726.305 596.432 726.053 597.394 725.504C598.4 724.869 599.202 723.958 599.704 722.88C600.476 721.464 601.397 720.135 602.451 718.915C606.443 714.258 611.991 711.394 616.631 707.475C618.879 705.655 620.797 703.462 622.302 700.992C623.586 698.757 624.385 696.276 624.645 693.712C625.053 688.457 623.744 683.211 620.915 678.763C617.993 674.002 613.793 670.156 608.793 667.663C603.12 664.941 597.002 663.264 590.733 662.714C584.103 662.088 577.441 661.867 570.783 662.053C563.325 662.136 555.88 662.464 548.448 663.037C541.006 663.613 533.594 664.432 526.211 665.493C519.082 666.394 512.007 667.69 505.021 669.375C498.895 670.967 492.786 673.456 488.211 677.965C484.141 681.985 481.311 687.471 481.641 693.289Z" fill="#D6D6E3"/>
<path d="M514.007 672.357C507.394 673.577 500.472 675.071 494.923 678.689C489.435 682.268 486.098 687.894 486.423 693.023C486.897 700.514 494.862 706.117 502.116 707.584C509.064 708.989 516.302 708.038 523.964 707.029C525.664 706.806 527.413 706.575 529.148 706.375C548.01 704.195 583.426 710.91 584.925 711.197L586.482 711.497L594.726 722.106C596.729 717.934 599.673 714.284 603.326 711.443C604.912 710.176 606.567 708.999 608.167 707.86C612.25 704.96 616.106 702.214 618.235 698.446C622.87 690.241 617.393 678.799 609.578 673.663C600.778 667.876 589.171 666.969 577.944 666.849C576.775 666.836 575.605 666.83 574.434 666.83C554.181 666.832 533.97 668.679 514.051 672.347L514.007 672.357Z" fill="white"/>
<path d="M508.73 681.425C508.73 681.197 508.775 680.972 508.862 680.762C508.948 680.552 509.076 680.361 509.236 680.2C509.397 680.039 509.588 679.911 509.798 679.824C510.008 679.736 510.233 679.691 510.46 679.691H590.074C590.534 679.691 590.974 679.873 591.299 680.198C591.624 680.523 591.806 680.964 591.806 681.423C591.806 681.882 591.624 682.323 591.299 682.648C590.974 682.972 590.534 683.155 590.074 683.155H510.46C510.002 683.154 509.562 682.972 509.238 682.648C508.913 682.323 508.731 681.884 508.73 681.425Z" fill="#D6D6E3"/>
<path d="M508.73 692.058C508.73 691.831 508.775 691.605 508.862 691.395C508.948 691.185 509.076 690.994 509.236 690.833C509.397 690.672 509.588 690.544 509.798 690.457C510.008 690.369 510.233 690.324 510.46 690.324H590.077C590.537 690.324 590.977 690.506 591.302 690.831C591.627 691.156 591.809 691.597 591.809 692.056C591.809 692.515 591.627 692.956 591.302 693.281C590.977 693.606 590.537 693.788 590.077 693.788H510.46C510.002 693.787 509.562 693.605 509.238 693.281C508.913 692.956 508.731 692.517 508.73 692.058Z" fill="#D6D6E3"/>
<path d="M579.065 702.69C579.065 702.463 579.11 702.237 579.197 702.027C579.283 701.817 579.411 701.626 579.571 701.465C579.732 701.304 579.923 701.176 580.133 701.089C580.343 701.001 580.568 700.956 580.795 700.956H590.073C590.533 700.956 590.973 701.139 591.298 701.463C591.623 701.788 591.805 702.229 591.805 702.688C591.805 703.147 591.623 703.588 591.298 703.913C590.973 704.238 590.533 704.42 590.073 704.42H580.795C580.337 704.42 579.897 704.237 579.573 703.913C579.248 703.588 579.066 703.149 579.065 702.69Z" fill="#D6D6E3"/>
<path d="M448.825 700.119C448.782 700.119 448.738 700.119 448.694 700.119C448.132 700.057 447.598 699.843 447.148 699.502C446.697 699.16 446.348 698.703 446.136 698.179C444.162 694.185 441.613 690.503 438.57 687.249C436.794 685.356 434.939 683.597 433.144 681.894C428.515 677.505 424.155 673.371 421.735 667.658C416.459 655.202 422.672 637.858 431.549 630.073C441.506 621.347 454.602 619.978 467.271 619.799C468.588 619.78 469.905 619.771 471.223 619.771C494.16 619.797 517.01 622.583 539.28 628.071C546.745 629.908 554.559 632.158 560.839 637.618C567.081 643.046 570.875 651.594 570.505 659.395C569.964 670.784 560.911 679.295 552.667 681.518C544.809 683.637 536.646 682.205 528.005 680.688C526.097 680.354 524.125 680.007 522.174 679.707C500.974 676.439 461.148 686.507 459.463 686.942L457.791 687.369L451.305 698.499C451.074 698.966 450.722 699.364 450.286 699.649C449.85 699.935 449.345 700.099 448.824 700.124L448.825 700.119Z" fill="#D90429"/>
<path d="M543.232 648.588H453.626C453.109 648.588 452.613 648.383 452.247 648.017C451.881 647.651 451.676 647.155 451.676 646.638C451.676 646.121 451.881 645.625 452.247 645.259C452.613 644.893 453.109 644.688 453.626 644.688H543.232C543.749 644.688 544.245 644.893 544.611 645.259C544.976 645.625 545.182 646.121 545.182 646.638C545.182 647.155 544.976 647.651 544.611 648.017C544.245 648.383 543.749 648.588 543.232 648.588Z" fill="white"/>
<path d="M543.233 660.555H453.627C453.11 660.555 452.614 660.35 452.248 659.984C451.882 659.618 451.677 659.122 451.677 658.605C451.677 658.088 451.882 657.592 452.248 657.226C452.614 656.86 453.11 656.655 453.627 656.655H543.237C543.754 656.655 544.25 656.86 544.616 657.226C544.981 657.592 545.187 658.088 545.187 658.605C545.187 659.122 544.981 659.618 544.616 659.984C544.25 660.35 543.754 660.555 543.237 660.555H543.233Z" fill="white"/>
<path d="M464.069 672.522H453.626C453.109 672.522 452.613 672.317 452.247 671.951C451.881 671.585 451.676 671.089 451.676 670.572C451.676 670.055 451.881 669.559 452.247 669.193C452.613 668.828 453.109 668.622 453.626 668.622H464.069C464.325 668.622 464.578 668.673 464.815 668.771C465.052 668.869 465.267 669.012 465.448 669.193C465.629 669.374 465.772 669.589 465.87 669.826C465.968 670.062 466.019 670.316 466.019 670.572C466.019 670.828 465.968 671.082 465.87 671.318C465.772 671.555 465.629 671.77 465.448 671.951C465.267 672.132 465.052 672.276 464.815 672.374C464.578 672.472 464.325 672.522 464.069 672.522Z" fill="white"/>
<path d="M0.000434731 798.313C-0.0377553 798.753 0.0989332 799.19 0.380857 799.529C0.662781 799.869 1.06721 800.084 1.50644 800.127H752.483C752.907 800.048 753.29 799.824 753.565 799.493C753.841 799.161 753.992 798.744 753.992 798.313C753.992 797.882 753.841 797.465 753.565 797.133C753.29 796.802 752.907 796.578 752.483 796.499H1.50644C1.06721 796.542 0.662781 796.757 0.380857 797.097C0.0989332 797.436 -0.0377553 797.873 0.000434731 798.313Z" fill="#F2F2F2"/>
</g>
<defs>
<clipPath id="clip0_179_928">
<rect width="753.989" height="800.132" fill="white"/>
</clipPath>
</defs>
</svg>
