<svg width="213" height="213" viewBox="0 0 213 213" fill="none" xmlns="http://www.w3.org/2000/svg">
<path d="M209.326 102.879C209.328 106.06 208.683 109.208 207.43 112.132C207.209 112.65 206.969 113.157 206.71 113.653C205.049 116.87 202.665 119.66 199.746 121.803C196.827 123.946 193.451 125.385 189.883 126.007C189.491 126.075 189.096 126.133 188.697 126.181C187.752 126.297 186.801 126.355 185.849 126.354H166.724C165.622 126.354 164.566 126.791 163.787 127.57C163.008 128.349 162.57 129.406 162.57 130.507C162.57 131.609 163.008 132.665 163.787 133.444C164.566 134.223 165.622 134.661 166.724 134.661H172.438C174.015 134.658 175.582 134.918 177.073 135.43C177.512 135.581 177.938 135.749 178.351 135.939C179.909 136.641 181.328 137.618 182.541 138.823C182.592 138.876 182.643 138.925 182.69 138.976C182.841 139.129 182.988 139.287 183.116 139.447C183.393 139.754 183.651 140.073 183.898 140.403C184.814 141.629 185.526 142.996 186.004 144.45C186.058 144.604 186.105 144.761 186.151 144.917C186.53 146.219 186.722 147.569 186.72 148.925C186.72 149.262 186.71 149.596 186.684 149.926C186.684 150.086 186.661 150.242 186.643 150.397C186.478 152.047 186.023 153.655 185.299 155.147C185.257 155.234 185.214 155.322 185.17 155.407C185.089 155.567 185.005 155.722 184.918 155.878C184.13 157.293 183.108 158.564 181.894 159.637C181.379 160.093 180.833 160.511 180.258 160.887C180.009 161.051 179.755 161.211 179.495 161.356C177.34 162.587 174.901 163.232 172.419 163.228C169.459 163.224 166.609 164.346 164.447 166.368C164.347 166.459 164.249 166.557 164.153 166.651L163.972 166.837C162.623 168.243 161.649 169.966 161.137 171.846C161.094 172.002 161.056 172.159 161.02 172.317C160.827 173.17 160.729 174.043 160.73 174.918V185.444H49.9166V169.101C49.9177 168.326 49.7649 167.56 49.4672 166.845C49.399 166.685 49.3266 166.528 49.2542 166.376C48.7571 165.429 48.0105 164.636 47.0953 164.083C46.18 163.53 45.1308 163.237 44.0613 163.237C41.5802 163.242 39.1411 162.596 36.9875 161.365C36.7277 161.22 36.4721 161.064 36.2229 160.896C35.4276 160.374 34.6863 159.775 34.0098 159.107C33.9885 159.09 33.9693 159.068 33.948 159.049C33.0109 158.11 32.2081 157.045 31.5624 155.886C31.4751 155.731 31.392 155.575 31.3111 155.415C30.5078 153.852 30.0022 152.154 29.8201 150.406C29.8052 150.25 29.7903 150.095 29.7818 149.935C29.7562 149.605 29.7455 149.27 29.7455 148.934C29.7442 147.577 29.9357 146.228 30.3143 144.925C30.359 144.77 30.408 144.612 30.4591 144.459C30.7381 143.614 31.0946 142.797 31.5241 142.018C32.0347 141.096 32.6463 140.234 33.3474 139.447C33.4858 139.287 33.6307 139.129 33.784 138.976C33.8437 138.912 33.9076 138.846 33.9715 138.782C36.6493 136.123 40.2704 134.632 44.0442 134.633H58.7923C59.3405 134.633 59.8832 134.525 60.3891 134.314C60.8951 134.103 61.3542 133.794 61.7398 133.405C62.1255 133.015 62.4301 132.553 62.6361 132.045C62.842 131.537 62.9451 130.994 62.9395 130.445C62.916 128.151 60.9777 126.337 58.6795 126.337H27.1427C20.9508 126.336 15.01 123.889 10.6146 119.528C6.21919 115.167 3.72536 109.245 3.67647 103.054C3.57636 90.0479 14.4138 79.4106 27.4196 79.4106H53.1926C53.6986 79.4107 54.1996 79.3105 54.6667 79.116C55.1338 78.9214 55.5578 78.6364 55.9142 78.2772C56.2706 77.918 56.5524 77.4918 56.7433 77.0232C56.9343 76.5546 57.0305 76.0528 57.0266 75.5468C57.0117 73.4168 55.2161 71.7341 53.0903 71.7341H44.0527C41.5667 71.7337 39.1237 71.0852 36.9648 69.8525C34.8058 68.6199 33.0055 66.8458 31.7413 64.7051C31.4553 64.224 31.1985 63.7261 30.9724 63.2141C29.8759 60.7326 29.5076 57.9904 29.9103 55.3075C30.3131 52.6246 31.4704 50.1115 33.2473 48.0613C33.3516 47.9399 33.4603 47.8185 33.571 47.7013C34.9079 46.2569 36.5294 45.1049 38.3333 44.3179C40.1372 43.5308 42.0846 43.1258 44.0527 43.1282H88.8743C89.1505 43.1294 89.4264 43.1145 89.7008 43.0835C90.4566 43.0059 91.1967 42.8164 91.8968 42.5212C92.5455 42.2462 93.1539 41.8843 93.7052 41.4455C94.2678 41.0033 94.7654 40.4842 95.1834 39.9034C96.1324 38.5983 96.6493 37.0291 96.6616 35.4155C96.665 33.871 97.1196 32.3611 97.9695 31.0715C98.8194 29.7819 100.028 28.7687 101.446 28.1565C102.392 27.7553 103.41 27.5495 104.438 27.5515H158.736C159.48 27.5498 160.221 27.6568 160.934 27.8689C161.209 27.9485 161.479 28.0445 161.742 28.1565C162.928 28.6499 163.973 29.4299 164.783 30.4265C165.593 31.4232 166.144 32.6053 166.385 33.867C166.478 34.3492 166.524 34.8392 166.523 35.3303V36.8745C166.522 37.8757 166.764 38.8623 167.226 39.75C167.439 40.1598 167.697 40.5442 167.995 40.896C168.108 41.0323 168.227 41.1622 168.353 41.2879C169.426 42.3676 170.859 43.0144 172.379 43.1048C172.507 43.1133 172.637 43.1176 172.769 43.1176C174.766 43.1175 176.742 43.5347 178.569 44.3423C179.194 44.6196 179.799 44.9429 180.377 45.3093C182.134 46.4141 183.63 47.8881 184.761 49.629C185.418 50.6371 185.944 51.7251 186.326 52.8666L186.339 52.9007C186.632 53.7785 186.838 54.6832 186.954 55.6015C187.266 58.0258 186.95 60.4894 186.038 62.7571C185.126 65.0247 183.648 67.0206 181.744 68.554C181.282 68.927 180.797 69.2713 180.292 69.585C178.031 70.9815 175.426 71.7192 172.769 71.715H161.495C160.537 71.7029 159.61 72.0496 158.895 72.6869C158.18 73.3241 157.73 74.2058 157.632 75.1584C157.535 76.111 157.797 77.0656 158.368 77.8344C158.939 78.6032 159.777 79.1305 160.717 79.3127C160.973 79.366 161.233 79.3924 161.495 79.3915H185.86C190.013 79.392 194.093 80.4945 197.681 82.5865C202.268 85.2691 205.815 89.4228 207.745 94.3739V94.3952C208.793 97.1009 209.329 99.9776 209.326 102.879Z" fill="#FFFAF4"/>
<path d="M183.135 139.447H33.3555C33.4939 139.287 33.6388 139.129 33.7921 138.976H182.698C182.85 139.129 182.996 139.287 183.135 139.447Z" fill="#FAF4EA"/>
<path d="M186.162 144.925H30.3203C30.365 144.77 30.414 144.612 30.4652 144.459H186.023C186.077 144.612 186.123 144.77 186.162 144.925Z" fill="#FAF4EA"/>
<path d="M186.703 149.935C186.703 150.095 186.679 150.25 186.662 150.406H29.8196C29.8047 150.25 29.7898 150.095 29.7812 149.935H186.703Z" fill="#FAF4EA"/>
<path d="M185.188 155.415C185.107 155.575 185.024 155.731 184.937 155.886H31.5531C31.4658 155.731 31.3827 155.575 31.3018 155.415H185.188Z" fill="#FAF4EA"/>
<path d="M180.276 160.896C180.027 161.06 179.774 161.22 179.514 161.364H36.9785C36.7187 161.22 36.4631 161.064 36.2139 160.896H180.276Z" fill="#FAF4EA"/>
<path d="M164.466 166.376C164.366 166.468 164.268 166.566 164.172 166.66L163.991 166.845H49.4669C49.3987 166.685 49.3263 166.528 49.2539 166.376H164.466Z" fill="#FAF4EA"/>
<path d="M161.155 171.855C161.113 172.01 161.074 172.168 161.038 172.325H49.916V171.855H161.155Z" fill="#FAF4EA"/>
<path d="M49.916 177.335H160.748V177.806H49.916V177.335Z" fill="#FAF4EA"/>
<path d="M190.884 181.702H22.1156C21.0804 181.702 20.2412 182.541 20.2412 183.576V183.578C20.2412 184.614 21.0804 185.453 22.1156 185.453H190.884C191.919 185.453 192.758 184.614 192.758 183.578V183.576C192.758 182.541 191.919 181.702 190.884 181.702Z" fill="#F2EAD7"/>
<path d="M186.339 52.9049C186.633 53.7828 186.839 54.6874 186.955 55.6057C186.835 54.6859 186.621 53.7809 186.316 52.9049H89.5605C89.6539 52.5772 89.7012 52.2381 89.7011 51.8974V43.0792C90.457 43.0016 91.197 42.8121 91.8972 42.5169C92.5459 42.2419 93.1542 41.8801 93.7055 41.4412C94.2681 40.9991 94.7658 40.4799 95.1837 39.8991C96.1327 38.5941 96.6496 37.0248 96.662 35.4112C96.6654 33.8667 97.1199 32.3569 97.9699 31.0672C98.8198 29.7776 100.028 28.7644 101.446 28.1522C102.393 27.751 103.41 27.5453 104.439 27.5473H158.737C159.769 27.5449 160.791 27.7506 161.742 28.1522C162.928 28.646 163.974 29.4267 164.784 30.4241C165.595 31.4215 166.145 32.6045 166.385 33.867C166.478 34.3492 166.524 34.8392 166.524 35.3303V36.8745C166.521 38.3472 167.043 39.7727 167.996 40.896C168.109 41.0323 168.228 41.1622 168.354 41.2879C169.427 42.3676 170.86 43.0144 172.379 43.1048C172.507 43.1133 172.637 43.1176 172.769 43.1176C174.767 43.1175 176.742 43.5346 178.569 44.3423C179.195 44.6196 179.799 44.9428 180.377 45.3093C183.183 47.0732 185.291 49.7552 186.341 52.8985L186.339 52.9049Z" fill="#F9F2DE"/>
<path d="M209.326 102.879C209.326 105.96 208.719 109.011 207.539 111.858C206.36 114.704 204.631 117.291 202.452 119.469C200.273 121.647 197.686 123.375 194.839 124.554C191.992 125.732 188.941 126.338 185.86 126.337H166.724C165.622 126.337 164.566 126.774 163.787 127.553C163.008 128.332 162.57 129.389 162.57 130.49C162.57 131.592 163.008 132.648 163.787 133.427C164.566 134.206 165.622 134.644 166.724 134.644H58.8008C59.3489 134.644 59.8916 134.536 60.3975 134.325C60.9035 134.114 61.3626 133.805 61.7482 133.415C62.1339 133.026 62.4385 132.564 62.6445 132.056C62.8504 131.548 62.9535 131.004 62.9479 130.456C62.9244 128.162 60.9861 126.347 58.6879 126.347H36.8213V79.4043H53.184C53.69 79.4043 54.191 79.3041 54.6581 79.1096C55.1252 78.9151 55.5492 78.63 55.9056 78.2708C56.262 77.9116 56.5438 77.4854 56.7347 77.0168C56.9256 76.5482 57.0219 76.0464 57.018 75.5404C57.003 73.4104 55.2075 71.7277 53.0817 71.7277H44.0526C42.5856 71.7291 41.1272 71.5042 39.7287 71.0611H64.9437C66.1142 71.0431 67.2305 70.5651 68.0513 69.7304C68.872 68.8957 69.3312 67.7715 69.3293 66.6008C69.3299 63.6855 70.4883 60.8897 72.5497 58.8283C74.6112 56.7668 77.4069 55.6085 80.3223 55.6079H186.954C187.214 57.6235 187.041 59.6712 186.447 61.6147C185.853 63.5581 184.851 65.3525 183.509 66.8782C182.166 68.4039 180.514 69.6258 178.662 70.4624C176.81 71.299 174.801 71.7311 172.769 71.7299H161.494C160.478 71.7299 159.502 72.1338 158.783 72.8528C158.064 73.5718 157.66 74.547 157.66 75.5639C157.66 76.5807 158.064 77.5559 158.783 78.2749C159.502 78.9939 160.478 79.3979 161.494 79.3979H185.86C190.013 79.3984 194.093 80.5009 197.681 82.5929C201.229 84.6578 204.172 87.6186 206.216 91.1789C208.26 94.7391 209.332 98.7739 209.326 102.879Z" fill="#F9F2DE"/>
<path d="M85.9306 93.2939V134.633H58.8008C59.3489 134.633 59.8916 134.525 60.3975 134.314C60.9035 134.103 61.3626 133.794 61.7482 133.405C62.1339 133.015 62.4385 132.553 62.6445 132.045C62.8504 131.537 62.9535 130.993 62.9479 130.445C62.9244 128.151 60.9861 126.337 58.6879 126.337H36.8213V93.2939H85.9306Z" fill="#FFF5DC"/>
<path d="M85.9284 93.2898V134.633H84.5993V94.4783H36.8213V93.2898H85.9284Z" fill="#F2EAD7"/>
<path d="M36.8213 104.146H85.9306V104.628H36.8213V104.146Z" fill="#FFFDF8"/>
<path d="M67.7207 93.2876V134.633H67.2393V93.2876H67.7207Z" fill="#FFFDF8"/>
<path d="M48.1357 93.2876H48.6171V126.337H48.1357V93.2876Z" fill="#FFFDF8"/>
<path d="M200.838 84.8059H36.8281V82.595H197.681C198.792 83.2447 199.848 83.9842 200.838 84.8059Z" fill="#F2EAD7"/>
<path d="M192.765 80.4394V82.595H96.2061C96.2061 78.1492 97.9722 73.8854 101.116 70.7417C104.26 67.598 108.523 65.8319 112.969 65.8319H184.339C183.014 67.6597 181.275 69.1471 179.263 70.1721C177.252 71.197 175.026 71.7301 172.769 71.7277H161.495C160.478 71.7277 159.503 72.1317 158.784 72.8507C158.065 73.5697 157.661 74.5449 157.661 75.5617C157.661 76.5786 158.065 77.5538 158.784 78.2728C159.503 78.9918 160.478 79.3957 161.495 79.3957H185.86C188.201 79.397 190.529 79.7488 192.765 80.4394Z" fill="#FFF6DE"/>
<path d="M186.954 55.6057H85.9922C86.8003 55.6063 87.5865 55.3427 88.2309 54.8552C88.8754 54.3676 89.3429 53.6827 89.5621 52.9049H186.309C186.616 53.7807 186.832 54.6857 186.954 55.6057Z" fill="#F2EAD7"/>
<path d="M93.7049 41.4412V52.9048H91.8965V42.5168C92.5452 42.2418 93.1536 41.88 93.7049 41.4412Z" fill="#F2EAD7"/>
<path d="M98.0859 33.8755H99.8943V52.907H98.0859V33.8755Z" fill="#F2EAD7"/>
<path d="M104.276 33.8755H106.085V52.907H104.276V33.8755Z" fill="#F2EAD7"/>
<path d="M110.468 33.8755H112.276V52.907H110.468V33.8755Z" fill="#F2EAD7"/>
<path d="M116.657 33.8755H118.466V52.907H116.657V33.8755Z" fill="#F2EAD7"/>
<path d="M122.85 33.8755H124.658V52.907H122.85V33.8755Z" fill="#F2EAD7"/>
<path d="M129.039 33.8755H130.847V52.907H129.039V33.8755Z" fill="#F2EAD7"/>
<path d="M135.231 33.8755H137.04V52.907H135.231V33.8755Z" fill="#F2EAD7"/>
<path d="M141.423 33.8755H143.231V52.907H141.423V33.8755Z" fill="#F2EAD7"/>
<path d="M147.613 33.8755H149.422V52.907H147.613V33.8755Z" fill="#F2EAD7"/>
<path d="M153.805 33.8755H155.613V52.907H153.805V33.8755Z" fill="#F2EAD7"/>
<path d="M159.995 33.8755H161.803V52.907H159.995V33.8755Z" fill="#F2EAD7"/>
<path d="M167.995 40.8959V52.8985H166.187V33.8669H166.385C166.477 34.3492 166.524 34.8392 166.523 35.3303V36.8745C166.521 38.3472 167.042 39.7727 167.995 40.8959Z" fill="#F2EAD7"/>
<path d="M174.187 43.1943V52.9049H172.379V43.1069C172.507 43.1155 172.637 43.1197 172.769 43.1197C173.243 43.1209 173.716 43.1457 174.187 43.1943Z" fill="#F2EAD7"/>
<path d="M180.377 45.3157V52.9048H178.568V44.3486C179.194 44.6259 179.799 44.9492 180.377 45.3157Z" fill="#F2EAD7"/>
<path d="M186.338 52.9048H184.76V49.6289C185.424 50.6489 185.954 51.7499 186.338 52.9048Z" fill="#F2EAD7"/>
<path d="M66.7138 43.1239V70.6627C66.1575 70.9154 65.5548 71.0503 64.9438 71.0588H64.6797V43.1239H66.7138Z" fill="#F2EAD7"/>
<path d="M57.2967 65.2226V71.0588H55.1262V65.8851C55.1262 65.5715 55.0017 65.2709 54.78 65.0492C54.5583 64.8275 54.2576 64.7029 53.9441 64.7029H31.7367C31.4506 64.2218 31.1939 63.7239 30.9678 63.2119H55.2902C55.8224 63.2142 56.3321 63.4269 56.708 63.8036C57.084 64.1803 57.2956 64.6904 57.2967 65.2226Z" fill="#F2EAD7"/>
<path d="M209.325 102.879C209.325 103.039 209.325 103.199 209.325 103.358V103.439C209.328 103.473 209.328 103.506 209.325 103.539V103.565C209.325 103.718 209.325 103.865 209.308 104.014V104.042C209.308 104.119 209.308 104.197 209.296 104.276C209.283 104.355 209.296 104.468 209.276 104.564C209.257 104.66 209.276 104.715 209.262 104.79C209.261 104.796 209.261 104.802 209.262 104.809C209.262 104.924 209.242 105.039 209.232 105.156V105.222C209.232 105.275 209.221 105.329 209.215 105.382C209.2 105.518 209.183 105.657 209.166 105.795C209.149 105.933 209.136 106.036 209.119 106.155V106.202C208.83 108.243 208.271 110.237 207.457 112.132C207.236 112.65 206.996 113.157 206.737 113.653C205.076 116.87 202.692 119.66 199.773 121.803C196.854 123.947 193.478 125.385 189.91 126.007C189.519 126.075 189.123 126.133 188.724 126.181C187.779 126.297 186.828 126.355 185.876 126.354H167.844C166.977 126.122 166.118 125.866 165.273 125.581C163.046 124.84 160.881 123.923 158.8 122.839C151.499 119.047 145.379 113.323 141.108 106.291C136.836 99.2598 134.576 91.1907 134.575 82.9635C134.573 73.1893 137.76 63.6813 143.653 55.8833C149.546 48.0852 157.823 42.423 167.226 39.7565C167.438 40.1662 167.696 40.5506 167.995 40.9024C168.108 41.0387 168.227 41.1687 168.353 41.2943C169.426 42.3741 170.859 43.0208 172.378 43.1112C172.506 43.1197 172.636 43.124 172.768 43.124C174.766 43.1239 176.741 43.5411 178.568 44.3488C179.194 44.6261 179.798 44.9493 180.377 45.3158C182.133 46.4187 183.629 47.8905 184.76 49.629C185.418 50.6371 185.944 51.7251 186.326 52.8666L186.338 52.9007C186.632 53.7786 186.838 54.6832 186.954 55.6015C187.265 58.0258 186.95 60.4895 186.038 62.7571C185.126 65.0248 183.647 67.0206 181.744 68.5541C181.281 68.9271 180.796 69.2714 180.291 69.585C178.031 70.9815 175.425 71.7192 172.768 71.715H161.494C160.537 71.7029 159.609 72.0496 158.894 72.6869C158.18 73.3241 157.729 74.2058 157.632 75.1584C157.534 76.111 157.797 77.0656 158.368 77.8344C158.939 78.6032 159.777 79.1306 160.717 79.3127C160.972 79.366 161.233 79.3924 161.494 79.3915H185.859C190.013 79.3921 194.092 80.4946 197.681 82.5865C202.268 85.2692 205.814 89.4229 207.745 94.3739V94.3952C208.793 97.1009 209.328 99.9776 209.325 102.879Z" fill="#F0EFED"/>
<path d="M209.326 102.879V103.439C209.328 103.472 209.328 103.506 209.326 103.539C209.326 103.708 209.326 103.874 209.307 104.042C209.296 104.298 209.279 104.553 209.258 104.809C209.258 104.924 209.238 105.039 209.228 105.156C209.228 105.23 209.213 105.307 209.204 105.382C209.175 105.656 209.14 105.931 209.102 106.202C208.814 108.243 208.255 110.237 207.441 112.132C207.219 112.65 206.979 113.157 206.721 113.652C205.059 116.87 202.676 119.66 199.756 121.803C196.837 123.946 193.462 125.385 189.894 126.006C189.502 126.075 189.106 126.133 188.707 126.181C187.763 126.297 186.812 126.354 185.86 126.354H167.844C166.977 126.122 166.119 125.866 165.273 125.58C163.046 124.84 160.882 123.923 158.8 122.839C155.161 120.948 151.798 118.568 148.804 115.765C144.513 106.644 143.461 96.3314 145.822 86.5312C150.321 67.932 166.6 53.9422 186.32 52.8772L186.332 52.9113C186.626 53.7892 186.832 54.6938 186.948 55.6121C187.259 58.0364 186.944 60.5001 186.032 62.7677C185.12 65.0353 183.641 67.0312 181.738 68.5646C181.275 68.9376 180.79 69.2819 180.285 69.5956C178.025 70.9921 175.419 71.7298 172.762 71.7256H161.495C160.537 71.7135 159.61 72.0602 158.895 72.6975C158.18 73.3347 157.73 74.2164 157.632 75.169C157.535 76.1216 157.797 77.0762 158.368 77.845C158.939 78.6138 159.777 79.1411 160.717 79.3233C160.973 79.3766 161.233 79.403 161.495 79.4021H185.86C190.013 79.4026 194.093 80.5051 197.681 82.5971C202.268 85.2797 205.815 89.4334 207.745 94.3845V94.4058C208.792 97.1081 209.327 99.9811 209.326 102.879Z" fill="#E2E1DE"/>
<path d="M172.769 71.7278H172.366C174.916 70.7105 177.576 69.9956 180.292 69.5978C178.031 70.9943 175.426 71.732 172.769 71.7278Z" fill="#ADADAD"/>
<path d="M209.326 102.879C209.331 106.06 208.686 109.209 207.43 112.132C207.209 112.65 206.969 113.157 206.71 113.653C205.049 116.87 202.665 119.66 199.746 121.803C196.827 123.946 193.451 125.385 189.883 126.007C189.491 126.075 189.096 126.133 188.697 126.181C187.752 126.297 186.801 126.355 185.849 126.354H167.844C166.977 126.122 166.119 125.866 165.273 125.581C163.046 124.84 160.882 123.923 158.8 122.839C157.141 121.973 155.537 121.005 153.999 119.938C153.729 119.753 153.458 119.561 153.192 119.369C153.113 119.197 153.037 119.024 152.962 118.85C152.63 118.091 152.323 117.314 152.046 116.526C151.874 116.034 151.71 115.535 151.558 115.035C150.544 111.688 150.03 108.209 150.033 104.711C150.033 104.321 150.033 103.935 150.055 103.546C150.076 102.809 150.123 102.076 150.191 101.352C150.312 100.051 150.505 98.7584 150.77 97.4794C150.947 96.6274 151.156 95.7754 151.394 94.9362C153.093 89.0119 156.304 83.6318 160.713 79.3254C160.969 79.3787 161.229 79.4051 161.49 79.4042H185.86C189.655 79.4047 193.394 80.3233 196.757 82.0817C197.07 82.2499 197.377 82.4182 197.681 82.595C197.847 82.693 198.011 82.7909 198.175 82.8932C198.902 83.3413 199.603 83.8291 200.276 84.3544C200.465 84.5013 200.653 84.6526 200.838 84.8059C201.023 84.9593 201.264 85.1552 201.456 85.3384C204.239 87.8126 206.395 90.9123 207.746 94.3824V94.4037C208.792 97.1067 209.328 99.9804 209.326 102.879Z" fill="#ADADAD"/>
<path d="M188.719 100.27V118.771L178.684 126.337H166.735C165.633 126.337 164.577 126.774 163.798 127.553C163.019 128.332 162.581 129.389 162.581 130.49C162.581 131.592 163.019 132.648 163.798 133.427C164.577 134.206 165.633 134.644 166.735 134.644H167.678L115.021 174.334V157.933C115.02 157.284 115.17 156.645 115.459 156.064C115.748 155.483 116.168 154.978 116.686 154.587L158.796 122.822L188.719 100.27Z" fill="#ADADAD"/>
<path d="M103.985 135.004C104.028 136.175 104.35 137.318 104.924 138.339C105.671 139.669 106.698 140.821 107.933 141.715C109.168 142.61 110.583 143.226 112.08 143.521C113.576 143.817 115.119 143.784 116.601 143.425C118.084 143.067 119.471 142.391 120.667 141.445C122.083 140.325 123.73 139.532 125.488 139.122C127.247 138.713 129.074 138.697 130.84 139.076C132.605 139.455 134.265 140.219 135.701 141.314C137.137 142.41 138.312 143.808 139.145 145.411L143.814 154.399C143.865 154.499 143.897 154.608 143.907 154.719C143.916 154.831 143.904 154.943 143.87 155.05C143.836 155.157 143.782 155.256 143.71 155.342C143.637 155.428 143.549 155.498 143.449 155.55C143.328 155.612 143.194 155.645 143.057 155.646C142.901 155.645 142.748 155.603 142.615 155.521C142.482 155.44 142.373 155.324 142.301 155.185L137.632 146.195C136.915 144.816 135.902 143.612 134.666 142.67C133.43 141.727 132 141.07 130.48 140.744C128.96 140.419 127.387 140.433 125.873 140.786C124.36 141.139 122.942 141.822 121.723 142.787C120.403 143.832 118.88 144.594 117.251 145.025C115.623 145.456 113.923 145.546 112.258 145.289C110.593 145.033 108.998 144.436 107.574 143.536C106.151 142.635 104.928 141.451 103.983 140.056C103.788 139.772 103.606 139.48 103.437 139.178C103.142 138.651 102.899 138.096 102.713 137.521C102.122 135.696 102.128 133.731 102.73 131.909C103.332 130.088 104.498 128.505 106.059 127.391L151.399 94.9363L173.101 79.4043H176.03L150.774 97.4795L107.052 128.771C106.065 129.475 105.267 130.413 104.732 131.501C104.197 132.588 103.94 133.792 103.985 135.004Z" fill="#ADADAD"/>
<path d="M115.938 54.0679H126.546C126.843 54.0679 127.137 54.1264 127.412 54.2402C127.687 54.354 127.936 54.5208 128.147 54.731C128.357 54.9413 128.524 55.1909 128.638 55.4656C128.751 55.7403 128.81 56.0347 128.81 56.3321V80.7653C128.808 82.7894 128.003 84.73 126.571 86.1607C125.139 87.5913 123.198 88.395 121.174 88.395C120.171 88.3961 119.178 88.1996 118.251 87.8167C117.324 87.4339 116.481 86.8722 115.771 86.1637C115.061 85.4552 114.498 84.6138 114.113 83.6875C113.729 82.7612 113.53 81.7682 113.529 80.7653V56.4705C113.529 55.8339 113.782 55.2233 114.232 54.7731C114.683 54.3229 115.293 54.07 115.93 54.07L115.938 54.0679Z" fill="#33313F"/>
<path d="M121.218 65.7893C125.412 65.7893 128.812 61.7792 128.812 56.8326C128.812 51.886 125.412 47.876 121.218 47.876C117.025 47.876 113.625 51.886 113.625 56.8326C113.625 61.7792 117.025 65.7893 121.218 65.7893Z" fill="#33313F"/>
<path d="M115.938 54.0679H126.546C126.843 54.0679 127.137 54.1264 127.412 54.2402C127.687 54.354 127.936 54.5208 128.147 54.731C128.357 54.9413 128.524 55.1909 128.638 55.4656C128.751 55.7403 128.81 56.0347 128.81 56.3321V80.7653C128.808 82.7894 128.003 84.73 126.571 86.1607C125.139 87.5913 123.198 88.395 121.174 88.395C120.171 88.3961 119.178 88.1996 118.251 87.8167C117.324 87.4339 116.481 86.8722 115.771 86.1637C115.061 85.4552 114.498 84.6138 114.113 83.6875C113.729 82.7612 113.53 81.7682 113.529 80.7653V56.4705C113.529 55.8339 113.782 55.2233 114.232 54.7731C114.683 54.3229 115.293 54.07 115.93 54.07L115.938 54.0679Z" fill="#33313F"/>
<path d="M121.218 65.7893C125.412 65.7893 128.812 61.7792 128.812 56.8326C128.812 51.886 125.412 47.876 121.218 47.876C117.025 47.876 113.625 51.886 113.625 56.8326C113.625 61.7792 117.025 65.7893 121.218 65.7893Z" fill="#33313F"/>
<path d="M127.318 56.3321V56.8306C127.318 56.5281 127.306 56.2235 127.282 55.9296C127.306 56.0624 127.318 56.1971 127.318 56.3321Z" fill="#535267"/>
<path d="M128.809 56.3321V56.8306C128.809 56.5281 128.794 56.2235 128.771 55.9296C128.795 56.0623 128.808 56.1971 128.809 56.3321Z" fill="#535267"/>
<path d="M127.318 56.3321V56.8306C127.318 56.5281 127.306 56.2235 127.282 55.9296C127.306 56.0624 127.318 56.1971 127.318 56.3321Z" fill="#535267"/>
<path d="M128.809 56.8305V80.7653C128.808 82.7894 128.002 84.73 126.57 86.1607C125.139 87.5914 123.197 88.395 121.173 88.395C120.924 88.3962 120.675 88.3834 120.428 88.3567C122.315 88.1725 124.066 87.2924 125.34 85.8879C126.613 84.4834 127.319 82.655 127.318 80.7589V56.3321C127.318 56.1971 127.306 56.0624 127.282 55.9295V55.9146C127.228 55.3037 127.121 54.6987 126.963 54.1063C126.057 50.7622 123.529 48.2701 120.472 47.9293C120.719 47.8993 120.967 47.8844 121.216 47.8845C125.148 47.8845 128.381 51.4097 128.771 55.9231V55.9381C128.794 56.232 128.809 56.5281 128.809 56.8305Z" fill="#535267"/>
<path d="M127.318 56.3321V56.8306C127.318 56.5281 127.306 56.2235 127.282 55.9296C127.306 56.0624 127.318 56.1971 127.318 56.3321Z" fill="#535267"/>
<path d="M142.625 93.6156H135.157C134.86 93.6156 134.575 93.7336 134.365 93.9438C134.155 94.1539 134.037 94.4388 134.037 94.736V97.1386H134.763V95.113C134.763 94.9956 134.786 94.8793 134.831 94.7708C134.875 94.6623 134.941 94.5636 135.024 94.4805C135.107 94.3974 135.205 94.3315 135.314 94.2865C135.422 94.2415 135.539 94.2184 135.656 94.2184H142.127C142.364 94.2184 142.592 94.3126 142.759 94.4804C142.927 94.6482 143.021 94.8757 143.021 95.113V97.1386H143.746V94.736C143.746 94.4388 143.628 94.1539 143.417 93.9438C143.207 93.7336 142.922 93.6156 142.625 93.6156Z" fill="#37639B"/>
<path d="M97.7877 64.726C97.7828 65.4036 98.328 65.9569 99.0056 65.9618C99.6831 65.9668 100.236 65.4215 100.241 64.744L100.261 62.0432C100.266 61.3656 99.7209 60.8123 99.0434 60.8074C98.3658 60.8024 97.8125 61.3477 97.8075 62.0252L97.7877 64.726Z" fill="#FFB2BF"/>
<path d="M95.5856 62.9621C96.1724 63.3009 96.9228 63.0999 97.2616 62.5131C97.6004 61.9263 97.3993 61.1759 96.8125 60.8371L93.3852 58.8584C92.7984 58.5196 92.048 58.7206 91.7092 59.3074C91.3704 59.8942 91.5715 60.6446 92.1583 60.9834L95.5856 62.9621Z" fill="#FFB2BF"/>
<path d="M120.213 54.839C122.74 54.839 124.788 52.7906 124.788 50.2637C124.788 47.7369 122.74 45.6885 120.213 45.6885C117.686 45.6885 115.638 47.7369 115.638 50.2637C115.638 52.7906 117.686 54.839 120.213 54.839Z" fill="#FFAB00"/>
<path d="M118.259 54.4002C118.391 54.4619 118.526 54.5173 118.666 54.5684C119.801 54.9524 121.042 54.8756 122.121 54.3545C123.2 53.8335 124.032 52.9098 124.437 51.7821C124.843 50.6543 124.79 49.4125 124.289 48.3237C123.789 47.2348 122.881 46.3857 121.761 45.959C121.622 45.9081 121.479 45.8654 121.335 45.8312C122.361 46.3185 123.169 47.17 123.602 48.22C124.035 49.2701 124.062 50.4437 123.677 51.5124C123.293 52.5812 122.525 53.4688 121.522 54.0025C120.519 54.5362 119.354 54.678 118.253 54.4002H118.259Z" fill="#EA9600"/>
<path d="M116.929 46.7381L118.094 46.8362C119.372 46.9437 120.555 47.5544 121.383 48.534C122.21 49.5136 122.615 50.7819 122.507 52.0597L122.013 57.9263C121.944 58.7566 121.711 59.5651 121.329 60.3055C120.947 61.0459 120.422 61.7037 119.786 62.2413C119.149 62.7789 118.413 63.1858 117.619 63.4387C116.825 63.6915 115.989 63.7854 115.159 63.715L115.063 63.707C113.388 63.5649 111.837 62.7632 110.753 61.4782C109.669 60.1933 109.139 58.5302 109.281 56.8548L109.611 52.9282C109.685 52.041 109.932 51.1771 110.34 50.3857C110.748 49.5943 111.307 48.8911 111.987 48.3162C112.667 47.7413 113.453 47.306 114.301 47.0352C115.149 46.7644 116.042 46.6635 116.929 46.7381Z" fill="#33313F"/>
<path d="M119.04 130.814L131.021 154.553L124.311 157.245L112.33 133.506L119.04 130.814Z" fill="#F9A0B4"/>
<path d="M119.04 130.814L122.473 137.619L115.764 140.309L112.33 133.506L119.04 130.814Z" fill="#F490AA"/>
<path d="M127.607 156.27L119.761 159.417C119.614 159.051 119.541 158.66 119.545 158.266C119.55 157.872 119.632 157.482 119.787 157.12C119.942 156.757 120.167 156.429 120.448 156.154C120.73 155.878 121.064 155.661 121.429 155.514L126.49 153.485L127.607 156.27Z" fill="#F9A0B4"/>
<path d="M118.326 160.129C118.474 160.49 118.758 160.778 119.117 160.93C119.476 161.082 119.881 161.086 120.243 160.941L123.707 159.537L131.568 156.342C131.732 156.275 131.876 156.167 131.984 156.027C132.093 155.887 132.162 155.721 132.186 155.545C132.208 155.371 132.186 155.195 132.12 155.032C132.025 154.798 131.845 154.608 131.616 154.501C131.387 154.393 131.126 154.376 130.885 154.453L122.933 156.987L119.246 158.163C119.052 158.224 118.872 158.325 118.718 158.459C118.564 158.594 118.44 158.759 118.354 158.944C118.267 159.128 118.22 159.329 118.215 159.533C118.211 159.738 118.248 159.94 118.326 160.129Z" fill="#37639B"/>
<path d="M122.232 157.323C122.367 157.663 122.752 157.83 123.092 157.695C123.432 157.559 123.597 157.174 123.462 156.834L122.559 154.564C122.423 154.223 122.038 154.057 121.699 154.192C121.359 154.327 121.193 154.713 121.329 155.053L122.232 157.323Z" fill="#37639B"/>
<path d="M128.47 156.227L131.315 155.085L128.506 149.526L128.355 149.588C128.045 149.712 127.763 149.897 127.527 150.132C127.29 150.367 127.103 150.647 126.977 150.956C126.851 151.265 126.789 151.596 126.793 151.93C126.798 152.263 126.87 152.593 127.004 152.898L128.47 156.227Z" fill="#37639B"/>
<path d="M122.854 154.456L128.182 152.319C128.63 152.139 128.848 151.63 128.668 151.181L128.668 151.179C128.488 150.73 127.978 150.512 127.529 150.692L122.201 152.829C121.752 153.009 121.535 153.518 121.714 153.967L121.715 153.969C121.895 154.418 122.405 154.636 122.854 154.456Z" fill="#37639B"/>
<path d="M127.796 131.728L131.922 159.13H124.692L120.564 131.728H127.796Z" fill="#FFB2BF"/>
<path d="M127.796 131.728L129.076 140.233H121.847L120.564 131.728H127.796Z" fill="#F9A0B4"/>
<path d="M128.072 159.465H119.618C119.618 158.669 119.934 157.905 120.497 157.342C121.06 156.78 121.823 156.463 122.619 156.463H128.072V159.465Z" fill="#FFB2BF"/>
<path d="M118.036 159.58C118.037 159.774 118.077 159.967 118.152 160.146C118.228 160.325 118.338 160.487 118.477 160.624C118.615 160.76 118.779 160.868 118.96 160.941C119.14 161.014 119.333 161.051 119.527 161.049L123.259 161.032L131.743 160.996C131.92 160.996 132.094 160.948 132.247 160.859C132.4 160.769 132.526 160.641 132.614 160.487C132.699 160.334 132.744 160.162 132.744 159.986C132.742 159.733 132.646 159.49 132.473 159.305C132.3 159.119 132.064 159.006 131.811 158.988L123.489 158.38L119.629 158.099C119.426 158.083 119.22 158.109 119.027 158.176C118.834 158.243 118.657 158.349 118.507 158.489C118.357 158.628 118.238 158.797 118.157 158.985C118.076 159.172 118.035 159.375 118.036 159.58Z" fill="#D90429"/>
<path d="M122.381 158.911C122.381 159.277 122.677 159.573 123.043 159.573C123.408 159.573 123.704 159.277 123.704 158.911V156.47C123.704 156.104 123.408 155.807 123.043 155.807C122.677 155.807 122.381 156.104 122.381 156.47V158.911Z" fill="#D90429"/>
<path d="M128.904 159.733H131.969L131.087 153.537C130.776 153.537 130.469 153.599 130.183 153.72C129.897 153.841 129.639 154.019 129.423 154.242C129.207 154.465 129.038 154.73 128.927 155.019C128.815 155.309 128.763 155.619 128.774 155.929L128.904 159.733Z" fill="#D90429"/>
<path d="M124.336 156.01H130.077C130.56 156.01 130.952 155.618 130.952 155.134V155.132C130.952 154.649 130.56 154.257 130.077 154.257H124.336C123.853 154.257 123.461 154.649 123.461 155.132V155.134C123.461 155.618 123.853 156.01 124.336 156.01Z" fill="#D90429"/>
<path d="M121.476 135.638H110.108L109.923 132.186C108.909 115.67 107.341 94.2717 107.646 89.411H119.014L121.291 132.186L121.476 135.638Z" fill="#D90429"/>
<path d="M135.946 94.2762C136.081 94.9725 136.754 95.4275 137.45 95.2924C138.146 95.1573 138.6 94.4832 138.465 93.7869L137.617 89.4189C137.482 88.7226 136.808 88.2676 136.112 88.4027C135.416 88.5379 134.962 89.2119 135.097 89.9082L135.946 94.2762Z" fill="#FFB2BF"/>
<path d="M115.703 70.716C115.736 71.636 116.125 72.5073 116.787 73.1464L121.367 77.5682L122.379 78.5459L135.412 91.1321C136.102 91.7311 136.996 92.0428 137.909 92.0027C138.822 91.9627 139.684 91.5741 140.32 90.917C140.955 90.2599 141.313 89.3842 141.322 88.4705C141.331 87.5567 140.989 86.6743 140.367 86.0052L123.802 70.011L121.742 68.0216C121.23 67.5294 120.583 67.2011 119.883 67.0788C119.184 66.9565 118.464 67.0458 117.815 67.3351C117.167 67.6245 116.619 68.1008 116.243 68.7031C115.867 69.3054 115.679 70.0063 115.703 70.716Z" fill="#FFB2BF"/>
<path d="M143.168 92.9636C144.563 91.2249 144.021 88.4732 141.957 86.8176C139.894 85.1619 137.09 85.2294 135.695 86.9681C134.3 88.7069 134.842 91.4586 136.905 93.1142C138.969 94.7698 141.773 94.7024 143.168 92.9636Z" fill="#FFB2BF"/>
<path d="M97.1278 76.8675C97.1515 77.5062 97.3457 78.127 97.6901 78.6654C98.0346 79.2038 98.5168 79.6402 99.0868 79.9295C99.6568 80.2187 100.294 80.3502 100.932 80.3103C101.57 80.2704 102.185 80.0605 102.715 79.7025L105.72 77.6619L105.982 77.483L112.585 73.01C112.974 72.7466 113.308 72.4089 113.566 72.0165C113.825 71.624 114.003 71.1844 114.092 70.7228C114.18 70.2613 114.177 69.7868 114.082 69.3266C113.987 68.8663 113.802 68.4294 113.537 68.0407C113.003 67.2583 112.181 66.7195 111.25 66.5423C110.32 66.365 109.357 66.5638 108.572 67.095L107.697 67.6872L102.527 71.1931L102.127 71.4658L98.6998 73.7896C98.199 74.128 97.7922 74.5878 97.5173 75.126C97.2424 75.6643 97.1084 76.2634 97.1278 76.8675Z" fill="#F9A0B4"/>
<path d="M120.612 76.0112V85.4578C120.594 86.7306 120.203 87.9701 119.486 89.0222C118.77 90.0743 117.76 90.8924 116.582 91.3748C115.404 91.8572 114.11 91.9826 112.861 91.7353C111.613 91.488 110.464 90.879 109.559 89.984C108.958 89.3933 108.481 88.6889 108.155 87.9118C107.829 87.1346 107.661 86.3004 107.661 85.4578V76.0112H120.612Z" fill="#FDD55F"/>
<path d="M120.612 73.7875V81.8261L107.661 80.4672V73.7875H120.612Z" fill="#FFB460"/>
<path d="M97.1279 76.5991C97.6836 77.3216 98.4944 77.8045 99.3943 77.949C100.294 78.0935 101.215 77.8888 101.969 77.3766L104.272 75.8281C104.471 75.692 104.633 75.5092 104.745 75.2956C104.856 75.082 104.913 74.8442 104.911 74.6033V74.2646C104.908 73.0362 105.154 71.82 105.634 70.6892C106.114 69.5584 106.818 68.5365 107.703 67.6851L108.579 67.0929C109.333 66.5816 110.254 66.3775 111.153 66.5224C112.053 66.6673 112.863 67.1502 113.418 67.8725C113.463 67.93 113.506 67.9875 113.546 68.0472C113.81 68.4358 113.995 68.8728 114.09 69.333C114.186 69.7932 114.189 70.2677 114.101 70.7293C114.012 71.1908 113.834 71.6304 113.575 72.0229C113.316 72.4154 112.983 72.753 112.594 73.0164L105.991 77.4894L105.729 77.6684L102.723 79.7089C102.193 80.0694 101.576 80.2811 100.937 80.3219C100.297 80.3627 99.658 80.2312 99.0864 79.9409C98.5149 79.6507 98.0317 79.2124 97.6872 78.6718C97.3427 78.1313 97.1496 77.5081 97.1279 76.8675C97.1279 76.778 97.1279 76.6801 97.1279 76.5991Z" fill="#F490AA"/>
<path d="M115.725 71.0078C115.701 70.8029 115.694 70.5962 115.706 70.3901C115.707 70.3788 115.707 70.3673 115.706 70.356C115.706 70.2474 115.725 70.143 115.742 70.0323C115.742 70.0216 115.742 70.0131 115.742 70.0024C115.759 69.8981 115.78 69.7894 115.808 69.6893C115.808 69.6893 115.808 69.6765 115.808 69.6702C115.836 69.5679 115.87 69.4572 115.906 69.3634L115.925 69.3102C115.964 69.2108 116.006 69.1128 116.053 69.0162C116.053 69.0162 116.064 68.9971 116.068 68.9886C116.115 68.8935 116.167 68.8011 116.223 68.7117L116.243 68.6776C116.3 68.586 116.364 68.4987 116.43 68.4113C116.443 68.3966 116.455 68.381 116.466 68.3645C116.537 68.2753 116.612 68.19 116.692 68.1089L116.722 68.0769C116.747 68.0513 116.771 68.0301 116.796 68.0088C117.462 67.3721 118.349 67.0179 119.27 67.0203C120.191 67.0227 121.076 67.3815 121.738 68.0215L123.798 70.011C124.488 71.3193 124.848 72.7767 124.846 74.256V74.6203C124.826 75.8158 125.05 77.0029 125.505 78.1089C125.959 79.2149 126.634 80.2166 127.489 81.0529L135.042 88.329L137.705 90.8999C137.892 92.8914 141.402 94.2589 143.132 91.8222C143.543 91.2735 143.803 90.6264 143.886 89.9456C143.992 90.4704 143.984 91.012 143.861 91.5333C143.739 92.0546 143.505 92.5433 143.177 92.966C142.765 93.4751 142.22 93.8595 141.602 94.0757H141.575C141.411 94.1335 141.244 94.1804 141.074 94.2163L141.012 94.2269C140.94 94.2418 140.87 94.2546 140.799 94.2631H140.748C140.661 94.2738 140.572 94.2823 140.484 94.2887H140.437C140.363 94.2887 140.286 94.2887 140.212 94.2887H140.143C139.961 94.2865 139.779 94.2736 139.598 94.2504H139.532L139.302 94.2312H139.251C139.157 94.212 139.066 94.1928 138.974 94.1673L138.929 94.1566L138.693 94.0863L138.631 94.0672C138.444 94.007 138.26 93.9359 138.082 93.8542C138.062 93.8542 138.045 93.8371 138.026 93.8286C137.947 93.7903 137.866 93.7519 137.788 93.7093C137.777 93.7024 137.765 93.6967 137.754 93.6923C137.662 93.6412 137.572 93.5879 137.481 93.5325L137.457 93.5176C137.377 93.4665 137.296 93.4133 137.215 93.3558L137.176 93.3281C137.089 93.2663 137.002 93.2024 136.916 93.1321C136.394 92.7186 135.95 92.2134 135.609 91.6411C135.608 91.6361 135.608 91.6312 135.609 91.6262L135.598 91.6113C135.494 91.4333 135.402 91.2491 135.321 91.0596L116.788 73.1548C116.737 73.1058 116.69 73.0547 116.641 73.0036L116.624 72.9844L116.575 72.9269L116.526 72.8715L116.511 72.846L116.488 72.814C116.451 72.7714 116.419 72.7267 116.385 72.682L116.364 72.65V72.6351L116.326 72.5797L116.277 72.5073L116.262 72.4839L116.213 72.3987C116.189 72.3561 116.164 72.3156 116.14 72.2709C116.117 72.2262 116.083 72.1601 116.057 72.1026C116.032 72.0451 116.019 72.0238 116.002 71.9855L115.985 71.9493C115.985 71.9493 115.985 71.9322 115.985 71.9258C115.964 71.8726 115.942 71.8193 115.925 71.7661L115.913 71.732C115.912 71.7264 115.912 71.7206 115.913 71.715L115.9 71.6787L115.868 71.5744C115.868 71.5744 115.868 71.5552 115.868 71.5446C115.853 71.4913 115.84 71.4381 115.827 71.3869C115.815 71.3358 115.827 71.3869 115.827 71.3742C115.806 71.2804 115.791 71.1846 115.778 71.0909C115.731 71.0547 115.729 71.0312 115.725 71.0078Z" fill="#F9A0B4"/>
<path d="M105.396 73.4658L105.369 73.7959C105.269 74.963 105.637 76.1219 106.391 77.0178C107.146 77.9137 108.225 78.4733 109.392 78.5735L118.834 79.3851C119.412 79.4347 119.995 79.3701 120.548 79.1947C121.101 79.0194 121.614 78.7369 122.058 78.3633C122.502 77.9896 122.867 77.5322 123.134 77.0172C123.402 76.5021 123.565 75.9395 123.614 75.3615L123.642 75.0313C123.804 73.1662 123.388 71.2963 122.449 69.6765C122.182 69.2081 121.871 68.7653 121.523 68.3538C121.393 68.1962 121.252 68.0428 121.107 67.8916C120.805 67.5767 120.479 67.2848 120.134 67.0183C120.115 67.0034 120.095 66.9863 120.076 66.9735C120.057 66.9608 119.989 66.9096 119.946 66.8777C119.5 66.5459 119.022 66.2571 118.521 66.015C117.281 65.411 115.919 65.0956 114.539 65.0927C113.159 65.0897 111.796 65.3992 110.553 65.998L110.425 66.0619C110.268 66.1407 110.112 66.2238 109.961 66.3132C109.667 66.4816 109.383 66.6657 109.109 66.8649C108.053 67.6353 107.175 68.6235 106.534 69.7627C105.893 70.9019 105.504 72.1655 105.394 73.4679L105.396 73.4658Z" fill="#FDD55F"/>
<path d="M110.547 65.998C110.453 67.2422 110.848 68.474 111.649 69.431C112.45 70.3881 113.592 70.9947 114.834 71.1219C116.075 71.249 117.317 70.8866 118.295 70.1118C119.273 69.337 119.91 68.211 120.07 66.9735C120.027 66.9395 119.983 66.9096 119.94 66.8777C119.493 66.5459 119.016 66.2571 118.515 66.015C117.274 65.411 115.913 65.0956 114.533 65.0927C113.153 65.0897 111.79 65.3992 110.547 65.998Z" fill="#FFB2BF"/>
<path d="M105.396 73.4658L105.369 73.796C105.319 74.3739 105.384 74.9559 105.559 75.5088C105.734 76.0618 106.017 76.5747 106.391 77.0184C106.764 77.4621 107.222 77.8278 107.737 78.0946C108.252 78.3615 108.814 78.5242 109.392 78.5736L112.33 78.827C110.522 77.332 109.307 75.2417 108.902 72.9314C108.497 70.6211 108.929 68.2421 110.121 66.2217L109.959 66.3133C109.664 66.4801 109.38 66.6643 109.107 66.8649C108.051 67.6351 107.172 68.6232 106.532 69.7625C105.891 70.9017 105.502 72.1654 105.392 73.4679L105.396 73.4658Z" fill="#FFB460"/>
<path d="M114.168 93.2939L120.946 132.637L121.54 136.09H132.906L132.313 132.637L125.617 93.2939H114.168Z" fill="#D90429"/>
<path d="M120.669 103.241C117.215 103.241 113.903 101.869 111.46 99.4268C109.018 96.9845 107.646 93.6721 107.646 90.2183V84.6313H120.669V103.241Z" fill="#D90429"/>
<path d="M120.669 86.7166H107.646V84.6292H120.669V86.7166Z" fill="#37639B"/>
<path d="M117.872 62.2067L117.755 63.3611L117.5 65.8532C117.439 66.3805 117.173 66.8627 116.76 67.1952C116.346 67.5278 115.818 67.684 115.29 67.6299C114.762 67.5758 114.277 67.3158 113.939 66.9063C113.602 66.4968 113.439 65.9707 113.487 65.4421L113.512 65.1802L113.862 61.7956C113.889 61.5322 113.967 61.2768 114.093 61.0438C114.219 60.8108 114.389 60.6049 114.594 60.4378C114.8 60.2706 115.036 60.1456 115.289 60.0697C115.543 59.9939 115.809 59.9687 116.072 59.9957C116.336 60.0227 116.591 60.1013 116.824 60.227C117.057 60.3528 117.263 60.5231 117.43 60.7284C117.597 60.9337 117.723 61.17 117.798 61.4236C117.874 61.6772 117.899 61.9433 117.872 62.2067Z" fill="#FFB2BF"/>
<path d="M118.207 102.415C122.388 102.415 125.777 99.0255 125.777 94.8447C125.777 90.6639 122.388 87.2747 118.207 87.2747C114.026 87.2747 110.637 90.6639 110.637 94.8447C110.637 99.0255 114.026 102.415 118.207 102.415Z" fill="#D90429"/>
<path d="M117.872 62.2066L117.755 63.3611C116.598 64.446 115.095 65.0892 113.512 65.178L113.861 61.7934C113.888 61.53 113.967 61.2746 114.092 61.0416C114.218 60.8086 114.388 60.6027 114.594 60.4356C114.799 60.2684 115.035 60.1434 115.289 60.0675C115.543 59.9917 115.809 59.9665 116.072 59.9935C116.335 60.0205 116.591 60.0991 116.824 60.2248C117.057 60.3506 117.263 60.5209 117.43 60.7262C117.597 60.9316 117.722 61.1678 117.798 61.4214C117.874 61.675 117.899 61.9411 117.872 62.2045V62.2066Z" fill="#F9A0B4"/>
<path d="M122.081 53.4885L121.484 57.8572C121.241 59.6393 120.3 61.2518 118.868 62.3402C117.436 63.4286 115.631 63.9038 113.848 63.6614C112.474 63.4726 111.231 62.7457 110.392 61.6405C109.553 60.5354 109.187 59.1423 109.375 57.7677L109.87 54.102C109.871 54.08 109.871 54.0579 109.87 54.0359C109.884 53.9358 109.902 53.8357 109.921 53.7377C110.255 51.9869 111.242 50.4284 112.682 49.3777C114.121 48.327 115.907 47.8625 117.676 48.0783L117.772 48.0911L117.985 48.1209C118.285 48.1629 118.58 48.2342 118.867 48.3339C119.918 48.6853 120.815 49.3922 121.401 50.333C121.988 51.2738 122.228 52.3896 122.081 53.4885Z" fill="#FFB2BF"/>
<path d="M122.771 56.6921L121.706 53.872C121.602 53.6014 121.454 53.3501 121.267 53.1286L121.421 53.1073C121.476 53.0967 121.672 52.381 121.678 52.3277C121.68 52.315 121.68 52.3021 121.678 52.2894C121.505 51.4754 121.169 50.7048 120.69 50.024C120.211 49.3432 119.6 48.7662 118.892 48.3276C118.606 48.2279 118.311 48.1565 118.01 48.1146L117.797 48.0848L117.702 48.072C115.932 47.8562 114.147 48.3206 112.707 49.3714C111.267 50.4221 110.28 51.9806 109.946 53.7314C111.136 54.2565 112.462 54.3915 113.733 54.1169L115.819 53.84C116.522 53.7477 117.236 53.8954 117.844 54.2591C118.453 54.6229 118.922 55.1814 119.173 55.8444C119.416 56.4821 119.902 56.9974 120.524 57.277C121.146 57.5566 121.854 57.5776 122.492 57.3354C122.612 57.2847 122.709 57.1896 122.761 57.0697C122.813 56.9499 122.816 56.8146 122.771 56.6921Z" fill="#F9A0B4"/>
<path d="M119.388 50.912L120.107 50.9725C121.082 51.0546 121.985 51.5206 122.616 52.268C123.247 53.0154 123.556 53.9831 123.474 54.958L123.299 57.0423C123.283 57.2332 123.191 57.4098 123.045 57.5334C122.899 57.657 122.709 57.7174 122.519 57.7013C122.035 57.6606 121.563 57.5247 121.132 57.3014C120.701 57.0781 120.318 56.7718 120.005 56.4002C119.692 56.0285 119.456 55.5987 119.31 55.1355C119.164 54.6723 119.11 54.1848 119.153 53.701L119.388 50.912Z" fill="#33313F"/>
<path d="M121.406 58.6815C122.579 58.6815 123.529 57.7308 123.529 56.5579C123.529 55.3851 122.579 54.4343 121.406 54.4343C120.233 54.4343 119.282 55.3851 119.282 56.5579C119.282 57.7308 120.233 58.6815 121.406 58.6815Z" fill="#FFB2BF"/>
<path d="M122.13 56.5089C122.114 56.3312 122.046 56.1622 121.935 56.0228C121.824 55.8834 121.674 55.7799 121.504 55.725C121.463 55.7138 121.42 55.7127 121.379 55.7217C121.338 55.7308 121.299 55.7497 121.266 55.777C121.234 55.8042 121.209 55.8389 121.193 55.8781C121.176 55.9172 121.17 55.9597 121.174 56.0019L121.28 57.1777C121.285 57.2215 121.3 57.2636 121.325 57.3C121.35 57.3364 121.383 57.366 121.423 57.3859C121.462 57.4059 121.506 57.4156 121.55 57.4142C121.594 57.4128 121.637 57.4003 121.675 57.3779C121.826 57.2922 121.95 57.1646 122.03 57.0105C122.111 56.8564 122.146 56.6822 122.13 56.5089Z" fill="#F9A0B4"/>
<path d="M110.051 84.6292H110.818V86.7165H110.051V84.6292Z" fill="#D90429"/>
<path d="M113.295 84.6292H114.062V86.7165H113.295V84.6292Z" fill="#D90429"/>
<path d="M116.537 84.6292H117.304V86.7165H116.537V84.6292Z" fill="#D90429"/>
<path d="M112.219 55.9189C112.497 55.9189 112.723 55.6929 112.723 55.4141C112.723 55.1353 112.497 54.9093 112.219 54.9093C111.94 54.9093 111.714 55.1353 111.714 55.4141C111.714 55.6929 111.94 55.9189 112.219 55.9189Z" fill="#33313F"/>
<path d="M116.809 56.3044C117.088 56.3044 117.314 56.0784 117.314 55.7996C117.314 55.5208 117.088 55.2948 116.809 55.2948C116.531 55.2948 116.305 55.5208 116.305 55.7996C116.305 56.0784 116.531 56.3044 116.809 56.3044Z" fill="#33313F"/>
<path d="M109.944 132.639H132.301L132.895 136.092H110.132L109.944 132.639Z" fill="#37639B"/>
<path d="M114.316 58.1427C114.345 57.8288 114.063 57.5464 113.687 57.5119C113.311 57.4775 112.983 57.7041 112.954 58.0181C112.926 58.332 113.207 58.6145 113.583 58.6489C113.959 58.6833 114.287 58.4567 114.316 58.1427Z" fill="#AF437C"/>
<path d="M115.354 58.2388C115.383 57.9249 115.101 57.6424 114.725 57.608C114.349 57.5736 114.021 57.8002 113.992 58.1142C113.964 58.4281 114.245 58.7105 114.621 58.7449C114.997 58.7794 115.325 58.5528 115.354 58.2388Z" fill="#AF437C"/>
<path d="M112.958 58.0211L115.359 58.2341C115.312 58.7453 114.737 59.1096 114.081 59.0499C113.425 58.9903 112.911 58.5302 112.958 58.0211Z" fill="#AF437C"/>
<path d="M113.574 58.2214C113.557 58.3982 113.787 58.5622 114.09 58.5899C114.392 58.6176 114.648 58.4983 114.665 58.3215L113.574 58.2214Z" fill="#C16B9C"/>
<path d="M120.294 87.5686C121.824 88.6706 122.888 90.3047 123.276 92.1502L123.372 92.7062V92.736C123.395 92.9213 123.412 93.1066 123.421 93.2962H123.468L124.458 99.1217L130.739 136.092H132.895L125.713 93.8436C125.687 93.6583 125.655 93.4751 125.619 93.2962C125.337 91.9473 124.691 90.701 123.753 89.6917C122.815 88.6824 121.619 87.9483 120.294 87.5686Z" fill="#8D99AE"/>
<path d="M132.895 136.092H130.74L130.147 132.639H132.301L132.895 136.092Z" fill="#D90429"/>
<path d="M104.14 77.6044C103.985 78.1903 103.684 78.7273 103.265 79.1652C102.846 79.603 102.323 79.9274 101.745 80.1079C101.166 80.2884 100.551 80.3191 99.9576 80.1971C99.364 80.0752 98.8111 79.8046 98.3506 79.4106L98.2462 79.3169C98.2121 79.285 98.1802 79.2551 98.1504 79.2211C98.1356 79.2105 98.1226 79.1975 98.112 79.1827L98.0481 79.1167C97.9991 79.0613 97.948 79.0059 97.9033 78.9484C97.8586 78.8909 97.8373 78.8653 97.8053 78.8249C97.7079 78.6933 97.6197 78.5553 97.5412 78.4117C97.5199 78.3733 97.4986 78.3328 97.4794 78.2924C97.4603 78.2519 97.439 78.2093 97.4198 78.1667C97.3765 78.0746 97.3388 77.98 97.3069 77.8834L93.7328 67.768L93.3323 66.6391C93.2876 66.505 93.2493 66.3729 93.2173 66.2387C93.0236 65.3833 93.1507 64.4866 93.5743 63.7186C93.9979 62.9506 94.6887 62.3649 95.5156 62.0724C95.8584 61.9519 96.2174 61.8837 96.5806 61.8701C97.3411 61.8444 98.09 62.0616 98.7189 62.4902C99.3477 62.9187 99.8237 63.5363 100.078 64.2535L104.053 75.4999C104.293 76.1766 104.324 76.9101 104.14 77.6044Z" fill="#FFB2BF"/>
<path d="M99.9339 66.0851C100.667 64.1276 99.2491 61.7865 96.7661 60.8562C94.2831 59.9259 91.6757 60.7586 90.9423 62.7161C90.2088 64.6736 91.6271 67.0147 94.1101 67.945C96.593 68.8753 99.2004 68.0426 99.9339 66.0851Z" fill="#FFB2BF"/>
<path d="M98.8319 79.2573C98.7957 79.2274 98.7616 79.1976 98.7276 79.1635C98.6935 79.1295 98.6615 79.1018 98.6296 79.0698L98.5912 79.0315L98.5273 78.9655C98.4783 78.9101 98.4294 78.8547 98.3825 78.7972L98.2866 78.6715C98.1888 78.541 98.1006 78.4036 98.0225 78.2604C97.9998 78.2218 97.9792 78.182 97.9608 78.1411C97.938 78.1003 97.9174 78.0584 97.899 78.0155C97.8585 77.9239 97.8202 77.828 97.7861 77.7322L94.3589 68.0258L94.2205 67.6381C94.001 67.5378 93.7877 67.4247 93.5815 67.2994C91.7454 66.1854 90.7997 64.2322 91.4259 62.5602C91.606 62.1149 91.8794 61.7135 92.2277 61.3828C92.576 61.0521 92.9912 60.7999 93.4452 60.6432C92.28 60.9456 91.3492 61.672 90.9552 62.7242C90.2587 64.5816 91.5005 66.7861 93.754 67.8L97.3218 77.8962C97.354 77.992 97.3917 78.0858 97.4346 78.1773C97.4538 78.2199 97.473 78.2625 97.4943 78.303C97.5156 78.3435 97.5348 78.384 97.5561 78.4244C97.6351 78.5671 97.7233 78.7044 97.8202 78.8355C97.8521 78.8781 97.8841 78.9186 97.9182 78.9591C97.9522 78.9995 98.014 79.0741 98.063 79.1273L98.1269 79.1955L98.1652 79.2338C98.1951 79.2658 98.227 79.2956 98.2611 79.3275L98.3655 79.4213C98.8435 79.8301 99.4207 80.1059 100.039 80.2211C100.658 80.3363 101.295 80.2867 101.888 80.0773L102.021 80.0262C101.466 80.1612 100.888 80.1618 100.333 80.0281C99.7785 79.8943 99.2638 79.6301 98.8319 79.2573Z" fill="#F9A0B4"/>
<path d="M146.808 96.1802H131.253C130.268 96.1802 129.47 96.9784 129.47 97.963V106.464C129.47 107.448 130.268 108.247 131.253 108.247H146.808C147.793 108.247 148.591 107.448 148.591 106.464V97.963C148.591 96.9784 147.793 96.1802 146.808 96.1802Z" fill="#37639B"/>
<path d="M146.808 96.1802H131.253C130.268 96.1802 129.47 96.9784 129.47 97.963V106.464C129.47 107.448 130.268 108.247 131.253 108.247H146.808C147.793 108.247 148.591 107.448 148.591 106.464V97.963C148.591 96.9784 147.793 96.1802 146.808 96.1802Z" fill="#37639B"/>
<path d="M148.593 97.963V106.464C148.593 106.937 148.406 107.39 148.071 107.724C147.737 108.059 147.283 108.247 146.811 108.247H145.094C145.566 108.246 146.019 108.058 146.353 107.724C146.687 107.389 146.874 106.936 146.874 106.464V97.963C146.874 97.4905 146.687 97.0374 146.353 96.7031C146.019 96.3688 145.566 96.1807 145.094 96.1802H146.811C147.283 96.1802 147.737 96.368 148.071 96.7024C148.406 97.0367 148.593 97.4902 148.593 97.963Z" fill="#A3142C"/>
<path d="M132.686 101.435H133.94V102.553C133.94 102.636 133.924 102.717 133.892 102.794C133.861 102.87 133.815 102.939 133.756 102.997C133.698 103.056 133.629 103.102 133.552 103.134C133.476 103.165 133.394 103.181 133.312 103.181C133.145 103.181 132.985 103.115 132.868 102.997C132.75 102.88 132.684 102.72 132.684 102.553V101.435H132.686Z" fill="#A3142C"/>
<path d="M143.917 101.435H145.172V102.553C145.172 102.636 145.155 102.717 145.124 102.794C145.092 102.87 145.046 102.939 144.988 102.997C144.929 103.056 144.86 103.102 144.784 103.134C144.708 103.165 144.626 103.181 144.543 103.181C144.377 103.181 144.217 103.115 144.099 102.997C143.981 102.88 143.915 102.72 143.915 102.553V101.435H143.917Z" fill="#A3142C"/>
<path d="M129.47 99.1366H148.591V99.618H129.47V99.1366Z" fill="#A3142C"/>
<path d="M136.658 99.1366H141.402V100.677C141.402 100.959 141.289 101.23 141.09 101.43C140.89 101.629 140.619 101.742 140.337 101.742H137.738C137.456 101.742 137.185 101.629 136.985 101.43C136.785 101.23 136.673 100.959 136.673 100.677V99.1366H136.658Z" fill="#A3142C"/>
<path d="M111.525 53.3458C114.463 53.3458 116.846 50.9636 116.846 48.0251C116.846 45.0865 114.463 42.7043 111.525 42.7043C108.586 42.7043 106.204 45.0865 106.204 48.0251C106.204 50.9636 108.586 53.3458 111.525 53.3458Z" fill="#33313F"/>
<path d="M118.137 54.1169C120.655 54.1169 122.697 52.0751 122.697 49.5565C122.697 47.0379 120.655 44.9962 118.137 44.9962C115.618 44.9962 113.576 47.0379 113.576 49.5565C113.576 52.0751 115.618 54.1169 118.137 54.1169Z" fill="#33313F"/>
<path d="M122.688 49.5565C122.689 50.071 122.602 50.5818 122.43 51.0667C122.289 49.9675 121.752 48.9574 120.92 48.2252C120.089 47.4929 119.019 47.0886 117.91 47.0879C117.528 47.0879 117.148 47.1351 116.777 47.2284C116.491 47.3018 116.212 47.4038 115.946 47.533C115.486 46.7043 114.812 46.0137 113.995 45.5325C113.178 45.0513 112.247 44.7971 111.299 44.796C110.166 44.7958 109.062 45.1569 108.149 45.8269C107.235 46.4968 106.559 47.4407 106.219 48.5213C106.204 48.3595 106.195 48.1933 106.195 48.025C106.2 46.8486 106.593 45.7066 107.315 44.7775C108.037 43.8484 109.046 43.1845 110.185 42.8894C111.323 42.5943 112.528 42.6846 113.61 43.1463C114.692 43.608 115.591 44.415 116.166 45.4414C116.861 45.1096 117.628 44.9593 118.397 45.0045C119.166 45.0497 119.911 45.2889 120.562 45.6998C121.213 46.1108 121.75 46.68 122.122 47.3544C122.493 48.0288 122.688 48.7864 122.688 49.5565Z" fill="#535267"/>
<path d="M126.456 58.7581C126.456 58.2511 126.045 57.8401 125.538 57.8401C125.031 57.8401 124.62 58.2511 124.62 58.7581V68.6903C124.62 69.1973 125.031 69.6083 125.538 69.6083C126.045 69.6083 126.456 69.1973 126.456 68.6903V58.7581Z" fill="#535267"/>
<path d="M111.808 51.3245C113.051 51.3245 114.059 50.3165 114.059 49.0731C114.059 47.8296 113.051 46.8217 111.808 46.8217C110.565 46.8217 109.557 47.8296 109.557 49.0731C109.557 50.3165 110.565 51.3245 111.808 51.3245Z" fill="#535267"/>
<path d="M134.081 100.084H132.548C132.354 100.084 132.196 100.242 132.196 100.436V101.48C132.196 101.674 132.354 101.831 132.548 101.831H134.081C134.275 101.831 134.433 101.674 134.433 101.48V100.436C134.433 100.242 134.275 100.084 134.081 100.084Z" fill="#D90429"/>
<path d="M145.313 100.084H143.779C143.585 100.084 143.428 100.242 143.428 100.436V101.48C143.428 101.674 143.585 101.831 143.779 101.831H145.313C145.507 101.831 145.664 101.674 145.664 101.48V100.436C145.664 100.242 145.507 100.084 145.313 100.084Z" fill="#D90429"/>
<path d="M209.325 102.879C209.33 106.06 208.685 109.209 207.43 112.132C207.208 112.65 206.968 113.157 206.71 113.653L189.883 126.007C189.491 126.075 189.095 126.133 188.696 126.181C187.752 126.297 186.801 126.355 185.849 126.354H166.723C165.622 126.354 164.565 126.791 163.786 127.57C163.007 128.349 162.57 129.406 162.57 130.507C162.57 131.609 163.007 132.665 163.786 133.444C164.565 134.223 165.622 134.661 166.723 134.661H172.438C174.015 134.658 175.581 134.918 177.073 135.43L114.076 181.653C113.831 181.833 113.54 181.942 113.236 181.967C112.933 181.992 112.628 181.933 112.356 181.795C112.084 181.657 111.856 181.447 111.697 181.187C111.538 180.927 111.454 180.628 111.454 180.324V166.419C111.455 166.004 111.553 165.596 111.741 165.226C111.928 164.856 112.2 164.535 112.534 164.289L115.02 162.457L165.288 125.564L188.718 108.357L207.756 94.3824V94.4037C208.799 97.1075 209.331 99.9812 209.325 102.879Z" fill="#E2E1DE"/>
<path d="M136.821 107.007L138.037 106.143L155.082 130.137L153.867 131.001L136.821 107.007Z" fill="#ADADAD"/>
<path d="M198.175 82.8932L152.05 116.526L147.679 119.721L147.085 120.147L146.205 118.943L146.814 118.496L151.562 115.035L196.756 82.0817C197.069 82.2499 197.376 82.4182 197.681 82.595C197.847 82.693 198.011 82.791 198.175 82.8932Z" fill="#ADADAD"/>
<path d="M104.526 137.515C104.106 138.539 103.924 139.645 103.993 140.749C104.062 141.854 104.38 142.928 104.924 143.892C105.671 145.222 106.698 146.373 107.933 147.268C109.168 148.163 110.583 148.779 112.079 149.074C113.575 149.37 115.118 149.338 116.6 148.98C118.083 148.622 119.47 147.947 120.667 147.002C122.083 145.881 123.729 145.087 125.488 144.677C127.246 144.267 129.074 144.25 130.839 144.629C132.605 145.008 134.265 145.772 135.701 146.867C137.137 147.962 138.313 149.361 139.145 150.964L143.083 158.549C143.135 158.648 143.167 158.756 143.177 158.868C143.186 158.98 143.174 159.092 143.141 159.199C143.107 159.306 143.053 159.405 142.981 159.491C142.909 159.576 142.82 159.647 142.721 159.699C142.6 159.761 142.465 159.794 142.329 159.795C142.173 159.795 142.019 159.752 141.885 159.671C141.752 159.59 141.643 159.474 141.571 159.335L137.632 151.748C136.916 150.368 135.903 149.164 134.667 148.222C133.43 147.279 132.001 146.622 130.481 146.296C128.961 145.97 127.387 145.985 125.873 146.338C124.36 146.691 122.942 147.375 121.723 148.34C120.333 149.438 118.721 150.222 116.998 150.637C115.276 151.052 113.484 151.089 111.746 150.745C110.007 150.401 108.365 149.684 106.93 148.643C105.496 147.603 104.304 146.264 103.437 144.719C102.344 142.777 102.007 140.499 102.491 138.324C102.975 136.148 104.246 134.229 106.059 132.933L150.195 101.345L180.867 79.4064H183.794L150.059 103.546L107.052 134.324C105.925 135.127 105.049 136.234 104.526 137.515Z" fill="#E2E1DE"/>
<path d="M128.433 117.958L129.648 117.095L146.694 141.089L145.478 141.952L128.433 117.958Z" fill="#E2E1DE"/>
<path d="M201.456 85.3385L154 119.938L149.953 122.901L148.747 123.779L139.303 130.667L138.708 131.093L137.812 129.896L138.423 129.451L147.867 122.564L149.073 121.685L152.966 118.854L200.276 84.348C200.465 84.495 200.653 84.6462 200.838 84.7996C201.024 84.9529 201.254 85.1553 201.456 85.3385Z" fill="#E2E1DE"/>
<path d="M209.326 102.879C209.326 103.039 209.326 103.199 209.326 103.358V103.439C209.328 103.473 209.328 103.506 209.326 103.539V103.565C209.326 103.718 209.326 103.865 209.309 104.014V104.042C209.309 104.119 209.309 104.197 209.296 104.276C209.283 104.355 209.296 104.468 209.277 104.564C209.257 104.66 209.277 104.715 209.262 104.79C209.261 104.796 209.261 104.802 209.262 104.809C209.262 104.924 209.243 105.039 209.232 105.156V105.222C209.232 105.275 209.221 105.328 209.215 105.382C209.2 105.518 209.183 105.657 209.166 105.795C209.149 105.933 209.136 106.036 209.119 106.155V106.202C202.111 110.052 194.22 112.009 186.224 111.88C178.229 111.751 170.405 109.54 163.525 105.466C156.644 101.391 150.944 95.594 146.987 88.6454C143.03 81.6968 140.953 73.8368 140.959 65.8404C140.953 58.362 142.772 50.9951 146.259 44.3788C149.745 37.7626 154.792 32.0969 160.964 27.8732C161.239 27.9527 161.508 28.0488 161.771 28.1607C162.951 28.6577 163.99 29.4388 164.795 30.4344C165.6 31.43 166.146 32.6092 166.385 33.867C166.478 34.3492 166.524 34.8392 166.523 35.3303V36.8745C166.522 37.8757 166.763 38.8623 167.226 39.75C167.438 40.1598 167.696 40.5442 167.995 40.896C168.108 41.0323 168.227 41.1622 168.353 41.2879C169.426 42.3676 170.859 43.0144 172.379 43.1048C172.506 43.1133 172.636 43.1176 172.768 43.1176C174.766 43.1175 176.741 43.5347 178.568 44.3423C179.194 44.6196 179.799 44.9429 180.377 45.3093C182.134 46.4141 183.63 47.8881 184.76 49.629C185.418 50.6371 185.944 51.7251 186.326 52.8666L186.339 52.9007C186.632 53.7785 186.838 54.6832 186.954 55.6015C187.266 58.0258 186.95 60.4894 186.038 62.7571C185.126 65.0247 183.648 67.0206 181.744 68.554C181.282 68.927 180.796 69.2713 180.292 69.585C178.031 70.9815 175.426 71.7192 172.768 71.715H161.494C160.537 71.7029 159.609 72.0496 158.895 72.6869C158.18 73.3241 157.729 74.2058 157.632 75.1584C157.535 76.111 157.797 77.0656 158.368 77.8344C158.939 78.6032 159.777 79.1305 160.717 79.3127C160.973 79.366 161.233 79.3924 161.494 79.3915H185.859C190.013 79.392 194.092 80.4945 197.681 82.5865C202.268 85.2691 205.815 89.4228 207.745 94.3739V94.3952C208.793 97.1009 209.329 99.9776 209.326 102.879Z" fill="#898989"/>
<path d="M45.8715 53.4012C45.8111 53.4295 45.7642 53.4805 45.741 53.5431C45.7179 53.6057 45.7204 53.6749 45.748 53.7357L46.3188 54.9625C46.3476 55.0238 46.3986 55.0718 46.4615 55.0967C46.4897 55.106 46.5192 55.111 46.5489 55.1116C46.5856 55.1113 46.6219 55.1033 46.6554 55.0882L50.9793 53.069L50.5873 57.1628C50.5844 57.2023 50.5903 57.2419 50.6046 57.2788C50.619 57.3156 50.6415 57.3488 50.6704 57.3758C50.8609 57.5319 51.0974 57.6209 51.3435 57.6293C51.4111 57.6293 51.4783 57.6207 51.5437 57.6037C51.8952 57.5121 52.1678 57.199 52.3531 56.6644L54.0571 51.627L57.4246 50.055C58.4172 49.5928 58.9156 48.6535 58.5834 47.925C58.4881 47.7359 58.3473 47.5735 58.1737 47.4523C58 47.3311 57.799 47.2549 57.5887 47.2306C57.1149 47.1608 56.631 47.235 56.1999 47.4436L52.3126 49.2669L48.1378 47.6311C47.6096 47.433 47.1943 47.4372 46.9003 47.6481C46.7792 47.7477 46.6822 47.8734 46.6165 48.0158C46.5509 48.1581 46.5183 48.3135 46.5212 48.4703C46.5225 48.5101 46.5332 48.5489 46.5524 48.5837C46.5717 48.6185 46.5989 48.6483 46.6319 48.6705L49.4457 50.6067L47.8333 51.3692L45.1239 50.694C45.0702 50.6805 45.0135 50.685 44.9627 50.707C44.9118 50.7289 44.8697 50.767 44.8427 50.8154L44.1675 52.0295C44.1503 52.0613 44.14 52.0963 44.1374 52.1323C44.1348 52.1683 44.1399 52.2045 44.1524 52.2384C44.1649 52.2723 44.1845 52.3031 44.2099 52.3288C44.2353 52.3545 44.2659 52.3745 44.2996 52.3874L46.3018 53.2138L45.8715 53.4012Z" fill="#F9F2DE"/>
</svg>
