<svg width="345" height="335" viewBox="0 0 345 335" fill="none" xmlns="http://www.w3.org/2000/svg">
<g clip-path="url(#clip0_178_15)">
<path d="M99.4658 126.516C99.4658 126.516 104.189 117.058 103.247 108.55L118.966 116.706L118.358 132.188L99.4658 126.516Z" fill="#9F616A"/>
<path d="M109.949 120.369C117.782 120.369 124.131 114.012 124.131 106.171C124.131 98.3291 117.782 91.9722 109.949 91.9722C102.117 91.9722 95.7676 98.3291 95.7676 106.171C95.7676 114.012 102.117 120.369 109.949 120.369Z" fill="#9F616A"/>
<path d="M94.7368 329.816H103.395L107.51 296.398H94.7368V329.816Z" fill="#9F616A"/>
<path d="M124.383 329.614C124.65 330.071 124.796 331.537 124.796 332.061C124.796 332.841 124.487 333.589 123.936 334.14C123.385 334.691 122.638 335.001 121.86 335.001H95.0653C94.5335 335 94.0236 334.789 93.6476 334.412C93.2715 334.036 93.06 333.525 93.0595 332.993V331.873C93.0595 331.873 91.7342 328.514 94.4638 324.381C94.4638 324.381 97.8558 327.619 102.926 322.55L104.421 319.841L115.241 327.765L121.241 328.5C122.554 328.665 123.715 328.476 124.39 329.614H124.384L124.383 329.614Z" fill="#090814"/>
<path d="M120.249 126.516L99.466 123.68L83.4061 131.246L82.4639 189.876C82.4639 189.876 121.964 194.605 128.188 188.458C134.412 182.311 129.69 133.137 129.69 133.137L120.243 126.516H120.249Z" fill="#D90429"/>
<path d="M98.7102 108.663C99.4109 111.086 97.917 113.929 97.917 113.929L97.2216 113.724C97.2216 113.724 87.5193 91.531 103.318 88.6265C119.117 85.722 123.964 97.7568 123.964 97.7568C123.964 97.7568 125.084 103.57 123.127 101.983C121.169 100.396 109.991 101.02 109.991 101.02L101.724 100.562C101.724 100.562 98.0081 106.239 98.7102 108.663Z" fill="#090814"/>
<path d="M122.857 322.306L131.179 324.655L144.211 293.623L131.92 290.148L122.857 322.306Z" fill="#9F616A"/>
<path d="M151.439 330.181C151.573 330.692 151.31 332.141 151.172 332.652C151.067 333.023 150.891 333.371 150.652 333.674C150.413 333.977 150.117 334.23 149.781 334.419C149.444 334.608 149.074 334.728 148.691 334.774C148.308 334.819 147.92 334.788 147.549 334.684L121.762 327.394C121.251 327.248 120.818 326.906 120.558 326.442C120.299 325.977 120.233 325.429 120.377 324.917L120.679 323.839C120.679 323.839 120.314 320.249 124.065 317.011C124.065 317.011 126.448 321.052 132.702 317.547L134.878 315.342L143.138 325.907L148.707 328.25C149.922 328.761 151.095 328.901 151.436 330.179L151.439 330.181Z" fill="#090814"/>
<path d="M85.303 184.204L82.4702 192.785V222.271L93.3809 320.919L106.765 319.527L109.454 247.741L107.976 216.362L139.653 264.344L123.711 313.68H136.965C136.965 313.68 163.973 256.559 160.543 251.49C157.113 246.421 126.407 186.62 126.407 186.62C126.407 186.62 85.3147 185.154 85.3147 184.21L85.303 184.204Z" fill="#090814"/>
<path d="M76.7987 150.159L72.2338 157.645C72.2338 157.645 65.7784 183.048 72.2338 183.151C78.6893 183.254 91.722 170.207 91.722 170.207L90.0201 163.397L85.2972 165.29L86.2394 150.16H76.7987V150.159Z" fill="#9F616A"/>
<path d="M90.968 131.129C90.968 131.129 75.8565 128.463 74.4401 138.365C73.0236 148.267 72.2334 157.651 72.2334 157.651L88.6093 159.008L90.968 131.129Z" fill="#D90429"/>
<path d="M124.514 196.783L145.839 178.589C146.083 178.368 146.229 178.058 146.246 177.729C146.263 177.399 146.148 177.077 145.928 176.831L111.393 136.255C111.186 135.998 110.886 135.834 110.559 135.798C110.231 135.762 109.903 135.858 109.645 136.064L88.3206 154.257C88.0765 154.479 87.93 154.788 87.9132 155.118C87.8965 155.447 88.0108 155.77 88.2313 156.015L122.768 196.592C122.975 196.848 123.275 197.012 123.602 197.048C123.929 197.083 124.257 196.988 124.514 196.783Z" fill="white"/>
<path d="M124.514 196.783L145.839 178.589C146.083 178.368 146.229 178.058 146.246 177.729C146.263 177.399 146.148 177.077 145.928 176.831L111.393 136.255C111.186 135.998 110.886 135.834 110.559 135.798C110.231 135.762 109.903 135.858 109.645 136.064L88.3206 154.257C88.0765 154.479 87.93 154.788 87.9132 155.118C87.8965 155.447 88.0108 155.77 88.2313 156.015L122.768 196.592C122.975 196.848 123.275 197.012 123.602 197.048C123.929 197.083 124.257 196.988 124.514 196.783Z" stroke="#2B2D42" stroke-miterlimit="10"/>
<path d="M134.789 138.408L143.373 140.185C143.373 140.185 166.314 152.825 161.973 157.615C157.633 162.404 139.216 163.019 139.216 163.019L135.41 157.122L140.018 154.96L128.334 145.317L134.789 138.408Z" fill="#9F616A"/>
<path d="M111.228 135.76C111.228 135.76 119.611 122.889 127.799 128.622C135.987 134.354 143.368 140.185 143.368 140.185L133.166 153.082L111.222 135.76H111.228Z" fill="#D90429"/>
<path d="M141.372 159.499C140.904 157.186 136.783 156.069 132.167 157.005C127.55 157.94 124.187 160.573 124.654 162.886C125.122 165.198 129.243 166.315 133.859 165.38C138.476 164.444 141.839 161.811 141.372 159.499Z" fill="#9F616A"/>
<path d="M101.579 159.471C100.212 157.549 95.9937 158.208 92.1573 160.944C88.3208 163.68 86.3192 167.456 87.6865 169.377C89.0537 171.299 93.2721 170.64 97.1085 167.904C100.945 165.168 102.947 161.393 101.579 159.471Z" fill="#9F616A"/>
<path opacity="0.7" d="M344.392 0.61084V252.949C344.191 252.992 343.991 253.028 343.784 253.058C340.702 253.618 337.579 254.158 334.416 254.677C330.66 255.298 326.85 255.898 322.988 256.479C319.779 256.953 316.537 257.415 313.262 257.862C303.725 259.171 293.93 260.331 283.878 261.343C280.662 261.672 277.42 261.982 274.152 262.275C245.612 264.843 215.279 266.231 183.828 266.231C179.372 266.231 174.943 266.202 170.54 266.144C170.333 266.144 170.133 266.144 169.932 266.138V0.61084H344.392Z" fill="#8D99AE"/>
<path d="M343.784 83.8579V84.6063L343.863 84.448C343.854 84.2493 343.828 84.0518 343.784 83.8579ZM169.933 163.366L169.325 162.873V217.573H169.933V266.137C170.133 266.143 170.334 266.143 170.541 266.143V126.471C170.34 126.581 170.14 126.684 169.933 126.788V163.366ZM169.325 0.00195312V266.126C169.525 266.132 169.726 266.138 169.933 266.138C170.14 266.138 170.334 266.144 170.541 266.144V1.2177H343.784V253.057C343.991 253.027 344.191 252.99 344.392 252.948C344.592 252.918 344.799 252.881 345 252.839V0.00195312H169.325Z" fill="#2B2D42"/>
<path d="M283.879 196.881V261.343C280.663 261.672 277.421 261.982 274.153 262.274V196.881H283.879Z" fill="#3F3D56"/>
<path d="M280.229 206.009H0V217.572H280.229V206.009Z" fill="#D90429"/>
<path d="M115.896 171.297C115.99 169.955 116.479 168.672 117.302 167.609C118.124 166.546 119.243 165.751 120.517 165.325C121.791 164.898 123.163 164.86 124.459 165.214C125.755 165.568 126.917 166.299 127.798 167.314C128.679 168.329 129.24 169.583 129.409 170.917C129.578 172.251 129.349 173.605 128.749 174.808C128.15 176.012 127.207 177.01 126.041 177.677C124.875 178.344 123.537 178.649 122.197 178.555C120.401 178.427 118.728 177.591 117.547 176.23C116.366 174.869 115.772 173.095 115.896 171.297ZM124.93 171.932C124.961 171.484 124.859 171.038 124.637 170.649C124.415 170.26 124.083 169.945 123.682 169.745C123.281 169.545 122.83 169.468 122.386 169.525C121.942 169.581 121.524 169.768 121.186 170.062C120.848 170.356 120.605 170.744 120.487 171.176C120.369 171.609 120.382 172.066 120.524 172.491C120.666 172.916 120.931 173.29 121.285 173.564C121.639 173.839 122.066 174.002 122.513 174.034C123.112 174.075 123.703 173.877 124.156 173.483C124.609 173.089 124.888 172.531 124.93 171.932L124.93 171.932Z" fill="#090814"/>
<path d="M105.238 161.459C105.258 161.162 105.337 160.873 105.47 160.607C105.603 160.341 105.786 160.104 106.011 159.909L109.636 156.756C109.86 156.561 110.121 156.412 110.403 156.318C110.685 156.223 110.982 156.185 111.279 156.206C111.576 156.227 111.865 156.306 112.131 156.439C112.397 156.572 112.635 156.756 112.83 156.981L121.231 166.659C121.624 167.112 121.822 167.704 121.78 168.304C121.738 168.904 121.46 169.462 121.007 169.856C120.554 170.25 119.962 170.448 119.363 170.406C118.764 170.364 118.207 170.085 117.813 169.632L110.897 161.662L108.981 163.329C108.643 163.623 108.226 163.81 107.781 163.866C107.337 163.923 106.886 163.846 106.486 163.646C106.085 163.446 105.753 163.131 105.53 162.742C105.308 162.353 105.207 161.906 105.238 161.459Z" fill="#090814"/>
<path d="M109.438 166.298C109.459 166.002 109.538 165.712 109.671 165.446C109.803 165.18 109.987 164.943 110.211 164.749L113.836 161.596C114.291 161.218 114.876 161.033 115.466 161.081C116.055 161.129 116.602 161.406 116.99 161.853C117.378 162.3 117.577 162.881 117.542 163.472C117.508 164.063 117.244 164.617 116.807 165.015L113.182 168.168C112.844 168.462 112.426 168.649 111.982 168.706C111.538 168.762 111.087 168.685 110.686 168.485C110.286 168.285 109.953 167.971 109.731 167.581C109.509 167.192 109.407 166.746 109.438 166.298Z" fill="#090814"/>
<path d="M257.163 88.7393C248.078 88.7393 240.679 80.8745 240.679 71.2078C240.679 61.541 248.073 53.6763 257.163 53.6763C266.254 53.6763 273.648 61.541 273.648 71.2078C273.648 80.8745 266.253 88.7393 257.163 88.7393ZM257.163 58.1048C250.513 58.1048 245.104 63.982 245.104 71.2047C245.104 78.4275 250.514 84.3047 257.163 84.3047C263.813 84.3047 269.223 78.4249 269.223 71.2047C269.223 63.9846 263.813 58.1048 257.163 58.1048Z" fill="#2B2D42"/>
<path d="M272.772 119.292H241.548C238.795 119.289 236.156 118.192 234.209 116.243C232.263 114.294 231.168 111.652 231.165 108.896V78.2354C231.167 76.3474 231.916 74.5372 233.25 73.2021C234.583 71.8671 236.391 71.1163 238.277 71.1147H276.049C277.935 71.116 279.743 71.8666 281.077 73.2017C282.41 74.5369 283.16 76.3473 283.161 78.2354V108.896C283.158 111.653 282.063 114.296 280.115 116.246C278.168 118.195 275.527 119.291 272.773 119.292L272.772 119.292Z" fill="#D90429"/>
<path d="M263.246 88.5592C263.247 87.4764 262.959 86.4129 262.413 85.4784C261.867 84.5438 261.082 83.7719 260.138 83.2422C259.195 82.7124 258.128 82.444 257.046 82.4645C255.965 82.485 254.909 82.7937 253.986 83.3588C253.064 83.924 252.308 84.7251 251.798 85.6797C251.287 86.6343 251.04 87.7079 251.082 88.7899C251.124 89.8719 251.453 90.9231 252.036 91.8355C252.618 92.7478 253.433 93.4881 254.396 93.9803V103.511H259.931V93.9803C260.929 93.4703 261.767 92.6941 262.351 91.7374C262.936 90.7808 263.246 89.6809 263.246 88.5592Z" fill="#8D99AE"/>
</g>
<defs>
<clipPath id="clip0_178_15">
<rect width="345" height="335" fill="white"/>
</clipPath>
</defs>
</svg>
