<svg xmlns="http://www.w3.org/2000/svg" width="800" height="600" viewBox="0 0 800 600" xmlns:xlink="http://www.w3.org/1999/xlink" role="img" artist="Katerina Limpitsouni" source="https://undraw.co/"><g transform="translate(-560 -247)"><path d="M759.911,703.083c-9.071-7.665-14.58-19.773-13.135-31.56s10.394-22.623,22-25.126,24.841,4.426,28.367,15.766c1.94-21.863,4.177-44.642,15.8-63.26,10.525-16.858,28.754-28.921,48.511-31.079s40.558,5.993,52.879,21.586,15.338,38.263,6.709,56.166c-6.357,13.188-18.069,23-30.34,30.988a195.815,195.815,0,0,1-133.925,29.3" transform="translate(413.61 137.331)" fill="#f2f2f2"/><path d="M894.341,574.213A323.109,323.109,0,0,0,799.4,702.587c-.906,2.219,2.7,3.185,3.593.991a319.508,319.508,0,0,1,93.979-126.73C898.836,575.333,896.186,572.711,894.341,574.213Z" transform="translate(414.068 137.386)" fill="#fff"/><path d="M447.124,734.277H384.484a7.993,7.993,0,0,1-7.984-7.984V596.1a7.993,7.993,0,0,1,7.984-7.984h62.641a7.993,7.993,0,0,1,7.984,7.984V726.294A7.993,7.993,0,0,1,447.124,734.277Z" transform="translate(310.081 111.493)" fill="#d70427"/><path d="M568.353,758.559H505.712a9.222,9.222,0,0,1-9.212-9.212V496.328a9.222,9.222,0,0,1,9.212-9.212h62.641a9.222,9.222,0,0,1,9.212,9.212V749.347A9.222,9.222,0,0,1,568.353,758.559ZM505.712,489.572a6.763,6.763,0,0,0-6.755,6.755V749.347a6.763,6.763,0,0,0,6.755,6.755h62.641a6.763,6.763,0,0,0,6.755-6.755V496.328a6.763,6.763,0,0,0-6.755-6.755Z" transform="translate(337.471 88.44)" fill="#3f3d56"/><path d="M689.353,788.459H626.712a9.222,9.222,0,0,1-9.212-9.212V365.328a9.222,9.222,0,0,1,9.212-9.212h62.641a9.222,9.222,0,0,1,9.212,9.212v413.92A9.222,9.222,0,0,1,689.353,788.459ZM626.712,358.572a6.763,6.763,0,0,0-6.755,6.755v413.92A6.763,6.763,0,0,0,626.712,786h62.641a6.763,6.763,0,0,0,6.755-6.755V365.328a6.763,6.763,0,0,0-6.755-6.755Z" transform="translate(365.09 58.54)" fill="#3f3d56"/><path d="M811.254,819H748.613a7.993,7.993,0,0,1-7.984-7.984V227.6a7.993,7.993,0,0,1,7.984-7.984h62.641a7.993,7.993,0,0,1,7.984,7.984V811.018A7.993,7.993,0,0,1,811.254,819Z" transform="translate(393.194 27.384)" fill="#d70427"/><path d="M1073.7,708.242H276.628a1.466,1.466,0,1,1,0-2.932H1073.7a1.466,1.466,0,1,1,0,2.932Z" transform="translate(284.838 138.235)" fill="#3f3d56"/><g transform="translate(631.595 247)"><path d="M517.4,164.58h22.316v35.4L515.109,191.9Z" transform="translate(-436.758 -119.84)" fill="#ed9da0"/><ellipse cx="24.015" cy="24.015" rx="24.015" ry="24.015" transform="translate(70.338 10.826) rotate(-7)" fill="#ed9da0"/><path d="M466.9,319.455h0a17.355,17.355,0,0,0-7.234-4.246l-19.943-21.74-10.516,10.08,21.374,20.974a17.04,17.04,0,0,0,4.539,7.005c5.116,4.891,11.9,6.147,15.146,2.808s1.759-10-3.347-14.875H466.9Z" transform="translate(-287.801 -126.848)" fill="#ed9da0"/><path d="M543.182,303.815l-10.59,13.315-54.743-41.438-.047-.095-31.99-59.7a20.475,20.475,0,1,1,37.173-16.984l20.756,54.326L543.183,303.8v.019Z" transform="translate(-372.395 -120.995)" fill="#e6e6e6"/><path d="M560.07,156.929v.006Z" transform="translate(-435.646 -126.904)" fill="#ed9da0"/><path d="M14.09,49.606,11.7,54.146,1.144,34.087C-5.21,14.626,16.983,3.448,16.983,3.448,24.228-5.081,38.78,4.9,38.78,4.9,59.772.233,49.636,17.926,49.636,17.926s-7.158.158-7.158,5.948-7.8,5.391-7.8,5.391L28.564,39.96l-3.376-4.1c-12.549-5.314-11.1,13.749-11.1,13.749Z" transform="translate(65.376 6.347) rotate(-7)" fill="#090814"/><rect width="19.802" height="28.095" transform="translate(71.599 407.511)" fill="#ed9da0"/><path d="M529.428,594.055c-8.69,0-21.379-.908-21.476-.917-3.392.3-20.341,1.636-21.183-2.241a16.651,16.651,0,0,1,.53-7.8c1.636-16.2,2.241-16.388,2.6-16.492.58-.17,2.26.631,4.993,2.391l.17.114.038.2c.047.246,1.258,6.194,7,5.285,3.934-.624,5.206-1.494,5.617-1.919a2.419,2.419,0,0,1-1.04-.869,3.042,3.042,0,0,1-.217-2.536,40.091,40.091,0,0,1,3.043-6.837l.256-.454,22.5,15.184,13.9,3.972a3.556,3.556,0,0,1,2.318,2.051h0a3.584,3.584,0,0,1-.908,4.047c-2.524,2.269-7.547,6.153-12.8,6.638-1.4.133-3.253.18-5.333.18h0Z" transform="translate(-418.744 -141.446)" fill="#090814"/><rect width="19.802" height="28.095" transform="translate(27.027 399.666) rotate(-140.436)" fill="#ed9da0"/><path d="M599.206,564.065c-6.7-5.541-15.9-14.326-15.962-14.392-2.808-1.919-16.719-11.7-14.894-15.225a16.5,16.5,0,0,1,5.381-5.674c11.584-11.451,12.161-11.2,12.511-11.054.558.237,1.341,1.919,2.326,5.021l.057.189-.1.18c-.133.227-2.988,5.588,2.014,8.539,3.432,2.024,4.965,2.166,5.551,2.1a2.414,2.414,0,0,1-.246-1.341,3.049,3.049,0,0,1,1.449-2.09A40.232,40.232,0,0,1,604,526.99l.482-.189,7.659,26.043,8.18,11.924a3.588,3.588,0,0,1,.473,3.064h0a3.6,3.6,0,0,1-3.281,2.543c-3.385.145-9.731-.066-14.09-3.043-1.154-.8-2.608-1.938-4.218-3.26h0Z" transform="translate(-568.186 -139.039)" fill="#090814"/><path d="M559.02,319.1,529.544,538.344H507.435L492.7,319.1h66.326Z" transform="translate(-436.477 -122.965)" fill="#090814"/><path d="M535.766,436.265,492.7,492.142l18.43,15.224,73.909-70.3,6.6-117.971-13.217,11.816Z" transform="translate(-472.117 -119.446)" fill="#090814"/><path d="M545.916,188.41l20.893,144.053H498.887l-5.267-48.632a156.293,156.293,0,0,1,15.395-86.725l13.055-13.383,23.848,4.688Z" transform="translate(-442.662 -123.104)" fill="#e6e6e6"/><path d="M527.22,356.781h0a17.3,17.3,0,0,0-4.823-6.864l-9.129-28.068-13.759,4.812,10.732,27.944a16.941,16.941,0,0,0,1.219,8.265c2.619,6.563,8.275,10.525,12.615,8.839s5.74-8.369,3.121-14.932h.019Z" transform="translate(-410.816 -128.391)" fill="#ed9da0"/><path d="M556.777,337.49l-15.158,7.716L509,284.788v-.1L504.665,217.1a20.476,20.476,0,1,1,40.87,0l-3.66,58.035,14.9,62.364h0Z" transform="translate(-443.901 -121.516)" fill="#e6e6e6"/></g></g></svg>