<svg width="229" height="225" viewBox="0 0 229 225" fill="none" xmlns="http://www.w3.org/2000/svg">
<path d="M154.367 101.797C154.339 102.076 154.323 102.357 154.323 102.643V102.89C154.323 102.89 154.323 103.023 154.323 103.088C154.323 103.154 154.323 103.221 154.323 103.286L154.337 103.462L154.364 103.676C154.364 103.761 154.39 103.847 154.401 103.932L154.429 104.076C154.429 104.135 154.447 104.191 154.461 104.249C154.488 104.375 154.516 104.501 154.55 104.625C154.556 104.663 154.566 104.7 154.58 104.735C154.596 104.801 154.614 104.866 154.632 104.929C154.651 104.992 154.671 105.057 154.696 105.122C154.761 105.32 154.834 105.514 154.909 105.703C154.953 105.8 154.994 105.894 155.038 105.986C155.044 106.002 155.05 106.017 155.058 106.031C155.077 106.072 155.095 106.112 155.116 106.151C155.136 106.189 155.152 106.227 155.173 106.263C155.193 106.299 155.223 106.36 155.248 106.407C155.274 106.454 155.296 106.493 155.317 106.535C155.367 106.628 155.42 106.718 155.477 106.805L155.557 106.929C155.612 107.017 155.67 107.102 155.729 107.188C155.789 107.273 155.869 107.386 155.942 107.483L155.965 107.51C156.032 107.595 156.098 107.681 156.167 107.762C156.187 107.783 156.206 107.805 156.224 107.829C156.286 107.901 156.348 107.971 156.414 108.041L156.441 108.072C156.526 108.162 156.609 108.248 156.693 108.333L156.922 108.545C156.961 108.576 156.998 108.61 157.032 108.641C157.106 108.704 157.179 108.767 157.261 108.826L157.415 108.95L157.456 108.981L157.685 109.148C157.714 109.169 157.743 109.19 157.774 109.208C157.783 109.218 157.794 109.225 157.806 109.231C157.857 109.269 157.912 109.305 157.967 109.341L158.196 109.485C158.244 109.517 158.296 109.546 158.347 109.573L158.491 109.654C158.541 109.685 158.592 109.713 158.644 109.739L158.69 109.762C158.768 109.805 158.853 109.845 158.933 109.886L158.988 109.908C159.073 109.951 159.16 109.989 159.247 110.025C159.285 110.044 159.324 110.06 159.363 110.075C159.441 110.108 159.526 110.14 159.609 110.171L159.757 110.223C159.794 110.239 159.837 110.252 159.879 110.266C160.005 110.309 160.133 110.349 160.261 110.383C160.328 110.403 160.394 110.419 160.458 110.435C160.653 110.486 160.854 110.529 161.053 110.563L161.223 110.592L161.477 110.626C161.635 110.646 161.798 110.662 161.96 110.671H161.988C162.16 110.682 162.331 110.687 162.505 110.687H186.779C187.089 110.687 187.4 110.687 187.695 110.7H187.954C188.426 110.715 188.894 110.742 189.358 110.781L189.573 110.799L189.724 110.813L190.049 110.844L190.42 110.885C190.535 110.896 190.649 110.909 190.762 110.925C191.023 110.957 191.286 110.993 191.545 111.033L191.916 111.089H191.964L192.298 111.146C192.587 111.195 192.878 111.249 193.166 111.31L193.72 111.427L194.277 111.553C194.62 111.636 194.964 111.724 195.3 111.818L195.374 111.839C195.511 111.875 195.646 111.913 195.779 111.953C196.008 112.021 196.237 112.093 196.466 112.165L196.832 112.284C197.043 112.354 197.258 112.426 197.469 112.509C197.68 112.592 197.874 112.653 198.071 112.734H198.097C198.305 112.813 198.513 112.894 198.719 112.977C198.926 113.06 199.132 113.146 199.333 113.234C199.535 113.321 199.667 113.378 199.835 113.459C199.915 113.49 199.988 113.526 200.064 113.56H200.075C200.235 113.632 200.391 113.704 200.549 113.785C200.948 113.974 201.339 114.174 201.728 114.381C202.034 114.546 202.339 114.716 202.644 114.89C202.78 114.966 202.91 115.043 203.041 115.115L203.384 115.322C204.227 115.835 205.04 116.384 205.823 116.971C205.926 117.047 206.027 117.126 206.132 117.196C206.647 117.592 207.156 118.004 207.646 118.431C207.735 118.51 207.827 118.589 207.914 118.67L208.047 118.787C208.143 118.874 208.239 118.96 208.333 119.05C208.427 119.14 208.498 119.203 208.582 119.275C209.141 119.8 209.676 120.344 210.185 120.908C210.298 121.03 210.414 121.154 210.52 121.277L210.724 121.502L211.04 121.867C211.172 122.029 211.31 122.191 211.443 122.357C211.85 122.86 212.239 123.374 212.608 123.899C212.709 124.036 212.805 124.173 212.899 124.313C212.954 124.391 213.007 124.472 213.062 124.553C213.153 124.686 213.24 124.819 213.33 124.954C216.56 129.927 218.273 135.704 218.267 141.604V142.349C218.267 142.349 218.253 142.841 218.239 143.089C218.226 143.336 218.214 143.579 218.196 143.822C218.178 144.065 218.157 144.311 218.134 144.554C218.113 144.756 218.093 144.959 218.07 145.159C218.07 145.242 218.049 145.323 218.038 145.406C218.015 145.604 217.99 145.802 217.96 146L217.85 146.702C217.851 146.709 217.851 146.716 217.85 146.723C217.811 146.959 217.768 147.193 217.722 147.425C217.696 147.564 217.668 147.704 217.639 147.843C217.614 147.969 217.584 148.095 217.559 148.221C217.513 148.424 217.468 148.626 217.417 148.829C217.367 149.031 217.307 149.279 217.246 149.504C217.184 149.729 217.113 149.996 217.042 150.239C216.971 150.482 216.907 150.689 216.84 150.894C216.774 151.099 216.698 151.328 216.611 151.542C216.613 151.55 216.613 151.559 216.611 151.567C216.536 151.792 216.453 152.017 216.382 152.226C216.383 152.236 216.383 152.247 216.382 152.258C216.3 152.483 216.222 152.683 216.137 152.892C216.052 153.101 215.968 153.311 215.881 153.518C215.874 153.531 215.869 153.544 215.865 153.558C215.771 153.77 215.681 153.981 215.585 154.188C215.489 154.395 215.388 154.613 215.288 154.825C215.203 154.996 215.12 155.169 215.033 155.338C215.006 155.399 214.974 155.457 214.944 155.518C214.868 155.66 214.798 155.799 214.715 155.939C214.665 156.038 214.61 156.137 214.555 156.233L214.397 156.517C214.342 156.618 214.285 156.719 214.225 156.818C214.165 156.917 214.085 157.064 214.014 157.185C213.964 157.271 213.914 157.356 213.859 157.439C213.783 157.561 213.703 157.68 213.63 157.806C213.596 157.868 213.558 157.928 213.517 157.986C213.417 158.15 213.309 158.312 213.201 158.472C213.094 158.632 212.945 158.859 212.812 159.05C212.679 159.242 212.553 159.417 212.423 159.597C212.011 160.169 211.575 160.725 211.117 161.267C210.969 161.444 210.82 161.62 210.659 161.795C210.499 161.971 210.355 162.144 210.201 162.315C210.048 162.486 209.828 162.72 209.634 162.918C209.439 163.116 209.228 163.334 209.02 163.537C208.392 164.153 207.74 164.745 207.06 165.305C206.776 165.53 206.487 165.771 206.194 165.994C206.123 166.052 206.045 166.109 205.965 166.163L205.917 166.199C205.624 166.422 205.327 166.638 205.026 166.847C204.902 166.934 204.774 167.022 204.648 167.108L204.385 167.285C204.039 167.51 203.698 167.735 203.331 167.96C203.185 168.053 203.034 168.143 202.873 168.23H202.862C202.679 168.336 202.496 168.442 202.306 168.545C202.115 168.649 201.928 168.755 201.733 168.856C201.538 168.957 201.355 169.056 201.161 169.153L201.138 169.166L200.556 169.452C200.245 169.601 199.931 169.745 199.61 169.884C199.477 169.945 199.338 170.003 199.2 170.062C198.877 170.197 198.557 170.327 198.232 170.451C198.083 170.51 197.936 170.564 197.787 170.618L197.348 170.777L196.837 170.951C196.475 171.07 196.113 171.176 195.745 171.29C195.589 171.335 195.433 171.38 195.273 171.423C195.113 171.466 194.955 171.511 194.792 171.551C194.629 171.592 194.467 171.635 194.304 171.673L193.876 171.774C192.41 172.104 190.921 172.329 189.422 172.449L189.035 172.478C188.895 172.49 188.751 172.499 188.611 172.505C188.327 172.523 188.041 172.535 187.755 172.544C187.43 172.544 187.105 172.557 186.777 172.557H166.105C165.321 172.555 164.544 172.699 163.815 172.982C163.74 173.009 163.671 173.039 163.6 173.07L163.451 173.135C163.385 173.165 163.321 173.196 163.256 173.23L163.112 173.304C162.93 173.4 162.754 173.505 162.583 173.619C162.521 173.66 162.46 173.705 162.395 173.75C162.253 173.851 162.118 173.959 161.986 174.071C161.973 174.079 161.962 174.089 161.953 174.101C161.896 174.148 161.844 174.197 161.786 174.249C161.775 174.263 161.762 174.275 161.747 174.285L161.615 174.418C161.525 174.508 161.438 174.6 161.358 174.692C161.278 174.785 161.241 174.83 161.184 174.899C161.122 174.971 161.064 175.046 161.01 175.124C160.84 175.355 160.687 175.597 160.552 175.849C160.545 175.856 160.539 175.864 160.536 175.874C160.504 175.939 160.467 176.006 160.437 176.074C160.385 176.18 160.337 176.288 160.291 176.396L160.19 176.659C160.163 176.744 160.131 176.832 160.105 176.92C160.104 176.932 160.104 176.944 160.105 176.956C160.076 177.044 160.053 177.131 160.03 177.221C160.007 177.311 159.986 177.41 159.966 177.507C159.947 177.602 159.931 177.698 159.913 177.795C159.912 177.802 159.912 177.81 159.913 177.818C159.913 177.91 159.89 178.007 159.881 178.101C159.872 178.196 159.863 178.268 159.858 178.351C159.854 178.434 159.858 178.576 159.858 178.693V201.688H55.2532V178.758C55.2532 178.592 55.2532 178.43 55.2303 178.268C55.1055 176.729 54.3959 175.293 53.2427 174.245C52.0894 173.197 50.577 172.613 49.0061 172.611H36.7088C36.2508 172.611 35.7981 172.601 35.3508 172.582C35.1218 172.582 34.9111 172.559 34.6913 172.546C34.4715 172.532 34.3043 172.519 34.1165 172.503C33.86 172.483 33.6104 172.458 33.3585 172.431C33.1593 172.411 32.9669 172.386 32.77 172.361L32.573 172.337L32.1425 172.276L32.0097 172.256C31.8059 172.224 31.6067 172.193 31.4029 172.157C24.3887 170.935 18.0365 167.325 13.4608 161.961C8.88515 156.596 6.37826 149.82 6.38003 142.821V140.479C6.3761 139.144 6.45256 137.811 6.60903 136.485C6.8122 134.761 7.17398 133.059 7.68991 131.4C8.38582 129.145 9.39779 126.996 10.6967 125.015C12.1338 122.833 13.8908 120.873 15.911 119.196C20.3215 115.497 25.474 113.378 29.548 112.181C31.6174 111.566 33.4303 110.313 34.7184 108.607C36.0065 106.9 36.7011 104.832 36.6996 102.708V93.033C36.699 89.5205 38.0257 86.1329 40.4226 83.5268C42.8195 80.9207 46.1157 79.2818 49.6725 78.9278C49.9534 78.8993 50.2373 78.879 50.5244 78.867C50.7259 78.867 50.9297 78.8535 51.1312 78.8535C53.9222 78.853 56.6111 77.8223 58.6651 75.9658C60.7192 74.1093 61.9886 71.5624 62.2217 68.8298C62.2423 68.5305 62.2583 68.2268 62.2583 67.9298C62.2577 65.0304 61.0852 62.25 58.9986 60.1998C56.912 58.1497 54.0821 56.9976 51.1312 56.997H47.0092C44.4774 57.0242 41.9652 56.5578 39.618 55.6246C37.2709 54.6915 35.1355 53.3102 33.3353 51.5607C31.5351 49.8112 30.106 47.7283 29.1307 45.4325C28.1553 43.1367 27.6531 40.6737 27.6531 38.1859C27.6531 35.6981 28.1553 33.2351 29.1307 30.9393C30.106 28.6435 31.5351 26.5606 33.3353 24.8111C35.1355 23.0616 37.2709 21.6803 39.618 20.7472C41.9652 19.814 44.4774 19.3476 47.0092 19.3748H165.173C171.12 19.3754 176.823 21.6968 181.028 25.8285C185.234 29.9601 187.596 35.5637 187.597 41.4068C187.598 45.3353 189.108 49.1188 191.825 52.0008C194.542 54.8828 198.266 56.6511 202.253 56.952C202.654 56.9813 203.054 56.997 203.46 56.997C205.975 56.9934 208.465 57.4784 210.789 58.424C213.112 59.3697 215.223 60.7574 216.998 62.5073C217.607 63.1062 218.173 63.7443 218.695 64.4175C221.239 67.6887 222.613 71.6927 222.606 75.8093C222.606 76.2075 222.59 76.6058 222.567 76.9973C222.28 81.5623 220.304 85.8666 217.012 89.1L216.646 89.451L216.277 89.775C216.153 89.8853 216.023 90 215.897 90.1013C215.771 90.2025 215.668 90.2925 215.549 90.3848C215.395 90.5108 215.242 90.6323 215.091 90.7493C214.978 90.8348 214.862 90.918 214.747 91.0013C214.589 91.116 214.424 91.2263 214.259 91.3388C214.147 91.4153 214.03 91.4895 213.916 91.5638L213.868 91.5975C213.758 91.6673 213.639 91.7348 213.533 91.8023C213.362 91.908 213.188 92.0115 213.009 92.1105C212.83 92.2095 212.711 92.2748 212.565 92.3535C212.418 92.4323 212.265 92.511 212.107 92.5785C211.949 92.646 211.802 92.7293 211.649 92.8035C211.495 92.8778 211.344 92.943 211.191 93.0083C211.188 93.0095 211.186 93.0101 211.183 93.0101C211.18 93.0101 211.177 93.0095 211.175 93.0083C211.026 93.0758 210.87 93.1388 210.717 93.1995H210.696C210.543 93.2603 210.387 93.321 210.238 93.3795C209.78 93.5528 209.288 93.7103 208.805 93.8475L208.553 93.9173L208.223 94.0028L207.792 94.104C207.519 94.167 207.244 94.2233 206.968 94.2728L206.54 94.3448L206.205 94.3943L206.036 94.4168L205.633 94.4663C205.381 94.4933 205.125 94.518 204.866 94.5338C204.712 94.5338 204.559 94.554 204.408 94.5608L203.989 94.5765C203.824 94.5765 203.659 94.5765 203.492 94.5765H162.512C162.345 94.5765 162.178 94.5765 162.011 94.5923L161.798 94.608L161.468 94.6418C161.37 94.6418 161.271 94.6665 161.17 94.6845C161.07 94.7025 160.971 94.7183 160.873 94.7385L160.774 94.7588C160.712 94.7723 160.646 94.7858 160.582 94.8038C160.518 94.8218 160.454 94.833 160.389 94.851C160.325 94.869 160.257 94.8848 160.192 94.905L160.044 94.95C159.967 94.9725 159.891 94.9973 159.815 95.0243L159.666 95.076C159.469 95.1458 159.276 95.2223 159.089 95.301C158.999 95.3415 158.91 95.382 158.823 95.427C158.287 95.6937 157.783 96.0174 157.318 96.3923C157.225 96.4643 157.14 96.5385 157.051 96.6173C156.961 96.696 156.877 96.7703 156.796 96.8423C156.716 96.9143 156.632 97.002 156.554 97.0853C156.478 97.164 156.405 97.245 156.325 97.326L156.309 97.3395C156.309 97.3395 156.297 97.3508 156.297 97.3575C156.235 97.4205 156.183 97.4858 156.125 97.5533C156.068 97.6208 156.002 97.7085 155.942 97.7895C155.055 98.959 154.51 100.345 154.367 101.797Z" fill="#F3F4FE"/>
<path d="M156.426 93.0351C156.427 94.4936 156.296 95.9492 156.032 97.3844C156.009 97.5352 155.979 97.6859 155.949 97.8344C155.067 98.9904 154.52 100.36 154.367 101.797C154.339 102.076 154.323 102.357 154.323 102.643V102.89C154.01 103.588 153.667 104.267 153.293 104.929C153.012 105.425 152.714 105.911 152.397 106.387C151.953 107.06 151.478 107.708 150.971 108.331C148.854 110.938 146.216 113.094 143.221 114.664C140.225 116.234 136.934 117.186 133.551 117.461C132.864 117.515 132.177 117.544 131.478 117.544C127.065 117.548 122.73 116.399 118.918 114.214C118.266 113.841 117.632 113.439 117.017 113.008C113.116 110.276 110.096 106.5 108.315 102.13C108.005 101.368 107.734 100.592 107.504 99.8032C106.484 96.2932 106.27 92.6044 106.877 89.0032C104.668 87.56 102.873 85.5842 101.664 83.2646C100.454 80.945 99.8711 78.3593 99.9697 75.7548C100.068 73.1504 100.845 70.6144 102.227 68.3895C103.608 66.1645 105.547 64.3251 107.859 63.0471C109.852 61.9457 112.07 61.2947 114.351 61.1414C114.711 61.1166 115.073 61.1032 115.441 61.1032C118.152 61.1012 120.815 61.7987 123.164 63.1259C125.514 64.453 127.467 66.3633 128.829 68.6654C129.708 68.5743 130.592 68.5285 131.476 68.5282C134.753 68.5237 137.999 69.1545 141.028 70.3845C144.056 71.6144 146.808 73.4193 149.126 75.6958C151.443 77.9723 153.281 80.6756 154.534 83.651C155.786 86.6263 156.429 89.8153 156.426 93.0351Z" fill="#C5CAEF"/>
<path d="M192.225 83.7517C200.783 83.7517 207.721 76.9349 207.721 68.5259C207.721 60.117 200.783 53.3002 192.225 53.3002C183.667 53.3002 176.729 60.117 176.729 68.5259C176.729 76.9349 183.667 83.7517 192.225 83.7517Z" fill="#C5CAEF"/>
<path d="M147.551 57.8249C145.98 60.186 143.772 62.0718 141.174 63.272C138.575 64.4722 135.689 64.9396 132.836 64.6222C129.983 64.3048 127.276 63.215 125.016 61.4743C122.757 59.7337 121.034 57.4106 120.04 54.7641C119.046 52.1176 118.819 49.2518 119.386 46.4863C119.952 43.7207 121.29 41.1641 123.248 39.1016C125.207 37.0391 127.711 35.5518 130.479 34.8055C133.248 34.0592 136.174 34.0832 138.93 34.8749C140.338 31.5113 142.746 28.6436 145.84 26.6469C148.934 24.6503 152.569 23.6176 156.27 23.6842C159.971 23.7507 163.566 24.9133 166.583 27.0198C169.601 29.1264 171.901 32.0788 173.183 35.4908C174.465 38.9027 174.668 42.6154 173.768 46.143C172.867 49.6707 170.903 52.849 168.134 55.2622C165.364 57.6754 161.918 59.2111 158.245 59.6683C154.573 60.1256 150.846 59.4831 147.551 57.8249Z" fill="#C5CAEF"/>
<path d="M114.612 131.186C114.613 134.556 113.654 137.86 111.844 140.722C110.033 143.585 107.444 145.893 104.368 147.385C101.292 148.876 97.8527 149.493 94.4388 149.164C91.025 148.835 87.773 147.574 85.0507 145.523C84.1431 147.573 82.6547 149.323 80.763 150.564C78.8713 151.806 76.6561 152.486 74.3816 152.525C75.446 154.675 76.0656 157.01 76.2045 159.397C76.3435 161.783 75.999 164.173 75.1911 166.428C74.3831 168.683 73.1278 170.758 71.4978 172.532C69.8678 174.307 67.8956 175.746 65.6954 176.766C63.4952 177.786 61.1108 178.367 58.6804 178.475C56.25 178.584 53.8219 178.217 51.5368 177.396C49.2518 176.576 47.1551 175.318 45.3685 173.695C43.5818 172.073 42.1407 170.118 41.1285 167.944C39.7973 167.285 38.5536 166.468 37.4256 165.51C35.7593 168.005 33.7267 170.245 31.3937 172.156C24.3812 170.933 18.0312 167.322 13.4573 161.958C8.88347 156.594 6.37788 149.819 6.38003 142.821V140.479C6.3761 139.144 6.45256 137.811 6.60903 136.485C6.8122 134.761 7.17397 133.059 7.68991 131.4C8.38582 129.145 9.39779 126.996 10.6967 125.014C12.1338 122.833 13.8908 120.873 15.911 119.196C21.0353 119.882 25.8997 121.83 30.052 124.859C34.2043 127.888 37.5096 131.9 39.6606 136.521C43.1944 134.347 47.3753 133.419 51.5169 133.888C55.6586 134.357 59.515 136.195 62.453 139.102C62.7177 137.429 63.3501 135.833 64.3062 134.424C65.2623 133.016 66.5191 131.829 67.9893 130.946C69.4595 130.063 71.1078 129.506 72.8195 129.312C74.5313 129.118 76.2654 129.293 77.9013 129.825C78.2522 125.286 80.3343 121.045 83.731 117.95C87.1278 114.855 91.5887 113.134 96.2213 113.132C96.6633 113.132 97.1007 113.148 97.5358 113.177C102.171 113.504 106.509 115.542 109.677 118.883C112.845 122.224 114.609 126.62 114.612 131.186Z" fill="#C5CAEF"/>
<path d="M154.367 101.797C154.339 102.076 154.323 102.357 154.323 102.643V102.89C154.323 102.89 154.323 103.023 154.323 103.088C154.323 103.153 154.323 103.221 154.323 103.286L154.337 103.462L154.364 103.675C154.364 103.761 154.39 103.846 154.401 103.932L154.429 104.076C154.429 104.134 154.447 104.191 154.461 104.249C154.488 104.375 154.516 104.501 154.55 104.625C154.556 104.663 154.566 104.699 154.58 104.735C154.596 104.8 154.614 104.866 154.632 104.929C154.651 104.992 154.671 105.057 154.696 105.122C154.761 105.32 154.834 105.514 154.909 105.703C154.953 105.799 154.994 105.894 155.038 105.986C155.044 106.002 155.05 106.017 155.058 106.031C155.077 106.072 155.095 106.112 155.116 106.15C155.136 106.189 155.152 106.227 155.173 106.263C155.193 106.299 155.223 106.36 155.248 106.407C155.274 106.454 155.296 106.492 155.317 106.535C155.367 106.627 155.42 106.717 155.477 106.805C155.502 106.848 155.528 106.889 155.557 106.929C155.612 107.017 155.67 107.102 155.729 107.188C155.789 107.273 155.869 107.386 155.942 107.482L155.965 107.509C156.032 107.595 156.098 107.68 156.167 107.761C156.187 107.783 156.206 107.805 156.224 107.829C156.286 107.901 156.348 107.971 156.414 108.04L156.441 108.072C156.526 108.162 156.609 108.247 156.693 108.333L156.922 108.544C156.961 108.576 156.998 108.61 157.032 108.641C157.106 108.704 157.179 108.767 157.261 108.826L157.415 108.949L157.456 108.981L157.685 109.147C157.714 109.169 157.743 109.19 157.774 109.208C157.783 109.218 157.794 109.225 157.806 109.231C157.857 109.271 157.911 109.308 157.967 109.341L158.196 109.485C158.244 109.516 158.296 109.546 158.347 109.573L158.491 109.654C158.541 109.685 158.592 109.713 158.644 109.739L158.69 109.762C158.768 109.807 158.853 109.847 158.933 109.885L158.988 109.908C159.073 109.951 159.16 109.989 159.247 110.025C159.285 110.044 159.324 110.06 159.363 110.074C159.441 110.108 159.526 110.14 159.609 110.171L159.757 110.223C159.794 110.239 159.837 110.252 159.879 110.266C160.005 110.308 160.133 110.349 160.261 110.383C160.328 110.403 160.394 110.419 160.458 110.434C160.653 110.486 160.854 110.529 161.053 110.563L161.223 110.592L161.477 110.626C161.635 110.646 161.798 110.662 161.96 110.671H161.988C162.16 110.682 162.331 110.686 162.505 110.686H186.779C187.089 110.686 187.4 110.686 187.695 110.7H187.954C188.426 110.715 188.894 110.742 189.358 110.781L189.573 110.799L189.724 110.812L190.049 110.844L190.42 110.884C190.535 110.896 190.649 110.909 190.762 110.925C191.023 110.956 191.286 110.993 191.545 111.033L191.916 111.089H191.964L192.298 111.146C192.587 111.195 192.878 111.249 193.166 111.31L193.72 111.427L194.277 111.553C194.62 111.636 194.964 111.724 195.3 111.818L195.374 111.838C195.511 111.874 195.646 111.913 195.779 111.953C196.008 112.021 196.237 112.093 196.466 112.165L196.832 112.284C197.043 112.354 197.258 112.426 197.469 112.509C197.68 112.592 197.874 112.653 198.071 112.734H198.097C198.305 112.813 198.513 112.894 198.719 112.977C198.926 113.06 199.132 113.146 199.333 113.233C199.535 113.321 199.667 113.377 199.835 113.458C199.915 113.49 199.988 113.526 200.064 113.56H200.075C200.235 113.632 200.391 113.704 200.549 113.785C200.948 113.974 201.339 114.174 201.728 114.381C202.034 114.546 202.339 114.715 202.644 114.889C202.78 114.966 202.91 115.042 203.041 115.114L203.384 115.321C204.227 115.834 205.04 116.384 205.823 116.971C205.926 117.047 206.027 117.126 206.132 117.196C206.647 117.592 207.156 118.003 207.646 118.431C207.735 118.51 207.827 118.588 207.914 118.669L208.047 118.786C208.143 118.874 208.239 118.96 208.333 119.05C208.427 119.14 208.498 119.203 208.582 119.275C209.141 119.8 209.676 120.344 210.185 120.908C210.298 121.03 210.414 121.153 210.52 121.277L210.724 121.502L211.04 121.867C211.172 122.029 211.31 122.191 211.443 122.357C211.85 122.86 212.239 123.373 212.608 123.898C212.709 124.036 212.805 124.173 212.899 124.312C212.954 124.391 213.007 124.472 213.062 124.553C213.153 124.686 213.24 124.819 213.33 124.954C216.56 129.926 218.273 135.704 218.267 141.604V142.348C218.267 142.348 218.253 142.841 218.239 143.089C218.226 143.336 218.214 143.579 218.196 143.822C218.178 144.065 218.157 144.311 218.134 144.553C218.113 144.756 218.093 144.958 218.07 145.159C218.07 145.242 218.049 145.323 218.038 145.406C218.015 145.604 217.99 145.802 217.96 146L217.85 146.702C217.851 146.709 217.851 146.716 217.85 146.722C217.811 146.959 217.768 147.193 217.722 147.424C217.696 147.564 217.668 147.703 217.639 147.843C217.614 147.969 217.584 148.095 217.559 148.221C217.513 148.423 217.468 148.626 217.417 148.828C217.367 149.031 217.307 149.278 217.246 149.504C217.184 149.729 217.113 149.996 217.042 150.239C216.971 150.482 216.907 150.689 216.84 150.894C216.774 151.099 216.698 151.328 216.611 151.542C216.613 151.55 216.613 151.559 216.611 151.567C216.536 151.792 216.453 152.017 216.382 152.226C216.383 152.236 216.383 152.247 216.382 152.257C216.3 152.482 216.222 152.683 216.137 152.892C216.052 153.101 215.968 153.31 215.881 153.517C215.874 153.531 215.869 153.544 215.865 153.558C215.771 153.769 215.681 153.981 215.585 154.188C215.489 154.395 215.388 154.613 215.288 154.825C215.203 154.996 215.12 155.169 215.033 155.338C215.006 155.398 214.974 155.457 214.944 155.518C214.868 155.659 214.798 155.799 214.715 155.938C214.665 156.037 214.61 156.136 214.555 156.233L214.397 156.517C214.342 156.618 214.285 156.719 214.225 156.818C214.165 156.917 214.085 157.063 214.014 157.185C213.943 157.306 213.907 157.367 213.849 157.457L213.62 157.817C213.586 157.873 213.552 157.93 213.513 157.986C213.412 158.15 213.304 158.312 213.197 158.472C213.089 158.632 212.94 158.859 212.807 159.05C212.675 159.242 212.549 159.417 212.418 159.597C212.006 160.168 211.571 160.725 211.113 161.266C210.964 161.444 210.815 161.62 210.655 161.795C210.495 161.971 210.35 162.144 210.197 162.315C210.043 162.486 209.824 162.72 209.629 162.918C209.434 163.116 209.244 163.312 209.05 163.505C208.411 164.132 207.746 164.732 207.053 165.305C206.771 165.53 206.48 165.771 206.189 165.994C206.118 166.052 206.041 166.108 205.96 166.162L205.912 166.198C205.619 166.422 205.322 166.638 205.021 166.846C204.898 166.934 204.77 167.022 204.644 167.107L204.38 167.285C204.035 167.51 203.693 167.735 203.327 167.96C203.18 168.052 203.029 168.142 202.869 168.23H202.857C202.674 168.336 202.491 168.442 202.301 168.545C202.111 168.649 201.923 168.754 201.728 168.856C201.534 168.957 201.351 169.056 201.156 169.153L201.133 169.166L200.551 169.452C200.24 169.6 199.926 169.744 199.606 169.884C199.473 169.945 199.333 170.003 199.196 170.062C198.873 170.197 198.552 170.327 198.227 170.451C198.078 170.509 197.932 170.563 197.783 170.617L197.343 170.777L196.832 170.951C196.471 171.07 196.109 171.175 195.74 171.29C195.584 171.335 195.429 171.38 195.268 171.423C195.108 171.466 194.95 171.511 194.787 171.551C194.625 171.592 194.462 171.634 194.3 171.673L193.871 171.774C192.405 172.104 190.917 172.329 189.417 172.449L189.03 172.478C188.891 172.49 188.746 172.498 188.607 172.505C188.323 172.523 188.037 172.534 187.75 172.543C187.425 172.543 187.1 172.557 186.772 172.557H166.105C165.321 172.555 164.544 172.699 163.815 172.982C163.74 173.009 163.671 173.038 163.6 173.07L163.451 173.135C163.385 173.164 163.321 173.196 163.256 173.23L163.112 173.304C162.93 173.4 162.754 173.505 162.583 173.619L162.395 173.749C162.253 173.851 162.118 173.959 161.986 174.071C161.973 174.079 161.962 174.089 161.953 174.1C161.896 174.148 161.844 174.197 161.786 174.249C161.775 174.263 161.762 174.275 161.747 174.285L161.615 174.418C161.525 174.508 161.438 174.6 161.358 174.692C161.278 174.784 161.239 174.829 161.184 174.899C161.122 174.971 161.064 175.046 161.01 175.124C160.84 175.354 160.687 175.597 160.552 175.849C160.545 175.856 160.539 175.864 160.536 175.873C160.502 175.939 160.467 176.006 160.437 176.074C160.385 176.179 160.337 176.287 160.291 176.395C160.245 176.503 160.225 176.569 160.19 176.659C160.156 176.749 160.131 176.832 160.105 176.92C160.104 176.932 160.104 176.944 160.105 176.956C160.076 177.043 160.053 177.131 160.03 177.221C160.007 177.311 159.984 177.412 159.966 177.507C159.945 177.601 159.929 177.698 159.913 177.795C159.912 177.802 159.912 177.81 159.913 177.817C159.913 177.91 159.89 178.007 159.881 178.101C159.872 178.195 159.863 178.267 159.858 178.351C159.854 178.434 159.858 178.576 159.858 178.693V201.688H55.2532V178.758C55.2532 178.591 55.2532 178.429 55.2303 178.267C51.0303 177.682 47.1671 175.683 44.3001 172.611H36.6996C36.2416 172.611 35.789 172.601 35.3417 172.582C35.1127 172.582 34.902 172.559 34.6821 172.546C34.4623 172.532 34.2951 172.519 34.1073 172.503C33.8509 172.483 33.6013 172.458 33.3494 172.431C33.1501 172.411 32.9578 172.386 32.7608 172.361L32.5639 172.336L32.1334 172.276L32.0005 172.255C31.7967 172.224 31.5975 172.192 31.3937 172.156C24.3812 170.933 18.0312 167.322 13.4573 161.958C8.88347 156.594 6.37788 149.819 6.38003 142.821V140.479C6.3761 139.144 6.45256 137.811 6.60903 136.485C10.5462 137.601 14.0073 139.945 16.4707 143.162C18.9341 146.38 20.2664 150.297 20.2666 154.323C20.2678 156.171 19.9884 158.01 19.4376 159.777H19.4926C21.6959 159.779 23.8432 160.46 25.6322 161.723C27.4212 162.987 28.7619 164.77 29.4655 166.822C30.1838 163.898 31.8412 161.278 34.1924 159.352C36.5435 157.425 39.4636 156.293 42.5204 156.124C45.5772 155.954 48.6082 156.756 51.1649 158.411C53.7217 160.066 55.6682 162.486 56.7165 165.312C57.0371 162.291 58.0148 159.374 59.5832 156.757C61.1517 154.139 63.2743 151.884 65.8073 150.144C68.3403 148.403 71.2245 147.217 74.2645 146.668C77.3045 146.118 80.4292 146.216 83.4271 146.956C83.3419 146.298 83.2983 145.636 83.2965 144.972C83.2977 144.38 83.3313 143.788 83.3973 143.199C83.8234 139.411 85.6173 135.899 88.4536 133.299C90.8011 131.138 93.751 129.713 96.9266 129.206C96.4243 127.309 96.1295 125.364 96.0473 123.406C96.0244 123.001 96.0152 122.591 96.0152 122.182C96.0152 121.576 96.0381 120.976 96.0725 120.382C96.337 116.341 97.4967 112.406 99.4705 108.851C101.444 105.297 104.185 102.209 107.5 99.8032C107.763 99.6097 108.033 99.4185 108.31 99.234C110.96 97.4395 113.903 96.104 117.012 95.2852C117.64 95.121 118.272 94.977 118.913 94.8555C120.26 94.5961 121.625 94.4352 122.996 94.374C122.909 93.8246 122.851 93.2711 122.822 92.7158C122.822 92.5335 122.806 92.3512 122.806 92.1668C122.811 90.8554 122.996 89.5507 123.356 88.2878C123.081 88.1843 122.813 88.0785 122.545 87.966C121.284 87.4448 120.072 86.8186 118.92 86.094C118.265 85.6845 117.631 85.2413 117.019 84.771C114.108 82.5408 111.754 79.687 110.136 76.4272C108.518 73.1674 107.679 69.5877 107.683 65.961C107.683 65.8057 107.683 65.6527 107.683 65.4997C107.696 64.6797 107.755 63.861 107.859 63.0472C108.313 59.4099 109.614 55.9242 111.66 52.8601C113.706 49.796 116.442 47.2359 119.657 45.378C122.687 43.6268 126.068 42.5421 129.566 42.1987C133.064 41.8553 136.596 42.2614 139.919 43.389C143.37 40.7764 147.477 39.1315 151.804 38.6292C156.13 38.1269 160.515 38.786 164.49 40.5364C168.466 42.2868 171.885 45.063 174.383 48.57C176.881 52.0769 178.365 56.1835 178.677 60.453C178.819 60.4395 178.959 60.4282 179.096 60.4215C179.325 60.4058 179.573 60.399 179.813 60.399C182.306 60.3975 184.727 61.2228 186.683 62.7412C188.203 63.9193 189.387 65.4643 190.118 67.2255C194.911 64.0645 200.522 62.3101 206.292 62.1675C206.56 62.1675 206.831 62.1562 207.105 62.1562C211.08 62.1512 215.016 62.9118 218.693 64.395C221.236 67.6662 222.611 71.6702 222.604 75.7867C222.604 76.185 222.588 76.5832 222.565 76.9747C222.284 81.5473 220.308 85.8605 217.012 89.1L216.646 89.451L216.277 89.775C216.153 89.8853 216.023 90 215.897 90.1013C215.771 90.2025 215.668 90.2925 215.549 90.3847C215.395 90.5107 215.242 90.6322 215.091 90.7492C214.978 90.8347 214.862 90.918 214.747 91.0013C214.589 91.116 214.424 91.2263 214.259 91.3388C214.147 91.4153 214.03 91.4895 213.916 91.5638L213.868 91.5975C213.758 91.6673 213.639 91.7348 213.533 91.8022C213.362 91.908 213.188 92.0115 213.009 92.1105C212.83 92.2095 212.711 92.2747 212.565 92.3535C212.418 92.4322 212.265 92.511 212.107 92.5785C211.949 92.646 211.802 92.7292 211.649 92.8035C211.495 92.8777 211.344 92.943 211.191 93.0082C211.188 93.0094 211.186 93.0101 211.183 93.0101C211.18 93.0101 211.177 93.0094 211.175 93.0082C211.026 93.0757 210.87 93.1387 210.717 93.1995H210.696C210.543 93.2603 210.387 93.321 210.238 93.3795C209.78 93.5527 209.288 93.7103 208.805 93.8475L208.553 93.9173L208.223 94.0028C208.083 94.0387 207.946 94.0703 207.808 94.1018C207.529 94.1648 207.25 94.2232 206.968 94.2727L206.54 94.3447L206.205 94.3942L206.036 94.4168L205.633 94.4663C205.381 94.4933 205.125 94.518 204.866 94.5337C204.712 94.5337 204.559 94.554 204.408 94.5607L203.989 94.5765C203.824 94.5765 203.659 94.5765 203.492 94.5765H162.512C162.338 94.5765 162.166 94.5765 161.995 94.5945L161.795 94.608L161.482 94.6395C161.379 94.653 161.276 94.6665 161.17 94.6845C161.065 94.7025 160.971 94.7182 160.873 94.7385L160.774 94.7587C160.712 94.7722 160.646 94.7858 160.582 94.8037C160.518 94.8218 160.454 94.833 160.389 94.851C160.325 94.869 160.257 94.8847 160.192 94.905L160.044 94.95C159.967 94.9725 159.891 94.9972 159.815 95.0242L159.666 95.076C159.469 95.148 159.274 95.2267 159.084 95.301L158.823 95.4247C158.287 95.6915 157.783 96.0151 157.318 96.39C157.225 96.462 157.14 96.5362 157.051 96.615C156.961 96.6937 156.877 96.768 156.796 96.84C156.716 96.912 156.632 96.9997 156.554 97.083C156.478 97.1617 156.403 97.2405 156.325 97.3237L156.309 97.3372C156.309 97.3372 156.297 97.3485 156.297 97.3552C156.235 97.4182 156.183 97.4835 156.125 97.551C156.068 97.6185 156.002 97.7062 155.942 97.7872C155.054 98.9574 154.51 100.344 154.367 101.797Z" fill="#C9CEF7"/>
<path opacity="0.36" d="M114.917 73.8518C116.032 76.5771 117.774 79.012 120.005 80.9664C122.237 82.9207 124.899 84.3414 127.782 85.1175C123.788 82.7215 120.808 78.9888 119.392 74.6061C117.976 70.2233 118.218 65.4855 120.074 61.2644C121.931 57.0433 125.276 53.6228 129.495 51.6324C133.714 49.642 138.522 49.2156 143.036 50.4315C139.552 48.3437 135.486 47.3875 131.417 47.699C127.349 48.0105 123.483 49.5737 120.37 52.1666C117.257 54.7595 115.055 58.2502 114.076 62.143C113.097 66.0358 113.391 70.1327 114.917 73.8518Z" fill="white"/>
<path opacity="0.36" d="M222.62 75.7868C222.62 76.1851 222.604 76.5833 222.581 76.9748C222.313 76.6688 222.034 76.3673 221.745 76.0748C219.192 73.4816 215.955 71.6368 212.396 70.7466C208.838 69.8564 205.097 69.9558 201.593 71.0337C198.088 72.1116 194.958 74.1255 192.551 76.8506C190.144 79.5757 188.556 82.9045 187.963 86.4653C187.831 85.3611 187.795 84.2479 187.853 83.1376C188.06 79.3555 189.386 75.7149 191.668 72.6623C193.95 69.6096 197.089 67.2775 200.7 65.9519C204.311 64.6262 208.237 64.3646 211.997 65.1991C215.758 66.0337 219.188 67.928 221.869 70.6501C221.882 70.6636 221.896 70.6748 221.908 70.6883C222.381 72.348 222.62 74.0633 222.62 75.7868Z" fill="white"/>
<path d="M51.1361 56.9745H47.124V51.1808L59.1465 39.3683V60.3203C58.1096 59.2611 56.8656 58.4187 55.489 57.8437C54.1125 57.2688 52.6319 56.9731 51.1361 56.9745Z" fill="#D9DCFB"/>
<path d="M133.555 76.5V201.674H35.3418V107.667C36.2333 106.158 36.7018 104.444 36.6998 102.699V93.024C36.6992 89.5115 38.0259 86.1238 40.4227 83.5178C42.8196 80.9117 46.1159 79.2728 49.6726 78.9187C49.9535 78.8902 50.2375 78.87 50.5245 78.858C50.726 78.858 50.9298 78.8445 51.1313 78.8445C53.9223 78.8439 56.6112 77.8133 58.6653 75.9568C60.7194 74.1003 61.9887 71.5534 62.2218 68.8207H64.5782V56.4187L75.0664 54.0945L96.7527 65.4997H117.019L133.555 76.5Z" fill="#D9DCFB"/>
<path d="M58.1868 83.4885V201.674H35.3418V107.667C36.2333 106.158 36.7018 104.444 36.6998 102.699V93.024C36.6992 89.5114 38.0259 86.1238 40.4227 83.5177C42.8196 80.9116 46.1159 79.2727 49.6726 78.9187L58.1868 83.4885Z" fill="#C5CAEF"/>
<path d="M108.312 65.4998H117.021V201.674H108.312V65.4998Z" fill="#C5CAEF"/>
<path d="M210.222 67.4213V93.3953C208.064 94.1941 205.777 94.6019 203.471 94.599H186.699V58.8645L210.222 67.4213Z" fill="#D9DCFB"/>
<path d="M210.222 120.949V201.674H186.699V110.7H186.795C187.105 110.7 187.416 110.7 187.711 110.713H187.97C188.442 110.728 188.91 110.755 189.374 110.794L189.589 110.812L189.74 110.826L190.066 110.857L190.436 110.898C190.551 110.909 190.665 110.923 190.778 110.938C191.039 110.97 191.302 111.006 191.561 111.046L191.932 111.103H191.98L192.314 111.159C192.603 111.208 192.894 111.262 193.182 111.323L193.736 111.44L194.293 111.566C194.636 111.649 194.98 111.737 195.316 111.832L195.39 111.852C195.527 111.888 195.662 111.926 195.795 111.967C196.024 112.034 196.253 112.106 196.482 112.178L196.848 112.297C197.059 112.367 197.274 112.439 197.485 112.522C197.696 112.606 197.89 112.666 198.087 112.747H198.113C198.321 112.826 198.529 112.907 198.735 112.99C198.942 113.074 199.148 113.159 199.349 113.247C199.551 113.335 199.684 113.391 199.851 113.472C199.931 113.503 200.004 113.539 200.08 113.573H200.091C200.251 113.645 200.407 113.717 200.565 113.798C200.964 113.989 201.355 114.187 201.745 114.394C202.05 114.559 202.355 114.729 202.661 114.903C202.796 114.979 202.926 115.056 203.057 115.128L203.4 115.335C204.243 115.848 205.056 116.398 205.839 116.984C205.942 117.061 206.043 117.139 206.148 117.209C206.663 117.605 207.172 118.017 207.662 118.444C207.751 118.523 207.843 118.602 207.93 118.683L208.063 118.8C208.159 118.888 208.255 118.973 208.349 119.063C208.443 119.153 208.514 119.216 208.598 119.288C209.168 119.831 209.709 120.385 210.222 120.949Z" fill="#D9DCFB"/>
<path d="M186.699 75.2805V94.599H175.148V82.0913L186.699 75.2805Z" fill="#C5CAEF"/>
<path d="M175.146 110.689H186.7V201.674H175.146V110.689Z" fill="#C5CAEF"/>
<path d="M154.367 101.797C154.34 102.076 154.324 102.357 154.324 102.643V102.89C154.324 102.89 154.324 103.023 154.324 103.088C154.324 103.153 154.324 103.221 154.324 103.286L154.337 103.462L154.365 103.675C154.365 103.761 154.39 103.846 154.401 103.932L154.429 104.076C154.429 104.134 154.447 104.191 154.461 104.249C154.488 104.375 154.516 104.501 154.55 104.625C154.557 104.663 154.567 104.699 154.58 104.735C154.596 104.8 154.614 104.866 154.633 104.929C154.651 104.992 154.672 105.057 154.697 105.122C154.761 105.32 154.834 105.514 154.91 105.703C154.953 105.799 154.995 105.894 155.038 105.986C155.082 106.078 155.125 106.171 155.173 106.263C155.221 106.355 155.24 106.393 155.276 106.456C155.29 106.483 155.306 106.508 155.317 106.535C155.368 106.627 155.42 106.717 155.478 106.805L155.558 106.929C155.613 107.017 155.67 107.102 155.73 107.188C155.789 107.273 155.869 107.386 155.943 107.482L155.965 107.509C156.032 107.595 156.098 107.68 156.167 107.761C156.187 107.783 156.207 107.805 156.224 107.829C156.286 107.901 156.348 107.971 156.414 108.04L156.442 108.072C156.527 108.162 156.609 108.247 156.694 108.333L156.923 108.544C156.962 108.576 156.998 108.61 157.033 108.641C157.106 108.704 157.179 108.767 157.262 108.826L157.415 108.949L157.456 108.981L157.685 109.147C157.714 109.169 157.744 109.189 157.775 109.208C157.784 109.218 157.795 109.225 157.807 109.231C157.857 109.269 157.912 109.305 157.967 109.341L158.196 109.485C158.244 109.516 158.297 109.546 158.347 109.573L158.491 109.654C158.541 109.685 158.592 109.713 158.645 109.739L158.691 109.762C158.768 109.804 158.853 109.845 158.933 109.885L158.988 109.908C159.073 109.951 159.16 109.989 159.247 110.025C159.285 110.044 159.324 110.06 159.364 110.074C159.442 110.108 159.526 110.14 159.609 110.171L159.758 110.223C159.794 110.239 159.838 110.252 159.879 110.266C160.005 110.308 160.133 110.349 160.262 110.383C160.328 110.403 160.394 110.419 160.458 110.434C160.653 110.486 160.855 110.529 161.054 110.563L161.223 110.592L161.478 110.626C161.636 110.646 161.798 110.662 161.961 110.671H161.988V201.674H150.976V71.0999L161.995 66.5594V94.6169L161.796 94.6304L161.482 94.6619C161.379 94.6754 161.276 94.6889 161.171 94.7069C161.065 94.7249 160.971 94.7407 160.873 94.7609L160.774 94.7812C160.713 94.7947 160.646 94.8082 160.582 94.8262C160.518 94.8442 160.454 94.8554 160.39 94.8734C160.326 94.8914 160.257 94.9072 160.193 94.9274L160.044 94.9724C159.968 94.9949 159.891 95.0197 159.815 95.0467L159.666 95.0984C159.469 95.1704 159.275 95.2492 159.084 95.3234L158.823 95.4472C158.287 95.7139 157.783 96.0376 157.319 96.4124C157.225 96.4844 157.14 96.5587 157.051 96.6374C156.962 96.7162 156.877 96.7904 156.797 96.8624C156.717 96.9344 156.632 97.0222 156.554 97.1054C156.478 97.1842 156.405 97.2652 156.325 97.3462L156.309 97.3597C156.309 97.3597 156.298 97.3709 156.298 97.3777C156.236 97.4407 156.183 97.5059 156.126 97.5734C156.069 97.6409 156.002 97.7287 155.943 97.8097C155.059 98.9734 154.514 100.352 154.367 101.797Z" fill="#D9DCFB"/>
<path d="M170.169 69.3427V94.599H162.512C162.338 94.599 162.166 94.599 161.994 94.617V66.5482L170.169 69.3427Z" fill="#C5CAEF"/>
<path d="M162.512 110.7H170.169V201.674H161.994V110.673C162.166 110.684 162.338 110.7 162.512 110.7Z" fill="#C5CAEF"/>
<path d="M67.4404 70.911H96.2028V73.935H67.4404V70.911Z" fill="#F3F4FE"/>
<path d="M131.201 88.2427L118.922 87.8512V72.423L131.201 80.5342V88.2427Z" fill="#F3F4FE"/>
<path d="M67.4404 80.8042H96.2028V83.8282H67.4404V80.8042Z" fill="#F3F4FE"/>
<path d="M67.4404 90.6997H96.2028V93.7237H67.4404V90.6997Z" fill="#F3F4FE"/>
<path d="M67.4404 100.593H96.2028V103.617H67.4404V100.593Z" fill="#F3F4FE"/>
<path d="M67.4404 110.489H96.2028V113.513H67.4404V110.489Z" fill="#F3F4FE"/>
<path d="M67.4404 120.382H96.2028V123.406H67.4404V120.382Z" fill="#F3F4FE"/>
<path d="M67.4404 130.275H96.2028V133.299H67.4404V130.275Z" fill="#F3F4FE"/>
<path d="M67.4404 140.17H96.2028V143.194H67.4404V140.17Z" fill="#F3F4FE"/>
<path d="M67.4404 150.064H96.2028V153.088H67.4404V150.064Z" fill="#F3F4FE"/>
<path d="M67.4404 159.959H96.2028V162.983H67.4404V159.959Z" fill="#F3F4FE"/>
<path d="M67.4404 169.853H96.2028V172.877H67.4404V169.853Z" fill="#F3F4FE"/>
<path d="M67.4404 179.746H96.2028V182.77H67.4404V179.746Z" fill="#F3F4FE"/>
<path d="M67.4404 189.641H96.2028V192.665H67.4404V189.641Z" fill="#F3F4FE"/>
<path d="M118.922 92.7157H131.199V117.175H118.922V92.7157Z" fill="#F3F4FE"/>
<path d="M118.922 122.805H131.199V147.265H118.922V122.805Z" fill="#F3F4FE"/>
<path d="M118.922 152.896H131.199V177.356H118.922V152.896Z" fill="#F3F4FE"/>
<path d="M118.922 181.258H131.199V196.157H118.922V181.258Z" fill="#F3F4FE"/>
<path d="M191.107 71.532H196.862V74.5965H191.107V71.532Z" fill="#F3F4FE"/>
<path d="M152.401 78.4642H160.409V69.4957L152.401 73.188V78.4642Z" fill="#F3F4FE"/>
<path d="M201.761 71.532H207.516V74.5965H201.761V71.532Z" fill="#F3F4FE"/>
<path d="M191.107 79.5914H196.862V82.6559H191.107V79.5914Z" fill="#F3F4FE"/>
<path d="M201.761 79.5914H207.516V82.6559H201.761V79.5914Z" fill="#F3F4FE"/>
<path d="M191.107 87.6532H196.862V90.7177H191.107V87.6532Z" fill="#F3F4FE"/>
<path d="M201.761 87.6532H207.516V90.7177H201.761V87.6532Z" fill="#F3F4FE"/>
<path d="M196.864 112.304V114.905H191.107V111.839H195.337L195.41 111.859C195.548 111.895 195.683 111.933 195.816 111.974C196.045 112.041 196.274 112.113 196.503 112.185L196.864 112.304Z" fill="#F3F4FE"/>
<path d="M202.677 114.905H201.761V114.397C202.072 114.562 202.378 114.731 202.677 114.905Z" fill="#F3F4FE"/>
<path d="M191.107 119.9H196.862V122.965H191.107V119.9Z" fill="#F3F4FE"/>
<path d="M201.761 119.9H207.516V122.965H201.761V119.9Z" fill="#F3F4FE"/>
<path d="M191.107 127.962H196.862V131.026H191.107V127.962Z" fill="#F3F4FE"/>
<path d="M201.761 127.962H207.516V131.026H201.761V127.962Z" fill="#F3F4FE"/>
<path d="M191.107 136.024H196.862V139.088H191.107V136.024Z" fill="#F3F4FE"/>
<path d="M201.761 136.024H207.516V139.088H201.761V136.024Z" fill="#F3F4FE"/>
<path d="M191.107 144.085H196.862V147.15H191.107V144.085Z" fill="#F3F4FE"/>
<path d="M201.761 144.085H207.516V147.15H201.761V144.085Z" fill="#F3F4FE"/>
<path d="M191.107 152.145H196.862V155.21H191.107V152.145Z" fill="#F3F4FE"/>
<path d="M201.761 152.145H207.516V155.21H201.761V152.145Z" fill="#F3F4FE"/>
<path d="M191.107 160.207H196.862V163.271H191.107V160.207Z" fill="#F3F4FE"/>
<path d="M201.761 160.207H207.516V163.271H201.761V160.207Z" fill="#F3F4FE"/>
<path d="M191.107 168.268H196.862V171.333H191.107V168.268Z" fill="#F3F4FE"/>
<path d="M201.761 168.268H207.516V171.333H201.761V168.268Z" fill="#F3F4FE"/>
<path d="M191.107 176.33H196.862V179.395H191.107V176.33Z" fill="#F3F4FE"/>
<path d="M201.761 176.33H207.516V179.395H201.761V176.33Z" fill="#F3F4FE"/>
<path d="M191.107 184.392H196.862V187.456H191.107V184.392Z" fill="#F3F4FE"/>
<path d="M201.761 184.392H207.516V187.456H201.761V184.392Z" fill="#F3F4FE"/>
<path d="M191.107 192.454H196.862V195.518H191.107V192.454Z" fill="#F3F4FE"/>
<path d="M201.761 192.454H207.516V195.518H201.761V192.454Z" fill="#F3F4FE"/>
<path d="M152.401 81.126H160.407V85.536H152.401V81.126Z" fill="#F3F4FE"/>
<path d="M152.401 88.6702H155.344V93.0802H152.401V88.6702Z" fill="#F3F4FE"/>
<path d="M157.467 88.6702H160.409V93.0802H157.467V88.6702Z" fill="#F3F4FE"/>
<path d="M156.315 97.3845C156.315 97.3845 156.304 97.3958 156.304 97.4025C156.242 97.4655 156.189 97.5308 156.132 97.5983C156.075 97.6658 156.008 97.7535 155.949 97.8345C155.066 98.9905 154.52 100.36 154.366 101.797H152.401V97.3845H156.315Z" fill="#F3F4FE"/>
<path d="M155.342 106.535V109.35H152.401V104.929H154.657C154.824 105.488 155.053 106.026 155.342 106.535Z" fill="#F3F4FE"/>
<path d="M157.973 109.35H157.467V108.99C157.629 109.107 157.799 109.228 157.973 109.35Z" fill="#F3F4FE"/>
<path d="M152.401 113.643H160.407V118.053H152.401V113.643Z" fill="#F3F4FE"/>
<path d="M152.401 121.189H155.344V125.599H152.401V121.189Z" fill="#F3F4FE"/>
<path d="M157.467 121.189H160.409V125.599H157.467V121.189Z" fill="#F3F4FE"/>
<path d="M152.401 129.776H160.407V134.186H152.401V129.776Z" fill="#F3F4FE"/>
<path d="M152.401 137.32H155.344V141.73H152.401V137.32Z" fill="#F3F4FE"/>
<path d="M157.467 137.32H160.409V141.73H157.467V137.32Z" fill="#F3F4FE"/>
<path d="M152.401 145.906H160.407V150.316H152.401V145.906Z" fill="#F3F4FE"/>
<path d="M152.401 153.45H155.344V157.86H152.401V153.45Z" fill="#F3F4FE"/>
<path d="M157.467 153.45H160.409V157.86H157.467V153.45Z" fill="#F3F4FE"/>
<path d="M152.401 162.036H160.407V166.446H152.401V162.036Z" fill="#F3F4FE"/>
<path d="M152.401 169.58H155.344V173.99H152.401V169.58Z" fill="#F3F4FE"/>
<path d="M157.467 169.58H160.409V173.99H157.467V169.58Z" fill="#F3F4FE"/>
<path d="M152.401 178.166H160.407V182.576H152.401V178.166Z" fill="#F3F4FE"/>
<path d="M152.401 185.71H155.344V190.12H152.401V185.71Z" fill="#F3F4FE"/>
<path d="M157.467 185.71H160.409V190.12H157.467V185.71Z" fill="#F3F4FE"/>
<path d="M16.5906 205.65H29.52C30.6329 205.65 31.5352 204.764 31.5352 203.67V203.668C31.5352 202.574 30.6329 201.688 29.52 201.688H16.5906C15.4777 201.688 14.5754 202.574 14.5754 203.668V203.67C14.5754 204.764 15.4777 205.65 16.5906 205.65Z" fill="#7986BF"/>
<path d="M35.1923 205.65H216.638C217.751 205.65 218.653 204.764 218.653 203.67V203.668C218.653 202.574 217.751 201.688 216.638 201.688H35.1923C34.0793 201.688 33.1771 202.574 33.1771 203.668V203.67C33.1771 204.764 34.0793 205.65 35.1923 205.65Z" fill="#7986BF"/>
<path d="M166.896 201.636C170.129 201.636 172.751 199.06 172.751 195.883C172.751 192.705 170.129 190.13 166.896 190.13C163.662 190.13 161.04 192.705 161.04 195.883C161.04 199.06 163.662 201.636 166.896 201.636Z" fill="#FF9F29"/>
<path d="M166.895 200.457C166.722 200.476 166.547 200.486 166.373 200.486C165.148 200.46 163.983 199.963 163.127 199.103C162.271 198.243 161.791 197.087 161.791 195.884C161.791 194.681 162.271 193.525 163.127 192.665C163.983 191.805 165.148 191.308 166.373 191.281C166.547 191.282 166.722 191.292 166.895 191.311C165.749 191.436 164.691 191.971 163.922 192.815C163.154 193.659 162.729 194.751 162.729 195.884C162.729 197.016 163.154 198.109 163.922 198.953C164.691 199.796 165.749 200.332 166.895 200.457Z" fill="#FFD42C"/>
<path d="M167.035 190.755C167.208 190.734 167.383 190.724 167.557 190.724C170.143 190.724 172.24 193.034 172.24 195.885C172.24 198.736 170.143 201.044 167.557 201.044C167.383 201.044 167.208 201.033 167.035 201.013C169.376 200.727 171.196 198.538 171.196 195.885C171.196 193.232 169.376 191.041 167.035 190.755Z" fill="#F07927"/>
<path d="M166.895 198.839C168.557 198.839 169.904 197.516 169.904 195.883C169.904 194.25 168.557 192.926 166.895 192.926C165.233 192.926 163.886 194.25 163.886 195.883C163.886 197.516 165.233 198.839 166.895 198.839Z" fill="#F07927"/>
<path d="M166.896 197.37C167.732 197.37 168.409 196.704 168.409 195.883C168.409 195.061 167.732 194.396 166.896 194.396C166.06 194.396 165.382 195.061 165.382 195.883C165.382 196.704 166.06 197.37 166.896 197.37Z" fill="#FFD42C"/>
<path d="M80.6055 201.636C83.8394 201.636 86.4611 199.06 86.4611 195.883C86.4611 192.705 83.8394 190.13 80.6055 190.13C77.3716 190.13 74.75 192.705 74.75 195.883C74.75 199.06 77.3716 201.636 80.6055 201.636Z" fill="#FF9F29"/>
<path d="M80.6084 200.457C80.4358 200.476 80.2623 200.486 80.0886 200.486C78.8642 200.46 77.6991 199.963 76.8427 199.103C75.9864 198.243 75.5068 197.087 75.5068 195.884C75.5068 194.681 75.9864 193.525 76.8427 192.665C77.6991 191.805 78.8642 191.308 80.0886 191.281C80.2623 191.282 80.4358 191.292 80.6084 191.311C79.463 191.436 78.4047 191.971 77.636 192.815C76.8674 193.659 76.4424 194.751 76.4424 195.884C76.4424 197.016 76.8674 198.109 77.636 198.953C78.4047 199.796 79.463 200.332 80.6084 200.457Z" fill="#FFD42C"/>
<path d="M80.748 190.755C80.9205 190.734 81.0941 190.724 81.2679 190.724C83.8556 190.724 85.9509 193.034 85.9509 195.885C85.9509 198.736 83.8556 201.044 81.2679 201.044C81.0941 201.044 80.9205 201.034 80.748 201.013C83.0884 200.727 84.909 198.538 84.909 195.885C84.909 193.232 83.0884 191.041 80.748 190.755Z" fill="#F07927"/>
<path d="M80.6057 198.839C82.2676 198.839 83.6148 197.516 83.6148 195.883C83.6148 194.25 82.2676 192.926 80.6057 192.926C78.9439 192.926 77.5967 194.25 77.5967 195.883C77.5967 197.516 78.9439 198.839 80.6057 198.839Z" fill="#F07927"/>
<path d="M80.6055 197.37C81.4415 197.37 82.1192 196.704 82.1192 195.883C82.1192 195.061 81.4415 194.396 80.6055 194.396C79.7695 194.396 79.0918 195.061 79.0918 195.883C79.0918 196.704 79.7695 197.37 80.6055 197.37Z" fill="#FFD42C"/>
<path d="M114.024 138.307C113.214 140.677 111.479 142.633 109.2 143.746C106.922 144.858 104.287 145.036 101.876 144.24L53.8885 128.4L59.9977 110.533L107.985 126.373C110.396 127.169 112.387 128.873 113.519 131.111C114.652 133.349 114.833 135.938 114.024 138.307Z" fill="#A3142C"/>
<path d="M117.037 99.8057L133.218 110.233L113.05 140.445C112.354 141.49 111.455 142.389 110.404 143.093C109.354 143.796 108.172 144.289 106.928 144.544C105.684 144.798 104.4 144.809 103.151 144.576C101.903 144.343 100.713 143.871 99.6498 143.186C97.5041 141.803 96.0053 139.64 95.4832 137.171C94.9611 134.703 95.4584 132.131 96.8657 130.023L117.037 99.8057Z" fill="#A3142C"/>
<path d="M59.4258 112.203L54.4601 126.725L48.4579 124.744L53.4236 110.222L59.4258 112.203Z" fill="#EA8681"/>
<path d="M101.121 136.024C100.559 136.024 99.9983 135.974 99.4452 135.875C99.4028 135.868 99.3623 135.852 99.326 135.83C99.2897 135.807 99.2583 135.777 99.2337 135.743C99.1838 135.673 99.1644 135.586 99.1796 135.502C99.1947 135.418 99.2433 135.343 99.3146 135.294C99.3859 135.245 99.4741 135.226 99.5597 135.241C100.391 135.387 101.239 135.416 102.079 135.326C102.122 135.322 102.165 135.325 102.206 135.337C102.248 135.349 102.286 135.368 102.32 135.395C102.354 135.421 102.382 135.454 102.403 135.491C102.424 135.528 102.437 135.569 102.442 135.611C102.446 135.653 102.443 135.696 102.431 135.736C102.419 135.777 102.399 135.815 102.372 135.848C102.345 135.881 102.312 135.909 102.274 135.929C102.236 135.95 102.195 135.963 102.152 135.968C101.81 136.004 101.466 136.023 101.121 136.024ZM104.657 135.326C104.592 135.326 104.528 135.307 104.474 135.271C104.42 135.236 104.378 135.185 104.353 135.126C104.336 135.087 104.328 135.045 104.327 135.003C104.327 134.961 104.336 134.919 104.352 134.88C104.369 134.841 104.393 134.805 104.423 134.775C104.453 134.745 104.489 134.722 104.529 134.705C105.31 134.385 106.041 133.956 106.698 133.432C106.766 133.385 106.85 133.365 106.932 133.377C107.015 133.388 107.09 133.43 107.142 133.494C107.194 133.557 107.22 133.638 107.215 133.719C107.209 133.801 107.173 133.877 107.112 133.934C106.406 134.496 105.622 134.956 104.783 135.299C104.742 135.317 104.698 135.327 104.653 135.326H104.657ZM96.988 135.14C96.9513 135.14 96.9148 135.134 96.8804 135.122L94.3957 134.278C94.3549 134.264 94.3172 134.242 94.285 134.214C94.2527 134.186 94.2264 134.151 94.2077 134.113C94.189 134.075 94.1781 134.033 94.1758 133.991C94.1735 133.948 94.1798 133.906 94.1942 133.866C94.2081 133.826 94.23 133.789 94.2585 133.757C94.287 133.726 94.3217 133.7 94.3605 133.681C94.3993 133.663 94.4414 133.652 94.4844 133.65C94.5274 133.648 94.5704 133.654 94.611 133.668L97.0957 134.512C97.1676 134.538 97.2281 134.588 97.2665 134.653C97.305 134.719 97.319 134.795 97.3063 134.869C97.2935 134.944 97.2548 135.011 97.1967 135.061C97.1386 135.11 97.0648 135.138 96.988 135.14ZM92.021 133.45C91.9844 133.449 91.9481 133.443 91.9134 133.432L89.4287 132.586C89.388 132.572 89.3504 132.55 89.3182 132.522C89.2859 132.494 89.2597 132.46 89.2409 132.422C89.222 132.384 89.211 132.342 89.2085 132.3C89.206 132.258 89.2119 132.215 89.2261 132.175C89.2402 132.135 89.2622 132.098 89.2909 132.067C89.3195 132.035 89.3543 132.009 89.3931 131.991C89.4319 131.972 89.474 131.961 89.5171 131.959C89.5601 131.956 89.6032 131.962 89.644 131.976L92.1287 132.822C92.2006 132.848 92.2611 132.898 92.2995 132.964C92.338 133.029 92.352 133.105 92.3393 133.18C92.3265 133.254 92.2878 133.322 92.2297 133.371C92.1716 133.42 92.0978 133.448 92.021 133.45ZM108.681 132.113C108.621 132.114 108.562 132.098 108.51 132.067C108.459 132.037 108.417 131.993 108.389 131.941C108.361 131.889 108.348 131.83 108.352 131.771C108.356 131.712 108.376 131.655 108.411 131.607C108.583 131.361 108.742 131.105 108.887 130.842L109.691 129.393C109.711 129.356 109.739 129.323 109.773 129.296C109.806 129.27 109.845 129.25 109.886 129.238C109.927 129.226 109.971 129.222 110.014 129.226C110.057 129.231 110.098 129.243 110.136 129.264C110.174 129.284 110.207 129.311 110.235 129.344C110.262 129.377 110.282 129.415 110.294 129.456C110.306 129.496 110.31 129.539 110.306 129.581C110.301 129.623 110.288 129.664 110.268 129.701L109.466 131.15C109.308 131.434 109.136 131.711 108.953 131.974C108.923 132.017 108.882 132.052 108.834 132.076C108.787 132.101 108.734 132.113 108.681 132.113ZM87.0517 131.758C87.015 131.758 86.9786 131.752 86.9441 131.74L84.4617 130.896C84.3823 130.866 84.3179 130.806 84.2821 130.73C84.2463 130.654 84.2419 130.567 84.2697 130.488C84.2976 130.409 84.3555 130.344 84.4315 130.306C84.5074 130.267 84.5954 130.26 84.677 130.284L87.1593 131.13C87.2341 131.154 87.2976 131.203 87.3384 131.269C87.3791 131.335 87.3943 131.413 87.3813 131.49C87.3682 131.566 87.3278 131.635 87.2673 131.684C87.2068 131.733 87.1303 131.759 87.0517 131.758ZM82.0847 130.068C82.0496 130.067 82.0149 130.061 81.9817 130.05L79.497 129.204C79.4563 129.19 79.4187 129.168 79.3865 129.14C79.3542 129.112 79.3279 129.078 79.3091 129.04C79.2903 129.002 79.2793 128.96 79.2768 128.918C79.2742 128.876 79.2802 128.833 79.2943 128.793C79.3085 128.753 79.3305 128.716 79.3591 128.685C79.3878 128.653 79.4225 128.627 79.4613 128.609C79.5001 128.59 79.5423 128.58 79.5853 128.577C79.6284 128.575 79.6715 128.58 79.7123 128.594L82.1969 129.44C82.2689 129.466 82.3293 129.517 82.3678 129.582C82.4062 129.647 82.4203 129.724 82.4075 129.798C82.3948 129.872 82.356 129.94 82.2979 129.989C82.2398 130.039 82.166 130.066 82.0893 130.068H82.0847ZM77.1177 128.376C77.081 128.377 77.0445 128.371 77.0101 128.358L74.5254 127.514C74.446 127.484 74.3816 127.424 74.3458 127.348C74.31 127.272 74.3056 127.186 74.3334 127.107C74.3613 127.027 74.4192 126.962 74.4952 126.924C74.5711 126.886 74.6591 126.878 74.7407 126.902L77.2253 127.748C77.3075 127.777 77.3748 127.836 77.4125 127.913C77.4503 127.99 77.4554 128.079 77.4268 128.16C77.4045 128.223 77.3627 128.278 77.3073 128.316C77.252 128.355 77.1857 128.376 77.1177 128.376ZM111.239 127.602C111.182 127.602 111.125 127.587 111.076 127.559C111.026 127.531 110.985 127.491 110.956 127.443C110.927 127.395 110.911 127.34 110.91 127.284C110.909 127.227 110.923 127.172 110.95 127.123L112.21 124.855C112.251 124.78 112.322 124.724 112.405 124.699C112.489 124.675 112.579 124.685 112.655 124.725C112.732 124.766 112.788 124.835 112.813 124.917C112.838 124.999 112.828 125.088 112.787 125.163L111.523 127.433C111.494 127.484 111.453 127.526 111.403 127.556C111.352 127.585 111.295 127.601 111.236 127.602H111.239ZM72.1507 126.686C72.1141 126.686 72.0778 126.68 72.0431 126.668L69.5607 125.822C69.4784 125.795 69.4107 125.736 69.3725 125.659C69.3343 125.582 69.3286 125.494 69.3569 125.413C69.3851 125.332 69.4449 125.265 69.5231 125.228C69.6012 125.19 69.6914 125.185 69.7737 125.213L72.2583 126.059C72.333 126.082 72.3966 126.132 72.4373 126.198C72.4781 126.264 72.4933 126.342 72.4802 126.418C72.4672 126.494 72.4267 126.563 72.3662 126.612C72.3057 126.662 72.2292 126.688 72.1507 126.686ZM67.1837 124.994C67.147 124.995 67.1104 124.989 67.076 124.976L64.5914 124.133C64.5116 124.103 64.4468 124.044 64.4107 123.968C64.3746 123.892 64.3701 123.805 64.3981 123.726C64.4262 123.647 64.4846 123.581 64.5609 123.544C64.6372 123.506 64.7254 123.5 64.8067 123.525L67.2913 124.369C67.3633 124.395 67.4237 124.445 67.4622 124.51C67.5006 124.576 67.5147 124.652 67.5019 124.726C67.4892 124.801 67.4504 124.868 67.3923 124.918C67.3342 124.967 67.2604 124.995 67.1837 124.997V124.994ZM62.2144 123.3C62.1778 123.3 62.1414 123.294 62.1067 123.282L59.6221 122.436C59.5813 122.422 59.5438 122.4 59.5115 122.372C59.4793 122.344 59.453 122.31 59.4342 122.272C59.4154 122.234 59.4044 122.192 59.4019 122.15C59.3993 122.108 59.4053 122.065 59.4194 122.025C59.4336 121.985 59.4556 121.948 59.4842 121.917C59.5129 121.885 59.5476 121.859 59.5864 121.841C59.6252 121.822 59.6674 121.811 59.7104 121.809C59.7535 121.807 59.7966 121.812 59.8374 121.826L62.322 122.672C62.394 122.698 62.4544 122.749 62.4929 122.814C62.5313 122.879 62.5454 122.956 62.5326 123.03C62.5199 123.104 62.4811 123.172 62.423 123.221C62.3649 123.271 62.2911 123.298 62.2144 123.3ZM113.739 123.059C113.685 123.059 113.632 123.046 113.584 123.021C113.507 122.98 113.45 122.911 113.425 122.829C113.4 122.746 113.409 122.658 113.451 122.582L114.729 120.319C114.749 120.282 114.777 120.249 114.811 120.222C114.844 120.195 114.883 120.175 114.924 120.163C114.965 120.151 115.009 120.148 115.052 120.152C115.095 120.156 115.136 120.169 115.174 120.189C115.212 120.21 115.245 120.237 115.273 120.27C115.3 120.303 115.32 120.341 115.332 120.381C115.344 120.422 115.348 120.465 115.344 120.507C115.339 120.549 115.326 120.59 115.306 120.627L114.042 122.895C114.015 122.949 113.973 122.994 113.921 123.026C113.869 123.058 113.81 123.075 113.749 123.075L113.739 123.059ZM57.2497 121.613C57.213 121.613 57.1765 121.607 57.142 121.595L56.542 121.39C56.5013 121.376 56.4636 121.355 56.4313 121.327C56.3989 121.299 56.3725 121.265 56.3536 121.227C56.3347 121.189 56.3236 121.147 56.3209 121.105C56.3183 121.063 56.3242 121.02 56.3382 120.98C56.3668 120.899 56.427 120.833 56.5056 120.795C56.5842 120.757 56.6747 120.752 56.7573 120.78L57.3573 120.985C57.432 121.009 57.4955 121.058 57.5363 121.124C57.577 121.19 57.5923 121.268 57.5792 121.344C57.5662 121.42 57.5257 121.489 57.4652 121.539C57.4047 121.588 57.3282 121.614 57.2497 121.613ZM116.263 118.528C116.206 118.528 116.15 118.513 116.1 118.485C116.051 118.457 116.009 118.417 115.98 118.369C115.951 118.32 115.935 118.265 115.934 118.209C115.933 118.153 115.947 118.098 115.974 118.049L117.232 115.781C117.273 115.705 117.344 115.649 117.427 115.625C117.511 115.601 117.601 115.61 117.677 115.651C117.754 115.692 117.81 115.761 117.835 115.843C117.86 115.925 117.85 116.014 117.809 116.089L116.561 118.35C116.533 118.404 116.49 118.449 116.437 118.48C116.385 118.512 116.324 118.528 116.263 118.528ZM118.782 113.99C118.728 113.989 118.674 113.976 118.626 113.951C118.549 113.91 118.492 113.841 118.467 113.759C118.443 113.677 118.452 113.588 118.493 113.513L119.751 111.245C119.792 111.169 119.863 111.113 119.946 111.089C120.03 111.065 120.12 111.074 120.196 111.115C120.273 111.156 120.329 111.225 120.354 111.307C120.379 111.389 120.369 111.478 120.328 111.553L119.071 113.821C119.042 113.873 118.999 113.916 118.947 113.946C118.895 113.976 118.835 113.991 118.775 113.99H118.782ZM121.301 109.454C121.244 109.453 121.188 109.439 121.138 109.411C121.089 109.383 121.047 109.343 121.018 109.294C120.989 109.246 120.973 109.191 120.972 109.135C120.971 109.079 120.985 109.024 121.012 108.974L122.27 106.706C122.311 106.631 122.382 106.575 122.465 106.551C122.549 106.527 122.639 106.536 122.715 106.577C122.792 106.618 122.848 106.687 122.873 106.769C122.898 106.851 122.888 106.939 122.847 107.015L121.59 109.285C121.56 109.337 121.517 109.381 121.464 109.411C121.411 109.44 121.35 109.455 121.29 109.454H121.301ZM123.82 104.915C123.766 104.915 123.712 104.902 123.664 104.877C123.587 104.836 123.53 104.767 123.505 104.685C123.481 104.602 123.49 104.514 123.531 104.438L124.789 102.17C124.809 102.133 124.837 102.1 124.871 102.074C124.904 102.047 124.943 102.027 124.984 102.015C125.025 102.003 125.069 101.999 125.112 102.003C125.155 102.008 125.196 102.021 125.234 102.041C125.272 102.061 125.305 102.089 125.333 102.121C125.36 102.154 125.38 102.192 125.392 102.233C125.404 102.274 125.408 102.316 125.404 102.358C125.399 102.4 125.386 102.441 125.366 102.479L124.109 104.747C124.079 104.8 124.034 104.845 123.98 104.875C123.926 104.905 123.864 104.919 123.802 104.915H123.82Z" fill="#A877C5"/>
<path d="M126.796 104.889C122.074 102.43 116.218 104.197 113.715 108.835C111.213 113.474 113.011 119.228 117.732 121.687L141.673 134.158C146.394 136.617 152.25 134.85 154.753 130.211C157.256 125.573 155.458 119.819 150.737 117.36L126.796 104.889Z" fill="#A3142C"/>
<path d="M114.042 105.376L117.045 99.8097L139.908 111.719L136.905 117.285C135.297 120.264 132.551 122.493 129.271 123.483C125.991 124.473 122.445 124.141 119.413 122.562C116.381 120.983 114.112 118.285 113.105 115.062C112.097 111.839 112.434 108.355 114.042 105.376Z" fill="#A3142C"/>
<path d="M147.998 116.342C149.237 116.568 150.419 117.032 151.475 117.708C152.532 118.383 153.443 119.257 154.155 120.278C154.868 121.299 155.369 122.449 155.63 123.661C155.89 124.872 155.905 126.123 155.673 127.34L146.37 176.232L127.502 172.766L136.805 123.874C137.273 121.417 138.715 119.243 140.814 117.83C142.913 116.418 145.497 115.882 147.998 116.342Z" fill="#A3142C"/>
<path d="M129.546 172.093L144.854 174.855L143.736 180.835L128.428 178.073L129.546 172.093Z" fill="#EF948C"/>
<path d="M177.811 186.062H63.0023C60.9332 186.062 59.2559 187.71 59.2559 189.743C59.2559 191.775 60.9332 193.424 63.0023 193.424H177.811C179.881 193.424 181.558 191.775 181.558 189.743C181.558 187.71 179.881 186.062 177.811 186.062Z" fill="#FFB829"/>
<path d="M181.556 189.742C181.556 190.226 181.459 190.705 181.271 191.151C181.082 191.598 180.807 192.004 180.459 192.345C180.111 192.687 179.698 192.958 179.243 193.143C178.789 193.328 178.301 193.423 177.809 193.423H63.0003C62.0069 193.423 61.0543 193.035 60.3519 192.345C59.6494 191.654 59.2545 190.719 59.2539 189.742C59.254 189.474 59.2847 189.206 59.3455 188.944C59.5303 189.763 59.9944 190.495 60.6608 191.019C61.3272 191.543 62.1559 191.828 63.0095 191.826H177.809C178.663 191.828 179.492 191.543 180.158 191.018C180.824 190.494 181.288 189.762 181.473 188.944C181.53 189.206 181.558 189.474 181.556 189.742Z" fill="#FF9F29"/>
<path d="M124.416 103.833C124.372 103.834 124.328 103.825 124.288 103.808C124.208 103.774 124.144 103.71 124.112 103.631C124.079 103.551 124.08 103.462 124.114 103.383L124.631 102.197C124.646 102.155 124.669 102.116 124.7 102.083C124.73 102.05 124.768 102.024 124.809 102.006C124.851 101.988 124.896 101.978 124.941 101.978C124.986 101.977 125.031 101.986 125.073 102.004C125.115 102.021 125.152 102.047 125.184 102.08C125.215 102.112 125.239 102.151 125.254 102.193C125.269 102.235 125.275 102.28 125.272 102.324C125.269 102.369 125.257 102.412 125.236 102.452L124.718 103.637C124.693 103.696 124.651 103.745 124.597 103.78C124.544 103.815 124.48 103.834 124.416 103.833Z" fill="#A877C5"/>
<path d="M138.398 171.056C138.377 171.059 138.356 171.059 138.334 171.056C138.292 171.048 138.251 171.032 138.215 171.008C138.179 170.985 138.148 170.955 138.124 170.919C138.1 170.884 138.083 170.844 138.075 170.802C138.067 170.761 138.067 170.718 138.076 170.676L138.575 168.212C138.595 168.131 138.647 168.061 138.719 168.017C138.79 167.972 138.877 167.957 138.96 167.973C139.043 167.99 139.117 168.037 139.165 168.106C139.214 168.174 139.234 168.258 139.221 168.34L138.719 170.802C138.704 170.874 138.663 170.939 138.605 170.985C138.547 171.032 138.474 171.057 138.398 171.056ZM139.399 166.129C139.378 166.131 139.356 166.131 139.335 166.129C139.293 166.121 139.252 166.105 139.216 166.082C139.18 166.058 139.149 166.028 139.125 165.993C139.101 165.958 139.084 165.918 139.076 165.877C139.068 165.835 139.068 165.792 139.076 165.751L139.578 163.287C139.586 163.245 139.602 163.206 139.626 163.17C139.65 163.135 139.68 163.104 139.716 163.081C139.752 163.057 139.792 163.041 139.834 163.032C139.877 163.024 139.92 163.024 139.963 163.033C140.048 163.05 140.123 163.099 140.172 163.17C140.22 163.242 140.238 163.329 140.221 163.413L139.72 165.888C139.702 165.958 139.66 166.019 139.602 166.063C139.544 166.107 139.472 166.13 139.399 166.129ZM140.4 161.201C140.379 161.203 140.357 161.203 140.336 161.201C140.25 161.184 140.175 161.135 140.126 161.064C140.078 160.992 140.06 160.905 140.077 160.821L140.579 158.346C140.596 158.262 140.646 158.188 140.718 158.141C140.791 158.093 140.879 158.076 140.964 158.093C141.05 158.11 141.125 158.159 141.173 158.23C141.221 158.301 141.239 158.388 141.222 158.472L140.721 160.942C140.706 161.016 140.666 161.081 140.608 161.129C140.549 161.176 140.476 161.202 140.4 161.201ZM141.401 156.276C141.379 156.278 141.358 156.278 141.337 156.276C141.251 156.259 141.176 156.21 141.127 156.138C141.079 156.067 141.061 155.98 141.078 155.896L141.579 153.421C141.597 153.337 141.647 153.263 141.72 153.216C141.792 153.169 141.881 153.152 141.966 153.169C142.052 153.186 142.127 153.235 142.175 153.307C142.223 153.378 142.24 153.465 142.223 153.549L141.724 156.01C141.71 156.085 141.67 156.152 141.611 156.2C141.552 156.249 141.478 156.276 141.401 156.276ZM142.401 151.348C142.38 151.351 142.359 151.351 142.337 151.348C142.295 151.34 142.255 151.324 142.219 151.301C142.183 151.277 142.152 151.247 142.128 151.212C142.104 151.177 142.087 151.138 142.079 151.096C142.07 151.055 142.07 151.012 142.079 150.97L142.58 148.495C142.588 148.454 142.605 148.414 142.629 148.379C142.653 148.344 142.684 148.314 142.72 148.29C142.755 148.267 142.796 148.251 142.838 148.242C142.88 148.234 142.924 148.234 142.966 148.242C143.008 148.251 143.048 148.267 143.084 148.291C143.12 148.314 143.151 148.344 143.175 148.379C143.199 148.415 143.215 148.454 143.224 148.496C143.232 148.537 143.232 148.58 143.224 148.621L142.724 151.096C142.708 151.168 142.667 151.232 142.608 151.278C142.549 151.324 142.476 151.349 142.401 151.348ZM143.402 146.421C143.381 146.423 143.359 146.423 143.338 146.421C143.252 146.404 143.177 146.355 143.129 146.283C143.08 146.212 143.062 146.125 143.079 146.041L143.583 143.572C143.6 143.489 143.65 143.415 143.723 143.367C143.795 143.32 143.884 143.303 143.969 143.319C144.054 143.336 144.129 143.385 144.178 143.457C144.226 143.528 144.244 143.615 144.227 143.698L143.727 146.173C143.71 146.245 143.668 146.308 143.609 146.353C143.55 146.398 143.477 146.422 143.402 146.421ZM144.403 141.496C144.382 141.498 144.36 141.498 144.339 141.496C144.253 141.479 144.178 141.429 144.129 141.358C144.081 141.287 144.063 141.2 144.08 141.115L144.581 138.652C144.599 138.568 144.649 138.494 144.722 138.447C144.794 138.4 144.883 138.383 144.968 138.4C145.054 138.417 145.129 138.466 145.177 138.538C145.225 138.609 145.242 138.696 145.225 138.78L144.728 141.235C144.713 141.309 144.673 141.375 144.613 141.423C144.554 141.47 144.479 141.496 144.403 141.496ZM145.415 136.575H145.351C145.265 136.558 145.19 136.509 145.142 136.437C145.093 136.366 145.075 136.279 145.092 136.195L145.594 133.733C145.602 133.692 145.619 133.652 145.643 133.617C145.667 133.582 145.697 133.552 145.733 133.528C145.769 133.505 145.809 133.488 145.852 133.48C145.894 133.472 145.937 133.472 145.98 133.48C146.022 133.488 146.062 133.505 146.098 133.528C146.134 133.552 146.164 133.582 146.188 133.617C146.212 133.652 146.229 133.692 146.237 133.733C146.246 133.775 146.246 133.818 146.237 133.859L145.738 136.334C145.719 136.404 145.677 136.465 145.619 136.509C145.56 136.553 145.488 136.576 145.415 136.575ZM146.194 131.625C146.108 131.624 146.026 131.591 145.964 131.533C145.903 131.474 145.867 131.394 145.864 131.31C145.835 130.498 145.684 129.694 145.415 128.925C145.388 128.844 145.394 128.755 145.433 128.679C145.472 128.603 145.541 128.545 145.623 128.518C145.706 128.491 145.796 128.497 145.874 128.536C145.952 128.574 146.011 128.641 146.038 128.722C146.318 129.548 146.472 130.409 146.496 131.278C146.497 131.321 146.49 131.363 146.475 131.403C146.46 131.442 146.437 131.479 146.407 131.509C146.378 131.54 146.342 131.565 146.303 131.582C146.263 131.599 146.221 131.608 146.178 131.609L146.194 131.625ZM144.591 126.925C144.538 126.925 144.485 126.913 144.438 126.889C144.391 126.865 144.351 126.83 144.32 126.787C143.848 126.127 143.28 125.538 142.635 125.039C142.574 124.984 142.537 124.908 142.53 124.827C142.523 124.746 142.548 124.665 142.599 124.601C142.65 124.537 142.724 124.494 142.806 124.481C142.887 124.468 142.971 124.486 143.04 124.531C143.737 125.069 144.349 125.704 144.859 126.416C144.908 126.486 144.928 126.573 144.913 126.657C144.898 126.742 144.85 126.817 144.778 126.866C144.723 126.901 144.657 126.919 144.591 126.916V126.925ZM140.64 123.833C140.589 123.834 140.539 123.822 140.494 123.799L138.204 122.674C138.162 122.658 138.123 122.633 138.092 122.601C138.06 122.569 138.035 122.531 138.019 122.489C138.003 122.447 137.996 122.403 137.998 122.358C138 122.313 138.012 122.27 138.032 122.23C138.052 122.19 138.081 122.154 138.116 122.125C138.151 122.097 138.191 122.076 138.235 122.063C138.278 122.05 138.324 122.047 138.369 122.053C138.415 122.058 138.458 122.073 138.497 122.096L140.787 123.221C140.854 123.253 140.909 123.306 140.941 123.372C140.973 123.439 140.982 123.514 140.964 123.585C140.947 123.657 140.906 123.72 140.847 123.765C140.788 123.81 140.715 123.834 140.64 123.833ZM136.06 121.583C136.009 121.584 135.959 121.572 135.914 121.549L133.624 120.424C133.582 120.408 133.543 120.383 133.512 120.351C133.48 120.319 133.455 120.281 133.439 120.239C133.423 120.197 133.416 120.153 133.418 120.108C133.42 120.063 133.432 120.02 133.452 119.98C133.472 119.94 133.501 119.904 133.536 119.875C133.571 119.847 133.611 119.826 133.655 119.813C133.698 119.8 133.744 119.797 133.789 119.803C133.835 119.808 133.878 119.823 133.917 119.846L136.207 120.971C136.274 121.003 136.329 121.056 136.361 121.122C136.393 121.189 136.402 121.264 136.384 121.335C136.367 121.407 136.326 121.47 136.267 121.515C136.208 121.56 136.135 121.584 136.06 121.583ZM131.48 119.347C131.429 119.347 131.379 119.334 131.334 119.311L129.044 118.186C129.002 118.169 128.963 118.144 128.932 118.112C128.9 118.08 128.875 118.042 128.859 118C128.843 117.958 128.836 117.914 128.838 117.869C128.84 117.825 128.852 117.781 128.872 117.741C128.892 117.701 128.921 117.665 128.956 117.637C128.991 117.608 129.031 117.587 129.075 117.574C129.118 117.562 129.164 117.558 129.209 117.564C129.255 117.57 129.298 117.584 129.337 117.607L131.627 118.732C131.666 118.751 131.7 118.777 131.729 118.809C131.757 118.841 131.779 118.878 131.793 118.918C131.807 118.958 131.812 119.001 131.809 119.043C131.806 119.085 131.795 119.127 131.776 119.164C131.749 119.219 131.708 119.264 131.657 119.297C131.605 119.329 131.546 119.347 131.485 119.349L131.48 119.347ZM126.914 117.085C126.855 117.086 126.797 117.07 126.747 117.04C125.982 116.597 125.288 116.046 124.686 115.405C124.63 115.341 124.601 115.259 124.605 115.176C124.608 115.092 124.645 115.013 124.707 114.955C124.77 114.899 124.854 114.869 124.94 114.873C125.025 114.877 125.106 114.913 125.165 114.975C125.719 115.57 126.36 116.081 127.068 116.491C127.129 116.528 127.176 116.583 127.203 116.649C127.229 116.715 127.233 116.787 127.214 116.855C127.195 116.923 127.154 116.983 127.097 117.026C127.04 117.068 126.97 117.092 126.898 117.092L126.914 117.085ZM123.509 113.438C123.447 113.438 123.386 113.421 123.333 113.389C123.281 113.357 123.238 113.311 123.211 113.256C122.827 112.473 122.559 111.639 122.417 110.781C122.407 110.698 122.43 110.615 122.481 110.548C122.532 110.482 122.608 110.437 122.691 110.424C122.775 110.411 122.861 110.43 122.931 110.477C123.001 110.524 123.05 110.596 123.067 110.677C123.197 111.475 123.445 112.25 123.804 112.977C123.84 113.052 123.845 113.138 123.818 113.217C123.791 113.295 123.735 113.361 123.66 113.4C123.615 113.425 123.565 113.439 123.513 113.44L123.509 113.438ZM122.705 108.547H122.662C122.619 108.541 122.578 108.527 122.54 108.506C122.503 108.485 122.47 108.457 122.444 108.423C122.418 108.389 122.399 108.351 122.388 108.31C122.377 108.269 122.374 108.226 122.38 108.184C122.489 107.377 122.71 106.588 123.037 105.84L123.101 105.691C123.136 105.613 123.202 105.552 123.283 105.52C123.363 105.489 123.454 105.489 123.534 105.523C123.574 105.539 123.609 105.564 123.64 105.594C123.67 105.624 123.693 105.66 123.709 105.699C123.725 105.739 123.733 105.781 123.733 105.823C123.732 105.865 123.723 105.907 123.706 105.946L123.642 106.094C123.338 106.789 123.132 107.521 123.03 108.27C123.02 108.347 122.982 108.417 122.923 108.469C122.864 108.52 122.788 108.549 122.71 108.549L122.705 108.547Z" fill="#A877C5"/>
<path d="M137.629 174.796C137.608 174.798 137.586 174.798 137.565 174.796C137.479 174.779 137.404 174.73 137.355 174.658C137.307 174.587 137.289 174.5 137.306 174.416L137.562 173.151C137.584 173.071 137.635 173.002 137.706 172.958C137.778 172.914 137.863 172.899 137.946 172.915C138.028 172.931 138.101 172.977 138.15 173.045C138.199 173.112 138.22 173.195 138.208 173.277L137.952 174.544C137.935 174.616 137.894 174.68 137.835 174.726C137.777 174.771 137.704 174.796 137.629 174.796Z" fill="#A877C5"/>
<path d="M149.626 183.537H135.279C135.282 182.955 135.359 182.376 135.508 181.814C135.762 180.827 136.23 179.906 136.881 179.115C137.531 178.323 138.348 177.678 139.275 177.226C140.369 176.693 141.583 176.443 142.802 176.5C144.021 176.556 145.206 176.918 146.243 177.55C147.281 178.181 148.137 179.063 148.731 180.111C149.325 181.158 149.637 182.338 149.638 183.537H149.626Z" fill="#FFE7E9"/>
<path d="M143.88 179.37H144.231C145.79 179.37 147.285 179.979 148.387 181.062C149.49 182.145 150.109 183.614 150.109 185.146C150.109 185.217 150.08 185.286 150.029 185.337C149.977 185.387 149.907 185.416 149.834 185.416H138.277C138.241 185.416 138.205 185.409 138.172 185.395C138.138 185.382 138.108 185.362 138.082 185.337C138.057 185.312 138.037 185.282 138.023 185.249C138.009 185.216 138.002 185.181 138.002 185.146C138.002 183.614 138.621 182.145 139.724 181.062C140.826 179.979 142.321 179.37 143.88 179.37Z" fill="#A3142C"/>
<path d="M149.626 180.785L143.583 181.235L135.497 181.825C135.751 180.838 136.22 179.918 136.87 179.126C137.52 178.334 138.337 177.69 139.264 177.237L128.822 175.318L126.882 183.791C126.82 184.065 126.821 184.349 126.885 184.622C126.949 184.895 127.075 185.151 127.253 185.37C127.432 185.589 127.658 185.766 127.915 185.888C128.172 186.009 128.454 186.072 128.739 186.073H149.718C150.088 186.057 150.437 185.898 150.688 185.63C150.939 185.362 151.072 185.008 151.058 184.644V182.209C151.066 182.022 151.035 181.834 150.967 181.659C150.898 181.483 150.793 181.324 150.659 181.19C150.524 181.056 150.363 180.951 150.186 180.882C150.008 180.812 149.818 180.779 149.626 180.785Z" fill="#A3142C"/>
<path d="M132.888 182.351C132.802 182.626 132.645 182.875 132.432 183.073C132.22 183.272 131.96 183.414 131.676 183.486C131.392 183.558 131.094 183.558 130.811 183.485C130.527 183.412 130.267 183.269 130.056 183.07C129.844 182.87 129.688 182.621 129.602 182.346C129.516 182.071 129.503 181.778 129.564 181.497C129.626 181.215 129.759 180.954 129.952 180.737C130.145 180.52 130.391 180.356 130.667 180.259C130.652 180.305 130.639 180.351 130.628 180.398C130.578 180.616 130.572 180.841 130.611 181.061C130.649 181.281 130.732 181.491 130.854 181.679C130.976 181.867 131.134 182.03 131.32 182.158C131.506 182.285 131.716 182.376 131.938 182.423C132.255 182.49 132.585 182.465 132.888 182.351Z" fill="#A3142C"/>
<path d="M132.504 183.535C132.309 183.775 132.063 183.972 131.784 184.11C131.504 184.248 131.198 184.325 130.885 184.335C130.572 184.345 130.261 184.288 129.973 184.168C129.685 184.048 129.427 183.868 129.217 183.641C129.006 183.413 128.849 183.143 128.756 182.85C128.662 182.556 128.635 182.246 128.675 181.941C128.716 181.637 128.824 181.344 128.991 181.084C129.158 180.824 129.381 180.603 129.643 180.437C129.325 180.83 129.16 181.322 129.177 181.824C129.193 182.326 129.391 182.806 129.735 183.179C130.078 183.551 130.545 183.791 131.053 183.856C131.56 183.922 132.074 183.808 132.504 183.535Z" fill="#A3142C"/>
<path d="M131.996 182.111C132.489 182.111 132.889 181.718 132.889 181.233C132.889 180.748 132.489 180.356 131.996 180.356C131.502 180.356 131.103 180.748 131.103 181.233C131.103 181.718 131.502 182.111 131.996 182.111Z" fill="#A3142C"/>
<path d="M42.4268 128.909L45.619 115.166C47.4455 115.609 49.0221 116.738 50.0091 118.312C50.9961 119.886 51.3146 121.777 50.8961 123.579C50.4775 125.381 49.3553 126.949 47.7712 127.946C46.1871 128.943 44.2678 129.289 42.4268 128.909Z" fill="#FFE7E9"/>
<path d="M47.8411 124.338L47.7631 124.673C47.4161 126.167 46.4795 127.463 45.1593 128.278C43.8392 129.093 42.2437 129.36 40.7237 129.019C40.6527 129.003 40.591 128.96 40.5522 128.899C40.5134 128.838 40.5008 128.765 40.517 128.695L43.0894 117.624C43.1056 117.555 43.1494 117.494 43.2111 117.456C43.2728 117.418 43.3474 117.405 43.4184 117.421C44.9384 117.762 46.2582 118.682 47.0876 119.98C47.917 121.277 48.1881 122.844 47.8411 124.338Z" fill="#4F1F68"/>
<path d="M45.1566 129.521L46.0726 123.638L47.2886 115.763C48.2109 116.226 49.0204 116.879 49.6616 117.678C50.3027 118.478 50.7603 119.404 51.0029 120.393L55.2326 110.819L47.2565 107.075C46.9989 106.954 46.7169 106.892 46.4313 106.892C46.1457 106.893 45.864 106.956 45.6068 107.078C45.3497 107.2 45.1239 107.378 44.946 107.597C44.7682 107.817 44.6429 108.073 44.5795 108.347L39.9102 128.441C39.8426 128.799 39.9224 129.168 40.1319 129.468C40.3415 129.768 40.6637 129.974 41.0277 130.041L43.4322 130.581C43.6165 130.63 43.8091 130.641 43.9979 130.613C44.1867 130.586 44.3677 130.52 44.5296 130.421C44.6914 130.321 44.8306 130.19 44.9385 130.035C45.0464 129.88 45.1206 129.706 45.1566 129.521Z" fill="#A3142C"/>
<path d="M47.3305 113.141C47.0771 112.997 46.8655 112.791 46.7158 112.543C46.5661 112.296 46.4833 112.015 46.4753 111.727C46.4672 111.439 46.5341 111.154 46.6697 110.899C46.8053 110.643 47.005 110.426 47.2499 110.268C47.4948 110.11 47.7768 110.016 48.0691 109.995C48.3614 109.974 48.6543 110.027 48.92 110.148C49.1857 110.27 49.4154 110.456 49.5873 110.689C49.7592 110.922 49.8676 111.195 49.9022 111.481C49.8601 111.455 49.8166 111.432 49.7716 111.411C49.5674 111.316 49.346 111.261 49.1202 111.251C48.8944 111.24 48.6687 111.273 48.456 111.348C48.2432 111.423 48.0476 111.538 47.8804 111.688C47.7132 111.837 47.5777 112.018 47.4816 112.219C47.3427 112.506 47.2902 112.826 47.3305 113.141Z" fill="#4F1F68"/>
<path d="M46.2401 112.511C46.0456 112.271 45.9064 111.992 45.8322 111.694C45.758 111.396 45.7506 111.086 45.8105 110.785C45.8704 110.483 45.9962 110.199 46.1791 109.95C46.362 109.701 46.5977 109.494 46.8699 109.344C47.1422 109.193 47.4444 109.103 47.7558 109.078C48.0671 109.054 48.3802 109.096 48.6733 109.202C48.9664 109.308 49.2325 109.476 49.4534 109.693C49.6742 109.91 49.8444 110.171 49.9522 110.459C49.7858 110.253 49.5815 110.08 49.35 109.949C48.9662 109.731 48.5235 109.634 48.0819 109.672C47.6403 109.71 47.2212 109.88 46.8816 110.16C46.542 110.44 46.2983 110.816 46.1835 111.236C46.0688 111.657 46.0885 112.102 46.2401 112.511Z" fill="#4F1F68"/>
<path d="M48.6382 113.414C49.1315 113.414 49.5313 113.021 49.5313 112.536C49.5313 112.051 49.1315 111.659 48.6382 111.659C48.145 111.659 47.7451 112.051 47.7451 112.536C47.7451 113.021 48.145 113.414 48.6382 113.414Z" fill="#4F1F68"/>
<path d="M159.724 50.879L163.914 52.0344L161.871 59.1831C161.571 60.2351 160.857 61.1266 159.887 61.6617C158.918 62.1967 157.772 62.3314 156.701 62.0361L152.512 60.8808L154.554 53.7321C154.855 52.6801 155.568 51.7885 156.538 51.2535C157.508 50.7184 158.654 50.5837 159.724 50.879Z" fill="#54233A"/>
<path d="M160.579 103.106C162.418 105.256 165.682 105.535 167.87 103.728C170.057 101.922 170.34 98.7149 168.502 96.5648L152.196 77.4992C150.357 75.3491 147.093 75.0704 144.905 76.8767C142.717 78.683 142.435 81.8903 144.273 84.0403L160.579 103.106Z" fill="#EF948C"/>
<path d="M168.659 102.931C168.429 103.228 168.166 103.499 167.876 103.738C166.825 104.606 165.466 105.028 164.099 104.912C162.732 104.795 161.467 104.15 160.584 103.117L144.27 84.051C143.649 83.3242 143.246 82.441 143.109 81.5012C142.972 80.5615 143.105 79.6027 143.494 78.7336C143.883 77.8644 144.511 77.1195 145.308 76.5832C146.106 76.0469 147.04 75.7406 148.005 75.699C147.291 76.6175 146.917 77.7477 146.944 78.9032C146.972 80.0587 147.399 81.1705 148.156 82.0552L164.464 101.124C164.949 101.692 165.556 102.149 166.241 102.462C166.926 102.775 167.672 102.937 168.427 102.935L168.659 102.931Z" fill="#EA8681"/>
<path d="M160.554 96.5629C158.709 98.7073 158.981 101.915 161.163 103.728C163.345 105.541 166.61 105.273 168.456 103.128L184.822 84.1133C186.668 81.9689 186.395 78.7608 184.213 76.9477C182.031 75.1347 178.766 75.4033 176.921 77.5477L160.554 96.5629Z" fill="#EF948C"/>
<path d="M148.31 90.3128C153.208 90.3128 157.179 86.4113 157.179 81.5985C157.179 76.7858 153.208 72.8843 148.31 72.8843C143.411 72.8843 139.44 76.7858 139.44 81.5985C139.44 86.4113 143.411 90.3128 148.31 90.3128Z" fill="#FFD9D9"/>
<path d="M152.743 87.939L139.919 111.715L117.042 99.8055L122.263 90.1305L129.871 76.0298C131.478 73.0496 134.224 70.819 137.506 69.8284C140.787 68.8379 144.334 69.1686 147.367 70.7479C150.4 72.3271 152.671 75.0256 153.679 78.2495C154.687 81.4735 154.35 84.9589 152.743 87.939Z" fill="white"/>
<path d="M153.096 68.6407L150.817 72.8617L150.029 74.322C149.786 74.7949 149.449 75.2153 149.038 75.5587C148.627 75.9021 148.151 76.1617 147.637 76.3221C147.123 76.4826 146.582 76.5407 146.044 76.4932C145.507 76.4457 144.985 76.2934 144.509 76.0453C144.032 75.7972 143.611 75.4582 143.269 75.0482C142.927 74.6382 142.672 74.1653 142.519 73.6573C142.365 73.1493 142.316 72.6164 142.375 72.0896C142.433 71.5628 142.598 71.0527 142.859 70.5892L143.063 70.2112L145.923 64.9057C146.166 64.4564 146.496 64.0585 146.895 63.7346C147.294 63.4107 147.754 63.1672 148.249 63.018C148.744 62.8688 149.264 62.8169 149.779 62.8651C150.294 62.9134 150.795 63.0609 151.252 63.2992L151.458 63.4027C152.382 63.8844 153.073 64.7067 153.38 65.6888C153.687 66.671 153.585 67.7327 153.096 68.6407Z" fill="#EF948C"/>
<path d="M153.096 68.6407L150.817 72.8617C148.098 72.419 145.475 71.5225 143.063 70.2112L145.924 64.9057C146.166 64.4564 146.496 64.0585 146.895 63.7346C147.295 63.4107 147.755 63.1672 148.249 63.018C148.744 62.8688 149.264 62.8169 149.779 62.8651C150.295 62.9134 150.795 63.0609 151.253 63.2992L151.459 63.4027C152.382 63.8844 153.074 64.7067 153.381 65.6888C153.688 66.671 153.585 67.7327 153.096 68.6407Z" fill="#EA8681"/>
<path d="M162.146 53.775C162.139 53.9422 162.123 54.1089 162.098 54.2745C162.075 54.4365 162.045 54.5985 162.011 54.7627L161.924 55.1835L161.837 55.5817L161.766 55.9147L159.778 65.2072C159.748 65.349 159.714 65.4907 159.675 65.6302C159.173 67.4452 157.983 69.0027 156.35 69.9841C154.717 70.9654 152.764 71.2962 150.891 70.9087L147.792 70.2697C145.687 69.8308 143.802 68.6858 142.461 67.0311C141.12 65.3763 140.407 63.3148 140.444 61.2C140.444 61.1325 140.444 61.0672 140.444 61.002C140.466 60.5005 140.529 60.0016 140.634 59.5102L140.767 58.8892L140.78 58.8285L142.216 52.11L142.301 51.7207L142.404 51.2437L142.496 50.805L142.557 50.5102L142.809 49.3402L142.97 48.5865L143.036 48.2782L143.137 47.808C143.33 46.9088 143.853 46.1111 144.608 45.5676C145.362 45.0242 146.294 44.7732 147.224 44.8627C147.362 44.8754 147.499 44.8957 147.634 44.9235L156.723 46.8C157.128 46.8823 157.523 47.0013 157.905 47.1555C158.79 47.5108 159.589 48.0447 160.251 48.7225C160.913 49.4004 161.423 50.2072 161.748 51.0907C161.814 51.2662 161.871 51.4462 161.922 51.6285C162.058 52.1235 162.135 52.6324 162.151 53.145C162.162 53.3542 162.16 53.5657 162.146 53.775Z" fill="#EF948C"/>
<path d="M132.227 87.0728C137.125 87.0728 141.096 83.1713 141.096 78.3585C141.096 73.5458 137.125 69.6443 132.227 69.6443C127.328 69.6443 123.357 73.5458 123.357 78.3585C123.357 83.1713 127.328 87.0728 132.227 87.0728Z" fill="#FFD9D9"/>
<path d="M131.79 84.3345C134.934 84.3345 137.483 81.8302 137.483 78.741C137.483 75.6518 134.934 73.1475 131.79 73.1475C128.645 73.1475 126.097 75.6518 126.097 78.741C126.097 81.8302 128.645 84.3345 131.79 84.3345Z" fill="#F7BCBC"/>
<path d="M87.7939 88.9755C85.1133 89.9503 83.7444 92.8751 84.7362 95.5083C85.7281 98.1415 88.7053 99.4859 91.3859 98.5111L132.912 83.4102C135.593 82.4354 136.962 79.5106 135.97 76.8774C134.978 74.2442 132.001 72.8998 129.32 73.8746L87.7939 88.9755Z" fill="#EF948C"/>
<path d="M77.1342 95.6429L77.1338 95.6452C76.9628 96.7106 77.7033 97.7105 78.7877 97.8785L84.9043 98.8261C85.9887 98.9941 87.0063 98.2665 87.1773 97.2011L87.1777 97.1988C87.3487 96.1334 86.6082 95.1335 85.5238 94.9655L79.4072 94.018C78.3228 93.85 77.3051 94.5775 77.1342 95.6429Z" fill="#EA8681"/>
<path d="M85.2232 86.883C82.4403 85.6924 79.2019 86.9438 77.9901 89.6782C76.7783 92.4125 78.0519 95.5944 80.8349 96.785L85.2441 98.6713C88.027 99.862 91.2654 98.6105 92.4772 95.8762C93.689 93.1418 92.4153 89.96 89.6324 88.7694L85.2232 86.883Z" fill="#EF948C"/>
<path d="M135.976 76.8802C135.5 75.6168 134.534 74.5905 133.288 74.0269C132.043 73.4632 130.621 73.4083 129.335 73.8742L89.0422 88.5239L85.2293 86.8904C84.2699 86.4802 83.2113 86.3475 82.1778 86.5081C81.1444 86.6686 80.179 87.1156 79.3952 87.7967C78.6114 88.4777 78.0418 89.3644 77.7532 90.3525C77.4646 91.3407 77.4691 92.3892 77.7662 93.3749C77.7291 92.5551 77.8858 91.738 78.2242 90.9877C78.8076 89.678 79.8958 88.649 81.2502 88.1264C82.6045 87.6038 84.1146 87.6303 85.4492 88.1999L87.5239 89.0887L89.2666 89.8312L90.6406 89.3362L129.552 75.1859C130.838 74.7211 132.259 74.776 133.504 75.3386C134.749 75.9012 135.716 76.9256 136.193 78.1874C136.227 78.2819 136.259 78.3787 136.289 78.4777C136.274 77.932 136.168 77.3925 135.976 76.8802Z" fill="#F3A6A0"/>
<path d="M73.0367 91.3151L73.0357 91.3172C72.5975 92.3061 73.0581 93.4569 74.0646 93.8875L84.2728 98.2548C85.2793 98.6855 86.4506 98.2329 86.8888 97.2439L86.8897 97.2419C87.328 96.2529 86.8674 95.1022 85.8609 94.6716L75.6527 90.3042C74.6461 89.8736 73.4749 90.3262 73.0367 91.3151Z" fill="#EF948C"/>
<path d="M89.1104 95.3917C89.5277 93.9994 88.3869 92.4427 86.5622 91.9147C84.7375 91.3867 82.92 92.0874 82.5027 93.4797C82.0854 94.8719 83.2263 96.4286 85.0509 96.9566C86.8756 97.4846 88.6931 96.784 89.1104 95.3917Z" fill="#F3A6A0"/>
<path d="M186.631 83.6127C189.314 83.0989 191.064 80.5457 190.542 77.91C190.019 75.2743 187.42 73.5541 184.737 74.0678L180.489 74.8814C177.807 75.3952 176.056 77.9484 176.579 80.5841C177.102 83.2199 179.7 84.9401 182.383 84.4263L186.631 83.6127Z" fill="#EF948C"/>
<path d="M191.948 76.2726C192.918 76.0866 193.552 75.1632 193.363 74.21C193.174 73.2568 192.234 72.6348 191.263 72.8208L181.427 74.7045C180.456 74.8904 179.822 75.8139 180.012 76.7671C180.201 77.7202 181.141 78.3422 182.112 78.1563L191.948 76.2726Z" fill="#EF948C"/>
<path d="M185.553 73.9025C186.265 73.2278 186.286 72.1142 185.599 71.4154C184.913 70.7166 183.78 70.6972 183.068 71.372L179.059 75.1733C178.347 75.8481 178.326 76.9616 179.013 77.6604C179.699 78.3592 180.832 78.3787 181.544 77.7039L185.553 73.9025Z" fill="#EA8681"/>
<path d="M181.098 81.2654C183.046 81.2654 184.624 79.7141 184.624 77.8004C184.624 75.8868 183.046 74.3354 181.098 74.3354C179.15 74.3354 177.571 75.8868 177.571 77.8004C177.571 79.7141 179.15 81.2654 181.098 81.2654Z" fill="#EA8681"/>
<path d="M145.373 47.9562L148.058 48.6969L146.373 54.5935C146.148 55.384 145.611 56.0541 144.883 56.4561C144.154 56.8582 143.293 56.9595 142.488 56.7375L139.803 55.9969L141.487 50.1025C141.598 49.7108 141.787 49.3445 142.043 49.0246C142.299 48.7047 142.616 48.4375 142.977 48.2382C143.338 48.0389 143.735 47.9114 144.146 47.863C144.557 47.8146 144.974 47.8463 145.373 47.9562Z" fill="#54233A"/>
<path d="M143.708 50.5105L145.789 51.0845L144.659 55.038C144.579 55.3179 144.444 55.5796 144.261 55.8081C144.078 56.0367 143.851 56.2276 143.593 56.37C143.335 56.5123 143.051 56.6034 142.757 56.6379C142.464 56.6724 142.166 56.6498 141.881 56.5712L139.8 55.9972L140.929 52.0437C141.091 51.4784 141.474 50.9992 141.995 50.7117C142.516 50.4242 143.132 50.3518 143.708 50.5105Z" fill="#662F49"/>
<path d="M141.39 59.4248C143.307 59.4248 144.861 57.8976 144.861 56.0138C144.861 54.1299 143.307 52.6028 141.39 52.6028C139.472 52.6028 137.918 54.1299 137.918 56.0138C137.918 57.8976 139.472 59.4248 141.39 59.4248Z" fill="#EF948C"/>
<path d="M139.754 55.4918C139.708 55.706 139.713 55.9276 139.768 56.1395C139.824 56.3514 139.929 56.5479 140.074 56.7136C139.925 56.4263 139.882 56.0973 139.951 55.7821C139.99 55.5993 140.065 55.4259 140.173 55.2718C140.28 55.1177 140.417 54.9859 140.577 54.8839C140.736 54.782 140.914 54.7118 141.101 54.6775C141.288 54.6432 141.48 54.6455 141.666 54.6841C141.977 54.7467 142.259 54.9099 142.465 55.1476C142.33 54.8845 142.115 54.6692 141.85 54.5312C141.585 54.3933 141.283 54.3395 140.985 54.3772C140.688 54.415 140.41 54.5425 140.189 54.7421C139.969 54.9417 139.816 55.2037 139.754 55.4918Z" fill="#EA8681"/>
<path d="M163.007 52.6725L141.277 48.825C141.797 45.9938 143.44 43.4813 145.845 41.8403C147.036 41.0278 148.378 40.4537 149.794 40.1507C151.211 39.8478 152.675 39.822 154.101 40.0747C155.528 40.3275 156.89 40.8539 158.11 41.624C159.33 42.394 160.383 43.3925 161.21 44.5625C162.037 45.7325 162.621 47.0511 162.93 48.443C163.238 49.8349 163.264 51.2729 163.007 52.6747V52.6725Z" fill="#A3142C"/>
<path d="M163.094 49.3335C162.375 47.1965 160.996 45.3322 159.15 43.9989C157.305 42.6656 155.082 41.9293 152.792 41.892C150.501 41.8547 148.255 42.5182 146.365 43.7906C144.475 45.063 143.035 46.8814 142.244 48.9938L141.277 48.825C141.747 46.2796 143.126 43.9825 145.167 42.348C147.207 40.7135 149.775 39.8489 152.407 39.9103C155.039 39.9716 157.562 40.9548 159.522 42.6826C161.481 44.4104 162.748 46.7691 163.094 49.3335Z" fill="#8942B7"/>
<path d="M166.967 51.7806L141.286 47.2316C140.573 47.1052 139.891 47.5709 139.762 48.2716C139.634 48.9723 140.108 49.6428 140.821 49.7691L166.501 54.3182C167.215 54.4445 167.897 53.9789 168.026 53.2781C168.154 52.5774 167.68 51.9069 166.967 51.7806Z" fill="#A3142C"/>
<path d="M141.402 48.5617C141.341 48.8985 141.418 49.2455 141.617 49.5265C141.816 49.8074 142.12 49.9994 142.463 50.0602L140.821 49.7677C140.498 49.7109 140.209 49.5376 140.01 49.2818C139.811 49.0261 139.717 48.7065 139.745 48.3858C139.774 48.0651 139.924 47.7665 140.165 47.5489C140.407 47.3312 140.722 47.2101 141.05 47.2095C141.127 47.2097 141.203 47.2172 141.279 47.232L142.916 47.5222C142.841 47.5073 142.764 47.4998 142.687 47.4997C142.38 47.5013 142.084 47.6084 141.849 47.8024C141.615 47.9964 141.456 48.2651 141.402 48.5617Z" fill="#A3142C"/>
<path d="M150.453 46.35C150.24 46.6087 149.962 46.8095 149.647 46.9333C149.333 47.057 148.991 47.0997 148.654 47.0573C148.318 47.0149 147.998 46.8887 147.726 46.6908C147.453 46.4928 147.236 46.2297 147.096 45.9264C146.956 45.6231 146.897 45.2896 146.925 44.9575C146.953 44.6255 147.066 44.306 147.255 44.0292C147.444 43.7525 147.701 43.5278 148.003 43.3764C148.305 43.2249 148.642 43.1518 148.981 43.164C148.942 43.209 148.91 43.254 148.878 43.299C148.677 43.5877 148.558 43.9242 148.535 44.2732C148.512 44.6223 148.585 44.971 148.746 45.2829C148.907 45.5948 149.15 45.8585 149.451 46.0462C149.751 46.2339 150.097 46.3389 150.453 46.35Z" fill="#FFB829"/>
<path d="M149.519 47.457C149.205 47.6331 148.855 47.74 148.495 47.7703C148.135 47.8006 147.772 47.7536 147.432 47.6325C147.092 47.5114 146.782 47.3191 146.525 47.069C146.269 46.8188 146.07 46.5168 145.944 46.1838C145.817 45.8509 145.766 45.4949 145.793 45.1405C145.821 44.7861 145.926 44.4419 146.103 44.1315C146.279 43.8212 146.522 43.5522 146.814 43.3432C147.107 43.1342 147.442 42.9901 147.797 42.921C147.527 43.0705 147.288 43.269 147.094 43.506C146.772 43.898 146.58 44.378 146.545 44.8807C146.51 45.3834 146.633 45.8845 146.898 46.316C147.163 46.7475 147.557 47.0884 148.025 47.2925C148.494 47.4967 149.016 47.5541 149.519 47.457Z" fill="#FFB829"/>
<path d="M149.977 45.7852C150.549 45.7852 151.013 45.3299 151.013 44.7682C151.013 44.2065 150.549 43.7512 149.977 43.7512C149.406 43.7512 148.942 44.2065 148.942 44.7682C148.942 45.3299 149.406 45.7852 149.977 45.7852Z" fill="#FFB829"/>
<path d="M151.412 88.425C151.199 88.6837 150.921 88.8844 150.606 89.0082C150.292 89.132 149.95 89.1747 149.613 89.1322C149.277 89.0898 148.957 88.9636 148.685 88.7657C148.412 88.5678 148.195 88.3047 148.055 88.0013C147.915 87.698 147.856 87.3645 147.884 87.0325C147.911 86.7005 148.025 86.3809 148.214 86.1042C148.403 85.8275 148.66 85.6027 148.962 85.4513C149.264 85.2999 149.601 85.2268 149.94 85.239C149.901 85.2815 149.866 85.3266 149.834 85.374C149.538 85.803 149.427 86.3302 149.526 86.8395C149.626 87.3488 149.927 87.7985 150.363 88.0897C150.673 88.2975 151.037 88.4138 151.412 88.425Z" fill="#A3142C"/>
<path d="M150.482 89.532C149.976 89.8134 149.386 89.9127 148.814 89.8127C148.242 89.7128 147.723 89.4199 147.347 88.9844C146.97 88.5489 146.761 87.9982 146.753 87.4271C146.746 86.856 146.941 86.3002 147.306 85.8555C147.672 85.409 148.187 85.1044 148.76 84.996C148.49 85.1454 148.252 85.3439 148.057 85.581C147.735 85.973 147.543 86.4529 147.508 86.9556C147.473 87.4583 147.597 87.9594 147.861 88.3909C148.126 88.8224 148.52 89.1634 148.989 89.3675C149.458 89.5716 149.979 89.6291 150.482 89.532Z" fill="#A3142C"/>
<path d="M150.94 87.8602C151.512 87.8602 151.975 87.4048 151.975 86.8432C151.975 86.2815 151.512 85.8262 150.94 85.8262C150.369 85.8262 149.905 86.2815 149.905 86.8432C149.905 87.4048 150.369 87.8602 150.94 87.8602Z" fill="#A3142C"/>
<path d="M157.495 58.0635C157.949 58.0635 158.317 57.7019 158.317 57.2557C158.317 56.8096 157.949 56.448 157.495 56.448C157.041 56.448 156.673 56.8096 156.673 57.2557C156.673 57.7019 157.041 58.0635 157.495 58.0635Z" fill="#54233A"/>
<path d="M151.03 56.6258C151.484 56.6258 151.852 56.2641 151.852 55.818C151.852 55.3719 151.484 55.0103 151.03 55.0103C150.576 55.0103 150.208 55.3719 150.208 55.818C150.208 56.2641 150.576 56.6258 151.03 56.6258Z" fill="#54233A"/>
<path d="M112.969 88.5121C113.594 88.2848 113.913 87.6026 113.682 86.9885C113.45 86.3743 112.756 86.0607 112.131 86.288L103.334 89.4869C102.709 89.7142 102.39 90.3963 102.621 91.0105C102.853 91.6247 103.547 91.9383 104.172 91.711L112.969 88.5121Z" fill="#F3A6A0"/>
<path d="M156.068 60.1582C155.922 60.7929 155.528 61.3458 154.971 61.6972C154.902 61.7377 154.831 61.7782 154.76 61.8142C154.244 62.0735 153.652 62.1475 153.086 62.0235L152.988 62.001C152.376 61.8667 151.838 61.5119 151.479 61.0065C151.121 60.5011 150.969 59.8821 151.053 59.2717C151.053 59.2065 151.076 59.139 151.089 59.0715C151.118 58.9488 151.194 58.8422 151.303 58.7748C151.411 58.7073 151.541 58.6846 151.667 58.7115L155.699 59.589C155.825 59.6169 155.934 59.6924 156.003 59.799C156.072 59.9056 156.095 60.0347 156.068 60.1582Z" fill="#962F4A"/>
<path d="M153.12 61.6501C153.092 61.7744 153.052 61.8957 152.999 62.0123C152.387 61.879 151.848 61.5244 151.489 61.0188C151.131 60.5132 150.979 59.8936 151.064 59.2831C151.251 59.2717 151.439 59.2861 151.623 59.3258C152.134 59.4402 152.579 59.7489 152.86 60.1844C153.14 60.6199 153.234 61.1468 153.12 61.6501Z" fill="#E1617F"/>
<path d="M155.61 59.571C155.484 60.0367 154.662 60.246 153.755 60.0547C152.848 59.8635 152.193 59.319 152.283 58.8442L155.61 59.571Z" fill="white"/>
</svg>
