<svg width="533" height="390" viewBox="0 0 533 390" fill="none" xmlns="http://www.w3.org/2000/svg">
<g clip-path="url(#clip0_179_808)">
<path d="M323.87 184.247C322.218 184.245 320.628 183.615 319.423 182.484C318.218 181.354 317.488 179.808 317.38 178.159L316.413 163.401C316.3 161.677 316.877 159.979 318.016 158.68C319.155 157.381 320.763 156.588 322.487 156.475L438.114 148.903C441.793 148.665 445.417 149.897 448.188 152.33C450.959 154.762 452.651 158.195 452.892 161.874C453.133 165.553 451.903 169.177 449.473 171.95C447.043 174.723 443.611 176.418 439.932 176.661L324.305 184.233C324.16 184.242 324.014 184.247 323.87 184.247Z" fill="#D90429"/>
<path d="M346.67 186.15C344.985 186.147 343.367 185.493 342.155 184.324C340.942 183.155 340.228 181.562 340.163 179.879L339.34 157.836C339.308 156.981 339.444 156.128 339.742 155.326C340.04 154.524 340.492 153.789 341.074 153.162C341.656 152.535 342.356 152.029 343.133 151.672C343.911 151.316 344.751 151.116 345.605 151.084L440.689 147.53C442.415 147.466 444.096 148.09 445.362 149.265C446.629 150.44 447.376 152.07 447.441 153.796L448.265 175.84C448.297 176.695 448.16 177.547 447.862 178.349C447.565 179.151 447.112 179.887 446.53 180.513C445.948 181.14 445.249 181.647 444.471 182.003C443.694 182.36 442.854 182.56 441.999 182.592L346.916 186.145C346.834 186.149 346.751 186.15 346.67 186.15Z" fill="#2B2D42"/>
<path d="M458.092 389.352H443.302C441.575 389.35 439.919 388.663 438.698 387.442C437.477 386.221 436.79 384.565 436.788 382.838V259.569C436.79 257.842 437.477 256.186 438.698 254.965C439.919 253.744 441.575 253.057 443.302 253.055H458.092C459.819 253.057 461.474 253.744 462.696 254.965C463.917 256.186 464.604 257.842 464.605 259.569V382.838C464.604 384.565 463.917 386.221 462.696 387.442C461.474 388.663 459.819 389.35 458.092 389.352Z" fill="#2B2D42"/>
<path d="M420.957 389.352H406.166C404.439 389.35 402.784 388.663 401.563 387.442C400.342 386.221 399.655 384.565 399.653 382.838V259.569C399.655 257.842 400.342 256.186 401.563 254.965C402.784 253.744 404.439 253.057 406.166 253.055H420.957C422.684 253.057 424.339 253.744 425.56 254.965C426.781 256.186 427.468 257.842 427.47 259.569V382.838C427.468 384.565 426.781 386.221 425.56 387.442C424.339 388.663 422.684 389.35 420.957 389.352Z" fill="#2B2D42"/>
<path d="M435.628 124.41C463.853 124.41 486.734 101.53 486.734 73.3046C486.734 45.0796 463.853 22.1987 435.628 22.1987C407.403 22.1987 384.522 45.0796 384.522 73.3046C384.522 101.53 407.403 124.41 435.628 124.41Z" fill="#D90429"/>
<path d="M407.965 90.7537C406.321 90.2135 404.812 89.3276 403.539 88.1556C402.696 87.3187 402.045 86.3076 401.634 85.193C401.222 84.0784 401.06 82.8874 401.157 81.7032C401.21 80.8595 401.458 80.0396 401.881 79.3076C402.304 78.5756 402.89 77.9512 403.594 77.4834C405.422 76.3111 407.866 76.3076 410.355 77.4044L410.261 57.4534L412.265 57.4438L412.376 80.8983L410.831 79.927C409.041 78.8025 406.483 78.011 404.677 79.1704C404.23 79.4767 403.86 79.8819 403.596 80.3544C403.331 80.827 403.179 81.3542 403.152 81.895C403.084 82.777 403.208 83.6633 403.513 84.4935C403.819 85.3236 404.3 86.0782 404.923 86.7059C407.136 88.8198 410.365 89.4809 414.047 90.0716L413.729 92.0502C411.773 91.7911 409.844 91.3572 407.965 90.7537Z" fill="#2B2D42"/>
<path d="M389.602 56.4477L389.34 58.4343L400.041 59.8476L400.303 57.8609L389.602 56.4477Z" fill="#2B2D42"/>
<path d="M423.379 60.9052L423.116 62.8918L433.817 64.3051L434.08 62.3184L423.379 60.9052Z" fill="#2B2D42"/>
<path d="M392.123 292.642C389.865 292.64 387.7 291.741 386.103 290.145C384.506 288.548 383.608 286.383 383.605 284.125C383.605 284.125 397.185 210.447 404.944 167.264C406.453 158.867 410.864 151.267 417.408 145.794C423.952 140.32 432.212 137.321 440.744 137.321C452.964 137.321 464.683 142.175 473.324 150.816C481.965 159.457 486.819 171.176 486.819 183.396V197.946C486.819 223.061 476.842 247.147 459.083 264.906C441.324 282.665 417.238 292.642 392.123 292.642Z" fill="#2B2D42"/>
<path d="M456.601 285.267C456.077 286.41 455.234 287.377 454.173 288.052C453.112 288.727 451.878 289.081 450.621 289.072L435.831 288.943C434.976 288.936 434.13 288.76 433.343 288.426C432.556 288.092 431.842 287.606 431.242 286.996C430.643 286.386 430.169 285.664 429.849 284.87C429.528 284.077 429.367 283.229 429.375 282.374L430.379 166.504C430.394 164.677 430.769 162.87 431.482 161.188C432.195 159.506 433.233 157.981 434.535 156.699C435.838 155.418 437.381 154.407 439.075 153.722C440.768 153.037 442.581 152.693 444.408 152.709C446.235 152.724 448.041 153.1 449.723 153.814C451.404 154.528 452.929 155.567 454.209 156.87C455.49 158.174 456.501 159.717 457.185 161.411C457.868 163.105 458.212 164.918 458.195 166.745L457.191 282.615C457.184 283.53 456.983 284.434 456.601 285.267Z" fill="#D90429"/>
<path d="M463.135 254.334C462.611 255.477 461.768 256.445 460.707 257.12C459.646 257.795 458.412 258.149 457.155 258.139L431.893 257.92C430.166 257.903 428.517 257.202 427.307 255.97C426.096 254.739 425.424 253.077 425.437 251.35L426.262 156.204C426.269 155.349 426.445 154.503 426.779 153.716C427.113 152.929 427.599 152.215 428.209 151.615C428.819 151.016 429.542 150.542 430.335 150.222C431.128 149.901 431.976 149.74 432.831 149.748L458.093 149.966C458.948 149.974 459.794 150.15 460.581 150.484C461.368 150.818 462.082 151.304 462.682 151.914C463.281 152.524 463.755 153.246 464.075 154.039C464.396 154.832 464.557 155.681 464.549 156.536L463.725 251.682C463.717 252.598 463.517 253.502 463.135 254.334Z" fill="#2B2D42"/>
<path d="M420.877 43.1898C412.913 44.5416 404.021 46.0872 396.432 42.3941C390.459 39.4872 386.352 33.6816 387.807 26.8601C390.703 13.2844 406.245 7.28241 418.735 8.49364C426.08 9.17943 432.988 12.2938 438.365 17.3445C438.62 17.5862 438.939 17.7488 439.285 17.8128C439.63 17.8767 439.987 17.8392 440.311 17.7048C440.636 17.5704 440.914 17.3448 441.113 17.0554C441.312 16.7659 441.423 16.4251 441.432 16.0739C441.379 11.0645 445.127 6.88425 449.568 4.99724C455.128 2.63463 461.588 3.47892 467.303 4.74324C482.938 8.23016 497.137 16.4025 508.007 28.1697C518.876 39.9369 525.898 54.7392 528.136 70.6012C529.728 81.7679 528.875 93.1471 525.635 103.951C522.604 113.911 517.005 123.921 507.787 129.34C499.481 134.223 487.402 135.48 479.737 128.63C473.598 123.142 470.83 112.884 475.867 105.785C477.351 103.727 479.365 102.108 481.694 101.101C484.024 100.094 486.582 99.7358 489.099 100.065C491.478 100.441 493.7 101.492 495.501 103.093C497.301 104.695 498.604 106.779 499.256 109.098C499.734 111.326 499.586 113.642 498.83 115.791C498.073 117.94 496.737 119.837 494.969 121.274C493.647 122.224 492.145 122.894 490.556 123.245C488.967 123.596 487.323 123.619 485.724 123.314C484.125 123.009 482.605 122.382 481.257 121.47C479.909 120.558 478.76 119.382 477.881 118.012C476.66 116.053 473.55 117.855 474.778 119.826C476.188 122.031 478.12 123.855 480.403 125.135C482.686 126.416 485.249 127.114 487.866 127.167C490.475 127.215 493.049 126.568 495.325 125.294C497.602 124.019 499.498 122.162 500.82 119.913C502.239 117.618 503.027 114.99 503.107 112.293C503.187 109.597 502.555 106.927 501.275 104.552C499.875 102.13 497.881 100.105 495.482 98.6676C493.082 97.2305 490.355 96.429 487.559 96.3388C484.659 96.316 481.797 96.999 479.219 98.3287C476.642 99.6584 474.427 101.595 472.764 103.972C470.075 108.084 469.082 113.078 469.996 117.906C470.806 122.816 473.182 127.333 476.771 130.781C480.926 134.541 486.273 136.716 491.873 136.923C504.058 137.618 514.936 130.598 521.656 120.84C528.63 110.715 531.748 98.0101 532.377 85.8633C533.017 73.4828 530.856 61.1173 526.056 49.6873C521.256 38.2573 513.939 28.0572 504.651 19.8461C495.818 12.1144 485.457 6.32571 474.242 2.85555C463.141 -0.545104 447.641 -3.02391 440.144 8.31902C438.619 10.616 437.816 13.3168 437.839 16.074L440.906 14.8035C430.059 4.43845 413.008 1.81936 399.464 8.19063C392.662 11.3907 386.764 17.3412 384.65 24.6782C382.456 32.2909 385.628 39.7628 392.135 44.0802C400.99 49.956 411.972 48.3289 421.832 46.6553C424.108 46.2691 423.143 42.8053 420.877 43.1898Z" fill="#2B2D42"/>
<path d="M308.5 264.084H17.5C12.8603 264.078 8.41221 262.233 5.13147 258.952C1.85073 255.671 0.0052934 251.223 0 246.583V72.5835C0.0052934 67.9438 1.85073 63.4957 5.13147 60.215C8.41221 56.9342 12.8603 55.0888 17.5 55.0835H308.5C313.14 55.0888 317.588 56.9342 320.869 60.215C324.149 63.4957 325.995 67.9438 326 72.5835V246.583C325.995 251.223 324.149 255.671 320.869 258.952C317.588 262.233 313.14 264.078 308.5 264.084ZM17.5 58.0835C13.6557 58.0879 9.97015 59.617 7.25183 62.3353C4.53351 65.0536 3.00442 68.7392 3 72.5835V246.583C3.00442 250.428 4.53351 254.113 7.25183 256.832C9.97015 259.55 13.6557 261.079 17.5 261.084H308.5C312.344 261.079 316.03 259.55 318.748 256.832C321.466 254.113 322.996 250.428 323 246.583V72.5835C322.996 68.7392 321.466 65.0536 318.748 62.3353C316.03 59.617 312.344 58.0879 308.5 58.0835H17.5Z" fill="#3F3D56"/>
<path d="M56.5 96.0835C54.0277 96.0835 51.611 95.3504 49.5554 93.9769C47.4998 92.6033 45.8976 90.6511 44.9515 88.367C44.0054 86.0829 43.7579 83.5696 44.2402 81.1449C44.7225 78.7201 45.913 76.4928 47.6612 74.7446C49.4093 72.9965 51.6366 71.806 54.0614 71.3237C56.4861 70.8414 58.9995 71.0889 61.2836 72.035C63.5676 72.9811 65.5199 74.5833 66.8934 76.6389C68.2669 78.6945 69 81.1112 69 83.5835C68.9963 86.8975 67.6781 90.0748 65.3347 92.4182C62.9913 94.7616 59.8141 96.0798 56.5 96.0835ZM56.5 74.0835C54.6211 74.0835 52.7844 74.6407 51.2221 75.6845C49.6598 76.7284 48.4422 78.2121 47.7232 79.948C47.0041 81.6839 46.816 83.594 47.1825 85.4368C47.5491 87.2797 48.4539 88.9724 49.7825 90.301C51.1111 91.6296 52.8038 92.5344 54.6467 92.901C56.4895 93.2675 58.3996 93.0794 60.1355 92.3603C61.8714 91.6413 63.3551 90.4237 64.399 88.8614C65.4428 87.2991 66 85.4624 66 83.5835C65.9972 81.0648 64.9953 78.6501 63.2144 76.8691C61.4334 75.0882 59.0187 74.0863 56.5 74.0835Z" fill="#3F3D56"/>
<path d="M267.5 96.0835C265.028 96.0835 262.611 95.3504 260.555 93.9769C258.5 92.6033 256.898 90.6511 255.951 88.367C255.005 86.0829 254.758 83.5696 255.24 81.1449C255.723 78.7201 256.913 76.4928 258.661 74.7446C260.409 72.9965 262.637 71.806 265.061 71.3237C267.486 70.8414 269.999 71.0889 272.284 72.035C274.568 72.9811 276.52 74.5833 277.893 76.6389C279.267 78.6945 280 81.1112 280 83.5835C279.996 86.8975 278.678 90.0748 276.335 92.4182C273.991 94.7616 270.814 96.0798 267.5 96.0835ZM267.5 74.0835C265.621 74.0835 263.784 74.6407 262.222 75.6845C260.66 76.7284 259.442 78.2121 258.723 79.948C258.004 81.6839 257.816 83.594 258.183 85.4368C258.549 87.2797 259.454 88.9724 260.782 90.301C262.111 91.6296 263.804 92.5344 265.647 92.901C267.489 93.2675 269.4 93.0794 271.136 92.3603C272.871 91.6413 274.355 90.4237 275.399 88.8614C276.443 87.2991 277 85.4624 277 83.5835C276.997 81.0648 275.995 78.6501 274.214 76.8691C272.433 75.0882 270.019 74.0863 267.5 74.0835Z" fill="#3F3D56"/>
<path d="M86 172.083H32C29.7465 172.081 27.586 171.184 25.9926 169.591C24.3991 167.997 23.5027 165.837 23.5 163.583V131.583C23.5027 129.33 24.3991 127.17 25.9926 125.576C27.586 123.983 29.7465 123.086 32 123.083H86C88.2535 123.086 90.414 123.983 92.0074 125.576C93.6009 127.17 94.4973 129.33 94.5 131.583V163.583C94.4973 165.837 93.6009 167.997 92.0074 169.591C90.414 171.184 88.2535 172.081 86 172.083Z" fill="#E6E6E6"/>
<path d="M190 172.083H136C133.746 172.081 131.586 171.184 129.993 169.591C128.399 167.997 127.503 165.837 127.5 163.583V131.583C127.503 129.33 128.399 127.17 129.993 125.576C131.586 123.983 133.746 123.086 136 123.083H190C192.254 123.086 194.414 123.983 196.007 125.576C197.601 127.17 198.497 129.33 198.5 131.583V163.583C198.497 165.837 197.601 167.997 196.007 169.591C194.414 171.184 192.254 172.081 190 172.083Z" fill="#E6E6E6"/>
<path d="M240 124.083C238.012 124.086 236.105 124.877 234.699 126.283C233.293 127.689 232.502 129.595 232.5 131.583V163.583C232.502 165.572 233.293 167.478 234.699 168.884C236.105 170.29 238.012 171.081 240 171.083H294C295.988 171.081 297.895 170.29 299.301 168.884C300.707 167.478 301.498 165.572 301.5 163.583V131.583C301.498 129.595 300.707 127.689 299.301 126.283C297.895 124.877 295.988 124.086 294 124.083H240Z" fill="#E6E6E6"/>
<path d="M86.5 236.083H32.5C30.2465 236.081 28.086 235.184 26.4926 233.591C24.8991 231.997 24.0027 229.837 24 227.583V195.583C24.0027 193.33 24.8991 191.17 26.4926 189.576C28.086 187.983 30.2465 187.086 32.5 187.083H86.5C88.7535 187.086 90.914 187.983 92.5074 189.576C94.1009 191.17 94.9973 193.33 95 195.583V227.583C94.9973 229.837 94.1009 231.997 92.5074 233.591C90.914 235.184 88.7535 236.081 86.5 236.083Z" fill="#E6E6E6"/>
<path d="M190.5 236.083H136.5C134.246 236.081 132.086 235.184 130.493 233.591C128.899 231.997 128.003 229.837 128 227.583V195.583C128.003 193.33 128.899 191.17 130.493 189.576C132.086 187.983 134.246 187.086 136.5 187.083H190.5C192.754 187.086 194.914 187.983 196.507 189.576C198.101 191.17 198.997 193.33 199 195.583V227.583C198.997 229.837 198.101 231.997 196.507 233.591C194.914 235.184 192.754 236.081 190.5 236.083Z" fill="#E6E6E6"/>
<path d="M294.5 236.083H240.5C238.246 236.081 236.086 235.184 234.493 233.591C232.899 231.997 232.003 229.837 232 227.583V195.583C232.003 193.33 232.899 191.17 234.493 189.576C236.086 187.983 238.246 187.086 240.5 187.083H294.5C296.754 187.086 298.914 187.983 300.507 189.576C302.101 191.17 302.997 193.33 303 195.583V227.583C302.997 229.837 302.101 231.997 300.507 233.591C298.914 235.184 296.754 236.081 294.5 236.083Z" fill="#E6E6E6"/>
<path d="M56.5 87.0835C55.5721 87.0824 54.6825 86.7133 54.0264 86.0571C53.3702 85.401 53.0011 84.5114 53 83.5835V33.5835C53 32.6552 53.3687 31.765 54.0251 31.1086C54.6815 30.4522 55.5717 30.0835 56.5 30.0835C57.4283 30.0835 58.3185 30.4522 58.9749 31.1086C59.6312 31.765 60 32.6552 60 33.5835V83.5835C59.9989 84.5114 59.6298 85.401 58.9736 86.0571C58.3175 86.7133 57.4279 87.0824 56.5 87.0835Z" fill="#3F3D56"/>
<path d="M267.5 87.0835C266.572 87.0824 265.683 86.7133 265.026 86.0571C264.37 85.401 264.001 84.5114 264 83.5835V33.5835C264 32.6552 264.369 31.765 265.025 31.1086C265.682 30.4522 266.572 30.0835 267.5 30.0835C268.428 30.0835 269.318 30.4522 269.975 31.1086C270.631 31.765 271 32.6552 271 33.5835V83.5835C270.999 84.5114 270.63 85.401 269.974 86.0571C269.317 86.7133 268.428 87.0824 267.5 87.0835Z" fill="#3F3D56"/>
<path d="M56.9588 160.555C55.4865 160.557 54.0533 160.081 52.8753 159.198L52.8023 159.143L37.4216 147.377C35.983 146.274 35.0414 144.645 34.804 142.848C34.5666 141.051 35.0529 139.233 36.1558 137.794C37.2587 136.356 38.888 135.414 40.6851 135.177C42.4823 134.939 44.3002 135.426 45.7388 136.528L55.7012 144.168L79.2428 113.455C79.7887 112.743 80.4695 112.146 81.2463 111.697C82.0231 111.248 82.8808 110.956 83.7702 110.839C84.6597 110.721 85.5637 110.78 86.4304 111.012C87.2972 111.244 88.1097 111.644 88.8218 112.19L88.8238 112.192L88.6777 112.394L88.8277 112.192C90.2643 113.296 91.2041 114.925 91.4411 116.721C91.678 118.517 91.1927 120.334 90.0915 121.773L62.4014 157.881C61.7608 158.713 60.9371 159.387 59.9943 159.849C59.0515 160.311 58.0149 160.55 56.9648 160.547L56.9588 160.555Z" fill="#D90429"/>
<path d="M163.959 223.555C162.487 223.557 161.053 223.081 159.875 222.198L159.802 222.143L144.422 210.377C142.983 209.274 142.041 207.645 141.804 205.848C141.567 204.051 142.053 202.233 143.156 200.794C144.259 199.356 145.888 198.414 147.685 198.177C149.482 197.939 151.3 198.426 152.739 199.528L162.701 207.168L186.243 176.455C186.789 175.743 187.469 175.146 188.246 174.697C189.023 174.248 189.881 173.956 190.77 173.839C191.66 173.721 192.564 173.78 193.43 174.012C194.297 174.244 195.11 174.644 195.822 175.19L195.824 175.192L195.678 175.394L195.828 175.192C197.264 176.296 198.204 177.925 198.441 179.721C198.678 181.517 198.193 183.334 197.092 184.773L169.401 220.881C168.761 221.713 167.937 222.387 166.994 222.849C166.051 223.311 165.015 223.55 163.965 223.547L163.959 223.555Z" fill="#D90429"/>
<path d="M264.959 160.555C263.487 160.557 262.053 160.081 260.875 159.198L260.802 159.143L245.422 147.377C243.983 146.274 243.041 144.645 242.804 142.848C242.567 141.051 243.053 139.233 244.156 137.794C245.259 136.356 246.888 135.414 248.685 135.177C250.482 134.939 252.3 135.426 253.739 136.528L263.701 144.168L287.243 113.455C287.789 112.743 288.469 112.146 289.246 111.697C290.023 111.248 290.881 110.956 291.77 110.839C292.66 110.721 293.564 110.78 294.43 111.012C295.297 111.244 296.11 111.644 296.822 112.19L296.824 112.192L296.678 112.394L296.828 112.192C298.264 113.296 299.204 114.925 299.441 116.721C299.678 118.517 299.193 120.334 298.092 121.773L270.401 157.881C269.761 158.713 268.937 159.387 267.994 159.849C267.051 160.311 266.015 160.55 264.965 160.547L264.959 160.555Z" fill="#D90429"/>
</g>
<defs>
<clipPath id="clip0_179_808">
<rect width="532.485" height="389.352" fill="white"/>
</clipPath>
</defs>
</svg>
