<svg width="226" height="226" viewBox="0 0 226 226" fill="none" xmlns="http://www.w3.org/2000/svg">
<path d="M218.734 177.708C220.729 179.705 222.115 182.227 222.733 184.981C223.35 187.734 223.173 190.607 222.221 193.264C222.03 193.798 221.808 194.32 221.557 194.828C220.618 196.722 219.288 198.395 217.654 199.736C216.02 201.077 214.119 202.056 212.079 202.607C211.484 202.769 210.881 202.892 210.271 202.975C209.592 203.069 208.908 203.116 208.223 203.115H21.8814C18.414 203.119 15.0551 201.906 12.3894 199.689C12.0323 199.388 11.6903 199.077 11.3634 198.756C11.1803 198.573 10.9995 198.385 10.8255 198.191C10.5995 197.944 10.3893 197.691 10.1859 197.429C9.5484 196.622 8.99769 195.75 8.5429 194.828C8.48188 194.706 8.42312 194.584 8.36662 194.459C8.18582 194.068 8.0231 193.669 7.87846 193.264C7.02251 190.893 6.78375 188.344 7.18465 185.855C7.58554 183.367 8.61291 181.021 10.1701 179.039C10.3735 178.777 10.5882 178.524 10.8097 178.278C12.2039 176.722 13.9107 175.479 15.8186 174.628C17.7266 173.777 19.7925 173.339 21.8814 173.342H41.2858C41.5299 173.342 41.7717 173.333 42.0112 173.315C42.6261 173.271 43.2354 173.168 43.8305 173.008C44.3499 172.869 44.8565 172.686 45.3447 172.461C46.4054 171.974 47.3711 171.303 48.1969 170.479C49.1063 169.572 49.8276 168.495 50.319 167.309C50.8104 166.123 51.0624 164.851 51.0603 163.568C51.0609 163.197 51.0398 162.828 50.997 162.46C50.7735 160.514 49.9709 158.68 48.6932 157.195C47.4155 155.71 45.7215 154.643 43.8305 154.132C43.2353 153.972 42.6261 153.869 42.0112 153.825C41.7717 153.807 41.5299 153.798 41.2858 153.798H38.2393C36.5427 153.799 34.8514 153.61 33.1972 153.233H33.1814C33.143 153.233 33.1046 153.217 33.0662 153.205C32.9396 153.178 32.8153 153.147 32.691 153.115L32.5057 153.068C32.343 153.025 32.1802 152.982 32.0198 152.934C31.8593 152.887 31.7486 152.855 31.6152 152.812C30.601 152.507 29.61 152.13 28.6501 151.682C28.4377 151.583 28.2252 151.481 28.0173 151.373C27.6738 151.199 27.3393 151.018 27.0048 150.826C26.3796 150.469 25.7769 150.081 25.1968 149.664C24.7087 149.318 24.2363 148.952 23.7776 148.57C23.2532 148.133 22.75 147.674 22.2679 147.192C18.3175 143.259 15.9661 138.002 15.6687 132.436C15.6596 132.269 15.6529 132.102 15.6483 131.934C15.6483 131.688 15.6348 131.439 15.6348 131.193C15.6348 131.085 15.6348 130.967 15.6348 130.87C15.647 129.963 15.7134 129.057 15.8337 128.158C16.2479 125.083 17.2918 122.127 18.9001 119.475C20.5084 116.822 22.6466 114.529 25.181 112.74C25.7355 112.345 26.3073 111.977 26.8964 111.635C26.9303 111.615 26.9642 111.594 27.0003 111.576C28.0137 110.992 29.0717 110.489 30.1643 110.071C30.6389 109.888 31.1203 109.723 31.6085 109.572C32.0966 109.42 32.6458 109.276 33.1746 109.156C34.8338 108.776 36.5305 108.585 38.2325 108.586H54.8797C56.9459 108.585 58.961 107.943 60.6472 106.749C61.1029 106.424 61.5307 106.062 61.9264 105.666C63.6544 103.945 64.6895 101.649 64.835 99.214C64.8463 99.0219 64.8531 98.8275 64.8531 98.6309C64.8526 97.1373 64.5166 95.6629 63.8701 94.3165C63.2235 92.9701 62.2827 91.7861 61.1173 90.852C60.9659 90.73 60.8122 90.626 60.654 90.504C60.0864 90.0979 59.4764 89.7546 58.8347 89.4802C58.6787 89.4101 58.5205 89.3468 58.3601 89.2881C57.249 88.8735 56.0724 88.6622 54.8865 88.6643H24.4714C21.6612 88.667 18.8731 88.168 16.2382 87.1908C15.309 86.8468 14.4031 86.4429 13.5262 85.9817C13.1375 85.7783 12.7555 85.5651 12.3804 85.3421C11.8455 85.0242 11.3242 84.6852 10.8165 84.3251C10.5905 84.1714 10.3871 84.0155 10.1769 83.855C9.54786 83.3754 8.94437 82.8632 8.36888 82.3205C8.16548 82.1329 7.9666 81.9408 7.76998 81.7442C4.55804 78.5411 2.33813 74.4795 1.37644 70.0464C1.34932 69.9274 1.32446 69.8076 1.30186 69.6871C1.2205 69.2893 1.15044 68.8893 1.09168 68.4825C0.924399 67.3375 0.840558 66.1819 0.840821 65.0247C0.840821 64.9343 0.840821 64.8439 0.840821 64.7535C0.893767 59.3688 2.79237 54.1651 6.21962 50.0115C6.43206 49.7539 6.65128 49.4985 6.87502 49.2499C7.15978 48.929 7.45584 48.6171 7.75868 48.3143C7.9553 48.1177 8.15418 47.9256 8.35758 47.738L8.41634 47.6837C8.58584 47.5255 8.75534 47.3719 8.92936 47.2204C9.33315 46.8664 9.74899 46.5274 10.1769 46.2034C10.3871 46.043 10.5995 45.887 10.8165 45.7334C11.0334 45.5797 11.2097 45.4599 11.4086 45.3266C11.7272 45.1141 12.0504 44.9085 12.3804 44.7141L12.5408 44.6192C12.864 44.4293 13.194 44.2463 13.5262 44.0745C14.4027 43.6132 15.3087 43.21 16.2382 42.8677C18.8723 41.8875 21.6608 41.3876 24.4714 41.3919C24.7099 41.3917 24.9483 41.3788 25.1855 41.3535C25.8077 41.286 26.4168 41.1285 26.9935 40.8857C28.566 40.2352 29.8261 39.0019 30.5101 37.4437C30.7778 36.8325 30.9501 36.1839 31.0209 35.5204C31.0444 35.3126 31.0564 35.1036 31.057 34.8944C31.057 34.865 31.057 34.8356 31.057 34.8063V30.1032C31.0573 29.0165 31.2148 27.9356 31.5248 26.894C31.5542 26.7968 31.5836 26.6996 31.6152 26.6047C32.2992 24.5049 33.5848 22.6522 35.3124 21.2766C37.04 19.9009 39.1336 19.0629 41.3332 18.8665C41.5592 18.8461 41.7852 18.8326 42.0112 18.8258H42.348H108.566C108.817 18.8258 109.063 18.8258 109.31 18.8507C109.922 18.8885 110.531 18.9777 111.129 19.1173C113.099 19.5766 114.909 20.5579 116.37 21.9582C116.431 22.0147 116.49 22.0734 116.548 22.1322C118.575 24.155 119.755 26.8748 119.846 29.7371V30.1145C119.846 30.1145 119.846 30.3405 119.846 30.4354C119.861 30.9658 119.914 31.4945 120.004 32.0174C120.022 32.1282 120.045 32.2434 120.065 32.3496C120.108 32.5598 120.158 32.77 120.21 32.9757C120.383 33.6367 120.617 34.2805 120.908 34.8989C121.007 35.1114 121.114 35.3215 121.224 35.5249C121.276 35.6221 121.33 35.717 121.387 35.812C121.726 36.3914 122.116 36.939 122.553 37.4482C122.875 37.8253 123.223 38.1802 123.593 38.5104C123.758 38.6596 123.927 38.8019 124.099 38.9421C124.729 39.4414 125.411 39.8717 126.133 40.2257C126.275 40.2981 126.42 40.3659 126.567 40.4314C128.007 41.0703 129.566 41.3991 131.141 41.3964H164.169C164.817 41.3964 165.457 41.4303 166.09 41.4936C168.374 41.7261 170.596 42.3781 172.644 43.4169C174.075 44.1407 175.407 45.0436 176.61 46.104C176.719 46.2012 176.825 46.2961 176.931 46.3955C177.037 46.495 177.11 46.5605 177.195 46.6464C177.392 46.834 177.582 47.0238 177.763 47.2204C177.835 47.2905 177.901 47.3628 177.966 47.4351C177.975 47.4408 177.983 47.4486 177.989 47.4577C178.059 47.5323 178.127 47.6069 178.19 47.6837C178.253 47.7606 178.353 47.8645 178.429 47.9572C178.542 48.086 178.655 48.2171 178.759 48.3504C178.841 48.4476 178.92 48.5471 178.985 48.6488C179.051 48.7505 179.137 48.8431 179.211 48.9426C179.286 49.042 179.365 49.146 179.437 49.2499C179.47 49.2936 179.502 49.3366 179.532 49.3787C179.679 49.5867 179.822 49.7968 179.959 50.0115C180.05 50.1539 180.14 50.2963 180.228 50.4409C180.382 50.6941 180.529 50.9517 180.68 51.2116C180.884 51.5898 181.075 51.974 181.254 52.3642C181.416 52.7122 181.566 53.0663 181.706 53.4264C181.949 54.0546 182.157 54.6959 182.328 55.3474C182.423 55.6977 182.506 56.0525 182.579 56.4096C182.709 57.0451 182.805 57.6871 182.866 58.3329C182.927 58.9449 182.957 59.5597 182.956 60.1748V75.6128C182.954 77.2303 183.271 78.8322 183.889 80.327C184.507 81.8219 185.413 83.1803 186.556 84.3246C187.699 85.469 189.057 86.3768 190.551 86.9962C192.045 87.6155 193.647 87.9343 195.264 87.9343H214.051C215.905 87.9353 217.729 88.4015 219.356 89.2903C220.146 89.7219 220.883 90.247 221.548 90.8543C221.672 90.9673 221.794 91.0803 221.912 91.2023C222.188 91.4788 222.45 91.7692 222.696 92.0724C224.296 94.0514 225.168 96.5191 225.168 99.0637C225.168 101.608 224.296 104.076 222.696 106.055C222.45 106.358 222.188 106.649 221.912 106.925C220.183 108.66 217.928 109.772 215.5 110.089C215.02 110.153 214.536 110.184 214.051 110.184C213.387 110.184 212.726 110.279 212.088 110.464C211.448 110.653 210.838 110.934 210.28 111.298C210.106 111.409 209.938 111.524 209.776 111.653C208.937 112.306 208.258 113.141 207.791 114.096C207.325 115.051 207.083 116.1 207.084 117.163V139.476C207.09 142.794 205.939 146.009 203.83 148.57C203.533 148.934 203.217 149.283 202.885 149.614C202.231 150.269 201.514 150.858 200.745 151.373C200.589 151.481 200.43 151.583 200.27 151.682C200.044 151.822 199.818 151.956 199.576 152.082L199.246 152.256C199.219 152.272 199.19 152.287 199.16 152.299C199.05 152.356 198.934 152.41 198.826 152.462C198.814 152.471 198.8 152.477 198.785 152.48C198.661 152.539 198.537 152.595 198.412 152.647C198.288 152.699 198.146 152.76 198.012 152.812C197.596 152.979 197.171 153.125 196.74 153.248C196.258 153.389 195.769 153.503 195.275 153.592C194.674 153.698 194.066 153.766 193.456 153.795C193.23 153.795 192.984 153.813 192.746 153.813C190.345 153.812 188.027 154.695 186.235 156.294C184.442 157.892 183.301 160.094 183.028 162.48C182.986 162.848 182.965 163.218 182.965 163.588C182.97 166.175 184 168.654 185.83 170.482C187.659 172.311 190.139 173.339 192.726 173.342H208.212C208.897 173.341 209.581 173.389 210.259 173.484C210.869 173.567 211.473 173.69 212.067 173.851C212.268 173.905 212.467 173.964 212.666 174.025C214.957 174.744 217.039 176.008 218.734 177.708Z" fill="#F3F4FE"/>
<path d="M10.1703 46.2034V83.8459C9.54128 83.3663 8.93779 82.8541 8.3623 82.3114V47.7334L8.42106 47.6791C8.59056 47.5209 8.76006 47.3673 8.93408 47.2158C9.33787 46.8648 9.74994 46.5273 10.1703 46.2034Z" fill="#EFF1FD"/>
<path d="M8.36189 182.009C8.84576 180.952 9.45261 179.955 10.1699 179.039V197.429C9.53237 196.622 8.98166 195.75 8.52687 194.828C8.46585 194.706 8.40709 194.584 8.35059 194.459L8.36189 182.009Z" fill="#EFF1FD"/>
<path d="M27.0043 40.8856V88.6552H25.1963V41.358C25.8187 41.2891 26.4277 41.13 27.0043 40.8856Z" fill="#EFF1FD"/>
<path d="M26.8935 111.644C26.9274 111.624 26.9613 111.603 26.9975 111.585V150.812C26.3722 150.455 25.7695 150.068 25.1895 149.65V112.745C25.7409 112.35 26.3089 111.983 26.8935 111.644Z" fill="#EFF1FD"/>
<path d="M25.1855 173.349H27.0048V203.115H25.1855V173.349Z" fill="#EFF1FD"/>
<path d="M43.83 18.8145V88.6485H42.0107V18.8145H42.3475H43.83Z" fill="#EFF1FD"/>
<path d="M42.0107 108.591H43.83V154.132C43.2348 153.972 42.6256 153.869 42.0107 153.825V108.591Z" fill="#EFF1FD"/>
<path d="M42.0107 173.322C42.6256 173.278 43.2349 173.175 43.83 173.014V203.115H42.0107V173.322Z" fill="#EFF1FD"/>
<path d="M60.6533 18.8145V90.4949C60.0857 90.0888 59.4757 89.7455 58.834 89.4711V18.8145H60.6533Z" fill="#EFF1FD"/>
<path d="M58.834 107.775C59.4747 107.499 60.0846 107.157 60.6533 106.753V203.115H58.834V107.775Z" fill="#EFF1FD"/>
<path d="M75.6602 18.8145H77.4795V203.115H75.6602V18.8145Z" fill="#EFF1FD"/>
<path d="M92.4863 18.8145H94.3056V203.115H92.4863V18.8145Z" fill="#EFF1FD"/>
<path d="M111.129 19.106V203.115H109.31V18.8394C109.922 18.8771 110.531 18.9664 111.129 19.106Z" fill="#EFF1FD"/>
<path d="M127.954 40.9353V203.115H126.146V40.2279C126.289 40.3002 126.434 40.368 126.58 40.4336C127.027 40.6307 127.486 40.7984 127.954 40.9353Z" fill="#EFF1FD"/>
<path d="M142.961 41.3918H144.78V203.115H142.961V41.3918Z" fill="#EFF1FD"/>
<path d="M159.784 41.3918H161.603V203.115H159.784V41.3918Z" fill="#EFF1FD"/>
<path d="M178.429 47.9572V203.115H176.621V46.104C176.73 46.2012 176.836 46.2961 176.942 46.3955C177.048 46.495 177.121 46.5605 177.206 46.6464C177.403 46.834 177.593 47.0238 177.774 47.2204C177.846 47.2905 177.912 47.3628 177.977 47.4351C177.986 47.4408 177.994 47.4486 178 47.4577C178.07 47.5323 178.138 47.6069 178.201 47.6837C178.264 47.7606 178.352 47.8645 178.429 47.9572Z" fill="#EFF1FD"/>
<path d="M195.264 87.9343V153.578C194.662 153.684 194.054 153.752 193.444 153.782V87.7897C194.046 87.8826 194.654 87.9309 195.264 87.9343Z" fill="#EFF1FD"/>
<path d="M193.436 173.349H195.255V203.115H193.436V173.349Z" fill="#EFF1FD"/>
<path d="M212.079 87.9343V110.451C211.438 110.639 210.829 110.92 210.271 111.285V87.9343H212.079Z" fill="#EFF1FD"/>
<path d="M212.079 173.857V202.607C211.484 202.768 210.881 202.891 210.271 202.975V173.491C210.88 173.574 211.484 173.696 212.079 173.857Z" fill="#EFF1FD"/>
<path d="M19.7161 207.186H32.476C33.5744 207.186 34.4648 206.295 34.4648 205.197V205.194C34.4648 204.096 33.5744 203.206 32.476 203.206H19.7161C18.6177 203.206 17.7273 204.096 17.7273 205.194V205.197C17.7273 206.295 18.6177 207.186 19.7161 207.186Z" fill="#7986BF"/>
<path d="M38.0722 207.186H217.141C218.239 207.186 219.13 206.295 219.13 205.197V205.194C219.13 204.096 218.239 203.206 217.141 203.206H38.0722C36.9739 203.206 36.0835 204.096 36.0835 205.194V205.197C36.0835 206.295 36.9739 207.186 38.0722 207.186Z" fill="#7986BF"/>
<path d="M47.9707 31.4547H58.3893C58.5261 31.4547 58.6616 31.4817 58.788 31.534C58.9144 31.5864 59.0293 31.6631 59.126 31.7599C59.2228 31.8566 59.2995 31.9715 59.3519 32.0979C59.4042 32.2243 59.4312 32.3598 59.4312 32.4966V57.4605H47.9707V31.4547Z" fill="#6675AD"/>
<path d="M47.2335 31.4547H57.6521V57.4605H46.1826V32.4966C46.1826 32.3598 46.2096 32.2243 46.2619 32.0979C46.3143 31.9715 46.391 31.8566 46.4878 31.7599C46.5845 31.6631 46.6994 31.5864 46.8258 31.534C46.9522 31.4817 47.0877 31.4547 47.2245 31.4547H47.2335Z" fill="#7986BF"/>
<path d="M51.7566 42.2372C53.2768 42.2372 54.5093 41.0048 54.5093 39.4845C54.5093 37.9642 53.2768 36.7318 51.7566 36.7318C50.2363 36.7318 49.0039 37.9642 49.0039 39.4845C49.0039 41.0048 50.2363 42.2372 51.7566 42.2372Z" fill="#6675AD"/>
<path d="M51.7566 40.7342C52.4469 40.7342 53.0064 40.1746 53.0064 39.4844C53.0064 38.7942 52.4469 38.2346 51.7566 38.2346C51.0664 38.2346 50.5068 38.7942 50.5068 39.4844C50.5068 40.1746 51.0664 40.7342 51.7566 40.7342Z" fill="#F3F4FE"/>
<path d="M51.756 56.744C54.2274 56.744 56.2308 54.7406 56.2308 52.2692C56.2308 49.7979 54.2274 47.7944 51.756 47.7944C49.2847 47.7944 47.2812 49.7979 47.2812 52.2692C47.2812 54.7406 49.2847 56.744 51.756 56.744Z" fill="#6675AD"/>
<path d="M51.756 54.2987C52.8769 54.2987 53.7855 53.3901 53.7855 52.2692C53.7855 51.1484 52.8769 50.2397 51.756 50.2397C50.6352 50.2397 49.7266 51.1484 49.7266 52.2692C49.7266 53.3901 50.6352 54.2987 51.756 54.2987Z" fill="#F3F4FE"/>
<path d="M70.4307 31.4547H80.8493C80.9861 31.4547 81.1216 31.4817 81.248 31.534C81.3744 31.5864 81.4892 31.6631 81.586 31.7599C81.6827 31.8566 81.7595 31.9715 81.8118 32.0979C81.8642 32.2243 81.8911 32.3598 81.8911 32.4966V57.4605H70.4307V31.4547Z" fill="#6675AD"/>
<path d="M69.6844 31.4547H80.103V57.4605H68.6426V32.4966C68.6426 32.3598 68.6695 32.2243 68.7219 32.0979C68.7742 31.9715 68.851 31.8566 68.9477 31.7599C69.0445 31.6631 69.1593 31.5864 69.2857 31.534C69.4121 31.4817 69.5476 31.4547 69.6844 31.4547Z" fill="#7986BF"/>
<path d="M74.2166 42.2372C75.7368 42.2372 76.9692 41.0048 76.9692 39.4845C76.9692 37.9642 75.7368 36.7318 74.2166 36.7318C72.6963 36.7318 71.4639 37.9642 71.4639 39.4845C71.4639 41.0048 72.6963 42.2372 74.2166 42.2372Z" fill="#6675AD"/>
<path d="M74.2166 40.7342C74.9068 40.7342 75.4664 40.1746 75.4664 39.4844C75.4664 38.7942 74.9068 38.2346 74.2166 38.2346C73.5263 38.2346 72.9668 38.7942 72.9668 39.4844C72.9668 40.1746 73.5263 40.7342 74.2166 40.7342Z" fill="#F3F4FE"/>
<path d="M74.216 56.744C76.6874 56.744 78.6908 54.7406 78.6908 52.2692C78.6908 49.7979 76.6874 47.7944 74.216 47.7944C71.7447 47.7944 69.7412 49.7979 69.7412 52.2692C69.7412 54.7406 71.7447 56.744 74.216 56.744Z" fill="#6675AD"/>
<path d="M74.216 54.2987C75.3369 54.2987 76.2455 53.3901 76.2455 52.2692C76.2455 51.1484 75.3369 50.2397 74.216 50.2397C73.0952 50.2397 72.1865 51.1484 72.1865 52.2692C72.1865 53.3901 73.0952 54.2987 74.216 54.2987Z" fill="#F3F4FE"/>
<path d="M30.0918 62.672H97.7856L93.3289 57.4604H34.5508L30.0918 62.672Z" fill="#D2D6FA"/>
<path d="M85.107 62.672V69.669L80.3564 73.0115V62.672H85.107Z" fill="#D2D6FA"/>
<path d="M48.6753 62.672V73.0115L43.9248 69.669V62.672H48.6753Z" fill="#D2D6FA"/>
<path d="M43.9258 62.672H48.6763V64.8348H43.9258V62.672Z" fill="#969ECC"/>
<path d="M80.3564 62.672H85.107V64.8348H80.3564V62.672Z" fill="#969ECC"/>
<path d="M146.891 61.6189H172.679V90.5785H146.891V61.6189Z" fill="#D2D6FA"/>
<path d="M149.148 64.1523H170.424V88.0428H149.148V64.1523Z" fill="#F3F4FE"/>
<path d="M155.456 71.9562L161.163 82.4855L150.997 83.1613L155.456 71.9562Z" fill="#D2D6FA"/>
<path d="M167.92 66.9186L163.943 74.1212L159.784 68.4893L167.92 66.9186Z" fill="#D2D6FA"/>
<path d="M167.296 77.5586L166.462 82.5306L162.914 80.1214L167.296 77.5586Z" fill="#D2D6FA"/>
<path d="M118.939 65.3479C122.269 65.3479 124.969 62.6484 124.969 59.3183C124.969 55.9882 122.269 53.2886 118.939 53.2886C115.609 53.2886 112.909 55.9882 112.909 59.3183C112.909 62.6484 115.609 65.3479 118.939 65.3479Z" fill="#A3142C"/>
<path d="M119.675 93.5909C122.837 91.1629 123.432 86.6313 121.004 83.4694C118.576 80.3074 114.044 79.7124 110.882 82.1404L92.5503 96.2172C89.3883 98.6452 88.7934 103.177 91.2214 106.339C93.6494 109.501 98.181 110.096 101.343 107.668L119.675 93.5909Z" fill="#FAEEDE"/>
<path d="M96.9699 109.16C101.249 109.16 104.717 105.692 104.717 101.413C104.717 97.1342 101.249 93.6656 96.9699 93.6656C92.6912 93.6656 89.2227 97.1342 89.2227 101.413C89.2227 105.692 92.6912 109.16 96.9699 109.16Z" fill="#F2E6D7"/>
<path d="M81.4891 73.1098L81.4871 73.1108C78.5753 74.6454 77.4588 78.2499 78.9934 81.1617L90.9432 103.836C92.4778 106.748 96.0823 107.864 98.9941 106.33L98.9961 106.329C101.908 104.794 103.024 101.19 101.49 98.2779L89.5399 75.6035C88.0054 72.6917 84.4009 71.5752 81.4891 73.1098Z" fill="#EF948C"/>
<path d="M81.4794 83.0824C84.4712 84.3808 87.949 83.0084 89.2471 80.0171C90.5453 77.0259 89.1723 73.5484 86.1804 72.25L81.4432 70.1941C78.4513 68.8957 74.9736 70.268 73.6754 73.2593C72.3773 76.2506 73.7503 79.7281 76.7421 81.0265L81.4794 83.0824Z" fill="#EF948C"/>
<path d="M83.4322 75.7121C84.5142 76.1817 85.772 75.6852 86.2416 74.6032C86.7111 73.5212 86.2147 72.2634 85.1326 71.7938L74.1634 67.0334C73.0814 66.5638 71.8236 67.0603 71.354 68.1423C70.8844 69.2243 71.3809 70.4821 72.4629 70.9517L83.4322 75.7121Z" fill="#EF948C"/>
<path d="M84.2046 75.3286C84.8572 76.3111 86.1827 76.5786 87.1653 75.9261C88.1478 75.2735 88.4153 73.948 87.7628 72.9654L84.083 67.4249C83.4305 66.4423 82.1049 66.1748 81.1224 66.8274C80.1398 67.4799 79.8723 68.8055 80.5249 69.788L84.2046 75.3286Z" fill="#EA8681"/>
<path d="M84.7023 79.7577C87.0263 79.7577 88.9104 77.8736 88.9104 75.5495C88.9104 73.2255 87.0263 71.3414 84.7023 71.3414C82.3782 71.3414 80.4941 73.2255 80.4941 75.5495C80.4941 77.8736 82.3782 79.7577 84.7023 79.7577Z" fill="#EA8681"/>
<path d="M119.675 93.5909C122.837 91.1629 123.432 86.6313 121.004 83.4694C118.576 80.3074 114.044 79.7124 110.882 82.1404L92.5503 96.2172C89.3883 98.6452 88.7934 103.177 91.2214 106.339C93.6494 109.501 98.181 110.096 101.343 107.668L119.675 93.5909Z" fill="#F2E6D7"/>
<path d="M96.9699 109.16C101.249 109.16 104.717 105.692 104.717 101.413C104.717 97.1342 101.249 93.6656 96.9699 93.6656C92.6912 93.6656 89.2227 97.1342 89.2227 101.413C89.2227 105.692 92.6912 109.16 96.9699 109.16Z" fill="#FAEEDE"/>
<path d="M81.4901 73.1098L81.4881 73.1108C78.5763 74.6454 77.4598 78.2499 78.9944 81.1617L90.9442 103.836C92.4788 106.748 96.0833 107.864 98.995 106.33L98.997 106.329C101.909 104.794 103.025 101.19 101.491 98.2779L89.5409 75.6035C88.0063 72.6917 84.4018 71.5752 81.4901 73.1098Z" fill="#EF948C"/>
<path d="M81.4794 83.0824C84.4712 84.3808 87.949 83.0084 89.2471 80.0171C90.5453 77.0259 89.1723 73.5484 86.1804 72.25L81.4432 70.1941C78.4513 68.8957 74.9736 70.268 73.6754 73.2593C72.3773 76.2506 73.7503 79.7281 76.7421 81.0265L81.4794 83.0824Z" fill="#EF948C"/>
<path d="M73.6755 73.2533C73.8871 72.7672 74.1622 72.3112 74.4937 71.8973C74.0717 73.2833 74.1751 74.7761 74.7842 76.0906C75.3933 77.4051 76.4653 78.4491 77.7955 79.0231L78.3718 79.2717L80.616 80.2458L82.2522 83.3488L91.9974 101.842C92.4584 102.718 93.13 103.465 93.9517 104.016C94.7733 104.567 95.7191 104.905 96.7039 105C97.6888 105.094 98.6817 104.942 99.5932 104.558C100.505 104.173 101.306 103.568 101.926 102.796C101.582 103.926 100.91 104.929 99.9948 105.677C99.08 106.424 97.9637 106.884 96.7876 106.996C95.6114 107.108 94.4285 106.868 93.3889 106.306C92.3493 105.745 91.5 104.887 90.9487 103.842L79.5696 82.2459L76.7469 81.021C76.0343 80.7137 75.3894 80.2687 74.8492 79.7117C74.3089 79.1546 73.884 78.4964 73.5986 77.7748C73.3133 77.0531 73.1732 76.2823 73.1864 75.5064C73.1996 74.7305 73.3658 73.9649 73.6755 73.2533Z" fill="#EA8681"/>
<path d="M83.4322 75.712C84.5142 76.1816 85.772 75.6851 86.2416 74.6031C86.7111 73.5211 86.2147 72.2633 85.1326 71.7937L74.1634 67.0332C73.0814 66.5637 71.8236 67.0601 71.354 68.1422C70.8844 69.2242 71.3809 70.482 72.4629 70.9515L83.4322 75.712Z" fill="#EF948C"/>
<path d="M84.2036 75.3286C84.8562 76.3111 86.1817 76.5786 87.1643 75.9261C88.1468 75.2735 88.4144 73.948 87.7618 72.9654L84.0821 67.4249C83.4295 66.4423 82.104 66.1748 81.1214 66.8274C80.1389 67.4799 79.8713 68.8055 80.5239 69.788L84.2036 75.3286Z" fill="#EF948C"/>
<path d="M84.7023 79.7577C87.0263 79.7577 88.9104 77.8736 88.9104 75.5495C88.9104 73.2255 87.0263 71.3414 84.7023 71.3414C82.3782 71.3414 80.4941 73.2255 80.4941 75.5495C80.4941 77.8736 82.3782 79.7577 84.7023 79.7577Z" fill="#EF948C"/>
<path d="M119.344 101.106C125.592 101.106 130.657 96.0404 130.657 89.7921C130.657 83.5438 125.592 78.4785 119.344 78.4785C113.096 78.4785 108.03 83.5438 108.03 89.7921C108.03 96.0404 113.096 101.106 119.344 101.106Z" fill="#F2E6D7"/>
<path d="M114.989 93.3875L115.807 129.434C115.955 135.973 121.376 141.153 127.915 141.005L138.351 140.768C144.889 140.62 150.07 135.199 149.921 128.66L149.103 92.6133C148.955 86.0746 143.534 80.8942 136.995 81.0426L126.559 81.2794C120.02 81.4278 114.84 86.8488 114.989 93.3875Z" fill="#FAEEDE"/>
<path d="M110.195 89.2931C110.128 85.9425 111.395 82.7026 113.717 80.2859C116.039 77.8693 119.226 76.4741 122.576 76.407L141.59 76.0268C144.94 75.9598 148.18 77.2265 150.597 79.5484C153.013 81.8702 154.409 85.0569 154.476 88.4075C154.53 91.1448 154.045 93.866 153.048 96.4159C152.052 98.9657 150.562 101.294 148.665 103.269C146.768 105.243 144.501 106.824 141.993 107.922C139.485 109.02 136.786 109.614 134.049 109.668L131.454 109.72C125.926 109.83 120.581 107.74 116.594 103.909C112.608 100.078 110.306 94.8209 110.195 89.2931Z" fill="#FAEEDE"/>
<path d="M133.694 109.445H133.715C139.24 109.319 144.49 107.004 148.308 103.009C152.127 99.0139 154.203 93.6654 154.08 88.14C154.004 84.7903 152.6 81.6079 150.178 79.293C147.756 76.978 144.513 75.7201 141.164 75.7958L122.155 76.2275C121.286 76.2465 120.422 76.3556 119.576 76.5529L137.823 76.1371H138.117C141.416 76.1386 144.583 77.4299 146.942 79.7352C149.3 82.0405 150.664 85.177 150.742 88.4744C150.853 93.4249 149.199 98.2535 146.076 102.096C142.952 105.938 138.563 108.543 133.694 109.445Z" fill="#FFF7EE"/>
<path d="M125.283 66.9931L125.527 77.7598C125.561 79.3721 126.226 80.9066 127.379 82.034C128.533 83.1613 130.082 83.7916 131.694 83.7895H131.835C132.645 83.771 133.443 83.593 134.185 83.2657C134.926 82.9384 135.596 82.4682 136.155 81.882C136.715 81.2958 137.153 80.6051 137.446 79.8493C137.738 79.0935 137.879 78.2875 137.86 77.4773L137.778 73.789L137.616 66.7129C137.58 65.1012 136.914 63.5676 135.761 62.4406C134.608 61.3137 133.06 60.6828 131.448 60.6832H131.306C129.671 60.7223 128.118 61.4088 126.989 62.5919C125.859 63.775 125.246 65.358 125.283 66.9931Z" fill="#EF948C"/>
<path d="M86.1641 131.793L86.1855 132.739C86.301 137.826 90.5177 141.855 95.6039 141.74L140.982 140.71C146.068 140.595 150.098 136.378 149.982 131.292L149.961 130.345C149.846 125.259 145.629 121.229 140.543 121.344L95.1645 122.374C90.0783 122.49 86.0486 126.706 86.1641 131.793Z" fill="#A3142C"/>
<path d="M130.657 131.735V189.567H150.03V131.735C150.03 129.166 149.009 126.703 147.193 124.886C145.376 123.07 142.913 122.049 140.344 122.049C137.775 122.049 135.311 123.07 133.494 124.886C131.678 126.703 130.657 129.166 130.657 131.735Z" fill="#D90429"/>
<path d="M130.657 131.735V189.567H135.695V140.536C135.695 138.855 136.134 137.203 136.966 135.742C137.799 134.282 138.997 133.063 140.443 132.206C141.889 131.348 143.533 130.882 145.214 130.853C146.895 130.823 148.555 131.232 150.03 132.038V131.735C150.03 129.166 149.009 126.703 147.193 124.886C145.376 123.07 142.913 122.049 140.344 122.049C137.775 122.049 135.311 123.07 133.494 124.886C131.678 126.703 130.657 129.166 130.657 131.735Z" fill="#555A8B"/>
<path d="M130.657 181.236V189.567H150.03V184.278L130.657 181.236Z" fill="#141334"/>
<path d="M66.6045 183.078L83.8732 190L85.8235 184.945L104.841 135.677C105.299 134.49 105.519 133.224 105.488 131.952C105.457 130.68 105.175 129.426 104.659 128.263C104.144 127.1 103.404 126.05 102.483 125.172C101.561 124.295 100.476 123.608 99.2886 123.15C98.1015 122.692 96.8357 122.472 95.5637 122.503C94.2917 122.535 93.0383 122.816 91.875 123.332C90.7117 123.847 89.6614 124.587 88.784 125.508C87.9067 126.43 87.2194 127.515 86.7614 128.702L68.9413 174.892L66.6113 180.92L66.6045 183.078Z" fill="#A3142C"/>
<path d="M78.2783 197.794L64.7238 192.561L67.5906 185.135L81.1451 190.368L78.2783 197.794Z" fill="#EA8681"/>
<path d="M147.609 198.516H133.08V191.076H147.609V198.516Z" fill="#EF948C"/>
<path d="M125.283 66.9932L125.527 77.7598C125.539 78.3246 125.629 78.8852 125.794 79.4254H126.246C128.471 79.4266 130.667 78.918 132.665 77.9386C134.663 76.9592 136.41 75.535 137.772 73.7754L137.609 66.6994C137.573 65.0876 136.907 63.5541 135.755 62.4271C134.602 61.3001 133.054 60.6693 131.442 60.6697H131.306C130.495 60.689 129.696 60.868 128.955 61.1963C128.213 61.5246 127.543 61.9959 126.984 62.5832C126.425 63.1705 125.987 63.8622 125.695 64.6189C125.403 65.3756 125.263 66.1824 125.283 66.9932Z" fill="#EA8681"/>
<path d="M114.582 61.9489C114.582 65.6792 116.011 69.2678 118.575 71.9772C121.139 74.6866 124.643 76.3111 128.368 76.5168C128.628 76.5304 128.888 76.5372 129.152 76.5372C131.083 76.5612 133 76.2016 134.79 75.4794C136.581 74.7571 138.211 73.6864 139.585 72.3295C140.959 70.9725 142.05 69.3563 142.794 67.5746C143.539 65.7929 143.922 63.881 143.922 61.95C143.922 60.0189 143.539 58.1071 142.794 56.3254C142.05 54.5436 140.959 52.9274 139.585 51.5705C138.211 50.2136 136.581 49.1429 134.79 48.4206C133 47.6983 131.083 47.3388 129.152 47.3628C128.888 47.3628 128.628 47.3628 128.368 47.3832C124.644 47.5883 121.139 49.2123 118.575 51.9214C116.011 54.6305 114.582 58.2188 114.582 61.9489Z" fill="#EF948C"/>
<path d="M123.149 65.8858C123.15 66.3135 123.235 66.7369 123.399 67.1317C123.564 67.5265 123.804 67.8849 124.108 68.1865C124.182 68.2611 124.261 68.3311 124.334 68.3967C124.917 68.8772 125.65 69.1386 126.406 69.1357H126.539C127.356 69.1322 128.142 68.8223 128.741 68.2674C129.34 67.7125 129.71 66.953 129.776 66.1389C129.776 66.0485 129.776 65.9581 129.776 65.8677C129.777 65.7839 129.761 65.7007 129.729 65.6231C129.697 65.5455 129.65 65.475 129.59 65.4157C129.47 65.2972 129.307 65.2314 129.138 65.2327L123.755 65.2462C123.591 65.2527 123.435 65.3232 123.322 65.4427C123.209 65.5622 123.147 65.7213 123.149 65.8858Z" fill="#962F4A"/>
<path d="M126.479 68.6339C126.479 68.8023 126.496 68.9703 126.528 69.1356H126.546C127.363 69.1331 128.15 68.8236 128.749 68.2685C129.349 67.7134 129.717 66.9532 129.783 66.1388C129.549 66.0703 129.306 66.0361 129.062 66.0371C128.722 66.038 128.385 66.1059 128.071 66.2369C127.757 66.3679 127.472 66.5594 127.232 66.8005C126.992 67.0416 126.802 67.3276 126.673 67.6422C126.544 67.9568 126.478 68.2938 126.479 68.6339Z" fill="#E1617F"/>
<path d="M123.897 65.253C123.925 65.8926 124.912 66.4011 126.124 66.3988C127.335 66.3966 128.318 65.8813 128.341 65.2417L123.897 65.253Z" fill="white"/>
<path d="M114.582 61.9489C114.582 65.6792 116.011 69.2678 118.575 71.9772C121.139 74.6867 124.643 76.3111 128.368 76.5168C128.77 76.4942 129.17 76.4581 129.566 76.4016C126.073 75.922 122.873 74.194 120.556 71.5371C118.239 68.8802 116.962 65.4742 116.962 61.9489C116.962 58.4236 118.239 55.0175 120.556 52.3606C122.873 49.7037 126.073 47.9757 129.566 47.4962C129.17 47.4419 128.77 47.4035 128.368 47.3832C124.644 47.5883 121.139 49.2123 118.575 51.9214C116.011 54.6305 114.582 58.2188 114.582 61.9489Z" fill="#EA8681"/>
<path d="M141.205 87.8959V88.0473C141.347 92.8657 144.561 96.6851 148.484 96.7438H148.737C152.819 96.6376 156.06 92.4995 155.969 87.5049C155.924 84.7387 155.336 82.5013 153.709 80.8854C152.736 79.9882 151.579 79.3134 150.319 78.9079C149.29 78.603 148.199 78.5749 147.155 78.8265C143.711 79.6582 141.132 83.4347 141.205 87.8959Z" fill="#FAEEDE"/>
<path d="M140.913 87.7083V87.862C141.037 91.3401 142.75 94.3143 145.182 95.772C143.914 94.0702 143.203 92.0176 143.148 89.896C143.148 89.844 143.148 89.7943 143.148 89.7423C143.051 85.2088 145.688 81.3803 149.25 80.5577C149.681 80.4551 150.122 80.399 150.565 80.3904C151.228 80.3772 151.889 80.4664 152.525 80.6549C153.08 80.82 153.611 81.0555 154.107 81.3555C153.158 80.0612 151.82 79.1033 150.29 78.6209C149.225 78.303 148.096 78.2695 147.015 78.5237C143.451 79.3531 140.813 83.168 140.913 87.7083Z" fill="#F2E6D7"/>
<path d="M157.038 85.2732C155.357 81.658 151.064 80.0896 147.449 81.77C143.834 83.4504 142.266 87.7433 143.946 91.3585L153.688 112.318C155.369 115.933 159.662 117.502 163.277 115.821C166.892 114.141 168.46 109.848 166.78 106.233L157.038 85.2732Z" fill="#FAEEDE"/>
<path d="M159.719 116.894C163.998 116.894 167.466 113.425 167.466 109.147C167.466 104.868 163.998 101.399 159.719 101.399C155.44 101.399 151.972 104.868 151.972 109.147C151.972 113.425 155.44 116.894 159.719 116.894Z" fill="#F2E6D7"/>
<path d="M157.038 85.2732C155.357 81.658 151.064 80.0896 147.449 81.77C143.834 83.4504 142.266 87.7433 143.946 91.3585L153.688 112.318C155.369 115.933 159.662 117.502 163.277 115.821C166.892 114.141 168.46 109.848 166.78 106.233L157.038 85.2732Z" fill="#FAEEDE"/>
<path d="M143.671 85.9614C144.365 84.8663 145.34 83.9782 146.496 83.3905C147.651 82.8027 148.944 82.537 150.237 82.6212C151.531 82.7053 152.778 83.1363 153.848 83.8688C154.917 84.6013 155.77 85.6083 156.316 86.784L166.056 107.743C166.846 109.438 166.947 111.373 166.336 113.14C167.07 111.983 167.462 110.643 167.466 109.273C167.465 108.224 167.234 107.188 166.788 106.238L157.048 85.2788C156.443 83.9734 155.461 82.8787 154.23 82.1352C152.998 81.3916 151.572 81.0333 150.135 81.1062C148.698 81.1791 147.316 81.6798 146.166 82.5442C145.015 83.4085 144.15 84.5969 143.68 85.9568L143.671 85.9614Z" fill="#FFF7EE"/>
<path d="M159.719 116.894C163.998 116.894 167.466 113.425 167.466 109.147C167.466 104.868 163.998 101.399 159.719 101.399C155.44 101.399 151.972 104.868 151.972 109.147C151.972 113.425 155.44 116.894 159.719 116.894Z" fill="#F2E6D7"/>
<path d="M117.871 58.604H139.639C143.498 58.604 146.627 55.4754 146.627 51.6161C146.627 47.7568 143.498 44.6282 139.639 44.6282H117.871C114.011 44.6282 110.883 47.7568 110.883 51.6161C110.883 55.4754 114.011 58.604 117.871 58.604Z" fill="#A3142C"/>
<path d="M142.547 65.3479C145.877 65.3479 148.577 62.6484 148.577 59.3183C148.577 55.9882 145.877 53.2886 142.547 53.2886C139.217 53.2886 136.518 55.9882 136.518 59.3183C136.518 62.6484 139.217 65.3479 142.547 65.3479Z" fill="#A3142C"/>
<path d="M143.625 65.3479C146.36 65.3479 148.577 63.131 148.577 60.3962C148.577 57.6615 146.36 55.4446 143.625 55.4446C140.891 55.4446 138.674 57.6615 138.674 60.3962C138.674 63.131 140.891 65.3479 143.625 65.3479Z" fill="#49466B"/>
<path d="M143.742 66.7852C146.412 66.7852 148.576 64.6209 148.576 61.9511C148.576 59.2813 146.412 57.1169 143.742 57.1169C141.073 57.1169 138.908 59.2813 138.908 61.9511C138.908 64.6209 141.073 66.7852 143.742 66.7852Z" fill="#EF948C"/>
<path d="M143.363 63.4563V60.4415C143.363 60.3662 143.381 60.2919 143.416 60.2249C143.45 60.1579 143.5 60.0999 143.561 60.0558C143.622 60.0117 143.693 59.9827 143.767 59.9712C143.842 59.9597 143.918 59.9659 143.989 59.9895C144.405 60.1228 144.768 60.3847 145.025 60.7374C145.283 61.0902 145.421 61.5156 145.421 61.9523C145.421 62.389 145.283 62.8144 145.025 63.1672C144.768 63.52 144.405 63.7819 143.989 63.9151C143.917 63.9383 143.841 63.9442 143.766 63.9321C143.691 63.92 143.62 63.8903 143.559 63.8455C143.498 63.8008 143.448 63.7421 143.414 63.6745C143.38 63.6068 143.363 63.5321 143.363 63.4563Z" fill="#EA8681"/>
<path d="M118.94 58.7284C124.041 58.7284 128.176 54.593 128.176 49.4917C128.176 44.3905 124.041 40.2551 118.94 40.2551C113.839 40.2551 109.703 44.3905 109.703 49.4917C109.703 54.593 113.839 58.7284 118.94 58.7284Z" fill="#A3142C"/>
<path d="M110.543 49.494C110.542 50.5871 110.773 51.668 111.22 52.6654C111.668 53.6628 112.322 54.554 113.139 55.2801C113.956 56.0063 114.918 56.5509 115.961 56.878C117.004 57.2052 118.104 57.3074 119.19 57.178C117.311 56.9543 115.58 56.0495 114.324 54.635C113.068 53.2206 112.375 51.3946 112.375 49.503C112.375 47.6114 113.068 45.7854 114.324 44.371C115.58 42.9565 117.311 42.0518 119.19 41.8281C118.104 41.6986 117.004 41.8009 115.961 42.128C114.918 42.4552 113.956 42.9998 113.139 43.7259C112.322 44.4521 111.668 45.3432 111.22 46.3406C110.773 47.338 110.542 48.4189 110.543 49.5121V49.494Z" fill="#49466B"/>
<path d="M126.253 50.2602C129.762 50.2602 132.608 47.4149 132.608 43.905C132.608 40.3952 129.762 37.5499 126.253 37.5499C122.743 37.5499 119.897 40.3952 119.897 43.905C119.897 47.4149 122.743 50.2602 126.253 50.2602Z" fill="#A3142C"/>
<path d="M119.19 60.8076C119.207 61.2514 119.394 61.6717 119.714 61.98C120.034 62.2884 120.46 62.4606 120.905 62.4606C121.349 62.4606 121.776 62.2884 122.095 61.98C122.415 61.6717 122.603 61.2514 122.619 60.8076C122.619 60.6735 122.603 60.5399 122.571 60.4098C122.482 60.7849 122.269 61.119 121.967 61.3581C121.664 61.5971 121.29 61.7272 120.905 61.7272C120.519 61.7272 120.145 61.5971 119.842 61.3581C119.54 61.119 119.327 60.7849 119.238 60.4098C119.206 60.5399 119.19 60.6735 119.19 60.8076Z" fill="#A3142C"/>
<path d="M128.607 60.8076C128.607 61.2625 128.788 61.6988 129.11 62.0205C129.432 62.3422 129.868 62.5229 130.323 62.5229C130.778 62.5229 131.214 62.3422 131.536 62.0205C131.857 61.6988 132.038 61.2625 132.038 60.8076C132.039 60.6735 132.023 60.5399 131.991 60.4098C131.901 60.7844 131.687 61.1178 131.385 61.3563C131.082 61.5947 130.708 61.7244 130.323 61.7244C129.938 61.7244 129.563 61.5947 129.261 61.3563C128.958 61.1178 128.745 60.7844 128.655 60.4098C128.623 60.5399 128.607 60.6735 128.607 60.8076Z" fill="#A3142C"/>
<path d="M130.66 202.211H149.12C149.12 199.763 148.147 197.416 146.416 195.685C144.686 193.954 142.338 192.981 139.89 192.981C137.442 192.981 135.094 193.954 133.364 195.685C131.633 197.416 130.66 199.763 130.66 202.211Z" fill="#A3142C"/>
<path d="M130.659 202.211H134.922C134.923 200.202 135.554 198.243 136.726 196.612C137.899 194.98 139.553 193.757 141.457 193.115C140.132 192.889 138.774 192.955 137.477 193.308C136.18 193.661 134.976 194.292 133.948 195.158C132.92 196.024 132.093 197.104 131.525 198.322C130.957 199.54 130.662 200.867 130.659 202.211Z" fill="#49466B"/>
<path d="M128.104 200.541C128.104 200.722 128.122 200.902 128.158 201.079C128.175 201.165 128.197 201.25 128.223 201.334C128.249 201.417 128.279 201.499 128.314 201.578C128.413 201.816 128.547 202.038 128.711 202.236C128.766 202.302 128.822 202.363 128.883 202.424C128.943 202.484 129.007 202.54 129.073 202.593C129.549 202.987 130.148 203.201 130.766 203.201H150.464C150.988 203.202 151.491 202.998 151.867 202.633C152.242 202.268 152.459 201.77 152.472 201.246C152.485 200.723 152.293 200.215 151.936 199.831C151.579 199.448 151.087 199.219 150.563 199.194L135.797 198.202L130.895 197.877C130.453 197.854 130.014 197.942 129.615 198.134C129.5 198.191 129.388 198.255 129.281 198.326C129.177 198.396 129.076 198.471 128.98 198.552C128.885 198.638 128.797 198.731 128.716 198.83C128.662 198.896 128.61 198.964 128.562 199.034C128.391 199.286 128.266 199.566 128.192 199.861C128.169 199.946 128.151 200.032 128.137 200.118C128.115 200.258 128.104 200.399 128.104 200.541Z" fill="#A3142C"/>
<path d="M128.104 200.541C128.104 200.722 128.122 200.902 128.158 201.079C128.174 201.166 128.196 201.251 128.223 201.334C128.248 201.418 128.278 201.499 128.314 201.579C128.413 201.816 128.547 202.038 128.711 202.236C128.766 202.302 128.822 202.363 128.883 202.424C128.943 202.484 129.007 202.54 129.073 202.593C129.549 202.987 130.148 203.202 130.766 203.201H137.082C136.492 203.202 135.917 203.006 135.45 202.644C134.983 202.282 134.649 201.775 134.502 201.203C134.355 200.63 134.402 200.025 134.636 199.483C134.871 198.941 135.279 198.492 135.797 198.207L130.895 197.881C130.453 197.859 130.014 197.947 129.615 198.139C129.385 198.25 129.171 198.394 128.98 198.566C128.885 198.652 128.797 198.745 128.716 198.844C128.661 198.909 128.61 198.977 128.562 199.047C128.391 199.299 128.266 199.579 128.192 199.874C128.169 199.959 128.151 200.045 128.137 200.132C128.116 200.267 128.104 200.404 128.104 200.541Z" fill="#49466B"/>
<path d="M79.0381 200.122L64.2063 193.887L66.5569 188.295L78.9782 193.517C79.6175 193.785 80.1239 194.297 80.3859 194.939C80.6479 195.581 80.6441 196.301 80.3754 196.94L79.0381 200.122Z" fill="#49466B"/>
<path d="M52.999 191.167L70.0168 198.319C70.9654 196.063 70.9786 193.522 70.0536 191.255C69.1285 188.989 67.3411 187.183 65.0844 186.234C62.8277 185.286 60.2866 185.272 58.0202 186.197C55.7537 187.122 53.9476 188.91 52.999 191.167Z" fill="#A3142C"/>
<path d="M52.999 191.167L57.7812 193.176C58.5542 191.336 59.9027 189.796 61.6246 188.787C63.3465 187.778 65.349 187.355 67.3319 187.58C66.2193 186.676 64.9113 186.043 63.5117 185.732C62.1121 185.421 60.6593 185.441 59.2685 185.789C57.8776 186.137 56.587 186.804 55.4987 187.737C54.4105 188.671 53.5547 189.845 52.999 191.167Z" fill="#49466B"/>
<path d="M80.1647 199.312L55.7183 187.612C55.3932 187.456 55.04 187.368 54.6799 187.353C54.3199 187.339 53.9606 187.397 53.6238 187.525C53.287 187.653 52.9797 187.848 52.7205 188.098C52.4613 188.349 52.2556 188.649 52.1159 188.981C51.9801 189.304 51.9093 189.649 51.9073 189.999C51.9053 190.349 51.9722 190.695 52.1042 191.019C52.2362 191.343 52.4307 191.638 52.6766 191.886C52.9225 192.135 53.215 192.333 53.5374 192.468L78.5217 202.971C79.012 203.176 79.564 203.179 80.0564 202.978C80.5488 202.777 80.9413 202.389 81.1478 201.899C81.3475 201.424 81.3568 200.891 81.1738 200.409C80.9908 199.927 80.6295 199.534 80.1647 199.312Z" fill="#A3142C"/>
<path d="M52.116 188.983C51.8427 189.634 51.8388 190.367 52.1054 191.02C52.372 191.674 52.8871 192.195 53.5376 192.468L59.3593 194.916C58.8007 194.681 58.339 194.263 58.0504 193.73C57.7619 193.197 57.6638 192.581 57.7723 191.985C57.8809 191.389 58.1896 190.848 58.6474 190.451C59.1053 190.054 59.6849 189.825 60.2904 189.802L55.7207 187.612C55.3954 187.456 55.0418 187.368 54.6814 187.353C54.321 187.338 53.9614 187.397 53.6243 187.525C53.2872 187.653 52.9797 187.849 52.7204 188.099C52.4611 188.35 52.2555 188.651 52.116 188.983Z" fill="#49466B"/>
<path d="M159.721 120.049L161.246 124.397L163.929 132.056L188.866 203.212H194.428L175.312 132.056L173.256 124.397L172.087 120.049H159.721Z" fill="#441242"/>
<path d="M161.246 124.397L163.929 132.056H175.312L173.256 124.397H161.246Z" fill="#2F073A"/>
<path d="M80.0623 120.049L78.5368 124.397L75.8542 132.056L50.9173 203.212H45.3555L64.4705 132.056L66.5271 124.397L67.6956 120.049H80.0623Z" fill="#441242"/>
<path d="M78.5369 124.397L75.8543 132.056H64.4707L66.5273 124.397H78.5369Z" fill="#2F073A"/>
<path d="M187.695 127.708H55.2209C54.3422 127.708 53.4995 127.359 52.8781 126.738C52.2568 126.116 51.9077 125.274 51.9077 124.395V120.051H191.011V124.393C191.011 124.828 190.925 125.259 190.759 125.662C190.592 126.064 190.348 126.43 190.04 126.738C189.732 127.046 189.367 127.29 188.964 127.456C188.562 127.623 188.131 127.708 187.695 127.708Z" fill="#441242"/>
<path d="M38.2387 122.094H204.676C206.354 122.094 207.714 120.734 207.714 119.057C207.714 117.379 206.354 116.019 204.676 116.019H38.2387C36.5612 116.019 35.2013 117.379 35.2013 119.057C35.2013 120.734 36.5612 122.094 38.2387 122.094Z" fill="#D8BA9F"/>
<path d="M35.2021 119.057C35.2027 119.862 35.523 120.634 36.0925 121.204C36.662 121.773 37.4342 122.094 38.2396 122.094H204.677C205.483 122.094 206.255 121.774 206.825 121.205C207.395 120.635 207.715 119.862 207.715 119.057C207.716 118.698 207.652 118.342 207.527 118.006C207.312 118.588 206.924 119.091 206.414 119.446C205.904 119.801 205.298 119.991 204.677 119.99H38.2396C37.8407 119.991 37.4456 119.912 37.0771 119.759C36.7086 119.607 36.374 119.382 36.0926 119.1C35.7809 118.791 35.5416 118.418 35.392 118.006C35.2664 118.342 35.202 118.698 35.2021 119.057Z" fill="#C89F87"/>
<path d="M185.971 125.945C186.591 125.945 187.094 125.442 187.094 124.822C187.094 124.202 186.591 123.699 185.971 123.699C185.351 123.699 184.848 124.202 184.848 124.822C184.848 125.442 185.351 125.945 185.971 125.945Z" fill="#D8BA9F"/>
<path d="M185.727 126.266C186.483 126.266 187.097 125.653 187.097 124.897C187.097 124.14 186.483 123.527 185.727 123.527C184.971 123.527 184.357 124.14 184.357 124.897C184.357 125.653 184.971 126.266 185.727 126.266Z" fill="#2F073A"/>
<path d="M185.971 125.945C186.591 125.945 187.094 125.442 187.094 124.822C187.094 124.202 186.591 123.699 185.971 123.699C185.351 123.699 184.848 124.202 184.848 124.822C184.848 125.442 185.351 125.945 185.971 125.945Z" fill="#D8BA9F"/>
<path d="M184.848 124.822C184.848 125.122 184.967 125.409 185.179 125.621C185.391 125.833 185.678 125.952 185.978 125.952H186.095C185.827 125.912 185.583 125.777 185.406 125.572C185.23 125.367 185.132 125.105 185.132 124.834C185.132 124.564 185.23 124.302 185.406 124.097C185.583 123.892 185.827 123.757 186.095 123.717C186.056 123.715 186.017 123.715 185.978 123.717C185.682 123.717 185.399 123.832 185.187 124.039C184.976 124.246 184.854 124.527 184.848 124.822Z" fill="#C89F87"/>
<path d="M185.971 125.43C186.028 125.448 186.087 125.457 186.147 125.457C186.317 125.457 186.48 125.39 186.601 125.269C186.721 125.149 186.789 124.986 186.789 124.815C186.789 124.645 186.721 124.482 186.601 124.361C186.48 124.241 186.317 124.173 186.147 124.173C186.087 124.173 186.028 124.182 185.971 124.201C186.105 124.237 186.224 124.318 186.309 124.429C186.394 124.54 186.44 124.676 186.44 124.815C186.44 124.955 186.394 125.091 186.309 125.202C186.224 125.313 186.105 125.393 185.971 125.43Z" fill="#F5EAE4"/>
<path d="M179.688 125.945C180.308 125.945 180.811 125.442 180.811 124.822C180.811 124.202 180.308 123.699 179.688 123.699C179.067 123.699 178.564 124.202 178.564 124.822C178.564 125.442 179.067 125.945 179.688 125.945Z" fill="#D8BA9F"/>
<path d="M179.444 126.266C180.2 126.266 180.813 125.653 180.813 124.897C180.813 124.14 180.2 123.527 179.444 123.527C178.687 123.527 178.074 124.14 178.074 124.897C178.074 125.653 178.687 126.266 179.444 126.266Z" fill="#2F073A"/>
<path d="M179.688 125.945C180.308 125.945 180.811 125.442 180.811 124.822C180.811 124.202 180.308 123.699 179.688 123.699C179.067 123.699 178.564 124.202 178.564 124.822C178.564 125.442 179.067 125.945 179.688 125.945Z" fill="#D8BA9F"/>
<path d="M178.567 124.822C178.567 125.122 178.686 125.409 178.898 125.621C179.11 125.833 179.398 125.952 179.697 125.952H179.815C179.547 125.912 179.303 125.777 179.126 125.572C178.949 125.367 178.852 125.105 178.852 124.835C178.852 124.564 178.949 124.302 179.126 124.097C179.303 123.892 179.547 123.757 179.815 123.717C179.776 123.715 179.737 123.715 179.697 123.717C179.402 123.717 179.118 123.833 178.907 124.039C178.696 124.246 178.574 124.527 178.567 124.822Z" fill="#C89F87"/>
<path d="M179.688 125.43C179.745 125.448 179.805 125.457 179.865 125.457C180.035 125.457 180.198 125.39 180.319 125.269C180.439 125.149 180.507 124.986 180.507 124.815C180.507 124.645 180.439 124.482 180.319 124.361C180.198 124.241 180.035 124.173 179.865 124.173C179.805 124.173 179.745 124.182 179.688 124.201C179.823 124.237 179.942 124.318 180.027 124.429C180.112 124.54 180.158 124.676 180.158 124.815C180.158 124.955 180.112 125.091 180.027 125.202C179.942 125.313 179.823 125.393 179.688 125.43Z" fill="#F5EAE4"/>
<path d="M57.551 125.945C58.1713 125.945 58.6742 125.442 58.6742 124.822C58.6742 124.202 58.1713 123.699 57.551 123.699C56.9306 123.699 56.4277 124.202 56.4277 124.822C56.4277 125.442 56.9306 125.945 57.551 125.945Z" fill="#D8BA9F"/>
<path d="M57.7953 126.266C58.5517 126.266 59.1649 125.653 59.1649 124.897C59.1649 124.14 58.5517 123.527 57.7953 123.527C57.039 123.527 56.4258 124.14 56.4258 124.897C56.4258 125.653 57.039 126.266 57.7953 126.266Z" fill="#2F073A"/>
<path d="M57.551 125.945C58.1713 125.945 58.6742 125.442 58.6742 124.822C58.6742 124.202 58.1713 123.699 57.551 123.699C56.9306 123.699 56.4277 124.202 56.4277 124.822C56.4277 125.442 56.9306 125.945 57.551 125.945Z" fill="#D8BA9F"/>
<path d="M58.6743 124.822C58.6743 125.122 58.5552 125.409 58.3433 125.621C58.1314 125.833 57.844 125.952 57.5443 125.952H57.4268C57.6945 125.912 57.939 125.777 58.1157 125.572C58.2924 125.367 58.3896 125.105 58.3896 124.834C58.3896 124.564 58.2924 124.302 58.1157 124.097C57.939 123.892 57.6945 123.757 57.4268 123.717C57.4659 123.715 57.5051 123.715 57.5443 123.717C57.8397 123.717 58.1234 123.832 58.3346 124.039C58.5459 124.246 58.6678 124.527 58.6743 124.822Z" fill="#C89F87"/>
<path d="M57.5505 125.43C57.4936 125.448 57.4341 125.457 57.3743 125.457C57.204 125.457 57.0408 125.39 56.9204 125.269C56.8 125.149 56.7324 124.986 56.7324 124.815C56.7324 124.645 56.8 124.482 56.9204 124.361C57.0408 124.241 57.204 124.173 57.3743 124.173C57.4341 124.173 57.4936 124.182 57.5505 124.201C57.4171 124.239 57.2998 124.32 57.2162 124.431C57.1327 124.541 57.0875 124.676 57.0875 124.815C57.0875 124.954 57.1327 125.089 57.2162 125.2C57.2998 125.311 57.4171 125.392 57.5505 125.43Z" fill="#F5EAE4"/>
<path d="M63.8342 125.945C64.4545 125.945 64.9574 125.442 64.9574 124.822C64.9574 124.202 64.4545 123.699 63.8342 123.699C63.2138 123.699 62.7109 124.202 62.7109 124.822C62.7109 125.442 63.2138 125.945 63.8342 125.945Z" fill="#D8BA9F"/>
<path d="M64.0776 126.266C64.834 126.266 65.4471 125.653 65.4471 124.897C65.4471 124.14 64.834 123.527 64.0776 123.527C63.3212 123.527 62.708 124.14 62.708 124.897C62.708 125.653 63.3212 126.266 64.0776 126.266Z" fill="#2F073A"/>
<path d="M63.8342 125.945C64.4545 125.945 64.9574 125.442 64.9574 124.822C64.9574 124.202 64.4545 123.699 63.8342 123.699C63.2138 123.699 62.7109 124.202 62.7109 124.822C62.7109 125.442 63.2138 125.945 63.8342 125.945Z" fill="#D8BA9F"/>
<path d="M64.9545 124.822C64.9545 125.122 64.8355 125.409 64.6236 125.621C64.4117 125.833 64.1242 125.952 63.8245 125.952H63.707C63.9748 125.912 64.2193 125.777 64.396 125.572C64.5727 125.367 64.6699 125.105 64.6699 124.834C64.6699 124.564 64.5727 124.302 64.396 124.097C64.2193 123.892 63.9748 123.757 63.707 123.717C63.7462 123.715 63.7854 123.715 63.8245 123.717C64.12 123.717 64.4037 123.832 64.6149 124.039C64.8261 124.246 64.948 124.527 64.9545 124.822Z" fill="#C89F87"/>
<path d="M63.8338 125.43C63.7768 125.448 63.7173 125.457 63.6575 125.457C63.4872 125.457 63.324 125.39 63.2036 125.269C63.0832 125.149 63.0156 124.986 63.0156 124.815C63.0156 124.645 63.0832 124.482 63.2036 124.361C63.324 124.241 63.4872 124.173 63.6575 124.173C63.7173 124.173 63.7768 124.182 63.8338 124.201C63.699 124.237 63.5801 124.318 63.4953 124.429C63.4106 124.54 63.3646 124.676 63.3646 124.815C63.3646 124.955 63.4106 125.091 63.4953 125.202C63.5801 125.313 63.699 125.393 63.8338 125.43Z" fill="#F5EAE4"/>
<path d="M132.164 108.766C133.339 108.659 134.204 107.619 134.096 106.445C133.989 105.27 132.949 104.405 131.775 104.512L125.151 105.119C123.976 105.226 123.111 106.266 123.219 107.44C123.326 108.615 124.366 109.48 125.54 109.372L132.164 108.766Z" fill="#EA8681"/>
<path d="M132.61 112.65C134.935 112.65 136.819 110.766 136.819 108.442C136.819 106.117 134.935 104.233 132.61 104.233C130.286 104.233 128.402 106.117 128.402 108.442C128.402 110.766 130.286 112.65 132.61 112.65Z" fill="#EA8681"/>
<path d="M128.952 110.117L128.952 110.119C128.919 113.41 131.561 116.105 134.852 116.137L160.481 116.392C163.773 116.425 166.467 113.784 166.5 110.492L166.5 110.49C166.533 107.199 163.891 104.504 160.6 104.471L134.97 104.217C131.679 104.184 128.985 106.825 128.952 110.117Z" fill="#EF948C"/>
<path d="M137.688 114.856C140.252 112.84 140.696 109.127 138.681 106.564C136.665 104.001 132.953 103.557 130.389 105.573L126.33 108.765C123.766 110.781 123.322 114.494 125.337 117.057C127.353 119.62 131.065 120.064 133.629 118.048L137.688 114.856Z" fill="#EF948C"/>
<path d="M132.132 109.634C133.06 108.905 133.22 107.562 132.491 106.635C131.762 105.708 130.419 105.547 129.492 106.277L120.092 113.668C119.165 114.397 119.005 115.74 119.734 116.667C120.463 117.594 121.806 117.755 122.733 117.026L132.132 109.634Z" fill="#EF948C"/>
<path d="M132.164 108.766C133.339 108.659 134.204 107.619 134.096 106.445C133.989 105.27 132.949 104.405 131.775 104.512L125.151 105.119C123.976 105.226 123.111 106.266 123.219 107.44C123.326 108.615 124.366 109.48 125.54 109.372L132.164 108.766Z" fill="#EF948C"/>
<path d="M132.61 112.65C134.935 112.65 136.819 110.766 136.819 108.442C136.819 106.118 134.935 104.234 132.61 104.234C130.286 104.234 128.402 106.118 128.402 108.442C128.402 110.766 130.286 112.65 132.61 112.65Z" fill="#EF948C"/>
<path d="M128.952 110.117L128.952 110.119C128.919 113.41 131.561 116.105 134.852 116.137L160.481 116.392C163.773 116.425 166.467 113.784 166.5 110.492L166.5 110.49C166.533 107.199 163.891 104.504 160.6 104.471L134.97 104.217C131.679 104.184 128.985 106.825 128.952 110.117Z" fill="#EF948C"/>
<path d="M137.688 114.856C140.252 112.84 140.696 109.127 138.681 106.564C136.665 104.001 132.953 103.557 130.389 105.573L126.33 108.765C123.766 110.781 123.322 114.494 125.337 117.057C127.353 119.62 131.065 120.064 133.629 118.048L137.688 114.856Z" fill="#EF948C"/>
<path d="M124.763 115.563C125.731 116.794 127.148 117.59 128.703 117.776C130.258 117.962 131.824 117.523 133.055 116.555L133.733 116.019L135.468 114.663L137.914 114.686L159.876 114.912C161.457 114.928 162.98 114.315 164.109 113.208C165.238 112.102 165.881 110.592 165.897 109.011V108.932C165.897 108.449 165.838 107.968 165.721 107.499C166.226 108.391 166.491 109.399 166.489 110.424V110.485C166.482 111.267 166.321 112.041 166.015 112.761C165.709 113.482 165.264 114.135 164.705 114.683C164.147 115.231 163.486 115.664 162.76 115.957C162.034 116.25 161.258 116.397 160.475 116.39L136.067 116.15L133.649 118.051C132.873 118.661 131.957 119.066 130.984 119.23C130.011 119.394 129.012 119.312 128.079 118.991C127.146 118.67 126.308 118.121 125.642 117.393C124.976 116.665 124.503 115.782 124.266 114.824C124.413 115.082 124.579 115.329 124.763 115.563Z" fill="#F3A6A0"/>
<path d="M132.132 109.634C133.06 108.905 133.22 107.562 132.491 106.635C131.762 105.708 130.419 105.547 129.492 106.277L120.092 113.668C119.165 114.397 119.005 115.74 119.734 116.667C120.463 117.594 121.806 117.755 122.733 117.026L132.132 109.634Z" fill="#EF948C"/>
<path d="M134.699 113.042C135.508 112.405 135.648 111.233 135.012 110.424C134.375 109.614 133.203 109.474 132.394 110.11L129.665 112.256C128.856 112.893 128.715 114.065 129.352 114.874C129.988 115.684 131.161 115.824 131.97 115.187L134.699 113.042Z" fill="#F3A6A0"/>
<path d="M118.042 67.1853C121.486 67.1853 124.277 64.3936 124.277 60.9499C124.277 57.5063 121.486 54.7146 118.042 54.7146C114.598 54.7146 111.807 57.5063 111.807 60.9499C111.807 64.3936 114.598 67.1853 118.042 67.1853Z" stroke="white" stroke-width="2.85" stroke-miterlimit="10"/>
<path d="M132.755 67.1853C136.199 67.1853 138.99 64.3936 138.99 60.9499C138.99 57.5063 136.199 54.7146 132.755 54.7146C129.311 54.7146 126.52 57.5063 126.52 60.9499C126.52 64.3936 129.311 67.1853 132.755 67.1853Z" stroke="white" stroke-width="2.85" stroke-miterlimit="10"/>
<path d="M124.272 61.194H126.523" stroke="white" stroke-width="2.85" stroke-miterlimit="10"/>
<path d="M66.6045 183.078L83.8732 190L85.8235 184.945L68.9413 174.892L66.6113 180.92L66.6045 183.078Z" fill="#141334"/>
<path d="M91.822 114.137H88.2873V113.459C88.2873 113.151 88.4097 112.855 88.6276 112.637C88.8454 112.419 89.1409 112.297 89.449 112.297H90.6626C90.9707 112.297 91.2661 112.419 91.484 112.637C91.7018 112.855 91.8242 113.151 91.8242 113.459V114.137H91.822Z" fill="#ABB2D8"/>
<path d="M95.3564 114.137H91.8218V113.459C91.8236 113.152 91.9465 112.859 92.1636 112.643C92.3808 112.426 92.6747 112.305 92.9812 112.304H94.1948C94.5029 112.304 94.7984 112.426 95.0162 112.644C95.2341 112.862 95.3564 113.157 95.3564 113.466V114.144V114.137Z" fill="#ABB2D8"/>
<path d="M98.8933 114.137H95.3586V113.459C95.3586 113.151 95.481 112.855 95.6989 112.637C95.9167 112.419 96.2122 112.297 96.5203 112.297H97.7339C98.042 112.297 98.3374 112.419 98.5553 112.637C98.7731 112.855 98.8955 113.151 98.8955 113.459V114.137H98.8933Z" fill="#ABB2D8"/>
<path d="M102.428 114.137H98.8938V113.459C98.8938 113.151 99.0162 112.855 99.234 112.637C99.4518 112.419 99.7473 112.297 100.055 112.297H101.269C101.577 112.297 101.873 112.419 102.09 112.637C102.308 112.855 102.431 113.151 102.431 113.459V114.137H102.428Z" fill="#ABB2D8"/>
<path d="M105.963 114.137H102.428V113.459C102.428 113.151 102.55 112.855 102.768 112.637C102.986 112.419 103.281 112.297 103.59 112.297H104.803C105.111 112.297 105.407 112.419 105.625 112.637C105.842 112.855 105.965 113.151 105.965 113.459V114.137H105.963Z" fill="#ABB2D8"/>
<path d="M109.5 114.137H105.965V113.459C105.965 113.151 106.088 112.855 106.306 112.637C106.523 112.419 106.819 112.297 107.127 112.297H108.338C108.646 112.297 108.942 112.419 109.16 112.637C109.378 112.855 109.5 113.151 109.5 113.459V114.137Z" fill="#ABB2D8"/>
<path d="M113.032 114.137H109.497V113.459C109.499 113.151 109.622 112.857 109.84 112.641C110.059 112.425 110.354 112.303 110.661 112.304H111.874C112.183 112.304 112.478 112.426 112.696 112.644C112.914 112.862 113.036 113.157 113.036 113.466V114.144L113.032 114.137Z" fill="#ABB2D8"/>
<path d="M78.822 116.019H116.293C117.088 116.019 117.732 115.375 117.732 114.58V114.577C117.732 113.782 117.088 113.138 116.293 113.138H78.822C78.0269 113.138 77.3824 113.782 77.3824 114.577V114.58C77.3824 115.375 78.0269 116.019 78.822 116.019Z" fill="#5D6295"/>
<path d="M88.4967 116.019H54.8227C54.1368 116.019 53.4706 115.79 52.9298 115.369C52.3889 114.947 52.0044 114.357 51.8372 113.692L45.2832 87.6203C45.1691 87.166 45.1601 86.6916 45.2569 86.2333C45.3537 85.775 45.5538 85.3448 45.8419 84.9755C46.1299 84.6061 46.4984 84.3073 46.9194 84.1018C47.3403 83.8963 47.8025 83.7895 48.2709 83.7896H77.9854C78.6712 83.7895 79.3374 84.0185 79.8783 84.4402C80.4192 84.8619 80.8037 85.4522 80.9709 86.1173L88.4967 116.019Z" fill="#D90429"/>
<path d="M45.281 87.6202L51.835 113.692C52.0029 114.357 52.3878 114.947 52.929 115.369C53.4701 115.791 54.1364 116.021 54.8227 116.022H88.4967L87.7712 113.14H61.171C60.4847 113.14 59.8181 112.91 59.2769 112.488C58.7357 112.066 58.3509 111.476 58.1833 110.81L51.6225 84.75C51.5445 84.4393 51.5148 84.1184 51.5344 83.7986H48.2687C47.8012 83.7989 47.34 83.9056 46.9199 84.1106C46.4998 84.3156 46.1319 84.6135 45.844 84.9817C45.5561 85.35 45.3558 85.7789 45.2583 86.2361C45.1607 86.6932 45.1685 87.1666 45.281 87.6202Z" fill="#5D6295"/>
<path d="M64.7807 102.453C65.7118 102.453 66.4666 101.698 66.4666 100.767C66.4666 99.8355 65.7118 99.0807 64.7807 99.0807C63.8496 99.0807 63.0947 99.8355 63.0947 100.767C63.0947 101.698 63.8496 102.453 64.7807 102.453Z" fill="#ABB2D8"/>
<path d="M62.5254 103.282C62.7915 103.698 63.1474 104.049 63.5671 104.309C63.9868 104.569 64.4595 104.732 64.9504 104.785C65.4414 104.839 65.938 104.781 66.4037 104.617C66.8695 104.453 67.2925 104.187 67.6417 103.838C67.9908 103.488 68.2573 103.065 68.4213 102.6C68.5853 102.134 68.6428 101.637 68.5895 101.146C68.5362 100.655 68.3734 100.183 68.1132 99.7631C67.8531 99.3434 67.502 98.9874 67.0861 98.7213C67.489 99.3555 67.6637 100.108 67.5814 100.855C67.4991 101.602 67.1648 102.298 66.6335 102.829C66.1022 103.361 65.4058 103.695 64.6589 103.777C63.9121 103.86 63.1596 103.685 62.5254 103.282Z" fill="#ABB2D8"/>
<path d="M130.657 191.119H150.03L152.005 186.14L127.132 182.235L130.657 191.119Z" fill="#A3142C"/>
<path d="M148.421 190.254C149.089 190.254 149.63 189.712 149.63 189.045C149.63 188.377 149.089 187.835 148.421 187.835C147.753 187.835 147.212 188.377 147.212 189.045C147.212 189.712 147.753 190.254 148.421 190.254Z" fill="#141334"/>
<path d="M148.491 190.254C148.978 190.254 149.372 189.859 149.372 189.372C149.372 188.885 148.978 188.491 148.491 188.491C148.004 188.491 147.609 188.885 147.609 189.372C147.609 189.859 148.004 190.254 148.491 190.254Z" fill="#D90429"/>
<path d="M148.482 189.948C148.522 189.952 148.561 189.952 148.6 189.948C148.75 189.939 148.89 189.873 148.993 189.764C149.096 189.654 149.153 189.51 149.153 189.36C149.153 189.21 149.096 189.065 148.993 188.956C148.89 188.846 148.75 188.78 148.6 188.771C148.56 188.771 148.521 188.775 148.482 188.785C148.614 188.813 148.732 188.886 148.816 188.991C148.901 189.096 148.947 189.226 148.947 189.361C148.947 189.495 148.901 189.626 148.816 189.731C148.732 189.836 148.614 189.908 148.482 189.937V189.948Z" fill="#A3142C"/>
<path d="M148.626 188.635C148.577 188.624 148.526 188.619 148.475 188.62C148.283 188.63 148.102 188.714 147.97 188.854C147.837 188.993 147.764 189.179 147.764 189.371C147.764 189.563 147.837 189.749 147.97 189.888C148.102 190.028 148.283 190.112 148.475 190.122C148.526 190.123 148.577 190.118 148.626 190.107C148.458 190.07 148.308 189.978 148.2 189.844C148.092 189.71 148.033 189.543 148.033 189.371C148.033 189.199 148.092 189.032 148.2 188.898C148.308 188.764 148.458 188.672 148.626 188.635Z" fill="#9DA5D1"/>
<path d="M65.1582 184.256L83.1388 191.463L86.8248 187.578L65.1898 174.698L65.1582 184.256Z" fill="#262344"/>
<path d="M82.5128 189.42C83.1806 189.42 83.7219 188.878 83.7219 188.211C83.7219 187.543 83.1806 187.001 82.5128 187.001C81.845 187.001 81.3037 187.543 81.3037 188.211C81.3037 188.878 81.845 189.42 82.5128 189.42Z" fill="#141334"/>
<path d="M82.5826 189.42C83.0694 189.42 83.464 189.025 83.464 188.538C83.464 188.051 83.0694 187.657 82.5826 187.657C82.0958 187.657 81.7012 188.051 81.7012 188.538C81.7012 189.025 82.0958 189.42 82.5826 189.42Z" fill="#D90429"/>
<path d="M82.583 189.112C82.6215 189.121 82.661 189.126 82.7005 189.126C82.8504 189.117 82.991 189.05 83.0938 188.941C83.1967 188.832 83.2539 188.687 83.2539 188.537C83.2539 188.387 83.1967 188.242 83.0938 188.133C82.991 188.024 82.8504 187.958 82.7005 187.948C82.6614 187.945 82.6221 187.945 82.583 187.948C82.7145 187.977 82.8322 188.05 82.9167 188.155C83.0011 188.26 83.0471 188.39 83.0471 188.525C83.0471 188.659 83.0011 188.79 82.9167 188.895C82.8322 188.999 82.7145 189.072 82.583 189.101V189.112Z" fill="#A3142C"/>
<path d="M82.7163 187.806C82.6666 187.795 82.6158 187.79 82.5649 187.79C82.3727 187.801 82.1919 187.885 82.0596 188.024C81.9273 188.164 81.8535 188.349 81.8535 188.542C81.8535 188.734 81.9273 188.919 82.0596 189.059C82.1919 189.199 82.3727 189.283 82.5649 189.293C82.6158 189.294 82.6666 189.288 82.7163 189.277C82.5482 189.241 82.3975 189.148 82.2895 189.014C82.1815 188.88 82.1225 188.714 82.1225 188.542C82.1225 188.37 82.1815 188.203 82.2895 188.069C82.3975 187.935 82.5482 187.842 82.7163 187.806Z" fill="#9DA5D1"/>
</svg>
