<svg width="898" height="607" viewBox="0 0 898 607" fill="none" xmlns="http://www.w3.org/2000/svg">
<g clip-path="url(#clip0_179_898)">
<path d="M888.329 1.13695e-08H281.329C279.017 0.00201788 276.8 0.921386 275.165 2.55627C273.531 4.19116 272.611 6.40796 272.609 8.72V228.13H419.509C423.486 228.135 427.299 229.717 430.111 232.529C432.923 235.341 434.504 239.153 434.509 243.13V428.76H888.329C889.59 428.76 890.836 428.486 891.98 427.958C893.125 427.43 894.142 426.659 894.959 425.7C895.029 425.625 895.092 425.545 895.149 425.46C895.67 424.824 896.091 424.112 896.399 423.35C896.838 422.302 897.062 421.176 897.059 420.04V8.72C897.057 6.40636 896.136 4.18836 894.499 2.5533C892.862 0.918243 890.643 -0.000117986 888.329 1.13695e-08Z" fill="#F2F2F2"/>
<path d="M895.806 34.9512H273.85V37.444H895.806V34.9512Z" fill="#CCCCCC"/>
<path d="M295.039 26.1766C299.169 26.1766 302.517 22.8284 302.517 18.6982C302.517 14.5679 299.169 11.2197 295.039 11.2197C290.908 11.2197 287.56 14.5679 287.56 18.6982C287.56 22.8284 290.908 26.1766 295.039 26.1766Z" fill="#CCCCCC"/>
<path d="M316.539 26.1766C320.669 26.1766 324.017 22.8284 324.017 18.6982C324.017 14.5679 320.669 11.2197 316.539 11.2197C312.409 11.2197 309.061 14.5679 309.061 18.6982C309.061 22.8284 312.409 26.1766 316.539 26.1766Z" fill="#CCCCCC"/>
<path d="M338.039 26.1766C342.17 26.1766 345.518 22.8284 345.518 18.6982C345.518 14.5679 342.17 11.2197 338.039 11.2197C333.909 11.2197 330.561 14.5679 330.561 18.6982C330.561 22.8284 333.909 26.1766 338.039 26.1766Z" fill="#CCCCCC"/>
<path d="M740.829 89.3799H428.829C425.381 89.3799 422.075 90.7495 419.637 93.1875C417.199 95.6255 415.829 98.9321 415.829 102.38C415.829 105.828 417.199 109.134 419.637 111.572C422.075 114.01 425.381 115.38 428.829 115.38H740.829C744.277 115.38 747.584 114.01 750.021 111.572C752.459 109.134 753.829 105.828 753.829 102.38C753.829 98.9321 752.459 95.6255 750.021 93.1875C747.584 90.7495 744.277 89.3799 740.829 89.3799ZM740.829 113.38H428.829C425.912 113.38 423.114 112.221 421.051 110.158C418.988 108.095 417.829 105.297 417.829 102.38C417.829 99.4625 418.988 96.6646 421.051 94.6017C423.114 92.5388 425.912 91.3799 428.829 91.3799H740.829C743.746 91.3799 746.544 92.5388 748.607 94.6017C750.67 96.6646 751.829 99.4625 751.829 102.38C751.829 105.297 750.67 108.095 748.607 110.158C746.544 112.221 743.746 113.38 740.829 113.38Z" fill="#CCCCCC"/>
<path d="M836.299 192.95H524.299C520.852 192.95 517.545 194.32 515.107 196.758C512.669 199.196 511.299 202.502 511.299 205.95C511.299 209.398 512.669 212.704 515.107 215.142C517.545 217.58 520.852 218.95 524.299 218.95H836.299C839.747 218.95 843.054 217.58 845.492 215.142C847.93 212.704 849.299 209.398 849.299 205.95C849.299 202.502 847.93 199.196 845.492 196.758C843.054 194.32 839.747 192.95 836.299 192.95Z" fill="white"/>
<path d="M836.299 240.95H524.299C520.852 240.95 517.545 242.32 515.107 244.758C512.669 247.196 511.299 250.502 511.299 253.95C511.299 257.398 512.669 260.704 515.107 263.142C517.545 265.58 520.852 266.95 524.299 266.95H836.299C839.747 266.95 843.054 265.58 845.492 263.142C847.93 260.704 849.299 257.398 849.299 253.95C849.299 250.502 847.93 247.196 845.492 244.758C843.054 242.32 839.747 240.95 836.299 240.95Z" fill="white"/>
<path d="M836.299 288.95H524.299C520.852 288.95 517.545 290.32 515.107 292.758C512.669 295.196 511.299 298.502 511.299 301.95C511.299 305.398 512.669 308.704 515.107 311.142C517.545 313.58 520.852 314.95 524.299 314.95H836.299C839.747 314.95 843.054 313.58 845.492 311.142C847.93 308.704 849.299 305.398 849.299 301.95C849.299 298.502 847.93 295.196 845.492 292.758C843.054 290.32 839.747 288.95 836.299 288.95Z" fill="white"/>
<path d="M473.879 171.45H331.859C328.813 171.454 325.893 172.665 323.739 174.819C321.585 176.973 320.373 179.894 320.369 182.94V228.13H322.369V182.94C322.373 180.424 323.374 178.013 325.153 176.234C326.932 174.455 329.344 173.454 331.859 173.45H473.879C476.396 173.452 478.808 174.453 480.587 176.232C482.367 178.011 483.367 180.424 483.369 182.94V324.96C483.367 327.476 482.367 329.889 480.587 331.668C478.808 333.447 476.396 334.448 473.879 334.45H434.509V336.45H473.879C476.926 336.448 479.847 335.237 482.002 333.082C484.156 330.928 485.367 328.007 485.369 324.96V182.94C485.367 179.893 484.156 176.972 482.002 174.817C479.847 172.663 476.926 171.452 473.879 171.45Z" fill="#CCCCCC"/>
<path d="M105.624 317.567C105.121 317.588 83.7135 316.103 83.167 316.085L85.0901 296.888L97.2834 296.521L120.583 253.365C117.352 247.203 121.328 239.027 128.184 237.767C141.998 234.627 146.743 256.36 132.887 259.252L113.615 311.985C113.01 313.619 111.921 315.029 110.493 316.027C109.065 317.024 107.366 317.562 105.624 317.567Z" fill="#FFB8B8"/>
<path d="M49.1841 327.455C28.8125 327.505 27.0242 296.718 47.441 294.548C101.429 291.286 94.5973 277.726 98.6973 317.723C98.8232 318.91 98.4733 320.098 97.7244 321.026C96.9755 321.955 95.8888 322.549 94.7027 322.677L50.9524 327.361C50.3651 327.424 49.7748 327.455 49.1841 327.455Z" fill="#D90429"/>
<path d="M44.535 230.115C72.5996 246.085 49.56 288.221 20.9723 273.217C-7.09136 257.247 15.9482 215.111 44.535 230.115Z" fill="#FFB8B8"/>
<path d="M70.0489 592.823L82.3079 592.822L88.1409 545.534L70.0469 545.535L70.0489 592.823Z" fill="#FFB8B8"/>
<path d="M67.4221 604.207L105.953 604.205C105.806 584.325 80.0346 590.053 67.4214 589.32L67.4221 604.207Z" fill="#2B2D42"/>
<path d="M17.0489 592.823L29.3079 592.822L35.1409 545.534L17.0469 545.535L17.0489 592.823Z" fill="#FFB8B8"/>
<path d="M14.4221 604.207L52.9528 604.205C52.8056 584.325 27.0346 590.053 14.4214 589.32L14.4221 604.207Z" fill="#2B2D42"/>
<path d="M30.9822 576.308C28.0192 575.495 11.9184 577.954 10.0182 574.726C3.38217 508.215 4.85728 443.123 19.5879 407.356L70.2361 404.255C81.5619 424.931 107.596 562.13 91.892 570.472L71.6975 571.192C70.546 571.229 69.4165 570.87 68.4989 570.173C67.5812 569.476 66.9313 568.485 66.6582 567.365L49.7634 471.248C45.5562 465.367 37.2861 572.473 35.9204 572.072C35.7424 573.253 35.1456 574.331 34.239 575.108C33.3325 575.886 32.1765 576.312 30.9822 576.308Z" fill="#2B2D42"/>
<path d="M17.9789 415.763C-7.59267 389.009 8.71853 317.284 7.89299 318.81C7.96305 317.053 13.755 289.994 28.7375 285.553C40.6242 281.63 53.7807 293.365 55.4035 305.233L73.2099 410.387C73.302 410.959 73.2583 411.545 73.0822 412.098C72.9061 412.65 72.6026 413.153 72.1962 413.567C73.0717 416.293 19.2308 415.217 17.9789 415.763Z" fill="#D90429"/>
<path d="M26.278 248.933C28.5237 247.514 29.6305 245.079 30.9377 242.861C37.8231 238.937 45.7384 248.43 53.0211 244.887C73.6138 225.118 52.4468 219.285 33.4806 218.243C29.0003 217.691 25.1889 219.28 21.8015 221.905C-16.0842 219.012 2.08529 269.388 25.9957 276.041C30.2174 277.89 33.3842 274.148 29.6613 270.746C24.5104 265.346 18.1296 254.476 26.278 248.933Z" fill="#2B2D42"/>
<path d="M419.509 226.13H145.509C141.003 226.136 136.682 227.929 133.496 231.116C130.309 234.303 128.516 238.623 128.509 243.13V589.13C128.516 593.637 130.309 597.957 133.496 601.144C136.682 604.33 141.003 606.124 145.509 606.13H419.509C424.016 606.124 428.336 604.33 431.523 601.144C434.71 597.957 436.503 593.637 436.509 589.13V243.13C436.503 238.623 434.71 234.303 431.523 231.116C428.336 227.929 424.016 226.136 419.509 226.13ZM434.509 589.13C434.504 593.107 432.923 596.919 430.111 599.731C427.299 602.543 423.486 604.125 419.509 604.13H145.509C141.533 604.125 137.72 602.543 134.908 599.731C132.096 596.919 130.514 593.107 130.509 589.13V243.13C130.514 239.153 132.096 235.341 134.908 232.529C137.72 229.717 141.533 228.135 145.509 228.13H419.509C423.486 228.135 427.299 229.717 430.111 232.529C432.923 235.341 434.504 239.153 434.509 243.13V589.13Z" fill="#3F3D56"/>
<path d="M68.3069 371.728C59.2763 372.751 55.3115 351.736 51.8589 346.381L69.8438 339.398L75.6958 350.101L124.724 351.32C125.015 350.925 125.333 350.551 125.676 350.199C135.399 340.019 151.234 355.273 141.547 365.432C140.479 366.567 139.181 367.463 137.741 368.061C136.301 368.659 134.751 368.944 133.192 368.899C131.633 368.854 130.102 368.479 128.699 367.799C127.295 367.119 126.052 366.15 125.051 364.954C123.84 365.041 69.4909 371.76 68.3069 371.728Z" fill="#FFB8B8"/>
<path d="M54.9876 361.697C51.9807 364.594 28.8969 323.923 27.2104 322.774C15.5461 304.644 43.0061 286.744 54.8714 304.776L78.8685 341.655C79.518 342.655 79.7441 343.873 79.4971 345.04C79.2501 346.207 78.5503 347.228 77.5511 347.88C76.4574 348.392 55.7594 362.798 54.9876 361.697Z" fill="#D90429"/>
<path d="M365.51 465.63H199.51C182.553 465.548 182.482 439.718 199.511 439.63H365.51C382.455 439.709 382.547 465.541 365.51 465.63Z" fill="#CCCCCC"/>
<path d="M365.51 513.63H199.51C182.553 513.548 182.482 487.718 199.511 487.63H365.51C382.455 487.709 382.547 513.541 365.51 513.63Z" fill="#CCCCCC"/>
<path d="M365.51 561.63H199.51C182.553 561.548 182.482 535.718 199.511 535.63H365.51C382.455 535.709 382.547 561.541 365.51 561.63Z" fill="#CCCCCC"/>
<path d="M427.509 258.13C422.367 258.13 417.34 256.605 413.064 253.748C408.789 250.891 405.456 246.831 403.488 242.08C401.521 237.329 401.006 232.101 402.009 227.058C403.012 222.014 405.488 217.381 409.124 213.745C412.761 210.109 417.393 207.633 422.437 206.629C427.48 205.626 432.708 206.141 437.459 208.109C442.21 210.077 446.271 213.409 449.127 217.685C451.984 221.961 453.509 226.988 453.509 232.13C453.501 239.023 450.76 245.632 445.885 250.506C441.011 255.38 434.403 258.122 427.509 258.13Z" fill="#D90429"/>
<path d="M439.509 231.13H428.509V218.63C428.509 218.365 428.404 218.11 428.216 217.923C428.029 217.735 427.774 217.63 427.509 217.63C427.244 217.63 426.99 217.735 426.802 217.923C426.615 218.11 426.509 218.365 426.509 218.63V231.13H415.509C415.244 231.13 414.99 231.235 414.802 231.423C414.615 231.61 414.509 231.865 414.509 232.13C414.509 232.395 414.615 232.649 414.802 232.837C414.99 233.025 415.244 233.13 415.509 233.13H426.509V245.63C426.509 245.895 426.615 246.149 426.802 246.337C426.99 246.525 427.244 246.63 427.509 246.63C427.774 246.63 428.029 246.525 428.216 246.337C428.404 246.149 428.509 245.895 428.509 245.63V233.13H439.509C439.774 233.13 440.029 233.025 440.216 232.837C440.404 232.649 440.509 232.395 440.509 232.13C440.509 231.865 440.404 231.61 440.216 231.423C440.029 231.235 439.774 231.13 439.509 231.13Z" fill="white"/>
<path d="M362.509 408.43H202.509C198.135 408.425 193.941 406.685 190.847 403.591C187.754 400.498 186.014 396.304 186.009 391.93V302.33C186.014 297.956 187.754 293.762 190.847 290.668C193.941 287.575 198.135 285.835 202.509 285.83H362.509C366.884 285.835 371.078 287.575 374.171 290.668C377.264 293.762 379.004 297.956 379.009 302.33V391.93C379.004 396.304 377.264 400.498 374.171 403.591C371.078 406.685 366.884 408.425 362.509 408.43Z" fill="#D90429"/>
</g>
<defs>
<clipPath id="clip0_179_898">
<rect width="897.059" height="606.13" fill="white"/>
</clipPath>
</defs>
</svg>
